<?xml version="1.0" encoding="UTF-8"?>
<svg id="Camada_1" xmlns="http://www.w3.org/2000/svg" xmlns:xlink="http://www.w3.org/1999/xlink" baseProfile="tiny" version="1.2" viewBox="0 0 2417.32 1270.68">
  <!-- Generator: Adobe Illustrator 30.1.0, SVG Export Plug-In . SVG Version: 2.1.1 Build 136)  -->
  <defs>
    <radialGradient id="Gradiente_sem_nome_8" data-name="Gradiente sem nome 8" cx="813.5" cy="1043.37" fx="813.5" fy="1043.37" r="383.9" gradientUnits="userSpaceOnUse">
      <stop offset="0" stop-color="#000" stop-opacity="0"/>
      <stop offset=".24" stop-color="#000002" stop-opacity="0"/>
      <stop offset=".36" stop-color="#010109" stop-opacity=".04"/>
      <stop offset=".45" stop-color="#040417" stop-opacity=".09"/>
      <stop offset=".53" stop-color="#070729" stop-opacity=".16"/>
      <stop offset=".6" stop-color="#0c0c42" stop-opacity=".26"/>
      <stop offset=".66" stop-color="#12125f" stop-opacity=".38"/>
      <stop offset=".72" stop-color="#181883" stop-opacity=".52"/>
      <stop offset=".78" stop-color="#2020ac" stop-opacity=".68"/>
      <stop offset=".83" stop-color="#2929da" stop-opacity=".86"/>
      <stop offset=".86" stop-color="#3030ff"/>
    </radialGradient>
    <radialGradient id="Gradiente_sem_nome_5" data-name="Gradiente sem nome 5" cx="813.5" cy="1036.93" fx="813.5" fy="1036.93" r="723.52" gradientUnits="userSpaceOnUse">
      <stop offset="0" stop-color="#000" stop-opacity="0"/>
      <stop offset=".24" stop-color="#000002" stop-opacity="0"/>
      <stop offset=".36" stop-color="#010109" stop-opacity=".04"/>
      <stop offset=".45" stop-color="#040417" stop-opacity=".09"/>
      <stop offset=".53" stop-color="#070729" stop-opacity=".16"/>
      <stop offset=".6" stop-color="#0c0c42" stop-opacity=".26"/>
      <stop offset=".66" stop-color="#12125f" stop-opacity=".38"/>
      <stop offset=".72" stop-color="#181883" stop-opacity=".52"/>
      <stop offset=".78" stop-color="#2020ac" stop-opacity=".68"/>
      <stop offset=".83" stop-color="#2929da" stop-opacity=".86"/>
      <stop offset=".86" stop-color="#3030ff"/>
      <stop offset=".89" stop-color="#3030ff"/>
    </radialGradient>
    <radialGradient id="Gradiente_sem_nome_81" data-name="Gradiente sem nome 8" cx="824.43" cy="1023.11" fx="824.43" fy="1023.11" r="1096.54" xlink:href="#Gradiente_sem_nome_8"/>
  </defs>
  <rect x="-10686.76" y="-13309.98" width="16397.75" height="16332.66"/>
  <g>
    <path d="M66.48,1165.5h37.24v5.51h-29.3v12.48h24.17v5.21h-24.17v13.3h29.62v5.51h-37.56v-42.01Z" fill="#2b2b2b"/>
    <path d="M133,1183.67c-1.46-1.39-3.6-2.08-6.43-2.08-2.15,0-4,.38-5.55,1.14s-2.74,1.83-3.56,3.19-1.23,2.95-1.23,4.75v16.85h-7.44v-30h7.44v6.21c1.07-2.3,2.77-4.09,5.1-5.36s5.17-1.9,8.53-1.9c4.22,0,7.4.99,9.55,2.97s3.22,4.82,3.22,8.51v19.57h-7.44v-17.84c0-2.62-.73-4.62-2.18-6.01Z" fill="#2b2b2b"/>
    <path d="M148.83,1177.51h7.21v6.86c.9-2.48,2.3-4.31,4.21-5.49s4.34-1.77,7.31-1.77c1.39,0,2.51.11,3.37.32v5.89c-1.29-.23-2.7-.35-4.22-.35-3.59,0-6.23.78-7.91,2.33s-2.52,3.89-2.52,7.02v15.21h-7.44v-30Z" fill="#2b2b2b"/>
    <path d="M174.93,1166.03h8.03v7h-8.03v-7ZM175.23,1177.51h7.44v30h-7.44v-30Z" fill="#2b2b2b"/>
    <path d="M192.35,1204.51c-3.13-2.72-4.7-6.59-4.7-11.59v-.82c0-5,1.56-8.86,4.69-11.59s7.82-4.09,14.09-4.09c3.87,0,7.08.51,9.64,1.54s4.46,2.45,5.71,4.26,1.93,3.93,2.05,6.33h-7.62c-.29-2.3-1.24-4.09-2.86-5.35s-3.91-1.89-6.9-1.89c-3.59,0-6.35.92-8.26,2.77s-2.87,4.47-2.87,7.87v1.08c0,3.42.96,6.05,2.87,7.9s4.68,2.77,8.29,2.77c3.07,0,5.45-.67,7.15-2.02s2.66-3.18,2.87-5.51h7.65c-.08,2.46-.75,4.62-2.02,6.49s-3.2,3.32-5.8,4.37-5.86,1.57-9.79,1.57c-6.33,0-11.06-1.36-14.19-4.09Z" fill="#2b2b2b"/>
    <path d="M253.23,1183.67c-1.46-1.39-3.6-2.08-6.43-2.08-2.15,0-4,.38-5.55,1.14s-2.74,1.83-3.56,3.19-1.23,2.95-1.23,4.75v16.85h-7.44v-42.01h7.44v18.22c1.07-2.3,2.77-4.09,5.1-5.36s5.17-1.9,8.53-1.9c4.22,0,7.4.99,9.55,2.97s3.22,4.82,3.22,8.51v19.57h-7.44v-17.84c0-2.62-.73-4.62-2.18-6.01Z" fill="#2b2b2b"/>
  </g>
  <g>
    <rect x="807.07" y="728.09" width="308.84" height="308.84" fill="url(#Gradiente_sem_nome_8)"/>
    <rect x="807.07" y="498.8" width="538.13" height="538.13" fill="url(#Gradiente_sem_nome_5)"/>
    <rect x="807.07" y="233.75" width="803.19" height="803.19" fill="url(#Gradiente_sem_nome_81)"/>
  </g>
</svg>