<?xml version="1.0" encoding="utf-8"?>
<!-- Generator: Adobe Illustrator 30.1.0, SVG Export Plug-In . SVG Version: 9.03 Build 0)  -->
<svg version="1.1" baseProfile="basic" id="Camada_1"
	 xmlns="http://www.w3.org/2000/svg" xmlns:xlink="http://www.w3.org/1999/xlink" x="0px" y="0px" viewBox="0 0 4116.34 1292.07"
	 xml:space="preserve">
<style type="text/css">
	.st0{fill:url(#SVGID_1_);}
	.st1{fill:#FFFFFF;}
	.st2{clip-path:url(#SVGID_00000080192689821144327870000017737472295734499991_);}
	.st3{fill:url(#SVGID_00000019656680987404153750000001279841673082886023_);}
	.st4{fill:url(#SVGID_00000148620929650488609570000002340318179877749692_);}
	.st5{fill:url(#SVGID_00000021099625235152537940000007993658731426405250_);}
	.st6{fill:url(#SVGID_00000113339228537700592300000016048482518428031371_);}
	.st7{fill:url(#SVGID_00000039114091349417881570000016220373598360901006_);}
	.st8{fill:url(#SVGID_00000105401680309427669340000012636891260635196846_);}
	.st9{fill-rule:evenodd;clip-rule:evenodd;fill:#FFFFFF;}
	.st10{fill:url(#SVGID_00000037684207355167399810000006150553449635778176_);}
	.st11{fill:url(#SVGID_00000183965893525125295420000003896051146653646478_);}
	.st12{fill:url(#SVGID_00000128462221079599016470000010320966987824194724_);}
	.st13{fill:url(#SVGID_00000040574075009838875170000013624752540250609295_);}
	.st14{fill:url(#SVGID_00000157283635763884211920000010815279661439578270_);}
	.st15{fill:url(#SVGID_00000062152089977016164880000015104270304373274497_);}
	.st16{fill:url(#SVGID_00000183957813800493830920000004516061286203680386_);}
	.st17{fill:url(#SVGID_00000152259153367944488930000005291122448890528394_);}
	.st18{fill:url(#SVGID_00000142858631048255675180000005519014241815700134_);}
	.st19{fill:#3030FF;}
	.st20{fill:url(#SVGID_00000085215209376615394810000002763034710434071216_);}
	.st21{fill:url(#SVGID_00000005255685891686319480000010334862299380924342_);}
	.st22{fill:url(#SVGID_00000121997803786462498870000011617943127629704363_);}
	.st23{fill:url(#SVGID_00000013161824507556038630000013816365510217977998_);}
	.st24{fill:url(#SVGID_00000130646595423068690550000013551069676289888658_);}
	.st25{fill:url(#SVGID_00000020371373392876266130000004550200787367570086_);}
	.st26{fill:url(#SVGID_00000052093725985095459160000000863753867875995581_);}
	.st27{fill:url(#SVGID_00000045604941290098116080000018318595809918705310_);}
	.st28{fill:url(#SVGID_00000065070872862229618300000017335867337530234025_);}
	.st29{fill:url(#SVGID_00000171721738186892710950000013449698063283409042_);}
	.st30{fill:url(#SVGID_00000112592306158078550590000000118397032376242872_);}
	.st31{fill:url(#SVGID_00000144337760735457788760000011043732841774820785_);}
	.st32{fill:url(#SVGID_00000153698352822347526230000015129296346405114508_);}
	.st33{fill:none;stroke:#3030FF;stroke-width:3;stroke-miterlimit:10;}
	.st34{fill:url(#SVGID_00000139999798714035546060000004695815108991833752_);}
	.st35{fill:url(#SVGID_00000053547634249492338600000016306570148411146383_);}
	.st36{fill:url(#SVGID_00000064349182385967028660000010125388348972597180_);}
	.st37{fill:url(#SVGID_00000045605282219624459720000010967254474673188749_);}
	.st38{fill:url(#SVGID_00000117662603333236518220000009869901175422118052_);}
	.st39{fill:url(#SVGID_00000151518787889620758620000001355819350041591476_);}
	.st40{fill:url(#SVGID_00000022549143523362096530000005882476406143166356_);}
	.st41{fill:url(#SVGID_00000040550543340793668000000011161922261485048200_);}
	.st42{fill:url(#SVGID_00000127749193384703378300000015012845279554974899_);}
	.st43{fill:url(#SVGID_00000018922703359702033180000012174612558573343399_);}
	.st44{fill:url(#SVGID_00000066473429162544319920000000644752854279022523_);}
	.st45{fill:url(#SVGID_00000154389397256181277640000017375684740314497705_);}
	.st46{fill:url(#SVGID_00000013194117201926288010000000420013279207297709_);}
	.st47{fill:url(#SVGID_00000027603755558943146510000000371944732237926282_);}
	.st48{fill:url(#SVGID_00000090974738578674024870000013913684048165931918_);}
	.st49{fill:url(#SVGID_00000145060934035450412950000005388847310774642824_);}
	.st50{fill:url(#SVGID_00000135666874088077651680000013810398181899331477_);}
	.st51{fill:url(#SVGID_00000116925300817631804130000012027625761227165601_);}
	.st52{fill:#3030FF;stroke:#3030FF;stroke-width:2;stroke-miterlimit:10;}
	.st53{fill:none;stroke:#FFFFFF;stroke-miterlimit:10;}
	.st54{fill:url(#SVGID_00000082337211958517074280000002411605055386194364_);}
	.st55{fill:url(#SVGID_00000176755477666266809720000009726532210156543629_);}
	.st56{fill:url(#SVGID_00000145766335856841511860000016930776304785565590_);}
	.st57{fill:url(#SVGID_00000152971624970105979850000013975192427577835154_);}
	.st58{fill:url(#SVGID_00000079453895929513036300000012548781940215786664_);}
	.st59{fill:url(#SVGID_00000011745467763653113860000005654971159135212959_);}
	.st60{fill:none;stroke:#3030FF;stroke-width:3.2003;stroke-miterlimit:10;}
	.st61{fill:url(#SVGID_00000040566078929221773030000006680796825796843682_);}
	.st62{fill:url(#SVGID_00000181050421536703177530000003183795186887794599_);}
	.st63{fill:url(#SVGID_00000171717757268291192620000015416364795368607397_);}
	.st64{fill:url(#SVGID_00000140736631903700097150000007546692990923796648_);}
	.st65{fill:url(#SVGID_00000130614369626751104440000017445903775015366328_);}
	.st66{fill:url(#SVGID_00000039095540213676135890000000386555786073959051_);}
	.st67{fill:url(#SVGID_00000077287816530425681600000003339436795846672287_);}
	.st68{fill:url(#SVGID_00000182510282648793794920000002861356425725252752_);}
	.st69{fill:url(#SVGID_00000060025685056913198580000002480518342155603378_);}
	.st70{fill:url(#SVGID_00000163058640036922331700000003358603693473250990_);}
	.st71{fill:url(#SVGID_00000028310025302536793510000012435529035818917797_);}
	.st72{fill:url(#SVGID_00000112600105582210684350000001530323437476702654_);}
	.st73{fill:url(#SVGID_00000068675661192516184160000005668542302272184198_);}
	.st74{fill:url(#SVGID_00000101105264876766805780000011990516071239734939_);}
	.st75{fill:url(#SVGID_00000104683148159712584370000000148086286189938822_);}
	.st76{fill:url(#SVGID_00000183216888831752775010000015461269157502761398_);}
	.st77{fill:url(#SVGID_00000086676876752894997290000012827155378656243612_);}
	.st78{fill:url(#SVGID_00000051378244903021716650000006077577436411918014_);}
	.st79{fill:url(#SVGID_00000066489055842644901820000004073214303079072939_);}
	.st80{fill:url(#SVGID_00000066498108804683174180000009890563600414437015_);}
	.st81{fill:url(#SVGID_00000137100861544732824660000008777251375052257927_);}
	.st82{fill:url(#SVGID_00000109746358692596191670000007438004390068075190_);}
	.st83{fill:url(#SVGID_00000006690195941645893030000005950079089832877485_);}
	.st84{fill:url(#SVGID_00000152963412026298422320000006900630755439496367_);}
	.st85{fill:none;stroke:#3030FF;stroke-width:7.973;stroke-miterlimit:10;}
	.st86{fill:url(#SVGID_00000000911771549046621290000001419531225758436746_);}
	.st87{fill:url(#SVGID_00000146478082101300928610000012914043560351608455_);}
	.st88{fill:#2B2B2B;}
	.st89{fill:url(#SVGID_00000159453033713087484730000011088773693607726781_);}
	.st90{fill:url(#SVGID_00000032622780148403679240000015672669015683551927_);}
	.st91{fill:url(#SVGID_00000111869624208299341710000004054662595408455562_);}
	.st92{fill:url(#SVGID_00000170246045926796421680000008533953476527323811_);}
	.st93{fill:#3030FF;stroke:#3030FF;stroke-width:1.3238;stroke-miterlimit:10;}
	.st94{fill:url(#SVGID_00000054226305202456003810000016263945973090427827_);}
	.st95{fill:url(#SVGID_00000045585427264215799770000005268250113618687403_);}
	.st96{fill:none;stroke:#3030FF;stroke-width:1.9299;stroke-miterlimit:10;}
	.st97{fill:url(#SVGID_00000111895495724804505530000018254647064392464783_);}
	.st98{fill:url(#SVGID_00000127009057796456328990000006370036955482504875_);}
	.st99{fill:url(#SVGID_00000150063623023302426040000007387812518419186072_);}
	.st100{fill:url(#SVGID_00000022547142125153261270000012405345595789786802_);}
	.st101{fill:url(#SVGID_00000067225796439383837260000011995162082818516378_);}
	.st102{fill:url(#SVGID_00000125573127611561953020000012909778826989238925_);}
	.st103{fill:url(#SVGID_00000114032074068911589870000011050017669523746974_);}
	.st104{fill:url(#SVGID_00000114053292746890081630000000921594092956256191_);}
	.st105{fill:url(#SVGID_00000053504357188595039610000002548674839167198864_);}
	.st106{fill:url(#SVGID_00000075859174433620416030000002981139734598970799_);}
	.st107{fill:url(#SVGID_00000089559717540263474270000015181898854845677453_);}
	.st108{fill:url(#SVGID_00000095317040408545431530000015286077802659814789_);}
	.st109{fill:url(#SVGID_00000121248438042321810930000012205223258161015974_);}
	.st110{fill:url(#SVGID_00000055673116935152929380000003457074243458225814_);}
	.st111{fill:url(#SVGID_00000029040213907709612690000018433734410316053946_);}
	.st112{fill:url(#SVGID_00000029014743022419731000000017212872609538178212_);}
	.st113{fill:none;stroke:#3030FF;stroke-width:2.0587;stroke-miterlimit:10;}
	.st114{fill:url(#SVGID_00000154394774135013051680000001211477515705567364_);}
	.st115{fill:url(#SVGID_00000115506785474751566840000014580482981015530134_);}
	.st116{fill:url(#SVGID_00000013906026728645637740000005278391069049639857_);}
	.st117{fill:url(#SVGID_00000109020369199031512150000008429540324176442007_);}
	.st118{fill:url(#SVGID_00000010999092843427689010000006841318879361813637_);}
	.st119{fill:url(#SVGID_00000080203868920395807740000002628105928382817964_);}
	
		.st120{clip-path:url(#SVGID_00000035492083832594223890000000251362552520180667_);fill:url(#SVGID_00000121979621049282831180000010189977456831975084_);}
	.st121{clip-path:url(#SVGID_00000144298708447702383880000002877460556708697743_);}
	.st122{fill-rule:evenodd;clip-rule:evenodd;}
	.st123{clip-path:url(#SVGID_00000048460136435824757760000014456981752775097266_);}
	.st124{fill:url(#SVGID_00000060726952693469296370000017350874718154229174_);}
	.st125{fill:url(#SVGID_00000131327811419169760520000017715697078242621063_);}
	.st126{fill:url(#SVGID_00000009578407885778775300000009136787893431474582_);}
	.st127{fill:url(#SVGID_00000065065641895206061490000010725502130066560645_);}
	.st128{clip-path:url(#SVGID_00000088812964147167939660000008933997945163557053_);}
	.st129{fill:url(#SVGID_00000160908766579022489630000006323390973056373634_);}
	.st130{fill:url(#SVGID_00000094593681453686539470000001502282638591020703_);}
	.st131{fill:url(#SVGID_00000008117678035131807640000004427296469309594536_);}
	.st132{fill:url(#SVGID_00000062166025365587829010000007417545726379053238_);}
	.st133{fill:url(#SVGID_00000088834647518232956670000016746985004566250387_);}
	.st134{fill:url(#SVGID_00000045590775600009953350000007296370421153545370_);}
	.st135{fill:url(#SVGID_00000034782398863671398430000008849072188612547486_);}
	
		.st136{clip-path:url(#SVGID_00000008110641745948322100000017417648210973734310_);fill:url(#SVGID_00000089548509718492354190000007319690833687730833_);}
	.st137{fill:none;stroke:#FFFFFF;stroke-width:12.6291;stroke-miterlimit:10;}
	.st138{fill:none;stroke:#3030FF;stroke-width:1.4767;stroke-linecap:round;stroke-linejoin:round;}
	.st139{fill:url(#SVGID_00000043438874616200286340000002374487613866798731_);}
	.st140{fill:url(#SVGID_00000075158786709309190900000005926883473569839280_);}
	.st141{fill:url(#SVGID_00000072998259823527848840000015753243383665631880_);}
	.st142{fill:none;stroke:#FFFFFF;stroke-width:0.8399;stroke-linecap:round;stroke-linejoin:round;}
	.st143{fill:url(#SVGID_00000114055929249570930940000012886306119951457699_);}
	.st144{fill:url(#SVGID_00000111150256150849995410000004308154929957874082_);}
	.st145{fill:url(#SVGID_00000132083023733614292360000014239484994519426694_);}
	.st146{fill:url(#SVGID_00000016759169222433994790000014924795363170306997_);}
	.st147{stroke:#3030FF;stroke-width:2;stroke-miterlimit:10;}
	.st148{fill:none;stroke:#3030FF;stroke-width:2;stroke-miterlimit:10;}
	.st149{fill:none;stroke:#3030FF;stroke-width:0.9845;stroke-miterlimit:10;}
	.st150{clip-path:url(#SVGID_00000180341824005009409370000015169952553171467923_);}
	.st151{fill-rule:evenodd;clip-rule:evenodd;stroke:#000000;stroke-width:0.9887;stroke-miterlimit:10;}
	.st152{fill-rule:evenodd;clip-rule:evenodd;fill:#FFFFFF;stroke:#000000;stroke-width:0.6244;stroke-miterlimit:10;}
	.st153{stroke:#3030FF;stroke-width:3.27;stroke-miterlimit:10;}
	.st154{fill:url(#SVGID_00000023273000271294775880000011831077001331101585_);}
	.st155{fill:url(#SVGID_00000109743856372237500820000010282819050406445440_);}
	.st156{fill:url(#SVGID_00000183240019577959638160000014988999479638665635_);}
	.st157{fill:url(#SVGID_00000152239728749378350130000000637556919573877640_);}
	.st158{fill:url(#SVGID_00000132777110462136977040000018419988315244018095_);}
	.st159{fill:url(#SVGID_00000129893514702828772640000008499723286765295789_);}
	.st160{fill:url(#SVGID_00000183927486613656892480000000700620178602583690_);}
	.st161{fill:url(#SVGID_00000013879144097724124160000009284138274458267070_);}
	.st162{fill:url(#SVGID_00000163752400136851426550000016421800981674176676_);}
	.st163{fill:url(#SVGID_00000142887382616448019770000007240732672632801954_);}
	.st164{fill:url(#SVGID_00000003092374404538831980000010284816178388212393_);}
	.st165{fill:url(#SVGID_00000004513444628969179240000010806592282616914838_);}
	.st166{fill:url(#SVGID_00000082347430728900494310000007688300531962762677_);}
	.st167{fill:url(#SVGID_00000094611027077380848860000000560089323373163940_);}
	.st168{fill:url(#SVGID_00000049935259765247798220000018072068920649126036_);}
	.st169{fill:url(#SVGID_00000085961466103436311150000009174016244108944061_);}
	.st170{fill:url(#SVGID_00000112625668587315555020000009744766815595357839_);}
	.st171{fill:url(#SVGID_00000171698146646949546630000010753716505723573136_);}
	.st172{fill:url(#SVGID_00000108281784065014403660000011290156461142843541_);}
	.st173{fill:url(#SVGID_00000024683227133407658060000000372831405608030900_);}
	.st174{fill:url(#SVGID_00000053541992751570211940000001863460545001198519_);}
	.st175{fill:url(#SVGID_00000094619175747508646150000018238559012863480248_);}
	.st176{fill:url(#SVGID_00000063600027853800983500000012644219756422317231_);}
	.st177{fill:url(#SVGID_00000130606788716817831040000002857355351081113264_);}
	.st178{fill:url(#SVGID_00000119840523744760130510000014770350956281810050_);}
	.st179{fill:url(#SVGID_00000145738933353031424700000011685147346183058590_);}
	.st180{fill:url(#SVGID_00000168097018701545822910000015207954239060283022_);}
	.st181{fill:url(#SVGID_00000052803024675619055750000015708510358276644516_);}
	.st182{fill:url(#SVGID_00000093138479006648834280000014766813622740442778_);}
	.st183{fill:url(#SVGID_00000004511422230417752490000015815443317637332372_);}
	.st184{fill:url(#SVGID_00000142166611047324352910000002727537974954468020_);}
	.st185{fill:url(#SVGID_00000121249578951182115370000004063892653115810994_);}
	.st186{fill:url(#SVGID_00000162335686610244852350000004009106396610795173_);}
	.st187{clip-path:url(#SVGID_00000061454459445108720310000000562531925276788107_);}
	.st188{fill:#3030FF;stroke:#3030FF;stroke-width:1.9106;stroke-miterlimit:10;}
	.st189{fill:none;stroke:#000000;stroke-width:22;stroke-miterlimit:10;}
	.st190{fill:url(#SVGID_00000042730800723004087750000005223484869650336178_);}
	.st191{fill:#0073FF;}
	.st192{fill:#FF6F91;}
	.st193{fill:#E075FF;}
	.st194{fill:#EDEEF3;}
	.st195{fill:none;stroke:#EDEEF3;stroke-width:0.7369;stroke-miterlimit:10;}
	.st196{clip-path:url(#SVGID_00000158751552434062626410000005842556747519644554_);}
	.st197{fill:url(#SVGID_00000134241439796481274960000005210184530156101541_);}
	.st198{fill:none;stroke:#3030FF;stroke-width:6.7505;stroke-miterlimit:10;}
	.st199{fill:url(#SVGID_00000096025705237387971530000008326083285122190235_);}
	.st200{fill:url(#SVGID_00000037672314421131918340000011357142098666662037_);}
	.st201{clip-path:url(#SVGID_00000088091900317676142030000004702452778464776887_);}
	.st202{fill:url(#SVGID_00000098220554748028576180000001429099965165907586_);}
	.st203{fill:url(#SVGID_00000058571856220269988550000009879021407242610613_);}
	.st204{fill:url(#SVGID_00000043434077098775679160000004989334336734906524_);}
	.st205{fill:url(#SVGID_00000092416059993968134000000004727147067491682961_);}
	.st206{fill:url(#SVGID_00000047745294997954427930000018080103398114131883_);}
	.st207{fill:url(#SVGID_00000090997646485073561160000005962368602273526408_);}
	
		.st208{clip-path:url(#SVGID_00000170260571959262780860000007350772209703914136_);fill:url(#SVGID_00000011743426145766745760000012776155672546682027_);}
	
		.st209{clip-path:url(#SVGID_00000170260571959262780860000007350772209703914136_);fill:url(#SVGID_00000183929037918394668760000005704078925228789893_);}
	.st210{clip-path:url(#SVGID_00000008132879355171127140000017876342376122386829_);}
	.st211{fill:url(#SVGID_00000145753740828694046340000007518203224758548133_);}
	.st212{fill:url(#SVGID_00000031208445203735647180000005991206879069772731_);}
	.st213{fill:url(#SVGID_00000101789274309916371470000004355221024346914714_);}
	.st214{fill:url(#SVGID_00000077293457387337161820000005799162156114435483_);}
	.st215{fill:url(#SVGID_00000011012639322592649320000010057451176981040575_);}
	.st216{fill:url(#SVGID_00000039836103414288619550000008457729492166461609_);}
	.st217{fill:none;stroke:#FFFFFF;stroke-width:1.4827;stroke-miterlimit:10;}
	.st218{clip-path:url(#SVGID_00000030478526249423607620000009299413954670786215_);}
	.st219{fill:url(#SVGID_00000181081747401051147660000003438573755261769400_);}
	.st220{fill:url(#SVGID_00000034790155624928909290000002057144667695851911_);}
	.st221{fill:url(#SVGID_00000122710567227341949320000000030269293573841817_);}
	.st222{fill:url(#SVGID_00000003062979148404500510000009418746070045811076_);}
	.st223{stroke:#FF6F91;stroke-width:2;stroke-miterlimit:10;}
	.st224{fill:none;stroke:#FF6F91;stroke-width:2;stroke-miterlimit:10;}
	.st225{stroke:#E075FF;stroke-width:2;stroke-miterlimit:10;}
	.st226{fill:none;stroke:#E075FF;stroke-width:2;stroke-miterlimit:10;}
	.st227{stroke:#0073FF;stroke-width:2;stroke-miterlimit:10;}
	.st228{fill:none;stroke:#0073FF;stroke-width:2;stroke-miterlimit:10;}
	.st229{fill:url(#SVGID_00000090268032231618803650000014658690047330946733_);}
	.st230{fill:url(#SVGID_00000168813820152927598780000001111426388082682529_);}
	.st231{fill:url(#SVGID_00000151535289993678023520000001398847794923565237_);}
	.st232{fill:url(#SVGID_00000130640186852790018460000001866022097529494153_);}
	.st233{fill:url(#SVGID_00000083073792207699370750000011433727486409366462_);}
	.st234{fill:url(#SVGID_00000075132917558159420270000006598236311254059171_);}
	.st235{fill:url(#SVGID_00000082331801086774777620000012836048192348964775_);}
	.st236{fill:url(#SVGID_00000150088790171848521980000001717253301958338462_);}
	.st237{fill:url(#SVGID_00000083083045458375127630000008405673925316398512_);}
	.st238{fill:url(#SVGID_00000027568797821511019800000003668403901562760368_);}
	.st239{fill:url(#SVGID_00000137819902533951282180000011716259911865265537_);}
	.st240{fill:url(#SVGID_00000181790081756194948480000011401893793421805463_);}
	.st241{fill:url(#SVGID_00000029749579304759361630000001760853805179070878_);}
	.st242{fill:url(#SVGID_00000141419043247963403700000015711881775255578554_);}
	.st243{fill:url(#SVGID_00000009568478552479890600000001129056729236114591_);}
	.st244{fill:url(#SVGID_00000019668812934154012990000014500047328847826312_);}
	.st245{fill:url(#SVGID_00000146500300303740370470000013262445892520754579_);}
	.st246{fill:url(#SVGID_00000031191734507020527530000006777164920024231815_);}
	.st247{fill:none;stroke:#3030FF;stroke-width:1.4271;stroke-miterlimit:10;}
	.st248{fill:url(#SVGID_00000049216947703096046360000011150361060277778591_);}
	.st249{fill:url(#SVGID_00000026126837516706292640000016406450072948100517_);}
	.st250{fill:#302DF9;}
	.st251{fill:url(#SVGID_00000019672956670713407220000001394495851821298346_);}
	.st252{fill:url(#SVGID_00000031911973513254101580000015744511319188925618_);}
	.st253{fill:url(#SVGID_00000057145851030856432260000012189767023271698856_);}
	.st254{fill:url(#SVGID_00000111188983993870570650000004926749167492198826_);}
	.st255{fill:url(#SVGID_00000063626723548420944570000009903071124680422576_);}
	.st256{fill:url(#SVGID_00000173121474641598344920000017309702230621415862_);}
	.st257{fill:none;stroke:#3030FF;stroke-width:1.3699;stroke-miterlimit:10;}
	.st258{fill:url(#SVGID_00000070103777918644392500000007306946731942209207_);}
	.st259{fill:url(#SVGID_00000049931445374054966390000001477769476647456938_);}
	.st260{fill:url(#SVGID_00000127740328331065684760000010508239642400143247_);}
	.st261{fill:url(#SVGID_00000155855176598447322150000016651106025998638746_);}
	.st262{fill:url(#SVGID_00000031893224907343562630000015255456386616414876_);}
	.st263{fill:url(#SVGID_00000010290191643397669380000000890132570563892403_);}
	.st264{fill:url(#SVGID_00000168089713393943304120000011367299691915338386_);}
	.st265{fill:url(#SVGID_00000120539149591640972290000017969606005443028634_);}
	.st266{fill:url(#SVGID_00000165232279165991600450000003532083162890073022_);}
	.st267{fill:url(#SVGID_00000099628002712135436290000001678969561223596675_);}
	.st268{fill:url(#SVGID_00000172399104616547952150000008427353021426963343_);}
	.st269{fill:url(#SVGID_00000073720302028024439620000003462023689855967111_);}
	.st270{fill:url(#SVGID_00000114754285182980850020000003113143417648496542_);}
	.st271{fill:url(#SVGID_00000004503731499166130940000007389300261765861278_);}
	.st272{fill:url(#SVGID_00000020386788540878911140000014926769021298488203_);}
	.st273{fill:url(#SVGID_00000165211179359457286250000015947608958081997453_);}
	.st274{fill:none;stroke:#3030FF;stroke-width:1.4613;stroke-miterlimit:10;}
	.st275{fill:url(#SVGID_00000141447893876024148260000003821213092735723709_);}
	.st276{fill:url(#SVGID_00000019649275125106551950000010571058653277917574_);}
	.st277{fill:url(#SVGID_00000090279855831784279060000002082166948633331121_);}
	.st278{fill:url(#SVGID_00000086653359153104667190000013650839245913979314_);}
	.st279{fill:url(#SVGID_00000094618434406253121950000004364839831102317461_);}
	.st280{fill:url(#SVGID_00000145050744381980239260000005319108044736304515_);}
	.st281{fill:#3030FF;stroke:#3030FF;stroke-width:0.958;stroke-miterlimit:10;}
	.st282{fill:none;stroke:#2B2B2B;stroke-miterlimit:10;}
	.st283{fill:none;stroke:#C25BA2;stroke-width:10;stroke-miterlimit:10;}
	.st284{fill:url(#SVGID_00000109712255073450207380000002574663505738962100_);}
	.st285{fill:url(#SVGID_00000129173050745628785610000007407376232381233845_);}
	.st286{fill:url(#SVGID_00000006697547603307462350000012457252460796847541_);}
	.st287{fill:url(#SVGID_00000044882169766095297190000012290239741953209999_);}
	.st288{fill:url(#SVGID_00000138571593732388223120000013085168780201350826_);}
	.st289{fill:url(#SVGID_00000148638170308776576030000012280491043517692051_);}
	.st290{fill:url(#SVGID_00000155853503674229226610000001492163907247638146_);}
	.st291{fill:url(#SVGID_00000080922033930387120870000000286579750076648084_);}
	.st292{fill:url(#SVGID_00000049189681253795982330000017719101594110892694_);}
	.st293{fill:url(#SVGID_00000088813902636950994770000007470034345220920985_);}
	.st294{fill:url(#SVGID_00000073685451635208001940000006500307868828704930_);}
	.st295{fill:url(#SVGID_00000051351209213928601900000008962220125175160993_);}
	.st296{fill:url(#SVGID_00000039820199518149417150000002919501630546588049_);}
	.st297{fill:url(#SVGID_00000034771757790792505830000003538167009847368329_);}
	.st298{fill:none;stroke:#3030FF;stroke-width:4.9484;stroke-miterlimit:10;}
	.st299{fill:url(#SVGID_00000065785014328836906180000008382832989374912399_);}
	.st300{fill:url(#SVGID_00000033328469020039903110000003583843695425538472_);}
	.st301{fill:url(#SVGID_00000171706862871606220260000005664703516903292836_);}
	.st302{fill:url(#SVGID_00000105399360115175050720000012225092153911865732_);}
	.st303{fill:url(#SVGID_00000132800451308144096040000008852829638680790151_);}
	.st304{fill:url(#SVGID_00000093886162516951365760000017415751027910602888_);}
	.st305{fill:url(#SVGID_00000058572811727434417960000012469862387139173001_);}
	.st306{fill:url(#SVGID_00000047041154095429635230000005853588261675507603_);}
	.st307{fill:url(#SVGID_00000016778307810640639660000015040033000432309154_);}
	.st308{fill:url(#SVGID_00000013184383231467965450000014163865084139023805_);}
	.st309{fill:url(#SVGID_00000169547824948447068070000007509914108981980337_);}
	.st310{fill:url(#SVGID_00000134931576087187963880000011830691440445862300_);}
	.st311{fill:url(#SVGID_00000069387818975183175760000013796526337177901221_);}
	.st312{fill:url(#SVGID_00000016049146184406290610000006139158849133854603_);}
	.st313{fill:url(#SVGID_00000101099925671018778430000016852943418837130682_);}
	.st314{fill:url(#SVGID_00000124857954342009609210000008455057824488864433_);}
	.st315{fill:url(#SVGID_00000068657209485468654340000016766588085237726649_);}
	.st316{fill:url(#SVGID_00000044168862942248493370000008236581670874329737_);}
	.st317{fill:url(#SVGID_00000044146381234832828530000001974708853169506710_);}
	.st318{fill:url(#SVGID_00000123438496374465638200000010854764064715626637_);}
	.st319{fill:url(#SVGID_00000039112845656117576940000015517161172351730597_);}
	.st320{fill:url(#SVGID_00000043459012479151933300000007374644131789993856_);}
	.st321{fill:url(#SVGID_00000155121934051963275430000000901553246413203125_);}
	.st322{fill:url(#SVGID_00000077310754980759266820000008503802906885948589_);}
	.st323{fill:url(#SVGID_00000103945647821356589610000012499958684703837629_);}
	.st324{fill:url(#SVGID_00000034778039567956077980000012741308112353782183_);}
	.st325{fill:url(#SVGID_00000063594437481687734120000003650645781735885233_);}
	.st326{fill:url(#SVGID_00000151527096123974474350000007774666166189186206_);}
	.st327{fill:url(#SVGID_00000035532221194768956660000002256179359258014339_);}
	.st328{fill:url(#SVGID_00000116919598650202455430000005709831286303466117_);}
	.st329{fill:url(#SVGID_00000178898017367896523390000013684771319672529302_);}
	.st330{fill:url(#SVGID_00000047023846954824893490000003659599819817943716_);}
	.st331{fill:url(#SVGID_00000121978536787808165360000009391702998794703254_);}
	.st332{fill:url(#SVGID_00000142898675677201076350000000670441612322314123_);}
	.st333{fill:url(#SVGID_00000056410784951460739110000001372300863081201547_);}
	.st334{fill:url(#SVGID_00000020368486450181920630000010410314917948428968_);}
	.st335{fill:url(#SVGID_00000039821440421063901370000013806857296920804786_);}
	.st336{fill:url(#SVGID_00000169536825788730217260000006298256189255742340_);}
	.st337{fill:url(#SVGID_00000163770463410447026360000007151464196450706587_);}
	.st338{fill:url(#SVGID_00000111193821923293749740000001390614851023934866_);}
	.st339{fill:url(#SVGID_00000114068467105310550580000006834561621197866171_);}
	.st340{fill:url(#SVGID_00000109001803563476107870000011815379780254812291_);}
	.st341{fill:url(#SVGID_00000018917746429838341440000014289883371722048914_);}
	.st342{fill:url(#SVGID_00000168079662867347033670000011094459527078680729_);}
	.st343{fill:url(#SVGID_00000006682043866282242080000001884091502969246850_);}
	.st344{fill:none;stroke:#3030FF;stroke-width:3.7755;stroke-miterlimit:10;}
	.st345{fill:url(#SVGID_00000051354311661386590260000011639631314517812128_);}
	.st346{fill:url(#SVGID_00000164511490560063641350000000073198654729689763_);}
	.st347{fill:url(#SVGID_00000053543652977967815670000012912470252560659382_);}
	.st348{fill:url(#SVGID_00000047738949497879208930000018389118318472724104_);}
	.st349{fill:url(#SVGID_00000173855391113428066310000008187412649826163121_);}
	.st350{fill:url(#SVGID_00000032614632851942715690000004530400920149898138_);}
	
		.st351{fill:none;stroke:url(#SVGID_00000075846613339157619420000013880747374270094987_);stroke-width:1.2585;stroke-miterlimit:10;}
	
		.st352{fill:none;stroke:url(#SVGID_00000168100192590038178210000003388004172022248876_);stroke-width:1.2585;stroke-miterlimit:10;}
	
		.st353{fill:none;stroke:url(#SVGID_00000074423130535684438450000014355515562127163056_);stroke-width:1.2585;stroke-miterlimit:10;}
	
		.st354{fill:none;stroke:url(#SVGID_00000014613563397149888760000016593309973455552429_);stroke-width:1.2585;stroke-miterlimit:10;}
	
		.st355{fill:none;stroke:url(#SVGID_00000163043500702018259090000017991980087361685645_);stroke-width:1.2585;stroke-miterlimit:10;}
	
		.st356{fill:none;stroke:url(#SVGID_00000140721547521632350040000001558292879623585932_);stroke-width:1.2585;stroke-miterlimit:10;}
	.st357{fill-rule:evenodd;clip-rule:evenodd;fill:#FFFFFF;stroke:#000000;stroke-width:2.5298;stroke-miterlimit:10;}
	.st358{fill:url(#SVGID_00000079478675172404197820000014078841831590022825_);}
	.st359{fill:url(#SVGID_00000118398026772452047820000007208110728528360365_);}
	.st360{fill:url(#SVGID_00000125568275548636836770000007574067300352061866_);}
	.st361{fill:url(#SVGID_00000070799408173482426050000005300895047820189324_);}
	.st362{fill:url(#SVGID_00000003810375205950634850000003706155990840432312_);}
	.st363{fill:url(#SVGID_00000011025955769161530180000002496374355498248099_);}
	.st364{fill:url(#SVGID_00000003787626106088037130000013107265106058611623_);}
	.st365{fill:url(#SVGID_00000025404005434793350870000009608332949287037859_);}
</style>
<rect x="-10718.19" y="-2402.6" width="16397.75" height="16332.66"/>
<g>
	<defs>
		
			<rect id="SVGID_00000082326192592563255300000008854955881974498462_" x="-2792.51" y="-1569.38" width="2425.28" height="1292.07"/>
	</defs>
	<clipPath id="SVGID_00000154423687141673995960000001608592221542223493_">
		<use xlink:href="#SVGID_00000082326192592563255300000008854955881974498462_"  style="overflow:visible;"/>
	</clipPath>
</g>
<g>
	<defs>
		<rect id="SVGID_00000084527774327098635120000003223926067609763209_" width="4116.34" height="1292.07"/>
	</defs>
	
		<radialGradient id="SVGID_00000142174657355887250650000011017807369941669781_" cx="2752.0591" cy="974.9875" r="3768.7273" gradientTransform="matrix(0.935 -0.3546 0.2037 0.5372 -19.7949 1427.1046)" gradientUnits="userSpaceOnUse">
		<stop  offset="0" style="stop-color:#0073FF"/>
		<stop  offset="0.0855" style="stop-color:#0A65FF"/>
		<stop  offset="0.3541" style="stop-color:#253FFF"/>
		<stop  offset="0.4947" style="stop-color:#3030FF"/>
		<stop  offset="0.6032" style="stop-color:#2829D4"/>
		<stop  offset="0.7935" style="stop-color:#1A1C8D"/>
		<stop  offset="0.9307" style="stop-color:#111561"/>
		<stop  offset="1" style="stop-color:#0E1250"/>
	</radialGradient>
	
		<use xlink:href="#SVGID_00000084527774327098635120000003223926067609763209_"  style="overflow:visible;fill:url(#SVGID_00000142174657355887250650000011017807369941669781_);"/>
	<clipPath id="SVGID_00000154394079603136730980000004998852870939142285_">
		<use xlink:href="#SVGID_00000084527774327098635120000003223926067609763209_"  style="overflow:visible;"/>
	</clipPath>
	<g style="clip-path:url(#SVGID_00000154394079603136730980000004998852870939142285_);">
		<path d="M254.6,1040.52c-22.65-10.82-39.68-26.37-51.09-46.66c-11.41-20.29-17.12-44.54-17.12-72.77v-6.09
			c0-28.4,5.66-52.7,16.99-72.9c11.32-20.2,28.27-35.71,50.84-46.53c22.57-10.82,50.25-16.23,83.04-16.23
			c47.16,0,82.62,11.5,106.37,34.48c23.75,22.99,35.63,56.46,35.63,100.41v7.86H213.27c0,37.02,10.65,65.67,31.95,85.96
			c21.3,20.28,52.32,30.43,93.06,30.43c22.65,0,42.05-3.25,58.19-9.76c16.14-6.51,28.65-15.34,37.53-26.5
			c8.88-11.16,14.16-23.83,15.85-38.03h26.62c-1.35,17.41-7.35,33.09-18,47.04c-10.65,13.95-26.12,25.02-46.4,33.22
			s-44.88,12.3-73.79,12.3C305.14,1056.75,277.25,1051.34,254.6,1040.52z M421.57,824.48c-19.36-18.09-47.46-27.13-84.31-27.13
			c-38.54,0-68.33,9.26-89.38,27.77s-32.5,44.84-34.36,78.98h238.6C451.11,869.11,440.92,842.57,421.57,824.48z"/>
		<path d="M747.78,821.19c-16.4-15.21-40.91-22.82-73.53-22.82c-24.34,0-45.13,4.06-62.38,12.17s-30.3,19.36-39.17,33.72
			c-8.88,14.37-13.31,30.93-13.31,49.7v153.91h-26.12V788.22h26.12v59.59c8.45-21.3,23.28-37.99,44.5-50.08
			c21.21-12.08,47.71-18.13,79.49-18.13c38.2,0,66.98,8.79,86.34,26.37c19.35,17.58,29.03,42.94,29.03,76.07v165.83h-26.37V887.37
			C772.37,858.46,764.17,836.4,747.78,821.19z"/>
		<path d="M917.41,946.19c-11.5,0.68-20.41,4.27-26.75,10.78c-6.34,6.51-9.51,15.34-9.51,26.5c0,11.83,3.8,21.13,11.41,27.89
			c7.61,6.76,19.02,10.31,34.23,10.65l149.6,4.31c24.17,0.68,42.26,6.3,54.26,16.86c12,10.56,18,25.48,18,44.75
			c0,15.55-4.1,28.61-12.3,39.18c-8.2,10.56-22.48,18.8-42.85,24.72c-20.37,5.92-48.14,8.87-83.3,8.87h-28.65
			c-34.15,0-60.98-3.21-80.51-9.64c-19.52-6.43-33.34-16.02-41.46-28.78c-8.11-12.77-12.34-29.29-12.68-49.57h26.12
			c0.34,15.89,3.89,28.95,10.65,39.18c6.76,10.23,18.17,18,34.23,23.33c16.06,5.32,38.03,7.99,65.93,7.99h28.4
			c28.06,0,50.21-2.24,66.43-6.72c16.23-4.48,27.59-10.69,34.1-18.64c6.51-7.95,9.76-17.58,9.76-28.91
			c0-13.53-4.27-24.13-12.81-31.82c-8.54-7.69-21.43-11.79-38.67-12.3l-150.36-4.31c-21.98-0.67-38.29-5.53-48.94-14.58
			c-10.65-9.04-15.97-21.51-15.97-37.4c0-13.35,4.01-24.13,12.04-32.33c8.03-8.2,19.82-13.31,35.37-15.34
			c-30.77-14.2-46.15-38.2-46.15-72.01v-2.54c0-27.21,10.61-48.51,31.82-63.9c21.21-15.38,55.15-23.07,101.8-23.07
			c48.34,0,83.59,8.79,105.74,26.37c-0.17-1.35-0.25-3.21-0.25-5.58c0-11.49,3.72-20.2,11.16-26.12c7.44-5.92,17.66-8.87,30.68-8.87
			c4.56,0,9.38,0.42,14.45,1.27v20.28c-8.11-0.67-13.1-1.01-14.96-1.01c-11.16,0-19.65,2.41-25.48,7.23
			c-5.83,4.82-8.33,11.54-7.48,20.16c12.84,13.86,19.27,31.61,19.27,53.25v2.79c0,27.05-10.61,48.26-31.82,63.64
			c-21.22,15.38-54.98,23.07-101.3,23.07C961.61,955.83,937.19,952.62,917.41,946.19z M1097.44,868.86v-2.54
			c0-21.97-8.49-39.13-25.48-51.47c-16.99-12.34-44.08-18.51-81.27-18.51c-37.36,0-64.53,6.17-81.52,18.51
			c-16.99,12.34-25.48,29.5-25.48,51.47v2.54c0,21.98,8.53,39.14,25.61,51.47c17.07,12.34,44.2,18.51,81.39,18.51
			C1061.85,938.84,1097.44,915.51,1097.44,868.86z"/>
		<path d="M1186.69,701h36.77v37.02h-36.77V701z M1192.27,788.22h26.12v259.65h-26.12V788.22z"/>
		<path d="M1499.59,821.19c-16.4-15.21-40.91-22.82-73.53-22.82c-24.34,0-45.13,4.06-62.38,12.17s-30.3,19.36-39.17,33.72
			c-8.88,14.37-13.31,30.93-13.31,49.7v153.91h-26.12V788.22h26.12v59.59c8.45-21.3,23.28-37.99,44.5-50.08
			c21.21-12.08,47.71-18.13,79.49-18.13c38.2,0,66.98,8.79,86.34,26.37c19.35,17.58,29.03,42.94,29.03,76.07v165.83h-26.37V887.37
			C1524.18,858.46,1515.98,836.4,1499.59,821.19z"/>
		<path d="M1672.52,1040.52c-22.65-10.82-39.68-26.37-51.09-46.66c-11.41-20.29-17.12-44.54-17.12-72.77v-6.09
			c0-28.4,5.66-52.7,16.99-72.9c11.32-20.2,28.27-35.71,50.84-46.53c22.57-10.82,50.25-16.23,83.04-16.23
			c47.16,0,82.62,11.5,106.37,34.48c23.75,22.99,35.63,56.46,35.63,100.41v7.86h-265.99c0,37.02,10.65,65.67,31.95,85.96
			c21.3,20.28,52.32,30.43,93.06,30.43c22.65,0,42.05-3.25,58.19-9.76c16.14-6.51,28.65-15.34,37.53-26.5
			c8.88-11.16,14.16-23.83,15.85-38.03h26.62c-1.35,17.41-7.35,33.09-18,47.04c-10.65,13.95-26.12,25.02-46.4,33.22
			s-44.88,12.3-73.79,12.3C1723.06,1056.75,1695.17,1051.34,1672.52,1040.52z M1839.49,824.48c-19.36-18.09-47.46-27.13-84.31-27.13
			c-38.54,0-68.33,9.26-89.38,27.77s-32.5,44.84-34.36,78.98h238.6C1869.03,869.11,1858.84,842.57,1839.49,824.48z"/>
		<path d="M2012.29,1040.52c-22.65-10.82-39.68-26.37-51.09-46.66c-11.41-20.29-17.12-44.54-17.12-72.77v-6.09
			c0-28.4,5.66-52.7,16.99-72.9c11.32-20.2,28.27-35.71,50.84-46.53c22.57-10.82,50.24-16.23,83.04-16.23
			c47.16,0,82.62,11.5,106.37,34.48c23.75,22.99,35.63,56.46,35.63,100.41v7.86h-265.99c0,37.02,10.65,65.67,31.95,85.96
			c21.3,20.28,52.32,30.43,93.06,30.43c22.65,0,42.05-3.25,58.19-9.76c16.14-6.51,28.65-15.34,37.53-26.5
			c8.88-11.16,14.16-23.83,15.85-38.03h26.62c-1.35,17.41-7.35,33.09-18,47.04c-10.65,13.95-26.12,25.02-46.4,33.22
			s-44.88,12.3-73.79,12.3C2062.83,1056.75,2034.94,1051.34,2012.29,1040.52z M2179.26,824.48c-19.36-18.09-47.46-27.13-84.31-27.13
			c-38.54,0-68.33,9.26-89.38,27.77s-32.5,44.84-34.36,78.98h238.6C2208.8,869.11,2198.62,842.57,2179.26,824.48z"/>
		<path d="M2290.96,788.22h25.1v59.84c14.2-42.26,48.77-63.39,103.71-63.39c11.83,0,21.89,0.93,30.17,2.79v21.55
			c-9.3-2.03-20.37-3.04-33.22-3.04c-33.47,0-58.45,7.69-74.93,23.07c-16.48,15.38-24.72,38.03-24.72,67.95v150.87h-26.12V788.22z"
			/>
		<path d="M2531.84,1040.52c-22.65-10.82-39.68-26.37-51.09-46.66c-11.41-20.29-17.12-44.54-17.12-72.77v-6.09
			c0-28.4,5.66-52.7,16.99-72.9c11.32-20.2,28.27-35.71,50.84-46.53c22.57-10.82,50.25-16.23,83.04-16.23
			c47.16,0,82.62,11.5,106.37,34.48c23.75,22.99,35.63,56.46,35.63,100.41v7.86h-265.99c0,37.02,10.65,65.67,31.95,85.96
			c21.3,20.28,52.32,30.43,93.06,30.43c22.65,0,42.05-3.25,58.19-9.76c16.14-6.51,28.65-15.34,37.53-26.5
			c8.88-11.16,14.16-23.83,15.85-38.03h26.62c-1.35,17.41-7.35,33.09-18,47.04c-10.65,13.95-26.12,25.02-46.4,33.22
			s-44.88,12.3-73.79,12.3C2582.38,1056.75,2554.49,1051.34,2531.84,1040.52z M2698.81,824.48c-19.36-18.09-47.46-27.13-84.31-27.13
			c-38.54,0-68.33,9.26-89.38,27.77s-32.5,44.84-34.36,78.98h238.6C2728.35,869.11,2718.17,842.57,2698.81,824.48z"/>
		<path d="M3103.88,1047.87h-26.12v-69.98c-9.13,25.53-24.85,45.05-47.16,58.57c-22.31,13.52-50.63,20.29-84.94,20.29
			c-30.6,0-56.54-5.37-77.84-16.1c-21.3-10.73-37.44-26.2-48.43-46.4c-10.99-20.2-16.48-44.58-16.48-73.15v-6.09
			c0-28.57,5.49-52.95,16.48-73.15c10.99-20.2,27.13-35.67,48.43-46.4c21.3-10.73,47.25-16.1,77.84-16.1
			c34.14,0,62.42,6.81,84.82,20.41c22.4,13.61,38.16,33.18,47.29,58.7v-174.2h26.12V1047.87z M2886.19,811.43
			c-18.51,9.22-32.5,22.53-41.96,39.94c-9.47,17.41-14.2,38.46-14.2,63.14v7.1c0,24.68,4.73,45.73,14.2,63.14
			c9.46,17.41,23.46,30.72,41.96,39.94c18.51,9.22,41.12,13.82,67.83,13.82c40.06,0,70.7-10.18,91.92-30.55
			c21.21-20.37,31.82-49.15,31.82-86.34v-7.1c0-37.19-10.61-65.97-31.82-86.34c-21.22-20.37-51.85-30.55-91.92-30.55
			C2927.31,797.61,2904.7,802.21,2886.19,811.43z"/>
		<path d="M3191.36,1008.57v39.3h-40.06v-39.3H3191.36z"/>
	</g>
	<g style="clip-path:url(#SVGID_00000154394079603136730980000004998852870939142285_);">
		<g>
			<path d="M1086.78,202.47h27.13v363.61h-27.13V202.47z"/>
			<path d="M1396.37,339.39c-16.4-15.21-40.91-22.82-73.53-22.82c-24.34,0-45.13,4.06-62.38,12.17s-30.3,19.36-39.17,33.72
				c-8.88,14.37-13.31,30.93-13.31,49.7v153.91h-26.12V306.43h26.12v59.59c8.45-21.3,23.28-37.99,44.5-50.08
				c21.21-12.08,47.71-18.13,79.49-18.13c38.2,0,66.98,8.79,86.34,26.37c19.35,17.58,29.03,42.94,29.03,76.07v165.83h-26.37V405.57
				C1420.97,376.67,1412.77,354.61,1396.37,339.39z"/>
			<path d="M1562.97,555.43c-12.51-9.97-18.76-24.93-18.76-44.88V324.94h-71.25v-18.51h71.25v-76.58h26.62v76.58h101.42v18.51
				h-101.42v182.31c0,13.86,4.73,24.51,14.2,31.95c9.46,7.44,24.6,11.16,45.39,11.16c14.54,0,28.65-1.52,42.34-4.56v19.52
				c-15.21,3.38-31.28,5.07-48.18,5.07C1596.01,570.39,1575.47,565.4,1562.97,555.43z"/>
			<path d="M1761.25,558.72c-22.65-10.82-39.68-26.37-51.09-46.66c-11.41-20.29-17.12-44.54-17.12-72.77v-6.09
				c0-28.4,5.66-52.7,16.99-72.9c11.32-20.2,28.27-35.71,50.84-46.53c22.57-10.82,50.25-16.23,83.04-16.23
				c47.16,0,82.62,11.5,106.37,34.48c23.75,22.99,35.63,56.46,35.63,100.41v7.86h-265.99c0,37.02,10.65,65.67,31.95,85.96
				c21.3,20.28,52.32,30.43,93.06,30.43c22.65,0,42.05-3.25,58.19-9.76c16.14-6.51,28.65-15.34,37.53-26.5
				c8.88-11.16,14.16-23.83,15.85-38.03h26.62c-1.35,17.41-7.35,33.09-18,47.04c-10.65,13.95-26.12,25.02-46.4,33.22
				s-44.88,12.3-73.79,12.3C1811.79,574.95,1783.9,569.54,1761.25,558.72z M1928.22,342.69c-19.36-18.09-47.46-27.13-84.31-27.13
				c-38.54,0-68.33,9.26-89.38,27.77s-32.5,44.84-34.36,78.98h238.6C1957.76,387.32,1947.58,360.78,1928.22,342.69z"/>
			<path d="M2039.92,202.47h26.12v363.61h-26.12V202.47z"/>
			<path d="M2132.72,202.47h26.12v363.61h-26.12V202.47z"/>
			<path d="M2219.94,219.2h36.77v37.02h-36.77V219.2z M2225.52,306.43h26.12v259.65h-26.12V306.43z"/>
			<path d="M2372.59,464.4c-11.5,0.68-20.41,4.27-26.75,10.78c-6.34,6.51-9.51,15.34-9.51,26.5c0,11.83,3.8,21.13,11.41,27.89
				c7.61,6.76,19.02,10.31,34.23,10.65l149.6,4.31c24.17,0.68,42.26,6.3,54.26,16.86c12,10.56,18,25.48,18,44.75
				c0,15.55-4.1,28.61-12.3,39.18c-8.2,10.56-22.48,18.8-42.85,24.72c-20.37,5.92-48.14,8.87-83.3,8.87h-28.65
				c-34.15,0-60.98-3.21-80.51-9.64c-19.52-6.43-33.34-16.02-41.46-28.78c-8.11-12.77-12.34-29.29-12.68-49.57h26.12
				c0.34,15.89,3.89,28.95,10.65,39.18c6.76,10.23,18.17,18,34.23,23.33c16.06,5.32,38.03,7.99,65.93,7.99h28.4
				c28.06,0,50.21-2.24,66.43-6.72c16.23-4.48,27.59-10.69,34.1-18.64c6.51-7.95,9.76-17.58,9.76-28.91
				c0-13.53-4.27-24.13-12.81-31.82c-8.54-7.69-21.43-11.79-38.67-12.3l-150.36-4.31c-21.98-0.67-38.29-5.53-48.94-14.58
				c-10.65-9.04-15.97-21.51-15.97-37.4c0-13.35,4.01-24.13,12.04-32.33c8.03-8.2,19.82-13.31,35.37-15.34
				c-30.77-14.2-46.15-38.2-46.15-72.01v-2.54c0-27.21,10.61-48.51,31.82-63.9c21.21-15.38,55.15-23.07,101.8-23.07
				c48.34,0,83.59,8.79,105.74,26.37c-0.17-1.35-0.25-3.21-0.25-5.58c0-11.49,3.72-20.2,11.16-26.12
				c7.44-5.92,17.66-8.87,30.68-8.87c4.56,0,9.38,0.42,14.45,1.27v20.28c-8.11-0.67-13.1-1.01-14.96-1.01
				c-11.16,0-19.65,2.41-25.48,7.23c-5.83,4.82-8.33,11.54-7.48,20.16c12.84,13.86,19.27,31.61,19.27,53.25v2.79
				c0,27.05-10.61,48.26-31.82,63.64c-21.22,15.38-54.98,23.07-101.3,23.07C2416.79,474.03,2392.37,470.82,2372.59,464.4z
				 M2552.62,387.06v-2.54c0-21.97-8.49-39.13-25.48-51.47c-16.99-12.34-44.08-18.51-81.27-18.51c-37.36,0-64.53,6.17-81.52,18.51
				c-16.99,12.34-25.48,29.5-25.48,51.47v2.54c0,21.98,8.53,39.14,25.61,51.47c17.07,12.34,44.2,18.51,81.39,18.51
				C2517.03,457.05,2552.62,433.72,2552.62,387.06z"/>
			<path d="M2698.16,558.72c-22.65-10.82-39.68-26.37-51.09-46.66c-11.41-20.29-17.12-44.54-17.12-72.77v-6.09
				c0-28.4,5.66-52.7,16.99-72.9c11.32-20.2,28.27-35.71,50.84-46.53c22.57-10.82,50.25-16.23,83.04-16.23
				c47.16,0,82.62,11.5,106.37,34.48c23.75,22.99,35.63,56.46,35.63,100.41v7.86h-265.99c0,37.02,10.65,65.67,31.95,85.96
				c21.3,20.28,52.32,30.43,93.06,30.43c22.65,0,42.05-3.25,58.19-9.76c16.14-6.51,28.65-15.34,37.53-26.5
				c8.88-11.16,14.16-23.83,15.85-38.03h26.62c-1.35,17.41-7.35,33.09-18,47.04c-10.65,13.95-26.12,25.02-46.4,33.22
				s-44.88,12.3-73.79,12.3C2748.71,574.95,2720.81,569.54,2698.16,558.72z M2865.14,342.69c-19.36-18.09-47.46-27.13-84.31-27.13
				c-38.54,0-68.33,9.26-89.38,27.77s-32.5,44.84-34.36,78.98h238.6C2894.68,387.32,2884.49,360.78,2865.14,342.69z"/>
			<path d="M3191.34,339.39c-16.4-15.21-40.91-22.82-73.53-22.82c-24.34,0-45.13,4.06-62.38,12.17s-30.3,19.36-39.17,33.72
				c-8.88,14.37-13.31,30.93-13.31,49.7v153.91h-26.12V306.43h26.12v59.59c8.45-21.3,23.28-37.99,44.5-50.08
				c21.21-12.08,47.71-18.13,79.49-18.13c38.2,0,66.98,8.79,86.34,26.37c19.35,17.58,29.03,42.94,29.03,76.07v165.83h-26.37V405.57
				C3215.94,376.67,3207.74,354.61,3191.34,339.39z"/>
			<path d="M3364.15,558.72c-22.57-10.82-39.56-26.37-50.97-46.66c-11.41-20.29-17.12-44.54-17.12-72.77v-6.09
				c0-28.4,5.66-52.7,16.99-72.9c11.32-20.2,28.27-35.71,50.84-46.53c22.57-10.82,50.25-16.23,83.04-16.23
				c29.07,0,53.54,4.14,73.41,12.42c19.86,8.28,34.9,19.61,45.13,33.98c10.23,14.37,15.85,30.77,16.86,49.19h-26.37
				c-2.37-23.66-12.68-42.47-30.93-56.42c-18.26-13.95-44.21-20.92-77.84-20.92c-40.23,0-71,10.19-92.3,30.55
				c-21.3,20.37-31.95,49.15-31.95,86.34v7.1c0,37.19,10.65,65.97,31.95,86.34c21.3,20.37,52.15,30.55,92.55,30.55
				c23.16,0,42.94-3.46,59.33-10.4c16.39-6.93,29.03-16.39,37.91-28.4c8.88-12,13.99-25.69,15.34-41.08h26.37
				c-0.85,18.76-6.51,35.54-16.99,50.33c-10.48,14.79-25.99,26.46-46.53,34.99c-20.54,8.53-45.6,12.8-75.18,12.8
				C3414.56,574.95,3386.71,569.54,3364.15,558.72z"/>
			<path d="M3695.43,558.72c-22.65-10.82-39.68-26.37-51.09-46.66c-11.41-20.29-17.12-44.54-17.12-72.77v-6.09
				c0-28.4,5.66-52.7,16.99-72.9c11.32-20.2,28.27-35.71,50.84-46.53c22.57-10.82,50.25-16.23,83.04-16.23
				c47.16,0,82.62,11.5,106.37,34.48c23.75,22.99,35.63,56.46,35.63,100.41v7.86H3654.1c0,37.02,10.65,65.67,31.95,85.96
				c21.3,20.28,52.32,30.43,93.06,30.43c22.65,0,42.05-3.25,58.19-9.76c16.14-6.51,28.65-15.34,37.53-26.5
				c8.88-11.16,14.16-23.83,15.85-38.03h26.62c-1.35,17.41-7.35,33.09-18,47.04c-10.65,13.95-26.12,25.02-46.4,33.22
				s-44.88,12.3-73.79,12.3C3745.97,574.95,3718.08,569.54,3695.43,558.72z M3862.4,342.69c-19.36-18.09-47.46-27.13-84.31-27.13
				c-38.54,0-68.33,9.26-89.38,27.77s-32.5,44.84-34.36,78.98h238.6C3891.94,387.32,3881.75,360.78,3862.4,342.69z"/>
			<path d="M3988.04,526.77v45.89c0,16.9-4.1,29.58-12.3,38.03c-8.2,8.45-19.82,12.68-34.87,12.68h-0.76v-14.45h0.76
				c9.29,0,16.65-3.04,22.06-9.13c5.41-6.09,8.11-15.05,8.11-26.88v-6.85h-23.07v-39.3H3988.04z"/>
		</g>
	</g>
</g>
<path class="st151" d="M270.77,384.24c2.01,6.71,3.02,14.01,3.02,21.92c0,8.5-1.12,15.99-3.37,22.46
	c-2.61,7.9-6.81,14.07-12.61,18.5s-12.91,6.65-21.32,6.65c-8.29,0-15.1-3.17-20.43-9.52c-0.24-0.36-0.47-0.48-0.71-0.36
	c-0.24,0.12-0.36,0.36-0.36,0.72v5.57c0,0.6-0.24,1.14-0.71,1.62c-0.36,0.36-0.83,0.54-1.42,0.54h-16.34c-0.59,0-1.12-0.18-1.6-0.54
	c-0.36-0.48-0.53-1.02-0.53-1.62V328.73c0-0.6,0.18-1.08,0.53-1.44c0.47-0.48,1.01-0.72,1.6-0.72h16.34c0.59,0,1.07,0.24,1.42,0.72
	c0.47,0.36,0.71,0.84,0.71,1.44v38.98c0,0.36,0.12,0.6,0.36,0.72s0.47,0.06,0.71-0.18c5.09-6.11,11.84-9.16,20.25-9.16
	c8.76,0,15.99,2.22,21.67,6.65C263.78,370.17,268.04,376.34,270.77,384.24z M248.39,427.18c2.84-5.03,4.26-11.92,4.26-20.66
	c0-9.34-1.78-16.65-5.33-21.92c-3.2-5.03-7.93-7.55-14.21-7.55c-5.8,0-10.24,2.63-13.32,7.9c-2.96,4.91-4.44,12.04-4.44,21.38
	c0,9.22,1.36,16.17,4.09,20.84c3.08,5.75,7.7,8.62,13.86,8.62c3.32,0,6.28-0.72,8.88-2.16
	C244.78,432.09,246.85,429.93,248.39,427.18z M369.3,396.1c0.47,2.99,0.71,6.35,0.71,10.06l-0.18,5.57c0,1.44-0.71,2.16-2.13,2.16
	h-55.6c-0.59,0-0.89,0.3-0.89,0.9c0.36,3.95,0.89,6.65,1.6,8.08c2.84,8.62,9.77,12.99,20.78,13.11c8.05,0,14.45-3.35,19.18-10.06
	c0.47-0.72,1.07-1.08,1.78-1.08c0.47,0,0.89,0.18,1.24,0.54l11.01,9.16c1.07,0.84,1.24,1.8,0.53,2.87
	c-3.67,5.27-8.59,9.34-14.74,12.22c-6.04,2.87-12.79,4.31-20.25,4.31c-9.24,0-17.11-2.1-23.62-6.29
	c-6.39-4.19-11.07-10.06-14.03-17.61c-2.72-6.47-4.09-15.45-4.09-26.95c0-6.95,0.71-12.58,2.13-16.89
	c2.37-8.38,6.81-14.97,13.32-19.76c6.63-4.91,14.57-7.37,23.8-7.37C353.19,359.09,366.34,371.43,369.3,396.1z M329.86,377.06
	c-4.38,0-8.05,1.14-11.01,3.41c-2.84,2.16-4.85,5.21-6.04,9.16c-0.71,2.04-1.19,4.67-1.42,7.9c-0.24,0.6,0,0.9,0.71,0.9h36.06
	c0.59,0,0.89-0.3,0.89-0.9c-0.24-2.99-0.59-5.27-1.07-6.83c-1.07-4.31-3.2-7.66-6.39-10.06
	C338.51,378.25,334.6,377.06,329.86,377.06z M507.32,367.54c-5.09-5.63-12.2-8.44-21.32-8.44c-5.68,0-10.84,1.14-15.45,3.41
	c-4.62,2.28-8.23,5.81-10.84,10.6c-0.47,0.48-0.89,0.48-1.24,0c-2.37-4.55-5.74-8.02-10.13-10.42c-4.38-2.4-9.47-3.59-15.28-3.59
	c-4.74,0-9.06,0.84-12.97,2.52c-3.79,1.56-6.99,4.01-9.59,7.37c-0.24,0.36-0.47,0.48-0.71,0.36c-0.24-0.12-0.36-0.36-0.36-0.72
	v-5.93c0-0.6-0.24-1.08-0.71-1.44c-0.36-0.48-0.83-0.72-1.42-0.72h-16.34c-0.59,0-1.13,0.24-1.6,0.72
	c-0.36,0.36-0.53,0.84-0.53,1.44v87.49c0,0.6,0.18,1.14,0.53,1.62c0.47,0.36,1.01,0.54,1.6,0.54h16.34c0.59,0,1.07-0.18,1.42-0.54
	c0.47-0.48,0.71-1.02,0.71-1.62v-58.38c0.47-4.55,2.13-8.14,4.97-10.78c2.96-2.63,6.69-3.95,11.19-3.95c4.86,0,8.76,1.62,11.72,4.85
	c2.96,3.23,4.44,7.6,4.44,13.11v55.15c0,0.6,0.18,1.14,0.53,1.62c0.47,0.36,1.01,0.54,1.6,0.54h16.16c0.59,0,1.07-0.18,1.42-0.54
	c0.47-0.48,0.71-1.02,0.71-1.62v-55.33c0-5.39,1.54-9.7,4.62-12.93c3.08-3.23,7.05-4.85,11.9-4.85c4.86,0,8.7,1.62,11.55,4.85
	c2.96,3.23,4.44,7.6,4.44,13.11v55.15c0,0.6,0.18,1.14,0.53,1.62c0.47,0.36,1.01,0.54,1.6,0.54H513c0.59,0,1.07-0.18,1.42-0.54
	c0.47-0.48,0.71-1.02,0.71-1.62v-59.46C515.14,380.77,512.53,373.04,507.32,367.54z M584.9,344.16v-16.44h102.4v16.44H584.9z
	 M562.15,327.73h16.25v103.56h-16.25V327.73z M562.15,437.86v16.44h102.4v-16.44H562.15z M671.05,350.74h16.25V454.3h-16.25V350.74z
	"/>
<g>
	<defs>
		
			<rect id="SVGID_00000100370641478312074430000003581050683030348935_" x="-2792.51" y="1534.09" width="2425.28" height="1292.07"/>
	</defs>
	<clipPath id="SVGID_00000068646365274632537250000004483367805645274534_">
		<use xlink:href="#SVGID_00000100370641478312074430000003581050683030348935_"  style="overflow:visible;"/>
	</clipPath>
</g>
<path class="st189" d="M3678.51,944.39h85.29c21.81,0,41.18-13.94,48.11-34.62l23.08-68.86"/>
<path class="st189" d="M3785.64,1047.87l23.08-68.86c6.93-20.68,26.3-34.62,48.11-34.62h85.29"/>
</svg>
