<svg xmlns="http://www.w3.org/2000/svg" viewBox="0 0 1723.44 449.13">
<path fill="#FFFFFF" fill-rule="evenodd" clip-rule="evenodd" d="M268.25,202.95c7.02,23.4,10.54,48.9,10.54,76.48c0,29.67-3.93,55.79-11.78,78.36
	c-9.09,27.58-23.76,49.11-44.01,64.57s-45.04,23.19-74.38,23.19c-28.92,0-52.69-11.07-71.28-33.22c-0.83-1.25-1.65-1.67-2.48-1.25
	c-0.83,0.42-1.24,1.25-1.24,2.51V433c0,2.09-0.83,3.97-2.48,5.64c-1.24,1.25-2.89,1.88-4.96,1.88H9.16c-2.07,0-3.93-0.63-5.58-1.88
	c-1.24-1.67-1.86-3.55-1.86-5.64V9.25c0-2.09,0.62-3.76,1.86-5.01C5.24,2.56,7.1,1.73,9.16,1.73h57.02c2.07,0,3.72,0.84,4.96,2.51
	c1.65,1.25,2.48,2.93,2.48,5.01v136.03c0,1.25,0.41,2.09,1.24,2.51c0.83,0.42,1.65,0.21,2.48-0.63
	c17.77-21.31,41.32-31.97,70.66-31.97c30.58,0,55.78,7.73,75.62,23.19C243.87,153.84,258.75,175.36,268.25,202.95z M190.15,352.77
	c9.92-17.55,14.87-41.58,14.87-72.09c0-32.6-6.2-58.09-18.59-76.48c-11.16-17.55-27.69-26.33-49.59-26.33
	c-20.25,0-35.74,9.19-46.49,27.58c-10.33,17.13-15.5,42-15.5,74.6c0,32.18,4.75,56.42,14.26,72.72
	c10.74,20.06,26.86,30.09,48.35,30.09c11.57,0,21.9-2.51,30.99-7.52C177.55,369.9,184.78,362.38,190.15,352.77z M612.07,244.32
	c1.65,10.45,2.48,22.15,2.48,35.1l-0.62,19.43c0,5.01-2.48,7.52-7.44,7.52H412.48c-2.07,0-3.1,1.04-3.1,3.13
	c1.24,13.79,3.1,23.19,5.58,28.21c9.91,30.09,34.09,45.34,72.52,45.76c28.1,0,50.41-11.7,66.94-35.11c1.65-2.51,3.72-3.76,6.2-3.76
	c1.65,0,3.1,0.63,4.34,1.88l38.43,31.97c3.72,2.93,4.34,6.27,1.86,10.03c-12.81,18.39-29.96,32.6-51.45,42.63
	c-21.07,10.03-44.63,15.05-70.66,15.05c-32.23,0-59.71-7.31-82.44-21.94c-22.31-14.63-38.64-35.1-48.97-61.43
	c-9.5-22.57-14.26-53.91-14.26-94.03c0-24.24,2.48-43.88,7.44-58.93c8.26-29.25,23.76-52.24,46.49-68.95
	c23.14-17.13,50.82-25.7,83.06-25.7C555.87,115.19,601.73,158.23,612.07,244.32z M474.46,177.87c-15.29,0-28.1,3.97-38.43,11.91
	c-9.92,7.52-16.94,18.18-21.07,31.97c-2.48,7.1-4.14,16.3-4.96,27.58c-0.83,2.09,0,3.14,2.48,3.14H538.3c2.07,0,3.1-1.04,3.1-3.14
	c-0.83-10.45-2.07-18.39-3.72-23.82c-3.72-15.04-11.15-26.75-22.31-35.1C504.63,182.05,490.99,177.87,474.46,177.87z
	 M1093.68,144.65c-17.77-19.64-42.56-29.46-74.38-29.46c-19.84,0-37.81,3.97-53.92,11.91c-16.12,7.94-28.72,20.27-37.81,36.99
	c-1.65,1.67-3.1,1.67-4.34,0c-8.26-15.88-20.04-28-35.33-36.36c-15.29-8.36-33.06-12.54-53.3-12.54c-16.53,0-31.61,2.93-45.25,8.78
	c-13.22,5.43-24.38,14-33.47,25.7c-0.83,1.25-1.66,1.67-2.48,1.25c-0.83-0.42-1.24-1.25-1.24-2.51v-20.69
	c0-2.09-0.83-3.76-2.48-5.01c-1.24-1.67-2.89-2.51-4.96-2.51h-57.02c-2.07,0-3.93,0.84-5.58,2.51c-1.24,1.25-1.86,2.93-1.86,5.01
	V433c0,2.09,0.62,3.97,1.86,5.64c1.65,1.25,3.51,1.88,5.58,1.88h57.02c2.07,0,3.72-0.63,4.96-1.88c1.65-1.67,2.48-3.55,2.48-5.64
	V229.28c1.65-15.88,7.44-28.42,17.36-37.61c10.33-9.19,23.35-13.79,39.05-13.79c16.94,0,30.58,5.64,40.91,16.93
	c10.33,11.28,15.5,26.54,15.5,45.76V433c0,2.09,0.62,3.97,1.86,5.64c1.65,1.25,3.51,1.88,5.58,1.88h56.41
	c2.07,0,3.72-0.63,4.96-1.88c1.65-1.67,2.48-3.55,2.48-5.64V239.93c0-18.81,5.37-33.85,16.12-45.13
	c10.74-11.28,24.59-16.93,41.53-16.93c16.94,0,30.37,5.64,40.29,16.93c10.33,11.28,15.5,26.54,15.5,45.76V433
	c0,2.09,0.62,3.97,1.86,5.64c1.65,1.25,3.51,1.88,5.58,1.88h56.4c2.07,0,3.72-0.63,4.96-1.88c1.65-1.67,2.48-3.55,2.48-5.64V225.51
	C1120.95,190.83,1111.86,163.87,1093.68,144.65z M1364.4,63.1V5.74h357.31V63.1H1364.4z M1285.01,5.74h56.71V367.1h-56.71V5.74z
	 M1285.01,390.05v57.36h357.31v-57.36H1285.01z M1665.01,86.04h56.71v361.36h-56.71V86.04z"/>
</svg>
