<?xml version="1.0" encoding="utf-8"?>
<!-- Generator: Adobe Illustrator 30.1.0, SVG Export Plug-In . SVG Version: 9.03 Build 0)  -->
<svg version="1.1" baseProfile="basic" id="Camada_1"
	 xmlns="http://www.w3.org/2000/svg" xmlns:xlink="http://www.w3.org/1999/xlink" x="0px" y="0px" viewBox="0 0 2486.94 1292.77"
	 xml:space="preserve">
<style type="text/css">
	.st0{fill:url(#SVGID_1_);}
	.st1{fill:#FFFFFF;}
	.st2{clip-path:url(#SVGID_00000008855998572406267720000016255340201079410575_);}
	.st3{fill:url(#SVGID_00000094611126343779329840000008997190125035958193_);}
	.st4{fill:url(#SVGID_00000068669510213578408790000010114736603911779004_);}
	.st5{fill:url(#SVGID_00000127018117143541924480000009638338592513832100_);}
	.st6{fill:url(#SVGID_00000127737079716300120070000010811453385963382694_);}
	.st7{fill:url(#SVGID_00000049189555341551335820000011184353083592406675_);}
	.st8{fill:url(#SVGID_00000039842535761349766350000003435168804985463994_);}
	.st9{fill-rule:evenodd;clip-rule:evenodd;fill:#FFFFFF;}
	.st10{fill:url(#SVGID_00000040539460869115664900000001590940147370230414_);}
	.st11{fill:url(#SVGID_00000111164195276353321400000001424305898766688435_);}
	.st12{fill:url(#SVGID_00000042735217482176004020000001414928263078902948_);}
	.st13{fill:url(#SVGID_00000105401865252125010160000013221210106783553664_);}
	.st14{fill:url(#SVGID_00000049183782271373242900000016686017532563534500_);}
	.st15{fill:url(#SVGID_00000117664321142196728250000008203041154608149162_);}
	.st16{fill:url(#SVGID_00000047033183649155268650000001001343997450753177_);}
	.st17{fill:url(#SVGID_00000109003380460409120530000013785716562272635270_);}
	.st18{fill:url(#SVGID_00000106140726401232547860000013748649650506253738_);}
	.st19{fill:#3030FF;}
	.st20{fill:url(#SVGID_00000151535065586656261200000011604377405741946545_);}
	.st21{fill:url(#SVGID_00000060727123802372987470000009004756318696870806_);}
	.st22{fill:url(#SVGID_00000099654377981901685440000016404464366436043670_);}
	.st23{fill:url(#SVGID_00000179629722165714831580000007120906934282128811_);}
	.st24{fill:url(#SVGID_00000088093218736041709080000014394158782917571485_);}
	.st25{fill:url(#SVGID_00000123442870025538354930000003209982479994170501_);}
	.st26{fill:url(#SVGID_00000039135535237006091950000002455376668354501537_);}
	.st27{fill:url(#SVGID_00000131364645073932671330000008563249498642675612_);}
	.st28{fill:url(#SVGID_00000048464171021868816900000011693721806494672782_);}
	.st29{fill:url(#SVGID_00000112604780086330068800000009066018864663955328_);}
	.st30{fill:url(#SVGID_00000178912072985770343070000017757899621176942999_);}
	.st31{fill:url(#SVGID_00000030448911539526846610000015419235516094552192_);}
	.st32{fill:url(#SVGID_00000010272969094185555770000002547549730275417774_);}
	.st33{fill:none;stroke:#3030FF;stroke-width:3;stroke-miterlimit:10;}
	.st34{fill:url(#SVGID_00000147933406018062934430000000513842210125330561_);}
	.st35{fill:url(#SVGID_00000059310098771864337060000000029766143369990560_);}
	.st36{fill:url(#SVGID_00000121277785393366402230000005893546577663602857_);}
	.st37{fill:url(#SVGID_00000126310046948189819570000016532716591680695960_);}
	.st38{fill:url(#SVGID_00000111150735194999967710000001424524439907001991_);}
	.st39{fill:url(#SVGID_00000147188821389332750800000016643001351540524723_);}
	.st40{fill:url(#SVGID_00000090979416850444585770000012063212256468791483_);}
	.st41{fill:url(#SVGID_00000075848278566531774830000005728169583002269602_);}
	.st42{fill:url(#SVGID_00000149358467697029609640000012187150270997737347_);}
	.st43{fill:url(#SVGID_00000106147121455770116640000011640719662548660356_);}
	.st44{fill:url(#SVGID_00000123405903254404111640000002706205547454432394_);}
	.st45{fill:url(#SVGID_00000141426149774737483960000007223451485496734854_);}
	.st46{fill:url(#SVGID_00000039098619397668336890000012543050598019526562_);}
	.st47{fill:url(#SVGID_00000152965250272282816340000014559007298382146974_);}
	.st48{fill:url(#SVGID_00000126319005844618338240000003048726619437539249_);}
	.st49{fill:url(#SVGID_00000010283955981602802720000005691065150867726744_);}
	.st50{fill:url(#SVGID_00000162329114976751719920000006050601107241338027_);}
	.st51{fill:url(#SVGID_00000104706368017896117780000017758029660749880496_);}
	.st52{fill:#3030FF;stroke:#3030FF;stroke-width:2;stroke-miterlimit:10;}
	.st53{fill:none;stroke:#FFFFFF;stroke-miterlimit:10;}
	.st54{fill:url(#SVGID_00000054226403498764826330000003739444226222356414_);}
	.st55{fill:url(#SVGID_00000041283328082358627670000013254987405437089723_);}
	.st56{fill:url(#SVGID_00000075146022719411630710000012455909191014226070_);}
	.st57{fill:url(#SVGID_00000105421404438268295540000001624877117258141351_);}
	.st58{fill:url(#SVGID_00000086657964744034876790000010197238274864068286_);}
	.st59{fill:url(#SVGID_00000034065622768488557520000016797068613348721051_);}
	.st60{fill:none;stroke:#3030FF;stroke-width:3.2003;stroke-miterlimit:10;}
	.st61{fill:url(#SVGID_00000057850899679311482220000005329526635382577322_);}
	.st62{fill:url(#SVGID_00000020360875896073734760000000532749531972981900_);}
	.st63{fill:url(#SVGID_00000114780115923913863020000014322859821715942063_);}
	.st64{fill:url(#SVGID_00000059311689944942279670000016612015329062994065_);}
	.st65{fill:url(#SVGID_00000098218840164846874050000003971695179990430356_);}
	.st66{fill:url(#SVGID_00000105418549922091084040000002134308486214500249_);}
	.st67{fill:url(#SVGID_00000106830394265153337270000012651260993932584349_);}
	.st68{fill:url(#SVGID_00000088838109079613952850000004202271332512436101_);}
	.st69{fill:url(#SVGID_00000011720140090504726810000002800373805100270473_);}
	.st70{fill:url(#SVGID_00000135676264834274571650000008616151875098951830_);}
	.st71{fill:url(#SVGID_00000139990235388586109920000006121435619572133035_);}
	.st72{fill:url(#SVGID_00000083804791956032232940000009735302669839991977_);}
	.st73{fill:url(#SVGID_00000006675549673692487280000017149892704562425523_);}
	.st74{fill:url(#SVGID_00000000918953182010918070000012459849841439437734_);}
	.st75{fill:url(#SVGID_00000031897005066467972810000000162052141594822817_);}
	.st76{fill:url(#SVGID_00000075856122941819176640000004944957858969274038_);}
	.st77{fill:url(#SVGID_00000037656843714702051390000002158770154384264332_);}
	.st78{fill:url(#SVGID_00000140710425413693571740000013701302368524267167_);}
	.st79{fill:url(#SVGID_00000080204166967848014220000007787940381265138334_);}
	.st80{fill:url(#SVGID_00000004532271873032545940000016348224373628037505_);}
	.st81{fill:url(#SVGID_00000000208208018289918200000018296229194788593554_);}
	.st82{fill:url(#SVGID_00000096780334101560339290000010802298856523519650_);}
	.st83{fill:url(#SVGID_00000062892585615817766940000008793129132558891443_);}
	.st84{fill:url(#SVGID_00000124148119059806304800000002214773645251535011_);}
	.st85{fill:none;stroke:#3030FF;stroke-width:7.973;stroke-miterlimit:10;}
	.st86{fill:url(#SVGID_00000042011719193053172730000001755374707369921956_);}
	.st87{fill:url(#SVGID_00000063613752858537896630000006888822641167636379_);}
	.st88{fill:#2B2B2B;}
	.st89{fill:url(#SVGID_00000095323138643589618370000006450013773105738429_);}
	.st90{fill:url(#SVGID_00000139286726853912526600000004761319329509888946_);}
	.st91{fill:url(#SVGID_00000075842406804908700960000014548482857530174857_);}
	.st92{fill:url(#SVGID_00000163064977621320195290000000491049221955681178_);}
	.st93{fill:#3030FF;stroke:#3030FF;stroke-width:1.3238;stroke-miterlimit:10;}
	.st94{fill:url(#SVGID_00000154403619813994954570000013186858449865451938_);}
	.st95{fill:url(#SVGID_00000044156093278837039660000017054222172641058695_);}
	.st96{fill:none;stroke:#3030FF;stroke-width:1.9299;stroke-miterlimit:10;}
	.st97{fill:url(#SVGID_00000173150324471061797000000013390361866567465398_);}
	.st98{fill:url(#SVGID_00000091014772885614680440000013237422221131000501_);}
	.st99{fill:url(#SVGID_00000165199603914879576140000017367013681541817732_);}
	.st100{fill:url(#SVGID_00000054946966570836930580000017364466377722831745_);}
	.st101{fill:url(#SVGID_00000046326323595383427980000005017670822149665194_);}
	.st102{fill:url(#SVGID_00000123433879012404100610000009549539016609177261_);}
	.st103{fill:url(#SVGID_00000179645960482188024890000002906135852152770192_);}
	.st104{fill:url(#SVGID_00000008834649408753320380000006374168295873562759_);}
	.st105{fill:url(#SVGID_00000048461177577389663260000016864643906346799504_);}
	.st106{fill:url(#SVGID_00000159456055909206168720000017195561693628166067_);}
	.st107{fill:url(#SVGID_00000170251280842935583590000004782142483171075258_);}
	.st108{fill:url(#SVGID_00000116192892295814873440000000989162117183422863_);}
	.st109{fill:url(#SVGID_00000072263013693979627300000010566752379391911330_);}
	.st110{fill:url(#SVGID_00000110451061146953716330000014414954345062560168_);}
	.st111{fill:url(#SVGID_00000041255740274524045710000004887266792869427894_);}
	.st112{fill:url(#SVGID_00000114076093210451292170000014244620081152217247_);}
	.st113{fill:none;stroke:#3030FF;stroke-width:2.0587;stroke-miterlimit:10;}
	.st114{fill:url(#SVGID_00000059281276047623414400000005511578099339290243_);}
	.st115{fill:url(#SVGID_00000120561357410846662610000016338778260120794036_);}
	.st116{fill:url(#SVGID_00000147924959770054560810000018259282637851427508_);}
	.st117{fill:url(#SVGID_00000088850991443029599150000001993665893095765168_);}
	.st118{fill:url(#SVGID_00000157298926396067339330000010665764092359559064_);}
	.st119{fill:url(#SVGID_00000067929609163204651020000003886825981997302912_);}
	
		.st120{clip-path:url(#SVGID_00000025417773318860595950000011371366867003147692_);fill:url(#SVGID_00000160893071148300453690000011766877243956764074_);}
	.st121{clip-path:url(#SVGID_00000024695759930323554540000007284461954150985401_);}
	.st122{fill-rule:evenodd;clip-rule:evenodd;}
	.st123{clip-path:url(#SVGID_00000008135407058800196890000011599518781851605940_);}
	.st124{fill:url(#SVGID_00000064335852497959088500000012750594980472001667_);}
	.st125{fill:url(#SVGID_00000089568191767706470820000002739801201226106013_);}
	.st126{fill:url(#SVGID_00000038381617021186281650000009894860937004643000_);}
	.st127{fill:url(#SVGID_00000057849587264260016180000000576113446149024954_);}
	.st128{clip-path:url(#SVGID_00000119813095802663602020000004529296624220164278_);}
	.st129{fill:url(#SVGID_00000044180111662912737260000001160111399198726067_);}
	.st130{fill:url(#SVGID_00000005227661039290654780000018016696468177052344_);}
	.st131{fill:url(#SVGID_00000087394608005992870080000005539530890866459320_);}
	.st132{fill:url(#SVGID_00000031169375294015959820000006492745659746024582_);}
	.st133{fill:url(#SVGID_00000136385333728467616780000016588071083452013219_);}
	.st134{fill:url(#SVGID_00000024000909070525258910000001479615268999890071_);}
	.st135{fill:url(#SVGID_00000152244555689799634240000015092878858605002632_);}
	
		.st136{clip-path:url(#SVGID_00000183952623579855787500000004320555549455177913_);fill:url(#SVGID_00000151501813699180521790000009683195663205129879_);}
	.st137{fill:none;stroke:#FFFFFF;stroke-width:12.6291;stroke-miterlimit:10;}
	.st138{fill:none;stroke:#3030FF;stroke-width:1.4767;stroke-linecap:round;stroke-linejoin:round;}
	.st139{fill:url(#SVGID_00000144311136299912701920000017603346126675531405_);}
	.st140{fill:url(#SVGID_00000094577431434755933100000016005588918849538689_);}
	.st141{fill:url(#SVGID_00000005969719385170237510000005429617650517013892_);}
	.st142{fill:none;stroke:#FFFFFF;stroke-width:0.8399;stroke-linecap:round;stroke-linejoin:round;}
	.st143{fill:url(#SVGID_00000118361232724206397950000009964944885727050401_);}
	.st144{fill:url(#SVGID_00000142171641355406475860000006609557298818636963_);}
	.st145{fill:url(#SVGID_00000047027879694581511190000011131042062464260776_);}
	.st146{fill:url(#SVGID_00000101070361315912304530000015250381460563992727_);}
	.st147{stroke:#3030FF;stroke-width:2;stroke-miterlimit:10;}
	.st148{fill:none;stroke:#3030FF;stroke-width:2;stroke-miterlimit:10;}
	.st149{fill:none;stroke:#3030FF;stroke-width:0.9845;stroke-miterlimit:10;}
	.st150{clip-path:url(#SVGID_00000074428763045502630490000011672692845565051812_);}
	.st151{fill-rule:evenodd;clip-rule:evenodd;stroke:#000000;stroke-width:0.9887;stroke-miterlimit:10;}
	.st152{fill-rule:evenodd;clip-rule:evenodd;fill:#FFFFFF;stroke:#000000;stroke-width:0.6244;stroke-miterlimit:10;}
	.st153{stroke:#3030FF;stroke-width:3.27;stroke-miterlimit:10;}
	.st154{fill:url(#SVGID_00000155856369723912402530000000163486581042500744_);}
	.st155{fill:url(#SVGID_00000005982035317935173740000007964564954514667705_);}
	.st156{fill:url(#SVGID_00000145760323346005858720000015136250157029048238_);}
	.st157{fill:url(#SVGID_00000064321588635307400570000003533364029374121916_);}
	.st158{fill:url(#SVGID_00000039110281816313897190000006292260142264523415_);}
	.st159{fill:url(#SVGID_00000098196844867519072150000004766730574483371142_);}
	.st160{fill:url(#SVGID_00000137824847753716684230000013044987297561625511_);}
	.st161{fill:url(#SVGID_00000167367109920996121460000015373700779771410565_);}
	.st162{fill:url(#SVGID_00000086656598582939143630000015234279513288680112_);}
	.st163{fill:url(#SVGID_00000067933879286878026420000013879528802411750534_);}
	.st164{fill:url(#SVGID_00000061434939311335361780000016235183147911795592_);}
	.st165{fill:url(#SVGID_00000170251590055077185060000004179176168402828941_);}
	.st166{fill:url(#SVGID_00000136382703002413230990000015889263509414741663_);}
	.st167{fill:url(#SVGID_00000173160693543047215970000011387053482715465106_);}
	.st168{fill:url(#SVGID_00000057107396146687349450000005084407712335083911_);}
	.st169{fill:url(#SVGID_00000164513201019904185220000010932411000413667226_);}
	.st170{fill:url(#SVGID_00000096765845505168576190000015138050704404399026_);}
	.st171{fill:url(#SVGID_00000039838723574345158190000005003725239373938056_);}
	.st172{fill:url(#SVGID_00000182497655044231954920000003623365580054436268_);}
	.st173{fill:url(#SVGID_00000124158835899437277960000003686082147080029097_);}
	.st174{fill:url(#SVGID_00000145047589852218567870000001857165322784363449_);}
	.st175{fill:url(#SVGID_00000141446712562749552680000017544876444894479519_);}
	.st176{fill:url(#SVGID_00000133498003941650350290000012303155577497907863_);}
	.st177{fill:url(#SVGID_00000026847647865696082200000006575547051330457791_);}
	.st178{fill:url(#SVGID_00000114758533327198132210000000516751585973639097_);}
	.st179{fill:url(#SVGID_00000036944777706160598020000011552696786459134392_);}
	.st180{fill:url(#SVGID_00000074422267035658910070000003473862643685047711_);}
	.st181{fill:url(#SVGID_00000182500011219011963590000018310795414292815533_);}
	.st182{fill:url(#SVGID_00000062168405890107270660000007131337880042801303_);}
	.st183{fill:url(#SVGID_00000037671460911033323290000010101921087824332223_);}
	.st184{fill:url(#SVGID_00000109731878046735025720000017073535493254191491_);}
	.st185{fill:url(#SVGID_00000052790346595219980210000000938113744555184018_);}
	.st186{fill:url(#SVGID_00000083773118954780908570000008665299383302423211_);}
	.st187{clip-path:url(#SVGID_00000085211189990831852020000012658295949678631606_);}
	.st188{fill:#3030FF;stroke:#3030FF;stroke-width:1.9106;stroke-miterlimit:10;}
	.st189{fill:none;stroke:#000000;stroke-width:22;stroke-miterlimit:10;}
	.st190{fill:url(#SVGID_00000062873516494149390460000015897069745479251622_);}
	.st191{fill:#0073FF;}
	.st192{fill:#FF6F91;}
	.st193{fill:#E075FF;}
	.st194{fill:#EDEEF3;}
	.st195{fill:none;stroke:#EDEEF3;stroke-width:0.7369;stroke-miterlimit:10;}
	.st196{clip-path:url(#SVGID_00000106836985509294792490000011092426159346970523_);}
	.st197{fill:url(#SVGID_00000161618598284006243380000015359800738348600484_);}
	.st198{fill:none;stroke:#3030FF;stroke-width:6.7505;stroke-miterlimit:10;}
	.st199{fill:url(#SVGID_00000008835845237373066620000015681146066650515642_);}
	.st200{fill:url(#SVGID_00000144311909477406087830000003762557038459564953_);}
	.st201{clip-path:url(#SVGID_00000080893274890641958630000017321346676013339045_);}
	.st202{fill:url(#SVGID_00000035523943318205371370000007527080337742545836_);}
	.st203{fill:url(#SVGID_00000011012479952640886460000010578667190237438092_);}
	.st204{fill:url(#SVGID_00000020386687776771939920000017994790111511677617_);}
	.st205{fill:url(#SVGID_00000047056425955633238870000011646359130741429694_);}
	.st206{fill:url(#SVGID_00000091735720037083654920000009258600652758004360_);}
	.st207{fill:url(#SVGID_00000057840432983080451430000009640271858425709487_);}
	
		.st208{clip-path:url(#SVGID_00000065764518459486762990000000833221466438098068_);fill:url(#SVGID_00000034077878909219741970000005307214984926191806_);}
	
		.st209{clip-path:url(#SVGID_00000065764518459486762990000000833221466438098068_);fill:url(#SVGID_00000081642638362402404670000012447241934936857502_);}
	.st210{clip-path:url(#SVGID_00000090271661742671411170000012524528752912002178_);}
	.st211{fill:url(#SVGID_00000152241625681918747980000014503063864826716347_);}
	.st212{fill:url(#SVGID_00000083787215327596345040000012273735884537603984_);}
	.st213{fill:url(#SVGID_00000181794543093138348530000009088704678725514929_);}
	.st214{fill:url(#SVGID_00000067227617153028169490000001784518677823975848_);}
	.st215{fill:url(#SVGID_00000016768634061180049690000000171342404416490381_);}
	.st216{fill:url(#SVGID_00000057867705971584049920000012516499060161347251_);}
	.st217{fill:none;stroke:#FFFFFF;stroke-width:1.4827;stroke-miterlimit:10;}
	.st218{clip-path:url(#SVGID_00000111193118020172259920000018062249769033815220_);}
	.st219{fill:url(#SVGID_00000050630413154233141560000014328473418366442174_);}
	.st220{fill:url(#SVGID_00000094581500374113489310000005054390833350119558_);}
	.st221{fill:url(#SVGID_00000129886648795440385530000017776815261470192026_);}
	.st222{fill:url(#SVGID_00000179606002268522914210000017606632485145603463_);}
	.st223{stroke:#FF6F91;stroke-width:2;stroke-miterlimit:10;}
	.st224{fill:none;stroke:#FF6F91;stroke-width:2;stroke-miterlimit:10;}
	.st225{stroke:#E075FF;stroke-width:2;stroke-miterlimit:10;}
	.st226{fill:none;stroke:#E075FF;stroke-width:2;stroke-miterlimit:10;}
	.st227{stroke:#0073FF;stroke-width:2;stroke-miterlimit:10;}
	.st228{fill:none;stroke:#0073FF;stroke-width:2;stroke-miterlimit:10;}
	.st229{fill:url(#SVGID_00000124854642158591956670000011619185194719182749_);}
	.st230{fill:url(#SVGID_00000060736578721689189910000015646068316866543752_);}
	.st231{fill:url(#SVGID_00000145039163816657823240000010846906236231949984_);}
	.st232{fill:url(#SVGID_00000097464274452354440050000013914550447125706922_);}
	.st233{fill:url(#SVGID_00000026855676908050478430000003655318029392179587_);}
	.st234{fill:url(#SVGID_00000083051309248830112570000000679195196319652244_);}
	.st235{fill:url(#SVGID_00000165214404657150176160000017590315161413019012_);}
	.st236{fill:url(#SVGID_00000165914415471562855320000013567668214373029003_);}
	.st237{fill:url(#SVGID_00000178205618634815957340000012053596141886119060_);}
	.st238{fill:url(#SVGID_00000083083423389082235940000016478815531075367082_);}
	.st239{fill:url(#SVGID_00000018943755560009054160000017649855390079524003_);}
	.st240{fill:url(#SVGID_00000116957917544813454400000001515030502953901189_);}
	.st241{fill:url(#SVGID_00000155104451056049436610000016261369744507331470_);}
	.st242{fill:url(#SVGID_00000020393864850046696650000000039027727154738333_);}
	.st243{fill:url(#SVGID_00000047037429504085569930000007045298953861796260_);}
	.st244{fill:url(#SVGID_00000078004174263538653340000010358106331092186767_);}
	.st245{fill:url(#SVGID_00000031893661964920186270000014748195977067268774_);}
	.st246{fill:url(#SVGID_00000040571299949995735520000011831225864920823182_);}
	.st247{fill:none;stroke:#3030FF;stroke-width:1.4271;stroke-miterlimit:10;}
	.st248{fill:url(#SVGID_00000111157829910020929200000012649470644323710865_);}
	.st249{fill:url(#SVGID_00000154391811904420784410000016438421225011279764_);}
	.st250{fill:#302DF9;}
	.st251{fill:url(#SVGID_00000126316471423350329710000007513914866319687310_);}
	.st252{fill:url(#SVGID_00000173130921291666499720000014835079364612999051_);}
	.st253{fill:url(#SVGID_00000041254019728916524070000003760882669002287540_);}
	.st254{fill:url(#SVGID_00000146466689780409577650000013381121797314914443_);}
	.st255{fill:url(#SVGID_00000163065514443155685760000001613898250206470020_);}
	.st256{fill:url(#SVGID_00000009554793612983234170000000209471584551576210_);}
	.st257{fill:none;stroke:#3030FF;stroke-width:1.3699;stroke-miterlimit:10;}
	.st258{fill:url(#SVGID_00000166640660680642465100000013821690361757408154_);}
	.st259{fill:url(#SVGID_00000152240103296948302510000005155421502000083844_);}
	.st260{fill:url(#SVGID_00000059292946366730519670000016910312365186578357_);}
	.st261{fill:url(#SVGID_00000017505277114150202470000009543694059168233369_);}
	.st262{fill:url(#SVGID_00000147923867294886121240000006209541835404640936_);}
	.st263{fill:url(#SVGID_00000026867731877046726510000016762935446379873680_);}
	.st264{fill:url(#SVGID_00000080175920172093398780000007231754999642283679_);}
	.st265{fill:url(#SVGID_00000017476955059412831250000004538277792817089724_);}
	.st266{fill:url(#SVGID_00000135669810681633849290000016024192656926805924_);}
	.st267{fill:url(#SVGID_00000135684193712069074910000015566658472569347977_);}
	.st268{fill:url(#SVGID_00000165211779583102096980000014337152994738722450_);}
	.st269{fill:url(#SVGID_00000147934957411971220280000007247704494818776211_);}
	.st270{fill:url(#SVGID_00000049933426044036472540000010163306926353217162_);}
	.st271{fill:url(#SVGID_00000176014340557023393960000010858851636909897108_);}
	.st272{fill:url(#SVGID_00000124867099439698394370000005695402603575300539_);}
	.st273{fill:url(#SVGID_00000028301893726516073750000002222090963758322359_);}
	.st274{fill:none;stroke:#3030FF;stroke-width:1.4613;stroke-miterlimit:10;}
	.st275{fill:url(#SVGID_00000044149597979935455090000015910151996514977471_);}
	.st276{fill:url(#SVGID_00000175304358391314900810000009627656425003507121_);}
	.st277{fill:url(#SVGID_00000036238000868100564520000003023991831797153690_);}
	.st278{fill:url(#SVGID_00000050633968970901797800000006609049750145903525_);}
	.st279{fill:url(#SVGID_00000029747170313511219120000012892613412121255343_);}
	.st280{fill:url(#SVGID_00000042004866172664166280000006760912940157534126_);}
	.st281{fill:#3030FF;stroke:#3030FF;stroke-width:0.958;stroke-miterlimit:10;}
	.st282{fill:none;stroke:#2B2B2B;stroke-miterlimit:10;}
	.st283{fill:none;stroke:#C25BA2;stroke-width:10;stroke-miterlimit:10;}
	.st284{fill:url(#SVGID_00000137821806360741044300000015814268582029824959_);}
	.st285{fill:url(#SVGID_00000180345729514730949150000016225723772622246031_);}
	.st286{fill:url(#SVGID_00000088130495364969169960000009304980698150954918_);}
	.st287{fill:url(#SVGID_00000101796113693021196240000012664714489118787992_);}
	.st288{fill:url(#SVGID_00000130626236812221840750000002234528204578256289_);}
	.st289{fill:url(#SVGID_00000168076830604046754530000001070985574271357866_);}
	.st290{fill:url(#SVGID_00000168092362196148941090000000307716289148119952_);}
	.st291{fill:url(#SVGID_00000133505311328699889710000016069453139873712518_);}
	.st292{fill:url(#SVGID_00000070821085150613683440000000781166242053188494_);}
	.st293{fill:url(#SVGID_00000066477269348471418310000001614946148507567234_);}
	.st294{fill:url(#SVGID_00000012466417811052008000000004664587495881357503_);}
	.st295{fill:url(#SVGID_00000142882820186002456650000001839402924908646318_);}
	.st296{fill:url(#SVGID_00000014593421419187142210000004334091589819137692_);}
	.st297{fill:url(#SVGID_00000155852957471251254290000017608557871551770261_);}
	.st298{fill:none;stroke:#3030FF;stroke-width:4.9484;stroke-miterlimit:10;}
	.st299{fill:url(#SVGID_00000075871289906988076310000010533844813727511695_);}
	.st300{fill:url(#SVGID_00000099640675637478195090000005160862518060097928_);}
	.st301{fill:url(#SVGID_00000036967361696257660320000005078375993549619339_);}
	.st302{fill:url(#SVGID_00000116957742638477069120000009573309096937368484_);}
	.st303{fill:url(#SVGID_00000173129139593614609780000004689940945869256577_);}
	.st304{fill:url(#SVGID_00000000940180622071617100000016616167338070077603_);}
	.st305{fill:url(#SVGID_00000098941586108637806020000000899448762992219305_);}
	.st306{fill:url(#SVGID_00000144300418932533534560000001031649069762878616_);}
	.st307{fill:url(#SVGID_00000054238241705995821170000014705024589759639220_);}
	.st308{fill:url(#SVGID_00000128444445467573984520000001550737260210192815_);}
	.st309{fill:url(#SVGID_00000021117844565463266080000013529749646803755924_);}
	.st310{fill:url(#SVGID_00000069378275254686578590000006799751916315569559_);}
	.st311{fill:url(#SVGID_00000094590066368383100510000013391383030660209082_);}
	.st312{fill:url(#SVGID_00000021833038210740104040000008206243804111436708_);}
	.st313{fill:url(#SVGID_00000017484091232742886990000008992653228565379518_);}
	.st314{fill:url(#SVGID_00000070819772628397264650000017047064534695663505_);}
	.st315{fill:url(#SVGID_00000047763487308738265620000014437883409090154417_);}
	.st316{fill:url(#SVGID_00000116199185490995096770000014696153025139695769_);}
	.st317{fill:url(#SVGID_00000074443711239961122500000007288414086108214415_);}
	.st318{fill:url(#SVGID_00000036937823718771922580000003138738360136771251_);}
	.st319{fill:url(#SVGID_00000133508479139983310940000016300097028045381510_);}
	.st320{fill:url(#SVGID_00000080183995753964322230000014410763587326358925_);}
	.st321{fill:url(#SVGID_00000052807515040528646920000015655730572729768577_);}
	.st322{fill:url(#SVGID_00000156563986063380987200000005660018950033187774_);}
	.st323{fill:url(#SVGID_00000107546134975594024840000003998202298389910201_);}
	.st324{fill:url(#SVGID_00000043453247815586486200000012560986548123185576_);}
	.st325{fill:url(#SVGID_00000023966028527619998430000001110225686335457164_);}
	.st326{fill:url(#SVGID_00000017512667502985162210000003496448730913636795_);}
	.st327{fill:url(#SVGID_00000130639377410053544410000003523871506744908692_);}
	.st328{fill:url(#SVGID_00000066514278415784390860000007795455902206486430_);}
	.st329{fill:url(#SVGID_00000116952112940475036180000003761249587672818818_);}
	.st330{fill:url(#SVGID_00000174603892773529864520000011185637199731216542_);}
	.st331{fill:url(#SVGID_00000002384517365855652250000015728467510863672205_);}
	.st332{fill:url(#SVGID_00000171689217600247717810000001924871941399052441_);}
	.st333{fill:url(#SVGID_00000072979975149847927330000009070186372646688403_);}
	.st334{fill:url(#SVGID_00000044141668166013363820000004263879124191662992_);}
	.st335{fill:url(#SVGID_00000142152493187732867460000000150427783396862119_);}
	.st336{fill:url(#SVGID_00000124148506872624604480000004965072584504993463_);}
	.st337{fill:url(#SVGID_00000019659193524234929120000002850341072284958879_);}
	.st338{fill:url(#SVGID_00000132067170693069485700000009516285413006019239_);}
	.st339{fill:url(#SVGID_00000098222133817327759210000009270613982172878734_);}
	.st340{fill:url(#SVGID_00000164499437661807945530000005496699139736820398_);}
	.st341{fill:url(#SVGID_00000123425730877583971180000016894924694753631150_);}
	.st342{fill:url(#SVGID_00000145780729068453138480000014151168058479321480_);}
	.st343{fill:url(#SVGID_00000012462744726076802460000009862401416145306243_);}
	.st344{fill:none;stroke:#3030FF;stroke-width:3.7755;stroke-miterlimit:10;}
	.st345{fill:url(#SVGID_00000142859370297101967790000015752239378380247471_);}
	.st346{fill:url(#SVGID_00000121269170777343609170000014307204457541130891_);}
	.st347{fill:url(#SVGID_00000044887827704388748550000006288558653777549193_);}
	.st348{fill:url(#SVGID_00000101076684912724901280000000910388330463795390_);}
	.st349{fill:url(#SVGID_00000109720565693231350550000017429799320388686743_);}
	.st350{fill:url(#SVGID_00000065057570573109923400000013774393640046845064_);}
	
		.st351{fill:none;stroke:url(#SVGID_00000072240271898344793100000014783060819758402983_);stroke-width:1.2585;stroke-miterlimit:10;}
	
		.st352{fill:none;stroke:url(#SVGID_00000122704931232649590380000016234865068791693207_);stroke-width:1.2585;stroke-miterlimit:10;}
	
		.st353{fill:none;stroke:url(#SVGID_00000167373365594051251810000004210307294791010204_);stroke-width:1.2585;stroke-miterlimit:10;}
	
		.st354{fill:none;stroke:url(#SVGID_00000060745264766241312060000017026846767077290414_);stroke-width:1.2585;stroke-miterlimit:10;}
	
		.st355{fill:none;stroke:url(#SVGID_00000069372816648153730440000007792069342660115593_);stroke-width:1.2585;stroke-miterlimit:10;}
	
		.st356{fill:none;stroke:url(#SVGID_00000012470152010527027320000015752542819225092226_);stroke-width:1.2585;stroke-miterlimit:10;}
	.st357{fill-rule:evenodd;clip-rule:evenodd;fill:#FFFFFF;stroke:#000000;stroke-width:2.5298;stroke-miterlimit:10;}
	.st358{fill:url(#SVGID_00000091713436875436691910000000909854612025531823_);}
	.st359{fill:url(#SVGID_00000178902995227863999260000017561945814753943440_);}
	.st360{fill:url(#SVGID_00000169531156345226141560000004075866525367585689_);}
	.st361{fill:url(#SVGID_00000021832440640718834150000010219751707990489248_);}
	.st362{fill:url(#SVGID_00000099660066499866103810000001702229674587300760_);}
	.st363{fill:url(#SVGID_00000087392758900453653050000005566256576486320003_);}
	.st364{fill:url(#SVGID_00000167389650125995784500000007205548500256961408_);}
	.st365{fill:url(#SVGID_00000075128980972813418950000016089344458626692994_);}
</style>
<rect x="-10718.19" y="-3936.69" width="16397.75" height="16332.66"/>
<g>
	<defs>
		<rect id="SVGID_00000084527774327098635120000003223926067609763209_" y="-1534.09" width="4116.34" height="1292.07"/>
	</defs>
	
		<radialGradient id="SVGID_00000120519786691531200860000000860487255229803672_" cx="2752.0591" cy="-559.0977" r="3768.7273" gradientTransform="matrix(0.935 -0.3546 0.2037 0.5372 292.7229 717.0951)" gradientUnits="userSpaceOnUse">
		<stop  offset="0" style="stop-color:#0073FF"/>
		<stop  offset="0.0855" style="stop-color:#0A65FF"/>
		<stop  offset="0.3541" style="stop-color:#253FFF"/>
		<stop  offset="0.4947" style="stop-color:#3030FF"/>
		<stop  offset="0.6032" style="stop-color:#2829D4"/>
		<stop  offset="0.7935" style="stop-color:#1A1C8D"/>
		<stop  offset="0.9307" style="stop-color:#111561"/>
		<stop  offset="1" style="stop-color:#0E1250"/>
	</radialGradient>
	
		<use xlink:href="#SVGID_00000084527774327098635120000003223926067609763209_"  style="overflow:visible;fill:url(#SVGID_00000120519786691531200860000000860487255229803672_);"/>
	<clipPath id="SVGID_00000033364552616269080410000011583376039107094719_">
		<use xlink:href="#SVGID_00000084527774327098635120000003223926067609763209_"  style="overflow:visible;"/>
	</clipPath>
</g>
<g>
	<defs>
		<rect id="SVGID_00000163784270443299910170000011393674350008299668_" x="1278.68" y="241.54" width="549.36" height="809.69"/>
	</defs>
	
		<radialGradient id="SVGID_00000084517609744058554140000012891953524262700452_" cx="1812.7708" cy="223.1158" r="1093.7441" gradientUnits="userSpaceOnUse">
		<stop  offset="0" style="stop-color:#000000;stop-opacity:0"/>
		<stop  offset="0.2398" style="stop-color:#000002;stop-opacity:0.278"/>
		<stop  offset="0.3585" style="stop-color:#02020A;stop-opacity:0.4156"/>
		<stop  offset="0.4507" style="stop-color:#040417;stop-opacity:0.5225"/>
		<stop  offset="0.5292" style="stop-color:#08082A;stop-opacity:0.6135"/>
		<stop  offset="0.599" style="stop-color:#0C0C42;stop-opacity:0.6944"/>
		<stop  offset="0.6626" style="stop-color:#121260;stop-opacity:0.7681"/>
		<stop  offset="0.7216" style="stop-color:#191984;stop-opacity:0.8364"/>
		<stop  offset="0.7769" style="stop-color:#2121AD;stop-opacity:0.9005"/>
		<stop  offset="0.8273" style="stop-color:#2929DA;stop-opacity:0.959"/>
		<stop  offset="0.8627" style="stop-color:#3030FF"/>
	</radialGradient>
	
		<use xlink:href="#SVGID_00000163784270443299910170000011393674350008299668_"  style="overflow:visible;fill:url(#SVGID_00000084517609744058554140000012891953524262700452_);"/>
	<clipPath id="SVGID_00000137845916583922618820000015723143054012211848_">
		<use xlink:href="#SVGID_00000163784270443299910170000011393674350008299668_"  style="overflow:visible;"/>
	</clipPath>
</g>
<g>
	<defs>
		<rect id="SVGID_00000100370641478312074430000003581050683030348935_" x="-2792.51" y="0" width="2425.28" height="1292.07"/>
	</defs>
	<clipPath id="SVGID_00000137099725801911803510000006309282487398571663_">
		<use xlink:href="#SVGID_00000100370641478312074430000003581050683030348935_"  style="overflow:visible;"/>
	</clipPath>
</g>
<rect y="0" class="st53" width="2486.94" height="1292.77"/>
<g>
	<defs>
		<rect id="SVGID_00000139251526585423483770000004466674142543856272_" y="1562.77" width="4116.34" height="1292.07"/>
	</defs>
	<clipPath id="SVGID_00000054251270376505535000000013422202878644658876_">
		<use xlink:href="#SVGID_00000139251526585423483770000004466674142543856272_"  style="overflow:visible;"/>
	</clipPath>
	<g style="clip-path:url(#SVGID_00000054251270376505535000000013422202878644658876_);">
		
			<radialGradient id="SVGID_1_" cx="3667.0522" cy="540.9965" r="1107.1654" gradientTransform="matrix(4.489700e-11 -1 1 4.489700e-11 724.3039 5658.3945)" gradientUnits="userSpaceOnUse">
			<stop  offset="0" style="stop-color:#000000;stop-opacity:0"/>
			<stop  offset="0.278" style="stop-color:#000002;stop-opacity:0.278"/>
			<stop  offset="0.4156" style="stop-color:#02020A;stop-opacity:0.4156"/>
			<stop  offset="0.5225" style="stop-color:#040417;stop-opacity:0.5225"/>
			<stop  offset="0.6135" style="stop-color:#08082A;stop-opacity:0.6135"/>
			<stop  offset="0.6944" style="stop-color:#0C0C42;stop-opacity:0.6944"/>
			<stop  offset="0.7681" style="stop-color:#121260;stop-opacity:0.7681"/>
			<stop  offset="0.8364" style="stop-color:#191984;stop-opacity:0.8364"/>
			<stop  offset="0.9005" style="stop-color:#2121AD;stop-opacity:0.9005"/>
			<stop  offset="0.959" style="stop-color:#2929DA;stop-opacity:0.959"/>
			<stop  offset="1" style="stop-color:#3030FF"/>
		</radialGradient>
		<polygon class="st0" points="1265.3,751.09 2505.55,1991.34 1265.3,3231.59 25.05,1991.34 		"/>
		
			<radialGradient id="SVGID_00000105388573945976716150000010885352691123457187_" cx="3667.0522" cy="-122.4291" r="1107.1654" gradientTransform="matrix(4.489700e-11 -1 1 4.489700e-11 724.3039 5658.3945)" gradientUnits="userSpaceOnUse">
			<stop  offset="0" style="stop-color:#000000;stop-opacity:0"/>
			<stop  offset="0.278" style="stop-color:#000002;stop-opacity:0.278"/>
			<stop  offset="0.4156" style="stop-color:#02020A;stop-opacity:0.4156"/>
			<stop  offset="0.5225" style="stop-color:#040417;stop-opacity:0.5225"/>
			<stop  offset="0.6135" style="stop-color:#08082A;stop-opacity:0.6135"/>
			<stop  offset="0.6944" style="stop-color:#0C0C42;stop-opacity:0.6944"/>
			<stop  offset="0.7681" style="stop-color:#121260;stop-opacity:0.7681"/>
			<stop  offset="0.8364" style="stop-color:#191984;stop-opacity:0.8364"/>
			<stop  offset="0.9005" style="stop-color:#2121AD;stop-opacity:0.9005"/>
			<stop  offset="0.959" style="stop-color:#2929DA;stop-opacity:0.959"/>
			<stop  offset="1" style="stop-color:#3030FF"/>
		</radialGradient>
		<polygon style="fill:url(#SVGID_00000105388573945976716150000010885352691123457187_);" points="601.87,751.09 1842.13,1991.34 
			601.87,3231.59 -638.38,1991.34 		"/>
		<g>
			
				<radialGradient id="SVGID_00000037688174695512329420000016730518489723451294_" cx="4026.5215" cy="5715.8203" r="950.1141" gradientTransform="matrix(-0.7468 -0.665 -0.1694 0.1902 5529.1323 2961.4778)" gradientUnits="userSpaceOnUse">
				<stop  offset="0" style="stop-color:#000000;stop-opacity:0"/>
				<stop  offset="0.2708" style="stop-color:#000002;stop-opacity:0.278"/>
				<stop  offset="0.4048" style="stop-color:#02020A;stop-opacity:0.4156"/>
				<stop  offset="0.5089" style="stop-color:#040417;stop-opacity:0.5225"/>
				<stop  offset="0.5976" style="stop-color:#08082A;stop-opacity:0.6135"/>
				<stop  offset="0.6764" style="stop-color:#0C0C42;stop-opacity:0.6944"/>
				<stop  offset="0.7482" style="stop-color:#121260;stop-opacity:0.7681"/>
				<stop  offset="0.8148" style="stop-color:#191984;stop-opacity:0.8364"/>
				<stop  offset="0.8772" style="stop-color:#2121AD;stop-opacity:0.9005"/>
				<stop  offset="0.9341" style="stop-color:#2929DA;stop-opacity:0.959"/>
				<stop  offset="0.9741" style="stop-color:#3030FF"/>
			</radialGradient>
			<polygon style="fill:url(#SVGID_00000037688174695512329420000016730518489723451294_);" points="2505.55,1991.34 1265.3,751.09 
				601.87,751.09 1842.13,1991.34 			"/>
		</g>
		<g>
			
				<radialGradient id="SVGID_00000085943837459790648750000003050736194255029677_" cx="3706.6809" cy="-11.016" r="950.1141" gradientTransform="matrix(0.7468 -0.665 0.1694 0.1902 -2452.9526 3838.2883)" gradientUnits="userSpaceOnUse">
				<stop  offset="0" style="stop-color:#000000;stop-opacity:0"/>
				<stop  offset="0.2708" style="stop-color:#000002;stop-opacity:0.278"/>
				<stop  offset="0.4048" style="stop-color:#02020A;stop-opacity:0.4156"/>
				<stop  offset="0.5089" style="stop-color:#040417;stop-opacity:0.5225"/>
				<stop  offset="0.5976" style="stop-color:#08082A;stop-opacity:0.6135"/>
				<stop  offset="0.6764" style="stop-color:#0C0C42;stop-opacity:0.6944"/>
				<stop  offset="0.7482" style="stop-color:#121260;stop-opacity:0.7681"/>
				<stop  offset="0.8148" style="stop-color:#191984;stop-opacity:0.8364"/>
				<stop  offset="0.8772" style="stop-color:#2121AD;stop-opacity:0.9005"/>
				<stop  offset="0.9341" style="stop-color:#2929DA;stop-opacity:0.959"/>
				<stop  offset="0.9741" style="stop-color:#3030FF"/>
			</radialGradient>
			<polygon style="fill:url(#SVGID_00000085943837459790648750000003050736194255029677_);" points="-638.38,1991.34 601.87,751.09 
				1265.3,751.09 25.05,1991.34 			"/>
		</g>
	</g>
</g>
<rect x="869.12" y="302.56" class="st19" width="181.37" height="181.37"/>
<g>
	<defs>
		<rect id="SVGID_00000029738903489123510300000015163531120048351663_" x="658.91" y="241.54" width="549.36" height="809.69"/>
	</defs>
	
		<radialGradient id="SVGID_00000110449567801501783630000007288199585805073032_" cx="1201.3452" cy="237.2275" r="1021.4487" gradientUnits="userSpaceOnUse">
		<stop  offset="0" style="stop-color:#000000;stop-opacity:0"/>
		<stop  offset="0.2398" style="stop-color:#000002;stop-opacity:0.278"/>
		<stop  offset="0.3585" style="stop-color:#02020A;stop-opacity:0.4156"/>
		<stop  offset="0.4507" style="stop-color:#040417;stop-opacity:0.5225"/>
		<stop  offset="0.5292" style="stop-color:#08082A;stop-opacity:0.6135"/>
		<stop  offset="0.599" style="stop-color:#0C0C42;stop-opacity:0.6944"/>
		<stop  offset="0.6626" style="stop-color:#121260;stop-opacity:0.7681"/>
		<stop  offset="0.7216" style="stop-color:#191984;stop-opacity:0.8364"/>
		<stop  offset="0.7769" style="stop-color:#2121AD;stop-opacity:0.9005"/>
		<stop  offset="0.8273" style="stop-color:#2929DA;stop-opacity:0.959"/>
		<stop  offset="0.8627" style="stop-color:#3030FF"/>
	</radialGradient>
	
		<use xlink:href="#SVGID_00000029738903489123510300000015163531120048351663_"  style="overflow:visible;fill:url(#SVGID_00000110449567801501783630000007288199585805073032_);"/>
	<clipPath id="SVGID_00000054981299182541148100000016605220457332350376_">
		<use xlink:href="#SVGID_00000029738903489123510300000015163531120048351663_"  style="overflow:visible;"/>
	</clipPath>
	
		<radialGradient id="SVGID_00000079468433952102011260000014841496307333355925_" cx="869.1178" cy="302.5599" r="257.2403" gradientUnits="userSpaceOnUse">
		<stop  offset="0" style="stop-color:#000000;stop-opacity:0"/>
		<stop  offset="0.2398" style="stop-color:#000002;stop-opacity:0.278"/>
		<stop  offset="0.3585" style="stop-color:#02020A;stop-opacity:0.4156"/>
		<stop  offset="0.4507" style="stop-color:#040417;stop-opacity:0.5225"/>
		<stop  offset="0.5292" style="stop-color:#08082A;stop-opacity:0.6135"/>
		<stop  offset="0.599" style="stop-color:#0C0C42;stop-opacity:0.6944"/>
		<stop  offset="0.6626" style="stop-color:#121260;stop-opacity:0.7681"/>
		<stop  offset="0.7216" style="stop-color:#191984;stop-opacity:0.8364"/>
		<stop  offset="0.7769" style="stop-color:#2121AD;stop-opacity:0.9005"/>
		<stop  offset="0.8273" style="stop-color:#2929DA;stop-opacity:0.959"/>
		<stop  offset="0.8627" style="stop-color:#3030FF"/>
	</radialGradient>
	
		<rect x="687.74" y="121.19" style="clip-path:url(#SVGID_00000054981299182541148100000016605220457332350376_);fill:url(#SVGID_00000079468433952102011260000014841496307333355925_);" width="362.75" height="362.75"/>
	
		<radialGradient id="SVGID_00000002367838759495695420000003173187262252755619_" cx="1106.8696" cy="540.3118" r="335.1667" gradientUnits="userSpaceOnUse">
		<stop  offset="0" style="stop-color:#000000;stop-opacity:0"/>
		<stop  offset="0.2398" style="stop-color:#000002;stop-opacity:0.278"/>
		<stop  offset="0.3585" style="stop-color:#02020A;stop-opacity:0.4156"/>
		<stop  offset="0.4507" style="stop-color:#040417;stop-opacity:0.5225"/>
		<stop  offset="0.5292" style="stop-color:#08082A;stop-opacity:0.6135"/>
		<stop  offset="0.599" style="stop-color:#0C0C42;stop-opacity:0.6944"/>
		<stop  offset="0.6626" style="stop-color:#121260;stop-opacity:0.7681"/>
		<stop  offset="0.7216" style="stop-color:#191984;stop-opacity:0.8364"/>
		<stop  offset="0.7769" style="stop-color:#2121AD;stop-opacity:0.9005"/>
		<stop  offset="0.8273" style="stop-color:#2929DA;stop-opacity:0.959"/>
		<stop  offset="0.8627" style="stop-color:#3030FF"/>
	</radialGradient>
	
		<rect x="869.12" y="302.56" style="clip-path:url(#SVGID_00000054981299182541148100000016605220457332350376_);fill:url(#SVGID_00000002367838759495695420000003173187262252755619_);" width="475.5" height="475.5"/>
</g>
<g>
	<path class="st1" d="M694.87,759.21c-3.16-3.42-4.73-8.53-4.73-15.32v-8.15c0-6.79,1.58-11.9,4.73-15.32
		c3.16-3.42,7.7-5.13,13.64-5.13c5.48,0,9.65,1.42,12.51,4.26c2.86,2.84,4.33,6.99,4.42,12.44v0.92h-7.04v-1.28
		c-0.09-3.55-1-6.27-2.75-8.15c-1.74-1.88-4.15-2.83-7.22-2.83c-2.26,0-4.22,0.53-5.88,1.58c-1.67,1.05-2.96,2.66-3.9,4.82
		s-1.4,4.84-1.4,8.04v9.44c0,3.22,0.46,5.91,1.4,8.07c0.93,2.16,2.24,3.76,3.91,4.82c1.68,1.05,3.65,1.58,5.93,1.58
		c3.13,0,5.61-0.97,7.41-2.91c1.81-1.94,2.75-4.74,2.81-8.4v-1.48h7.07v1.08c-0.04,5.59-1.53,9.83-4.45,12.72
		c-2.93,2.89-7.2,4.34-12.81,4.34C702.58,764.34,698.03,762.63,694.87,759.21z"/>
	<path class="st1" d="M734.44,760.45c-2.55-2.6-3.83-6.39-3.83-11.39v-5c0-5.02,1.28-8.82,3.83-11.41c2.55-2.59,6.25-3.88,11.1-3.88
		s8.54,1.29,11.08,3.88c2.54,2.59,3.81,6.39,3.81,11.41v5c0,5-1.27,8.79-3.81,11.39s-6.24,3.9-11.08,3.9
		S736.99,763.04,734.44,760.45z M751.61,757.03c1.47-1.7,2.2-4.2,2.2-7.51v-5.92c0-3.31-0.73-5.81-2.2-7.51
		c-1.47-1.7-3.5-2.55-6.08-2.55c-2.61,0-4.65,0.84-6.12,2.53c-1.47,1.69-2.2,4.2-2.2,7.53v5.92c0,3.33,0.73,5.84,2.2,7.53
		c1.47,1.69,3.51,2.53,6.12,2.53C748.12,759.57,750.15,758.72,751.61,757.03z"/>
	<path class="st1" d="M766.15,729.72h6.48v5.19c0.83-1.97,2.11-3.48,3.83-4.54c1.72-1.05,3.78-1.58,6.16-1.58
		c2.48,0,4.5,0.57,6.07,1.71c1.57,1.14,2.61,2.82,3.14,5.03c0.79-2.17,2.08-3.84,3.86-5c1.79-1.16,3.95-1.74,6.49-1.74
		c3.11,0,5.5,0.88,7.17,2.63c1.67,1.75,2.5,4.33,2.5,7.73v24.23h-6.48v-23.05c0-2.17-0.53-3.82-1.58-4.96
		c-1.05-1.14-2.52-1.71-4.41-1.71c-1.38,0-2.61,0.31-3.7,0.92c-1.08,0.61-1.93,1.49-2.55,2.63s-0.92,2.49-0.92,4.04v22.13h-6.48
		v-23.05c0-2.17-0.53-3.82-1.58-4.96c-1.05-1.14-2.51-1.71-4.37-1.71c-1.38,0-2.61,0.31-3.7,0.92c-1.08,0.61-1.93,1.49-2.55,2.63
		c-0.61,1.14-0.92,2.49-0.92,4.04v22.13h-6.48V729.72z"/>
	<path class="st1" d="M818.45,729.72h6.48v6.15c0.94-2.37,2.34-4.14,4.21-5.31c1.86-1.17,4.12-1.76,6.77-1.76
		c3.88,0,6.88,1.24,9.01,3.73c2.12,2.49,3.19,6.26,3.19,11.33v5.39c0,5.06-1.06,8.84-3.19,11.33c-2.13,2.49-5.13,3.73-9.01,3.73
		c-2.65,0-4.91-0.59-6.77-1.76s-3.27-2.95-4.21-5.34v19.66h-6.48V729.72z M839.33,757.04c1.47-1.69,2.2-4.19,2.2-7.5v-5.98
		c0-3.31-0.73-5.81-2.2-7.5c-1.47-1.69-3.48-2.53-6.05-2.53c-2.59,0-4.62,0.85-6.12,2.56c-1.49,1.71-2.24,4.22-2.24,7.53v5.85
		c0,3.31,0.75,5.82,2.24,7.53s3.53,2.56,6.12,2.56C835.84,759.57,837.86,758.73,839.33,757.04z"/>
	<path class="st1" d="M862.05,757.65c1.14,1.19,2.75,1.79,4.83,1.79c1.53,0,2.89-0.32,4.08-0.97c1.18-0.65,2.1-1.57,2.75-2.76
		c0.65-1.19,0.97-2.58,0.97-4.16v-21.83h6.48v33.67h-6.48v-5.42c-0.88,2.04-2.23,3.61-4.06,4.7s-4.04,1.64-6.62,1.64
		c-3.29,0-5.8-0.9-7.55-2.7c-1.74-1.8-2.61-4.45-2.61-7.96v-23.93h6.51v22.72C860.34,754.72,860.91,756.46,862.05,757.65z"/>
	<path class="st1" d="M894.13,761.97c-1.51-1.21-2.27-3.04-2.27-5.49v-22.16h-6.12v-4.6h6.12v-9.76h6.51v9.76h8.48v4.6h-8.48v20.65
		c0,2.41,1.68,3.62,5.03,3.62c1.14,0,2.3-0.1,3.48-0.3v5c-1.58,0.33-3.34,0.49-5.29,0.49C898.13,763.78,895.65,763.18,894.13,761.97
		z"/>
	<path class="st1" d="M913.79,760.45c-2.56-2.6-3.85-6.39-3.85-11.39v-5c0-5.02,1.27-8.82,3.81-11.41
		c2.54-2.59,6.24-3.88,11.08-3.88c4.73,0,8.3,1.27,10.7,3.81c2.4,2.54,3.6,6.32,3.6,11.34v4.14h-22.59v1.64
		c0,3.31,0.74,5.8,2.22,7.48s3.53,2.52,6.16,2.52c2.3,0,4.1-0.62,5.41-1.86s2.01-2.98,2.12-5.21v-0.26h6.51v0.23
		c-0.13,3.64-1.36,6.5-3.7,8.6c-2.33,2.09-5.76,3.14-10.27,3.14C920.09,764.34,916.36,763.04,913.79,760.45z M932.6,743.73v-1.31
		c-0.09-3.09-0.79-5.38-2.12-6.85c-1.33-1.48-3.21-2.22-5.64-2.22c-2.63,0-4.67,0.83-6.11,2.5c-1.45,1.67-2.17,4.16-2.17,7.5v0.39
		H932.6z"/>
	<path class="st1" d="M697.14,824.86c-1.51-1.21-2.27-3.04-2.27-5.49v-22.16h-6.12v-4.6h6.12v-9.76h6.51v9.76h8.48v4.6h-8.48v20.65
		c0,2.41,1.68,3.62,5.03,3.62c1.14,0,2.3-0.1,3.48-0.3v5c-1.58,0.33-3.34,0.49-5.29,0.49C701.14,826.67,698.65,826.07,697.14,824.86
		z"/>
	<path class="st1" d="M733.99,798.35c-1.14-1.19-2.75-1.79-4.83-1.79c-1.54,0-2.89,0.32-4.08,0.97c-1.18,0.65-2.1,1.57-2.75,2.76
		c-0.65,1.19-0.97,2.58-0.97,4.16v21.83h-6.48v-47.14h6.48v18.9c0.88-2.04,2.23-3.6,4.06-4.7c1.83-1.1,4.04-1.64,6.62-1.64
		c3.29,0,5.8,0.9,7.54,2.7c1.74,1.8,2.61,4.45,2.61,7.96v23.93h-6.51v-22.72C735.7,801.28,735.13,799.54,733.99,798.35z"/>
	<path class="st1" d="M751.75,823.33c-2.56-2.6-3.85-6.39-3.85-11.39v-5c0-5.02,1.27-8.82,3.81-11.41
		c2.54-2.59,6.24-3.88,11.08-3.88c4.73,0,8.3,1.27,10.7,3.81c2.4,2.54,3.6,6.32,3.6,11.34v4.14h-22.59v1.64
		c0,3.31,0.74,5.8,2.22,7.48s3.53,2.52,6.16,2.52c2.3,0,4.1-0.62,5.41-1.86s2.01-2.98,2.12-5.21v-0.26h6.51v0.23
		c-0.13,3.64-1.36,6.5-3.7,8.6c-2.33,2.09-5.76,3.14-10.27,3.14C758.05,827.23,754.31,825.93,751.75,823.33z M770.55,806.61v-1.31
		c-0.09-3.09-0.79-5.38-2.12-6.85c-1.33-1.48-3.21-2.22-5.64-2.22c-2.63,0-4.67,0.83-6.11,2.5c-1.45,1.67-2.17,4.16-2.17,7.5v0.39
		H770.55z"/>
	<path class="st1" d="M798.36,792.61h6.18v6.44c1.45-4.49,4.57-6.74,9.37-6.74c0.9,0,1.68,0.07,2.33,0.2v5.65
		c-0.99-0.13-1.91-0.2-2.76-0.2c-2.92,0-5.08,0.7-6.51,2.1c-1.42,1.4-2.14,3.57-2.14,6.51v19.69h-6.48V792.61z"/>
	<path class="st1" d="M822.66,823.33c-2.56-2.6-3.85-6.39-3.85-11.39v-5c0-5.02,1.27-8.82,3.81-11.41
		c2.54-2.59,6.24-3.88,11.08-3.88c4.73,0,8.3,1.27,10.7,3.81c2.4,2.54,3.6,6.32,3.6,11.34v4.14h-22.59v1.64
		c0,3.31,0.74,5.8,2.22,7.48s3.53,2.52,6.16,2.52c2.3,0,4.1-0.62,5.41-1.86s2.01-2.98,2.12-5.21v-0.26h6.51v0.23
		c-0.13,3.64-1.36,6.5-3.7,8.6c-2.33,2.09-5.76,3.14-10.27,3.14C828.96,827.23,825.23,825.93,822.66,823.33z M841.47,806.61v-1.31
		c-0.09-3.09-0.79-5.38-2.12-6.85c-1.33-1.48-3.21-2.22-5.64-2.22c-2.63,0-4.67,0.83-6.11,2.5c-1.45,1.67-2.17,4.16-2.17,7.5v0.39
		H841.47z"/>
	<path class="st1" d="M855.23,824.73c-1.72-1.6-2.58-3.91-2.58-6.94v-0.59c0-2.72,0.71-4.81,2.12-6.28
		c1.41-1.47,3.68-2.52,6.79-3.16l12.07-2.43v-2.93c0-4.05-2.15-6.08-6.44-6.08c-2.21,0-3.88,0.53-5,1.59
		c-1.12,1.06-1.71,2.68-1.78,4.85v0.62h-6.38v-0.66c0.04-3.68,1.14-6.45,3.29-8.3c2.15-1.85,5.49-2.78,10.03-2.78
		c4.43,0,7.66,0.87,9.7,2.61c2.04,1.74,3.06,4.33,3.06,7.78v18.21c0,1.1,0.62,1.64,1.87,1.64c0.22,0,0.42-0.01,0.61-0.03
		s0.31-0.03,0.38-0.03v4.47c-0.33,0.09-0.81,0.17-1.45,0.25s-1.29,0.12-1.97,0.12c-3.95,0-5.92-1.61-5.92-4.83v-1.08
		c-0.83,2.1-2.17,3.69-4.01,4.77c-1.84,1.07-4.13,1.61-6.87,1.61C859.45,827.13,856.94,826.33,855.23,824.73z M860.72,821.28
		c1.02,0.9,2.53,1.35,4.52,1.35c1.69,0,3.17-0.32,4.44-0.97c1.27-0.65,2.25-1.55,2.93-2.71c0.68-1.16,1.02-2.51,1.02-4.04v-5.26
		l-9.5,1.97c-1.67,0.37-2.9,0.99-3.71,1.84c-0.81,0.85-1.22,2.02-1.22,3.48v0.49C859.19,819.1,859.7,820.38,860.72,821.28z"/>
	<path class="st1" d="M887.43,779.13h6.48v47.14h-6.48V779.13z"/>
	<path class="st1" d="M913.73,792.61h6.74l6.74,26.37l7.04-26.37h6.05l6.81,26.3l6.77-26.3h6.54l-9.7,33.67h-6.84l-6.77-26.1
		l-6.9,26.1h-6.84L913.73,792.61z"/>
	<path class="st1" d="M967,823.33c-2.55-2.6-3.83-6.39-3.83-11.39v-5c0-5.02,1.28-8.82,3.83-11.41c2.55-2.59,6.25-3.88,11.1-3.88
		s8.54,1.29,11.08,3.88c2.54,2.59,3.81,6.39,3.81,11.41v5c0,5-1.27,8.79-3.81,11.39s-6.24,3.9-11.08,3.9S969.56,825.93,967,823.33z
		 M984.18,819.91c1.47-1.7,2.2-4.2,2.2-7.51v-5.92c0-3.31-0.73-5.81-2.2-7.51c-1.47-1.7-3.5-2.55-6.08-2.55
		c-2.61,0-4.65,0.84-6.12,2.53c-1.47,1.69-2.2,4.2-2.2,7.53v5.92c0,3.33,0.73,5.84,2.2,7.53c1.47,1.69,3.51,2.53,6.12,2.53
		C980.69,822.46,982.71,821.61,984.18,819.91z"/>
	<path class="st1" d="M998.71,792.61h6.18v6.44c1.45-4.49,4.57-6.74,9.37-6.74c0.9,0,1.68,0.07,2.33,0.2v5.65
		c-0.99-0.13-1.91-0.2-2.76-0.2c-2.92,0-5.08,0.7-6.51,2.1c-1.42,1.4-2.14,3.57-2.14,6.51v19.69h-6.48V792.61z"/>
	<path class="st1" d="M1021.07,779.13h6.48v47.14h-6.48V779.13z"/>
	<path class="st1" d="M1062.95,826.27h-6.48v-6.15c-0.94,2.37-2.35,4.14-4.21,5.31c-1.86,1.17-4.12,1.76-6.77,1.76
		c-3.88,0-6.88-1.24-9.01-3.73c-2.13-2.49-3.19-6.26-3.19-11.33v-5.39c0-5.06,1.06-8.84,3.19-11.33c2.13-2.49,5.13-3.73,9.01-3.73
		c2.65,0,4.91,0.59,6.77,1.76c1.86,1.17,3.26,2.95,4.21,5.34v-19.66h6.48V826.27z M1042.08,798.95c-1.47,1.69-2.2,4.19-2.2,7.5v5.98
		c0,3.31,0.73,5.81,2.2,7.5c1.47,1.69,3.49,2.53,6.05,2.53c2.59,0,4.62-0.85,6.11-2.56s2.24-4.22,2.24-7.53v-5.85
		c0-3.31-0.75-5.82-2.24-7.53c-1.49-1.71-3.53-2.56-6.11-2.56C1045.56,796.42,1043.55,797.27,1042.08,798.95z"/>
	<path class="st1" d="M1075.64,818.25v8.02h-7.63v-8.02H1075.64z"/>
</g>
<g>
	<path class="st1" d="M688.83,545.38c-0.38-0.13-0.65-0.33-0.82-0.58c-0.17-0.25-0.26-0.57-0.26-0.95l0.96,0
		c0.01,0.24,0.08,0.44,0.19,0.61c0.11,0.16,0.29,0.29,0.54,0.37s0.57,0.13,0.96,0.13c0.56,0,0.96-0.08,1.2-0.24s0.37-0.38,0.37-0.65
		v-0.04c0-0.2-0.06-0.36-0.19-0.47c-0.12-0.11-0.32-0.19-0.58-0.21l-1.97-0.18c-0.46-0.04-0.81-0.17-1.04-0.39
		c-0.23-0.22-0.34-0.51-0.34-0.88v-0.06c0-0.48,0.2-0.85,0.59-1.13c0.39-0.28,1.02-0.42,1.89-0.42c0.85,0,1.46,0.13,1.84,0.4
		s0.58,0.66,0.59,1.17h-0.95c-0.02-0.21-0.08-0.38-0.18-0.52c-0.1-0.14-0.26-0.25-0.48-0.32c-0.22-0.07-0.51-0.11-0.86-0.11
		c-0.52,0-0.89,0.08-1.12,0.23c-0.23,0.16-0.35,0.37-0.35,0.64v0.04c0,0.2,0.06,0.35,0.19,0.46c0.12,0.11,0.31,0.18,0.57,0.21
		l1.99,0.18c0.46,0.04,0.81,0.17,1.04,0.39c0.23,0.22,0.34,0.51,0.34,0.89v0.06c0,1.04-0.87,1.56-2.6,1.56
		C689.7,545.58,689.2,545.51,688.83,545.38z"/>
	<path class="st1" d="M694.72,545.41c-0.2-0.07-0.35-0.17-0.43-0.31c-0.09-0.14-0.13-0.31-0.13-0.53v-2.14h-0.92v-0.57h0.92v-1.06
		h0.9v1.06h1.31v0.57h-1.31v1.96c0,0.31,0.25,0.46,0.75,0.46c0.11,0,0.21,0,0.31-0.02c0.1-0.01,0.19-0.02,0.25-0.04v0.64
		c-0.24,0.05-0.52,0.08-0.83,0.08C695.2,545.51,694.93,545.48,694.72,545.41z"/>
	<path class="st1" d="M696.96,541.85h0.86v0.82c0.11-0.3,0.28-0.52,0.5-0.66c0.23-0.14,0.52-0.21,0.88-0.21
		c0.17,0,0.3,0.01,0.4,0.04v0.71c-0.15-0.03-0.32-0.04-0.5-0.04c-0.43,0-0.75,0.09-0.95,0.28s-0.3,0.47-0.3,0.84v1.82h-0.89V541.85z
		"/>
	<path class="st1" d="M701.26,544.71c0.17,0.17,0.43,0.25,0.77,0.25c0.26,0,0.48-0.05,0.67-0.14c0.19-0.09,0.33-0.22,0.43-0.38
		c0.1-0.16,0.15-0.35,0.15-0.57v-2.02h0.89v3.59h-0.89v-0.74c-0.13,0.28-0.33,0.49-0.61,0.64c-0.28,0.15-0.62,0.23-1.02,0.23
		c-0.5,0-0.89-0.12-1.14-0.36c-0.26-0.24-0.39-0.58-0.39-1.02v-2.34H701v2.14C701,544.3,701.09,544.54,701.26,544.71z"/>
	<path class="st1" d="M705.32,545.09c-0.38-0.33-0.56-0.79-0.56-1.39v-0.1c0-0.6,0.19-1.06,0.56-1.39c0.37-0.33,0.94-0.49,1.69-0.49
		c0.46,0,0.85,0.06,1.15,0.18c0.31,0.12,0.54,0.29,0.68,0.51c0.15,0.22,0.23,0.47,0.25,0.76h-0.91c-0.04-0.28-0.15-0.49-0.34-0.64
		c-0.19-0.15-0.47-0.23-0.83-0.23c-0.43,0-0.76,0.11-0.99,0.33c-0.23,0.22-0.34,0.54-0.34,0.94v0.13c0,0.41,0.12,0.72,0.34,0.95
		c0.23,0.22,0.56,0.33,0.99,0.33c0.37,0,0.65-0.08,0.86-0.24c0.2-0.16,0.32-0.38,0.34-0.66h0.92c-0.01,0.29-0.09,0.55-0.24,0.78
		c-0.15,0.22-0.38,0.4-0.69,0.52c-0.31,0.13-0.7,0.19-1.17,0.19C706.27,545.58,705.7,545.41,705.32,545.09z"/>
	<path class="st1" d="M710.85,545.41c-0.2-0.07-0.35-0.17-0.43-0.31c-0.09-0.14-0.13-0.31-0.13-0.53v-2.14h-0.92v-0.57h0.92v-1.06
		h0.9v1.06h1.31v0.57h-1.31v1.96c0,0.31,0.25,0.46,0.75,0.46c0.11,0,0.21,0,0.31-0.02c0.1-0.01,0.19-0.02,0.25-0.04v0.64
		c-0.24,0.05-0.52,0.08-0.83,0.08C711.33,545.51,711.05,545.48,710.85,545.41z"/>
	<path class="st1" d="M714.23,544.71c0.17,0.17,0.43,0.25,0.77,0.25c0.26,0,0.48-0.05,0.67-0.14c0.19-0.09,0.33-0.22,0.43-0.38
		c0.1-0.16,0.15-0.35,0.15-0.57v-2.02h0.89v3.59h-0.89v-0.74c-0.13,0.28-0.33,0.49-0.61,0.64c-0.28,0.15-0.62,0.23-1.02,0.23
		c-0.5,0-0.89-0.12-1.14-0.36c-0.26-0.24-0.39-0.58-0.39-1.02v-2.34h0.89v2.14C713.96,544.3,714.05,544.54,714.23,544.71z"/>
	<path class="st1" d="M717.88,541.85h0.86v0.82c0.11-0.3,0.28-0.52,0.5-0.66c0.23-0.14,0.52-0.21,0.88-0.21
		c0.17,0,0.3,0.01,0.4,0.04v0.71c-0.15-0.03-0.32-0.04-0.5-0.04c-0.43,0-0.75,0.09-0.95,0.28s-0.3,0.47-0.3,0.84v1.82h-0.89V541.85z
		"/>
	<path class="st1" d="M721.33,545.09c-0.38-0.33-0.56-0.79-0.56-1.39v-0.1c0-0.6,0.19-1.06,0.56-1.39c0.37-0.33,0.94-0.49,1.7-0.49
		c0.73,0,1.27,0.16,1.62,0.47c0.34,0.31,0.52,0.78,0.52,1.39v0.24h-3.47c0.01,0.38,0.13,0.68,0.36,0.89
		c0.23,0.21,0.56,0.31,0.99,0.31c0.35,0,0.62-0.07,0.82-0.2c0.2-0.14,0.32-0.31,0.37-0.54h0.92c-0.02,0.24-0.11,0.46-0.27,0.65
		c-0.16,0.19-0.39,0.35-0.69,0.46c-0.31,0.11-0.69,0.17-1.14,0.17C722.28,545.58,721.71,545.41,721.33,545.09z M723.03,542.26
		c-0.4,0-0.71,0.09-0.93,0.26c-0.22,0.18-0.35,0.44-0.39,0.78h2.54C724.2,542.61,723.8,542.26,723.03,542.26z"/>
	<path class="st1" d="M729,545.41c-0.2-0.07-0.35-0.17-0.43-0.31c-0.09-0.14-0.13-0.31-0.13-0.53v-2.14h-0.92v-0.57h0.92v-1.06h0.9
		v1.06h1.31v0.57h-1.31v1.96c0,0.31,0.25,0.46,0.75,0.46c0.11,0,0.21,0,0.31-0.02c0.1-0.01,0.19-0.02,0.25-0.04v0.64
		c-0.24,0.05-0.52,0.08-0.83,0.08C729.48,545.51,729.2,545.48,729,545.41z"/>
	<path class="st1" d="M734.14,542.59c-0.17-0.17-0.43-0.25-0.77-0.25c-0.26,0-0.48,0.05-0.67,0.14c-0.19,0.09-0.33,0.22-0.43,0.38
		c-0.1,0.16-0.15,0.35-0.15,0.57v2.02h-0.89v-5.03h0.89v2.18c0.13-0.28,0.33-0.49,0.61-0.64c0.28-0.15,0.62-0.23,1.02-0.23
		c0.5,0,0.89,0.12,1.14,0.36c0.26,0.24,0.39,0.58,0.39,1.02v2.34h-0.89v-2.14C734.4,543,734.31,542.76,734.14,542.59z"/>
	<path class="st1" d="M736.45,545.09c-0.38-0.33-0.56-0.79-0.56-1.39v-0.1c0-0.6,0.19-1.06,0.56-1.39c0.37-0.33,0.94-0.49,1.7-0.49
		c0.73,0,1.27,0.16,1.62,0.47c0.34,0.31,0.52,0.78,0.52,1.39v0.24h-3.47c0.01,0.38,0.13,0.68,0.36,0.89
		c0.23,0.21,0.56,0.31,0.99,0.31c0.35,0,0.62-0.07,0.82-0.2c0.2-0.14,0.32-0.31,0.37-0.54h0.92c-0.02,0.24-0.11,0.46-0.27,0.65
		c-0.16,0.19-0.39,0.35-0.69,0.46c-0.31,0.11-0.69,0.17-1.14,0.17C737.39,545.58,736.82,545.41,736.45,545.09z M738.14,542.26
		c-0.4,0-0.71,0.09-0.93,0.26c-0.22,0.18-0.35,0.44-0.39,0.78h2.54C739.32,542.61,738.91,542.26,738.14,542.26z"/>
	<path class="st1" d="M743.26,545.09c-0.38-0.33-0.56-0.79-0.56-1.39v-0.1c0-0.6,0.19-1.06,0.56-1.39c0.37-0.33,0.94-0.49,1.69-0.49
		c0.46,0,0.85,0.06,1.15,0.18c0.31,0.12,0.54,0.29,0.68,0.51c0.15,0.22,0.23,0.47,0.25,0.76h-0.91c-0.04-0.28-0.15-0.49-0.34-0.64
		c-0.19-0.15-0.47-0.23-0.83-0.23c-0.43,0-0.76,0.11-0.99,0.33c-0.23,0.22-0.34,0.54-0.34,0.94v0.13c0,0.41,0.12,0.72,0.34,0.95
		c0.23,0.22,0.56,0.33,0.99,0.33c0.37,0,0.65-0.08,0.86-0.24c0.2-0.16,0.32-0.38,0.34-0.66h0.92c-0.01,0.29-0.09,0.55-0.24,0.78
		c-0.15,0.22-0.38,0.4-0.69,0.52c-0.31,0.13-0.7,0.19-1.17,0.19C744.2,545.58,743.64,545.41,743.26,545.09z"/>
	<path class="st1" d="M750.55,542.59c-0.17-0.17-0.43-0.25-0.77-0.25c-0.26,0-0.48,0.05-0.67,0.14c-0.19,0.09-0.33,0.22-0.43,0.38
		c-0.1,0.16-0.15,0.35-0.15,0.57v2.02h-0.89v-5.03h0.89v2.18c0.13-0.28,0.33-0.49,0.61-0.64c0.28-0.15,0.62-0.23,1.02-0.23
		c0.5,0,0.89,0.12,1.14,0.36c0.26,0.24,0.39,0.58,0.39,1.02v2.34h-0.89v-2.14C750.82,543,750.73,542.76,750.55,542.59z"/>
	<path class="st1" d="M752.64,545.29c-0.23-0.18-0.35-0.44-0.35-0.78v-0.02c0-0.2,0.04-0.37,0.11-0.5c0.08-0.14,0.2-0.25,0.36-0.33
		s0.39-0.15,0.67-0.19l2.03-0.29v-0.19c0-0.23-0.08-0.4-0.23-0.52c-0.16-0.12-0.41-0.18-0.77-0.18c-0.36,0-0.62,0.06-0.79,0.18
		s-0.26,0.3-0.28,0.55h-0.88c0.01-0.42,0.17-0.74,0.47-0.96c0.3-0.22,0.8-0.33,1.5-0.33c0.67,0,1.15,0.1,1.44,0.3
		c0.29,0.2,0.43,0.49,0.43,0.88v1.82c0,0.06,0.02,0.11,0.06,0.15c0.04,0.03,0.1,0.05,0.17,0.05c0.05,0,0.11,0,0.16-0.01v0.54
		c-0.14,0.03-0.3,0.05-0.49,0.05c-0.27,0-0.47-0.05-0.6-0.16c-0.13-0.11-0.19-0.26-0.19-0.47v-0.16c-0.13,0.27-0.34,0.48-0.64,0.63
		c-0.29,0.15-0.66,0.22-1.11,0.22C753.24,545.57,752.88,545.48,752.64,545.29z M753.4,544.88c0.14,0.1,0.36,0.15,0.67,0.15
		c0.3,0,0.55-0.04,0.76-0.14c0.21-0.09,0.37-0.21,0.47-0.37c0.11-0.16,0.16-0.33,0.16-0.52v-0.33l-1.71,0.26
		c-0.2,0.03-0.34,0.09-0.43,0.17c-0.09,0.09-0.14,0.2-0.14,0.34v0.02C753.19,544.64,753.26,544.78,753.4,544.88z"/>
	<path class="st1" d="M757.61,545.08c-0.38-0.33-0.56-0.79-0.56-1.39v-0.1c0-0.6,0.19-1.06,0.56-1.39c0.37-0.33,0.94-0.49,1.69-0.49
		c0.75,0,1.32,0.16,1.69,0.49c0.37,0.33,0.56,0.79,0.56,1.39v0.1c0,0.6-0.19,1.06-0.56,1.39c-0.37,0.33-0.94,0.49-1.69,0.49
		C758.55,545.58,757.99,545.41,757.61,545.08z M760.29,544.66c0.23-0.22,0.34-0.54,0.34-0.94v-0.13c0-0.41-0.11-0.72-0.34-0.94
		c-0.23-0.22-0.56-0.33-0.99-0.33c-0.43,0-0.76,0.11-0.99,0.33c-0.23,0.22-0.34,0.54-0.34,0.94v0.13c0,0.41,0.12,0.72,0.34,0.94
		c0.23,0.22,0.56,0.33,0.99,0.33C759.73,544.99,760.06,544.88,760.29,544.66z"/>
	<path class="st1" d="M762.84,545.42c-0.3-0.1-0.52-0.25-0.65-0.43s-0.2-0.41-0.2-0.68h0.9c0.02,0.24,0.12,0.42,0.31,0.55
		s0.48,0.19,0.9,0.19c0.4,0,0.68-0.05,0.85-0.16c0.17-0.1,0.25-0.25,0.25-0.43v-0.02c0-0.13-0.04-0.23-0.12-0.3
		c-0.08-0.07-0.21-0.12-0.38-0.13l-1.58-0.13c-0.37-0.03-0.63-0.13-0.8-0.28c-0.17-0.15-0.25-0.37-0.25-0.65v-0.03
		c0-0.37,0.15-0.67,0.46-0.87c0.31-0.21,0.81-0.31,1.5-0.31c0.69,0,1.18,0.1,1.48,0.31c0.3,0.2,0.45,0.49,0.46,0.87h-0.89
		c-0.01-0.14-0.05-0.26-0.12-0.35c-0.07-0.09-0.18-0.17-0.33-0.22s-0.36-0.08-0.62-0.08c-0.37,0-0.64,0.05-0.79,0.15
		c-0.16,0.1-0.24,0.24-0.24,0.42v0.02c0,0.13,0.04,0.23,0.12,0.31s0.21,0.12,0.38,0.13l1.58,0.14c0.37,0.03,0.63,0.12,0.81,0.28
		s0.26,0.37,0.26,0.65v0.03c0,0.37-0.16,0.66-0.48,0.87s-0.85,0.32-1.58,0.32C763.54,545.58,763.14,545.53,762.84,545.42z"/>
	<path class="st1" d="M767.56,544.47v0.98h-1.04v-0.98H767.56z"/>
</g>
<g>
	<path class="st1" d="M689.9,1011.41v4.17c0.26-0.56,0.66-0.98,1.19-1.27c0.54-0.29,1.2-0.43,1.99-0.43c1.16,0,2.05,0.3,2.66,0.91
		c0.61,0.61,0.92,1.48,0.92,2.62v0.18c0,1.14-0.3,2.01-0.92,2.62c-0.61,0.61-1.5,0.91-2.66,0.91c-0.79,0-1.45-0.14-1.99-0.43
		c-0.54-0.28-0.93-0.71-1.19-1.26v1.45h-1.68v-9.47H689.9z M690.54,1015.6c-0.43,0.42-0.65,1.01-0.65,1.78v0.24
		c0,0.77,0.22,1.36,0.65,1.78c0.43,0.42,1.05,0.63,1.86,0.63c0.81,0,1.42-0.21,1.86-0.63c0.43-0.42,0.65-1.01,0.65-1.78v-0.24
		c0-0.77-0.22-1.36-0.65-1.78c-0.43-0.42-1.05-0.63-1.86-0.63C691.6,1014.98,690.98,1015.19,690.54,1015.6z"/>
	<path class="st1" d="M698.74,1020.2c-0.71-0.61-1.06-1.48-1.06-2.61v-0.18c0-1.13,0.35-2,1.06-2.62c0.7-0.61,1.77-0.92,3.2-0.92
		c1.38,0,2.4,0.3,3.04,0.89s0.97,1.47,0.97,2.62v0.45h-6.54c0.02,0.72,0.25,1.28,0.68,1.67s1.05,0.59,1.86,0.59
		c0.65,0,1.16-0.13,1.54-0.38c0.37-0.26,0.6-0.59,0.69-1.01h1.72c-0.04,0.46-0.21,0.87-0.5,1.23s-0.73,0.65-1.3,0.87
		c-0.58,0.22-1.29,0.32-2.14,0.32C700.51,1021.13,699.45,1020.82,698.74,1020.2z M701.92,1014.89c-0.75,0-1.34,0.17-1.75,0.5
		s-0.66,0.82-0.74,1.47h4.78C704.14,1015.55,703.37,1014.89,701.92,1014.89z"/>
	<path class="st1" d="M707.06,1014.12h1.68v1.34c0.23-0.5,0.6-0.89,1.09-1.16s1.08-0.42,1.77-0.42c0.72,0,1.3,0.15,1.74,0.45
		c0.44,0.3,0.73,0.73,0.87,1.28c0.22-0.54,0.58-0.97,1.09-1.27s1.13-0.46,1.85-0.46c0.88,0,1.54,0.22,2,0.66
		c0.46,0.44,0.69,1.06,0.69,1.86v4.48h-1.68v-4.09c0-0.57-0.15-1.01-0.45-1.31s-0.73-0.45-1.29-0.45c-0.43,0-0.8,0.08-1.13,0.25
		c-0.32,0.17-0.57,0.4-0.75,0.7c-0.17,0.3-0.26,0.65-0.26,1.04v3.86h-1.68v-4.09c0-0.57-0.15-1-0.45-1.3s-0.73-0.45-1.29-0.45
		c-0.43,0-0.8,0.08-1.13,0.25c-0.32,0.17-0.57,0.4-0.75,0.7c-0.17,0.3-0.26,0.64-0.26,1.03v3.87h-1.68V1014.12z"/>
	<path class="st1" d="M722.85,1019.05v1.84h-1.96v-1.84H722.85z"/>
	<path class="st1" d="M724.31,1020.59c-0.44-0.35-0.66-0.84-0.66-1.48v-0.05c0-0.37,0.07-0.69,0.21-0.94
		c0.14-0.26,0.37-0.46,0.69-0.62c0.31-0.16,0.73-0.28,1.25-0.35l3.83-0.55v-0.36c0-0.43-0.15-0.76-0.44-0.98
		c-0.29-0.22-0.77-0.33-1.44-0.33c-0.68,0-1.17,0.11-1.48,0.34c-0.31,0.23-0.49,0.57-0.53,1.03h-1.67c0.02-0.79,0.32-1.39,0.89-1.8
		c0.57-0.41,1.51-0.62,2.82-0.62c1.26,0,2.17,0.19,2.71,0.57s0.82,0.93,0.82,1.65v3.43c0,0.12,0.04,0.21,0.11,0.28
		c0.07,0.07,0.18,0.1,0.33,0.1c0.1,0,0.2-0.01,0.3-0.03v1.02c-0.26,0.07-0.57,0.1-0.92,0.1c-0.51,0-0.89-0.1-1.13-0.3
		s-0.36-0.49-0.36-0.88v-0.3c-0.25,0.51-0.65,0.9-1.2,1.18c-0.55,0.28-1.24,0.42-2.08,0.42
		C725.43,1021.11,724.75,1020.94,724.31,1020.59z M725.75,1019.81c0.26,0.19,0.68,0.28,1.26,0.28c0.56,0,1.04-0.08,1.44-0.25
		c0.4-0.17,0.69-0.4,0.89-0.69s0.3-0.62,0.3-0.98v-0.61l-3.21,0.48c-0.37,0.06-0.64,0.17-0.81,0.33c-0.17,0.16-0.26,0.38-0.26,0.64
		v0.03C725.35,1019.37,725.48,1019.63,725.75,1019.81z"/>
	<path class="st1" d="M732.96,1011.53h1.81v1.58h-1.81V1011.53z M733.02,1014.12h1.68v6.76h-1.68V1014.12z"/>
</g>
<g>
	<path class="st1" d="M1092.55,540.41h2.94c0.51,0,0.95,0.1,1.31,0.29s0.64,0.47,0.83,0.83c0.19,0.37,0.29,0.8,0.29,1.32V543
		c0,0.51-0.09,0.95-0.29,1.32c-0.19,0.37-0.47,0.64-0.83,0.84s-0.8,0.29-1.31,0.29h-2.94V540.41z M1096.17,544.58
		c0.25-0.14,0.44-0.33,0.57-0.6c0.13-0.26,0.2-0.58,0.2-0.96v-0.19c0-0.38-0.07-0.7-0.2-0.96c-0.13-0.26-0.32-0.46-0.57-0.6
		c-0.25-0.14-0.55-0.2-0.9-0.2h-1.76v3.71h1.76C1095.62,544.78,1095.92,544.72,1096.17,544.58z"/>
	<path class="st1" d="M1099.03,545.09c-0.38-0.33-0.56-0.79-0.56-1.39v-0.1c0-0.6,0.19-1.06,0.56-1.39s0.94-0.49,1.7-0.49
		c0.73,0,1.27,0.16,1.62,0.47c0.34,0.31,0.52,0.78,0.52,1.39v0.24h-3.47c0.01,0.38,0.13,0.68,0.36,0.89
		c0.23,0.21,0.56,0.31,0.99,0.31c0.35,0,0.62-0.07,0.82-0.2s0.32-0.31,0.37-0.54h0.92c-0.02,0.24-0.11,0.46-0.27,0.65
		c-0.15,0.19-0.39,0.35-0.69,0.46c-0.31,0.11-0.69,0.17-1.14,0.17C1099.98,545.58,1099.41,545.41,1099.03,545.09z M1100.72,542.26
		c-0.4,0-0.71,0.09-0.93,0.26c-0.22,0.18-0.35,0.44-0.39,0.78h2.54C1101.9,542.61,1101.49,542.26,1100.72,542.26z"/>
	<path class="st1" d="M1103.46,541.85h0.89v0.77c0.14-0.3,0.35-0.52,0.63-0.67c0.29-0.15,0.64-0.23,1.05-0.23
		c0.62,0,1.09,0.16,1.41,0.48c0.32,0.32,0.49,0.79,0.49,1.39v0.1c0,0.61-0.16,1.07-0.49,1.39c-0.32,0.32-0.79,0.48-1.41,0.48
		c-0.42,0-0.77-0.08-1.05-0.23c-0.28-0.15-0.49-0.38-0.63-0.67v2.21h-0.89V541.85z M1106.67,544.66c0.23-0.22,0.34-0.54,0.34-0.94
		v-0.13c0-0.41-0.12-0.72-0.34-0.94c-0.23-0.22-0.56-0.33-0.99-0.33c-0.43,0-0.76,0.11-0.99,0.33c-0.23,0.22-0.34,0.54-0.34,0.94
		v0.13c0,0.41,0.12,0.72,0.34,0.94c0.23,0.22,0.56,0.33,0.99,0.33C1106.11,544.99,1106.44,544.88,1106.67,544.66z"/>
	<path class="st1" d="M1108.53,540.41h0.89v5.03h-0.89V540.41z"/>
	<path class="st1" d="M1110.58,545.08c-0.38-0.33-0.56-0.79-0.56-1.39v-0.1c0-0.6,0.19-1.06,0.56-1.39
		c0.37-0.33,0.94-0.49,1.69-0.49s1.32,0.16,1.69,0.49c0.37,0.33,0.56,0.79,0.56,1.39v0.1c0,0.6-0.19,1.06-0.56,1.39
		c-0.37,0.33-0.94,0.49-1.69,0.49S1110.96,545.41,1110.58,545.08z M1113.26,544.66c0.23-0.22,0.34-0.54,0.34-0.94v-0.13
		c0-0.41-0.11-0.72-0.34-0.94c-0.23-0.22-0.56-0.33-0.98-0.33c-0.43,0-0.76,0.11-0.99,0.33s-0.34,0.54-0.34,0.94v0.13
		c0,0.41,0.12,0.72,0.34,0.94s0.56,0.33,0.99,0.33C1112.7,544.99,1113.03,544.88,1113.26,544.66z"/>
	<path class="st1" d="M1114.96,546.9v-0.7c0.06,0.01,0.13,0.01,0.22,0.02s0.18,0.01,0.25,0.01c0.15,0,0.28-0.02,0.38-0.05
		c0.1-0.03,0.18-0.09,0.25-0.15c0.07-0.07,0.13-0.16,0.19-0.28l0.16-0.32l-1.76-3.58h0.99l1.26,2.78l1.26-2.78h0.98l-2.08,4.21
		c-0.1,0.21-0.21,0.37-0.34,0.5c-0.12,0.12-0.28,0.22-0.47,0.28c-0.19,0.06-0.43,0.09-0.71,0.09
		C1115.33,546.94,1115.14,546.93,1114.96,546.9z"/>
	<path class="st1" d="M1122.83,545.41c-0.2-0.07-0.35-0.17-0.43-0.31c-0.09-0.14-0.13-0.31-0.13-0.53v-2.14h-0.92v-0.57h0.92v-1.06
		h0.9v1.06h1.3v0.57h-1.3v1.96c0,0.31,0.25,0.46,0.75,0.46c0.11,0,0.21,0,0.31-0.02c0.1-0.01,0.19-0.02,0.25-0.04v0.64
		c-0.24,0.05-0.52,0.08-0.83,0.08C1123.31,545.51,1123.03,545.48,1122.83,545.41z"/>
	<path class="st1" d="M1127.97,542.59c-0.17-0.17-0.43-0.25-0.77-0.25c-0.26,0-0.48,0.05-0.67,0.14c-0.19,0.09-0.33,0.22-0.43,0.38
		c-0.1,0.16-0.15,0.35-0.15,0.57v2.02h-0.89v-5.03h0.89v2.18c0.13-0.28,0.33-0.49,0.61-0.64c0.28-0.15,0.62-0.23,1.02-0.23
		c0.51,0,0.89,0.12,1.14,0.36c0.26,0.24,0.38,0.58,0.38,1.02v2.34h-0.89v-2.14C1128.23,543,1128.14,542.76,1127.97,542.59z"/>
	<path class="st1" d="M1130.28,545.09c-0.38-0.33-0.56-0.79-0.56-1.39v-0.1c0-0.6,0.19-1.06,0.56-1.39s0.94-0.49,1.7-0.49
		c0.73,0,1.27,0.16,1.62,0.47c0.34,0.31,0.52,0.78,0.52,1.39v0.24h-3.47c0.01,0.38,0.13,0.68,0.36,0.89
		c0.23,0.21,0.56,0.31,0.99,0.31c0.35,0,0.62-0.07,0.82-0.2s0.32-0.31,0.37-0.54h0.92c-0.02,0.24-0.11,0.46-0.27,0.65
		c-0.15,0.19-0.39,0.35-0.69,0.46c-0.31,0.11-0.69,0.17-1.14,0.17C1131.22,545.58,1130.65,545.41,1130.28,545.09z M1131.97,542.26
		c-0.4,0-0.71,0.09-0.93,0.26c-0.22,0.18-0.35,0.44-0.39,0.78h2.54C1133.14,542.61,1132.74,542.26,1131.97,542.26z"/>
	<path class="st1" d="M1136.65,540.48h0.96v0.84h-0.96V540.48z M1136.69,541.85h0.89v3.59h-0.89V541.85z"/>
	<path class="st1" d="M1141.24,542.59c-0.18-0.17-0.43-0.25-0.77-0.25c-0.26,0-0.48,0.05-0.66,0.14s-0.33,0.22-0.43,0.38
		c-0.1,0.16-0.15,0.35-0.15,0.57v2.02h-0.89v-3.59h0.89v0.74c0.13-0.28,0.33-0.49,0.61-0.64c0.28-0.15,0.62-0.23,1.02-0.23
		c0.5,0,0.88,0.12,1.14,0.36s0.39,0.58,0.39,1.02v2.34h-0.89v-2.14C1141.5,543,1141.41,542.76,1141.24,542.59z"/>
	<path class="st1" d="M1144.24,545.41c-0.2-0.07-0.35-0.17-0.43-0.31c-0.09-0.14-0.13-0.31-0.13-0.53v-2.14h-0.92v-0.57h0.92v-1.06
		h0.9v1.06h1.3v0.57h-1.3v1.96c0,0.31,0.25,0.46,0.75,0.46c0.11,0,0.21,0,0.31-0.02c0.1-0.01,0.19-0.02,0.25-0.04v0.64
		c-0.24,0.05-0.52,0.08-0.83,0.08C1144.72,545.51,1144.44,545.48,1144.24,545.41z"/>
	<path class="st1" d="M1146.78,545.09c-0.38-0.33-0.56-0.79-0.56-1.39v-0.1c0-0.6,0.19-1.06,0.56-1.39s0.94-0.49,1.7-0.49
		c0.73,0,1.27,0.16,1.62,0.47c0.34,0.31,0.52,0.78,0.52,1.39v0.24h-3.47c0.01,0.38,0.13,0.68,0.36,0.89
		c0.23,0.21,0.56,0.31,0.99,0.31c0.35,0,0.62-0.07,0.82-0.2s0.32-0.31,0.37-0.54h0.92c-0.02,0.24-0.11,0.46-0.27,0.65
		c-0.15,0.19-0.39,0.35-0.69,0.46c-0.31,0.11-0.69,0.17-1.14,0.17C1147.72,545.58,1147.15,545.41,1146.78,545.09z M1148.47,542.26
		c-0.4,0-0.71,0.09-0.93,0.26c-0.22,0.18-0.35,0.44-0.39,0.78h2.54C1149.64,542.61,1149.24,542.26,1148.47,542.26z"/>
	<path class="st1" d="M1151.2,540.41h0.89v5.03h-0.89V540.41z"/>
	<path class="st1" d="M1152.85,540.41h0.89v5.03h-0.89V540.41z"/>
	<path class="st1" d="M1154.46,540.48h0.96v0.84h-0.96V540.48z M1154.5,541.85h0.89v3.59h-0.89V541.85z"/>
	<path class="st1" d="M1157.09,544.09c-0.07,0.02-0.13,0.06-0.17,0.12c-0.04,0.06-0.06,0.14-0.06,0.24c0,0.13,0.04,0.23,0.12,0.3
		c0.08,0.07,0.2,0.11,0.37,0.11l2.02,0.05c0.4,0.01,0.69,0.1,0.88,0.26c0.19,0.16,0.28,0.4,0.28,0.72c0,0.25-0.06,0.45-0.18,0.61
		s-0.34,0.29-0.64,0.38s-0.72,0.13-1.26,0.13h-0.57c-0.5,0-0.88-0.04-1.16-0.13c-0.28-0.09-0.47-0.22-0.59-0.4
		c-0.12-0.18-0.17-0.42-0.17-0.71h0.89c0,0.17,0.04,0.31,0.12,0.42s0.2,0.19,0.37,0.25c0.17,0.06,0.41,0.09,0.7,0.09h0.41
		c0.45,0,0.76-0.05,0.93-0.15s0.27-0.24,0.27-0.43c0-0.14-0.04-0.25-0.14-0.33c-0.09-0.08-0.22-0.12-0.4-0.12l-2-0.05
		c-0.37-0.01-0.63-0.08-0.8-0.21c-0.17-0.13-0.25-0.31-0.25-0.55c0-0.2,0.06-0.36,0.17-0.47s0.3-0.19,0.56-0.22
		c-0.46-0.2-0.7-0.54-0.7-1.02v-0.04c0-0.38,0.16-0.68,0.47-0.9c0.31-0.21,0.83-0.32,1.56-0.32c0.73,0,1.26,0.11,1.6,0.34
		c0-0.04-0.01-0.07-0.01-0.09c0-0.18,0.05-0.31,0.17-0.4c0.11-0.09,0.27-0.14,0.46-0.14c0.07,0,0.14,0,0.21,0.01v0.6
		c-0.03,0-0.06-0.01-0.11-0.01s-0.09-0.01-0.12-0.01c-0.12,0-0.21,0.02-0.29,0.05s-0.11,0.09-0.13,0.15
		c0.16,0.18,0.25,0.42,0.25,0.71v0.05c0,0.38-0.16,0.68-0.47,0.9c-0.31,0.21-0.83,0.32-1.56,0.32
		C1157.72,544.2,1157.38,544.17,1157.09,544.09z M1158.98,543.52c0.18-0.13,0.27-0.31,0.27-0.54v-0.04c0-0.23-0.09-0.41-0.27-0.54
		c-0.18-0.13-0.47-0.2-0.86-0.2c-0.39,0-0.68,0.07-0.86,0.2c-0.18,0.13-0.27,0.31-0.27,0.54v0.04c0,0.23,0.09,0.41,0.27,0.54
		c0.18,0.13,0.47,0.2,0.86,0.2C1158.51,543.72,1158.8,543.65,1158.98,543.52z"/>
	<path class="st1" d="M1161.3,545.09c-0.38-0.33-0.56-0.79-0.56-1.39v-0.1c0-0.6,0.19-1.06,0.56-1.39s0.94-0.49,1.7-0.49
		c0.73,0,1.27,0.16,1.62,0.47c0.34,0.31,0.52,0.78,0.52,1.39v0.24h-3.47c0.01,0.38,0.13,0.68,0.36,0.89
		c0.23,0.21,0.56,0.31,0.99,0.31c0.35,0,0.62-0.07,0.82-0.2s0.32-0.31,0.37-0.54h0.92c-0.02,0.24-0.11,0.46-0.27,0.65
		c-0.15,0.19-0.39,0.35-0.69,0.46c-0.31,0.11-0.69,0.17-1.14,0.17C1162.24,545.58,1161.67,545.41,1161.3,545.09z M1162.98,542.26
		c-0.4,0-0.71,0.09-0.93,0.26c-0.22,0.18-0.35,0.44-0.39,0.78h2.54C1164.16,542.61,1163.76,542.26,1162.98,542.26z"/>
	<path class="st1" d="M1168.62,542.59c-0.18-0.17-0.43-0.25-0.77-0.25c-0.26,0-0.48,0.05-0.66,0.14s-0.33,0.22-0.43,0.38
		c-0.1,0.16-0.15,0.35-0.15,0.57v2.02h-0.89v-3.59h0.89v0.74c0.13-0.28,0.33-0.49,0.61-0.64c0.28-0.15,0.62-0.23,1.02-0.23
		c0.5,0,0.88,0.12,1.14,0.36s0.39,0.58,0.39,1.02v2.34h-0.89v-2.14C1168.88,543,1168.79,542.76,1168.62,542.59z"/>
	<path class="st1" d="M1170.93,545.09c-0.38-0.33-0.56-0.79-0.56-1.39v-0.1c0-0.6,0.19-1.06,0.56-1.39
		c0.38-0.33,0.94-0.49,1.69-0.49c0.46,0,0.85,0.06,1.15,0.18c0.31,0.12,0.54,0.29,0.69,0.51c0.15,0.22,0.23,0.47,0.24,0.76h-0.91
		c-0.04-0.28-0.15-0.49-0.34-0.64s-0.47-0.23-0.83-0.23c-0.43,0-0.76,0.11-0.99,0.33c-0.23,0.22-0.34,0.54-0.34,0.94v0.13
		c0,0.41,0.12,0.72,0.34,0.95c0.23,0.22,0.56,0.33,0.99,0.33c0.37,0,0.65-0.08,0.86-0.24c0.2-0.16,0.32-0.38,0.34-0.66h0.92
		c-0.01,0.29-0.09,0.55-0.24,0.78c-0.15,0.22-0.38,0.4-0.69,0.52c-0.31,0.13-0.7,0.19-1.17,0.19
		C1171.87,545.58,1171.3,545.41,1170.93,545.09z"/>
	<path class="st1" d="M1175.74,545.09c-0.38-0.33-0.56-0.79-0.56-1.39v-0.1c0-0.6,0.19-1.06,0.56-1.39s0.94-0.49,1.7-0.49
		c0.73,0,1.27,0.16,1.62,0.47c0.34,0.31,0.52,0.78,0.52,1.39v0.24h-3.47c0.01,0.38,0.13,0.68,0.36,0.89
		c0.23,0.21,0.56,0.31,0.99,0.31c0.35,0,0.62-0.07,0.82-0.2s0.32-0.31,0.37-0.54h0.92c-0.02,0.24-0.11,0.46-0.27,0.65
		c-0.15,0.19-0.39,0.35-0.69,0.46c-0.31,0.11-0.69,0.17-1.14,0.17C1176.69,545.58,1176.12,545.41,1175.74,545.09z M1177.43,542.26
		c-0.4,0-0.71,0.09-0.93,0.26c-0.22,0.18-0.35,0.44-0.39,0.78h2.54C1178.61,542.61,1178.2,542.26,1177.43,542.26z"/>
	<path class="st1" d="M1180.98,544.47v0.98h-1.04v-0.98H1180.98z"/>
</g>
<path class="st9" d="M1053.94,999.59c0.61,2.05,0.92,4.28,0.92,6.69c0,2.6-0.34,4.88-1.03,6.86c-0.8,2.41-2.08,4.3-3.85,5.65
	c-1.77,1.35-3.94,2.03-6.51,2.03c-2.53,0-4.61-0.97-6.24-2.91c-0.07-0.11-0.14-0.15-0.22-0.11c-0.07,0.04-0.11,0.11-0.11,0.22v1.7
	c0,0.18-0.07,0.35-0.22,0.49c-0.11,0.11-0.25,0.16-0.43,0.16h-4.99c-0.18,0-0.34-0.06-0.49-0.16c-0.11-0.15-0.16-0.31-0.16-0.49
	v-37.09c0-0.18,0.05-0.33,0.16-0.44c0.14-0.15,0.31-0.22,0.49-0.22h4.99c0.18,0,0.33,0.07,0.43,0.22c0.14,0.11,0.22,0.26,0.22,0.44
	v11.91c0,0.11,0.04,0.18,0.11,0.22c0.07,0.04,0.14,0.02,0.22-0.05c1.56-1.87,3.62-2.8,6.19-2.8c2.68,0,4.88,0.68,6.62,2.03
	C1051.81,995.29,1053.11,997.18,1053.94,999.59z M1047.1,1012.71c0.87-1.54,1.3-3.64,1.3-6.31c0-2.85-0.54-5.08-1.63-6.69
	c-0.98-1.54-2.42-2.3-4.34-2.3c-1.77,0-3.13,0.8-4.07,2.41c-0.9,1.5-1.36,3.68-1.36,6.53c0,2.82,0.42,4.94,1.25,6.37
	c0.94,1.76,2.35,2.63,4.23,2.63c1.01,0,1.92-0.22,2.71-0.66C1046,1014.21,1046.63,1013.55,1047.1,1012.71z M1084.04,1003.21
	c0.14,0.91,0.22,1.94,0.22,3.07l-0.05,1.7c0,0.44-0.22,0.66-0.65,0.66h-16.98c-0.18,0-0.27,0.09-0.27,0.27
	c0.11,1.21,0.27,2.03,0.49,2.47c0.87,2.63,2.98,3.97,6.35,4.01c2.46,0,4.41-1.02,5.86-3.07c0.14-0.22,0.33-0.33,0.54-0.33
	c0.14,0,0.27,0.05,0.38,0.16l3.36,2.8c0.33,0.26,0.38,0.55,0.16,0.88c-1.12,1.61-2.62,2.85-4.5,3.73c-1.84,0.88-3.91,1.32-6.19,1.32
	c-2.82,0-5.23-0.64-7.22-1.92c-1.95-1.28-3.38-3.07-4.29-5.38c-0.83-1.98-1.25-4.72-1.25-8.23c0-2.12,0.22-3.84,0.65-5.16
	c0.72-2.56,2.08-4.57,4.07-6.04c2.03-1.5,4.45-2.25,7.27-2.25C1079.12,991.91,1083.13,995.68,1084.04,1003.21z M1071.99,997.4
	c-1.34,0-2.46,0.35-3.36,1.04c-0.87,0.66-1.48,1.59-1.84,2.8c-0.22,0.62-0.36,1.43-0.43,2.41c-0.07,0.18,0,0.27,0.22,0.27h11.01
	c0.18,0,0.27-0.09,0.27-0.27c-0.07-0.91-0.18-1.61-0.33-2.09c-0.33-1.32-0.98-2.34-1.95-3.07
	C1074.63,997.76,1073.44,997.4,1071.99,997.4z M1126.19,994.49c-1.56-1.72-3.73-2.58-6.51-2.58c-1.74,0-3.31,0.35-4.72,1.04
	c-1.41,0.7-2.51,1.77-3.31,3.24c-0.14,0.15-0.27,0.15-0.38,0c-0.72-1.39-1.75-2.45-3.09-3.18c-1.34-0.73-2.89-1.1-4.67-1.1
	c-1.45,0-2.77,0.26-3.96,0.77c-1.16,0.48-2.13,1.23-2.93,2.25c-0.07,0.11-0.15,0.15-0.22,0.11c-0.07-0.04-0.11-0.11-0.11-0.22v-1.81
	c0-0.18-0.07-0.33-0.22-0.44c-0.11-0.15-0.25-0.22-0.43-0.22h-4.99c-0.18,0-0.34,0.07-0.49,0.22c-0.11,0.11-0.16,0.26-0.16,0.44
	v26.72c0,0.18,0.05,0.35,0.16,0.49c0.14,0.11,0.31,0.16,0.49,0.16h4.99c0.18,0,0.33-0.06,0.43-0.16c0.14-0.15,0.22-0.31,0.22-0.49
	v-17.83c0.14-1.39,0.65-2.49,1.52-3.29c0.9-0.8,2.04-1.21,3.42-1.21c1.48,0,2.68,0.49,3.58,1.48c0.9,0.99,1.36,2.32,1.36,4.01v16.85
	c0,0.18,0.05,0.35,0.16,0.49c0.14,0.11,0.31,0.16,0.49,0.16h4.94c0.18,0,0.33-0.06,0.43-0.16c0.14-0.15,0.22-0.31,0.22-0.49v-16.9
	c0-1.65,0.47-2.96,1.41-3.95c0.94-0.99,2.15-1.48,3.64-1.48c1.48,0,2.66,0.49,3.53,1.48c0.9,0.99,1.36,2.32,1.36,4.01v16.85
	c0,0.18,0.05,0.35,0.16,0.49c0.14,0.11,0.31,0.16,0.49,0.16h4.94c0.18,0,0.33-0.06,0.43-0.16c0.14-0.15,0.22-0.31,0.22-0.49v-18.16
	C1128.58,998.53,1127.79,996.17,1126.19,994.49z M1149.89,987.35v-5.02h31.28v5.02H1149.89z M1142.94,982.33h4.96v31.63h-4.96
	V982.33z M1142.94,1015.97v5.02h31.28v-5.02H1142.94z M1176.2,989.36h4.96v31.63h-4.96V989.36z"/>
<g>
	<defs>
		<rect id="SVGID_00000093143827318036435390000006480671691686369707_" x="1278.68" y="241.54" width="549.36" height="809.69"/>
	</defs>
	<clipPath id="SVGID_00000078758454964705460960000011002393055459026078_">
		<use xlink:href="#SVGID_00000093143827318036435390000006480671691686369707_"  style="overflow:visible;"/>
	</clipPath>
	<g style="clip-path:url(#SVGID_00000078758454964705460960000011002393055459026078_);">
		<g>
			
				<radialGradient id="SVGID_00000161601058879340878940000002852001526173317276_" cx="-6918.2979" cy="867.3345" r="274.0648" gradientTransform="matrix(-0.665 0.7468 0.1902 0.1694 -3391.2583 5487.4092)" gradientUnits="userSpaceOnUse">
				<stop  offset="0" style="stop-color:#000000;stop-opacity:0"/>
				<stop  offset="0.2708" style="stop-color:#000002;stop-opacity:0.278"/>
				<stop  offset="0.4048" style="stop-color:#02020A;stop-opacity:0.4156"/>
				<stop  offset="0.5089" style="stop-color:#040417;stop-opacity:0.5225"/>
				<stop  offset="0.5976" style="stop-color:#08082A;stop-opacity:0.6135"/>
				<stop  offset="0.6764" style="stop-color:#0C0C42;stop-opacity:0.6944"/>
				<stop  offset="0.7482" style="stop-color:#121260;stop-opacity:0.7681"/>
				<stop  offset="0.8148" style="stop-color:#191984;stop-opacity:0.8364"/>
				<stop  offset="0.8772" style="stop-color:#2121AD;stop-opacity:0.9005"/>
				<stop  offset="0.9341" style="stop-color:#2929DA;stop-opacity:0.959"/>
				<stop  offset="0.9741" style="stop-color:#3030FF"/>
			</radialGradient>
			<polygon style="fill:url(#SVGID_00000161601058879340878940000002852001526173317276_);" points="1553.36,192.95 1195.6,550.7 
				1195.6,742.07 1553.36,384.31 			"/>
			
				<radialGradient id="SVGID_00000177454892693957600840000008336312984585501834_" cx="1151.738" cy="867.3345" r="274.0648" gradientTransform="matrix(0.665 0.7468 -0.1902 0.1694 1131.3262 -539.5786)" gradientUnits="userSpaceOnUse">
				<stop  offset="0" style="stop-color:#000000;stop-opacity:0"/>
				<stop  offset="0.2708" style="stop-color:#000002;stop-opacity:0.278"/>
				<stop  offset="0.4048" style="stop-color:#02020A;stop-opacity:0.4156"/>
				<stop  offset="0.5089" style="stop-color:#040417;stop-opacity:0.5225"/>
				<stop  offset="0.5976" style="stop-color:#08082A;stop-opacity:0.6135"/>
				<stop  offset="0.6764" style="stop-color:#0C0C42;stop-opacity:0.6944"/>
				<stop  offset="0.7482" style="stop-color:#121260;stop-opacity:0.7681"/>
				<stop  offset="0.8148" style="stop-color:#191984;stop-opacity:0.8364"/>
				<stop  offset="0.8772" style="stop-color:#2121AD;stop-opacity:0.9005"/>
				<stop  offset="0.9341" style="stop-color:#2929DA;stop-opacity:0.959"/>
				<stop  offset="0.9741" style="stop-color:#3030FF"/>
			</radialGradient>
			<polygon style="fill:url(#SVGID_00000177454892693957600840000008336312984585501834_);" points="1553.36,192.95 1911.11,550.7 
				1911.11,742.07 1553.36,384.31 			"/>
		</g>
		
			<radialGradient id="SVGID_00000085968157582536285240000008008701784428022668_" cx="1553.3573" cy="742.0704" r="319.367" gradientUnits="userSpaceOnUse">
			<stop  offset="0" style="stop-color:#000000;stop-opacity:0"/>
			<stop  offset="0.278" style="stop-color:#000002;stop-opacity:0.278"/>
			<stop  offset="0.4156" style="stop-color:#02020A;stop-opacity:0.4156"/>
			<stop  offset="0.5225" style="stop-color:#040417;stop-opacity:0.5225"/>
			<stop  offset="0.6135" style="stop-color:#08082A;stop-opacity:0.6135"/>
			<stop  offset="0.6944" style="stop-color:#0C0C42;stop-opacity:0.6944"/>
			<stop  offset="0.7681" style="stop-color:#121260;stop-opacity:0.7681"/>
			<stop  offset="0.8364" style="stop-color:#191984;stop-opacity:0.8364"/>
			<stop  offset="0.9005" style="stop-color:#2121AD;stop-opacity:0.9005"/>
			<stop  offset="0.959" style="stop-color:#2929DA;stop-opacity:0.959"/>
			<stop  offset="1" style="stop-color:#3030FF"/>
		</radialGradient>
		<polygon style="fill:url(#SVGID_00000085968157582536285240000008008701784428022668_);" points="1911.11,742.07 1553.36,1099.83 
			1195.6,742.07 1553.36,384.31 		"/>
		
			<radialGradient id="SVGID_00000028292485712802011550000009680588168160930491_" cx="1553.3573" cy="550.7023" r="319.367" gradientUnits="userSpaceOnUse">
			<stop  offset="0" style="stop-color:#000000;stop-opacity:0"/>
			<stop  offset="0.278" style="stop-color:#000002;stop-opacity:0.278"/>
			<stop  offset="0.4156" style="stop-color:#02020A;stop-opacity:0.4156"/>
			<stop  offset="0.5225" style="stop-color:#040417;stop-opacity:0.5225"/>
			<stop  offset="0.6135" style="stop-color:#08082A;stop-opacity:0.6135"/>
			<stop  offset="0.6944" style="stop-color:#0C0C42;stop-opacity:0.6944"/>
			<stop  offset="0.7681" style="stop-color:#121260;stop-opacity:0.7681"/>
			<stop  offset="0.8364" style="stop-color:#191984;stop-opacity:0.8364"/>
			<stop  offset="0.9005" style="stop-color:#2121AD;stop-opacity:0.9005"/>
			<stop  offset="0.959" style="stop-color:#2929DA;stop-opacity:0.959"/>
			<stop  offset="1" style="stop-color:#3030FF"/>
		</radialGradient>
		<polygon style="fill:url(#SVGID_00000028292485712802011550000009680588168160930491_);" points="1911.11,550.7 1553.36,908.46 
			1195.6,550.7 1553.36,192.95 		"/>
		<g>
			
				<radialGradient id="SVGID_00000183934368283563023860000013737868668923036045_" cx="1471.5786" cy="5719.9658" r="274.0648" gradientTransform="matrix(0.665 -0.7468 -0.1902 -0.1694 1841.8226 2893.2642)" gradientUnits="userSpaceOnUse">
				<stop  offset="0" style="stop-color:#000000;stop-opacity:0"/>
				<stop  offset="0.2708" style="stop-color:#000002;stop-opacity:0.278"/>
				<stop  offset="0.4048" style="stop-color:#02020A;stop-opacity:0.4156"/>
				<stop  offset="0.5089" style="stop-color:#040417;stop-opacity:0.5225"/>
				<stop  offset="0.5976" style="stop-color:#08082A;stop-opacity:0.6135"/>
				<stop  offset="0.6764" style="stop-color:#0C0C42;stop-opacity:0.6944"/>
				<stop  offset="0.7482" style="stop-color:#121260;stop-opacity:0.7681"/>
				<stop  offset="0.8148" style="stop-color:#191984;stop-opacity:0.8364"/>
				<stop  offset="0.8772" style="stop-color:#2121AD;stop-opacity:0.9005"/>
				<stop  offset="0.9341" style="stop-color:#2929DA;stop-opacity:0.959"/>
				<stop  offset="0.9741" style="stop-color:#3030FF"/>
			</radialGradient>
			<polygon style="fill:url(#SVGID_00000183934368283563023860000013737868668923036045_);" points="1553.36,1099.83 
				1911.11,742.07 1911.11,550.7 1553.36,908.46 			"/>
			
				<radialGradient id="SVGID_00000108302701387969103400000000878736728456845445_" cx="-7238.1387" cy="5719.9658" r="274.0648" gradientTransform="matrix(-0.665 -0.7468 0.1902 -0.1694 -4527.1484 -3611.4602)" gradientUnits="userSpaceOnUse">
				<stop  offset="0" style="stop-color:#000000;stop-opacity:0"/>
				<stop  offset="0.2708" style="stop-color:#000002;stop-opacity:0.278"/>
				<stop  offset="0.4048" style="stop-color:#02020A;stop-opacity:0.4156"/>
				<stop  offset="0.5089" style="stop-color:#040417;stop-opacity:0.5225"/>
				<stop  offset="0.5976" style="stop-color:#08082A;stop-opacity:0.6135"/>
				<stop  offset="0.6764" style="stop-color:#0C0C42;stop-opacity:0.6944"/>
				<stop  offset="0.7482" style="stop-color:#121260;stop-opacity:0.7681"/>
				<stop  offset="0.8148" style="stop-color:#191984;stop-opacity:0.8364"/>
				<stop  offset="0.8772" style="stop-color:#2121AD;stop-opacity:0.9005"/>
				<stop  offset="0.9341" style="stop-color:#2929DA;stop-opacity:0.959"/>
				<stop  offset="0.9741" style="stop-color:#3030FF"/>
			</radialGradient>
			<polygon style="fill:url(#SVGID_00000108302701387969103400000000878736728456845445_);" points="1553.36,1099.83 1195.6,742.07 
				1195.6,550.7 1553.36,908.46 			"/>
		</g>
	</g>
</g>
<path class="st9" d="M1546.29,840.38c7.65-2.3,15.98-3.44,25-3.44c9.7,0,18.24,1.28,25.61,3.85c9.02,2.97,16.05,7.77,21.11,14.39
	c5.05,6.62,7.58,14.72,7.58,24.31c0,9.45-3.62,17.22-10.86,23.3c-0.41,0.27-0.55,0.54-0.41,0.81c0.14,0.27,0.41,0.41,0.82,0.41h6.35
	c0.68,0,1.3,0.27,1.84,0.81c0.41,0.41,0.61,0.95,0.61,1.62v18.64c0,0.68-0.21,1.28-0.61,1.82c-0.55,0.41-1.16,0.61-1.84,0.61
	h-138.52c-0.68,0-1.23-0.2-1.64-0.61c-0.55-0.54-0.82-1.15-0.82-1.82v-18.64c0-0.68,0.27-1.22,0.82-1.62
	c0.41-0.54,0.96-0.81,1.64-0.81h44.46c0.41,0,0.68-0.14,0.82-0.41c0.14-0.27,0.07-0.54-0.2-0.81c-6.97-5.81-10.45-13.51-10.45-23.1
	c0-10,2.53-18.23,7.58-24.72C1530.24,848.35,1537.27,843.48,1546.29,840.38z M1595.26,865.91c-5.74-3.24-13.59-4.86-23.56-4.86
	c-10.66,0-18.99,2.03-25,6.08c-5.74,3.65-8.61,9.05-8.61,16.21c0,6.62,3.01,11.68,9.02,15.2c5.6,3.38,13.73,5.07,24.38,5.07
	c10.52,0,18.44-1.55,23.77-4.66c6.56-3.51,9.84-8.78,9.84-15.8c0-3.78-0.82-7.16-2.46-10.13
	C1600.86,870.03,1598.41,867.66,1595.26,865.91z M1559.81,727.99c3.42-0.54,7.24-0.81,11.47-0.81l6.35,0.2
	c1.64,0,2.46,0.81,2.46,2.43v63.42c0,0.68,0.34,1.01,1.02,1.01c4.51-0.41,7.58-1.01,9.22-1.82c9.84-3.24,14.82-11.14,14.96-23.7
	c0-9.19-3.83-16.48-11.48-21.88c-0.82-0.54-1.23-1.22-1.23-2.03c0-0.54,0.2-1.01,0.61-1.42l10.45-12.56
	c0.96-1.22,2.05-1.42,3.28-0.61c6.01,4.19,10.66,9.79,13.93,16.82c3.28,6.89,4.92,14.59,4.92,23.1c0,10.54-2.39,19.52-7.17,26.95
	c-4.78,7.29-11.47,12.63-20.08,16.01c-7.38,3.11-17.62,4.66-30.74,4.66c-7.92,0-14.34-0.81-19.26-2.43
	c-9.56-2.7-17.08-7.77-22.54-15.2c-5.6-7.56-8.4-16.61-8.4-27.15C1517.6,746.36,1531.67,731.37,1559.81,727.99z M1538.09,772.97
	c0,5,1.3,9.19,3.89,12.56c2.46,3.24,5.94,5.54,10.45,6.89c2.32,0.81,5.33,1.35,9.02,1.62c0.68,0.27,1.02,0,1.02-0.81V752.1
	c0-0.68-0.34-1.01-1.02-1.01c-3.41,0.27-6.01,0.68-7.79,1.22c-4.92,1.22-8.74,3.65-11.47,7.29
	C1539.46,763.11,1538.09,767.57,1538.09,772.97z M1527.23,570.56c-6.42,5.81-9.63,13.91-9.63,24.31c0,6.48,1.3,12.36,3.89,17.63
	c2.6,5.27,6.63,9.39,12.09,12.36c0.55,0.54,0.55,1.01,0,1.42c-5.19,2.7-9.15,6.55-11.88,11.55c-2.73,5-4.1,10.8-4.1,17.42
	c0,5.4,0.96,10.33,2.87,14.79c1.78,4.32,4.58,7.97,8.4,10.94c0.41,0.27,0.55,0.54,0.41,0.81c-0.14,0.27-0.41,0.41-0.82,0.41h-6.76
	c-0.68,0-1.23,0.27-1.64,0.81c-0.55,0.41-0.82,0.95-0.82,1.62v18.64c0,0.68,0.27,1.28,0.82,1.82c0.41,0.41,0.96,0.61,1.64,0.61
	h99.79c0.68,0,1.3-0.2,1.84-0.61c0.41-0.54,0.61-1.15,0.61-1.82v-18.64c0-0.68-0.21-1.22-0.61-1.62c-0.55-0.54-1.16-0.81-1.84-0.81
	h-66.59c-5.19-0.54-9.29-2.43-12.29-5.67c-3.01-3.38-4.51-7.63-4.51-12.76c0-5.54,1.84-10,5.53-13.37
	c3.69-3.38,8.67-5.07,14.96-5.07h62.91c0.68,0,1.3-0.2,1.84-0.61c0.41-0.54,0.61-1.15,0.61-1.82v-18.44c0-0.68-0.21-1.22-0.61-1.62
	c-0.55-0.54-1.16-0.81-1.84-0.81h-63.11c-6.15,0-11.06-1.76-14.75-5.27c-3.69-3.51-5.53-8.04-5.53-13.57
	c0-5.54,1.84-9.93,5.53-13.17c3.69-3.38,8.67-5.07,14.96-5.07h62.91c0.68,0,1.3-0.2,1.84-0.61c0.41-0.54,0.61-1.15,0.61-1.82v-18.44
	c0-0.68-0.21-1.22-0.61-1.62c-0.55-0.54-1.16-0.81-1.84-0.81h-67.82C1542.33,561.65,1533.52,564.62,1527.23,570.56z M1500.58,482.07
	h-18.75v-116.8h18.75V482.07z M1481.83,508.02v-18.54h118.12v18.54H1481.83z M1607.45,508.02h18.75v-116.8h-18.75V508.02z
	 M1508.08,383.81v-18.54h118.12v18.54H1508.08z"/>
</svg>
