<?xml version="1.0" encoding="utf-8"?>
<!-- Generator: Adobe Illustrator 30.1.0, SVG Export Plug-In . SVG Version: 9.03 Build 0)  -->
<svg version="1.1" baseProfile="basic" id="Camada_1"
	 xmlns="http://www.w3.org/2000/svg" xmlns:xlink="http://www.w3.org/1999/xlink" x="0px" y="0px" viewBox="0 0 4116.34 1292.07"
	 xml:space="preserve">
<style type="text/css">
	.st0{fill:url(#SVGID_1_);}
	.st1{fill:#FFFFFF;}
	.st2{clip-path:url(#SVGID_00000152265103670842290260000015649677874368629692_);}
	.st3{fill:url(#SVGID_00000157293286397918683290000007551285025403690167_);}
	.st4{fill:url(#SVGID_00000013194605019035906850000017103534608147206281_);}
	.st5{fill:url(#SVGID_00000171719602437742106640000002808906396238763166_);}
	.st6{fill:url(#SVGID_00000087398092730455546980000017561803019290455470_);}
	.st7{fill:url(#SVGID_00000149381787786467903800000017013335853823832459_);}
	.st8{fill:url(#SVGID_00000183951073743615341400000013044293460391213219_);}
	.st9{fill-rule:evenodd;clip-rule:evenodd;fill:#FFFFFF;}
	.st10{fill:url(#SVGID_00000124159943373212436320000011405874197998077079_);}
	.st11{fill:url(#SVGID_00000014635637827828073100000003764173283556211619_);}
	.st12{fill:url(#SVGID_00000044144552446702583050000011669587681670410882_);}
	.st13{fill:url(#SVGID_00000083809333640801205000000014588722574140069823_);}
	.st14{fill:url(#SVGID_00000053504954637838764160000016286077310283296144_);}
	.st15{fill:url(#SVGID_00000092433470807994357160000006384327198072177293_);}
	.st16{fill:url(#SVGID_00000162310731289226313180000008478943695396963771_);}
	.st17{fill:url(#SVGID_00000059307032275957114830000001605835856716955799_);}
	.st18{fill:url(#SVGID_00000036971423445887521940000011572149159260179642_);}
	.st19{fill:#3030FF;}
	.st20{fill:url(#SVGID_00000145765356694280569800000017687074575078281121_);}
	.st21{fill:url(#SVGID_00000044161394508505276340000011121429272611089060_);}
	.st22{fill:url(#SVGID_00000121245903351648569580000016482413427394169278_);}
	.st23{fill:url(#SVGID_00000146462999491791407860000017265171382698829233_);}
	.st24{fill:url(#SVGID_00000155844663789104984820000002573781942460838283_);}
	.st25{fill:url(#SVGID_00000026133485129161023000000018021436116961312940_);}
	.st26{fill:url(#SVGID_00000083790064388984950880000017889827151790505605_);}
	.st27{fill:url(#SVGID_00000073681390802734488120000003758674365467021958_);}
	.st28{fill:url(#SVGID_00000140710507546038767000000013457139610984354947_);}
	.st29{fill:url(#SVGID_00000148633062173726124260000006563425782823314091_);}
	.st30{fill:url(#SVGID_00000073701741765798210970000007718830881453871796_);}
	.st31{fill:url(#SVGID_00000019666785726823509780000003048080324653794475_);}
	.st32{fill:url(#SVGID_00000097484572409362752010000017253824432072837765_);}
	.st33{fill:none;stroke:#3030FF;stroke-width:3;stroke-miterlimit:10;}
	.st34{fill:url(#SVGID_00000114047371433140242610000008863880608117913756_);}
	.st35{fill:url(#SVGID_00000036248082269893673170000014609614943915821758_);}
	.st36{fill:url(#SVGID_00000131367462014402385950000008233837625099364521_);}
	.st37{fill:url(#SVGID_00000179622199739033517120000005850561842628539808_);}
	.st38{fill:url(#SVGID_00000102546317845709360190000011513088366629234816_);}
	.st39{fill:url(#SVGID_00000119818087428355577270000007750660007506269353_);}
	.st40{fill:url(#SVGID_00000085933416595109854540000013736122270521854386_);}
	.st41{fill:url(#SVGID_00000183206516117072934430000003491468342648650656_);}
	.st42{fill:url(#SVGID_00000160878661021041658020000004203080249481337516_);}
	.st43{fill:url(#SVGID_00000093153344928335682140000006180381966256144262_);}
	.st44{fill:url(#SVGID_00000124857595910167367690000002516195983737876640_);}
	.st45{fill:url(#SVGID_00000016076349583187789890000002139626818743299226_);}
	.st46{fill:url(#SVGID_00000023966108972353818920000015023734416962349192_);}
	.st47{fill:url(#SVGID_00000010291280498818227920000012261611588220090285_);}
	.st48{fill:url(#SVGID_00000160166668576715794850000011874330007043732399_);}
	.st49{fill:url(#SVGID_00000158025941219445692580000001531476523827332776_);}
	.st50{fill:url(#SVGID_00000171692275044789845130000009803053348742014859_);}
	.st51{fill:url(#SVGID_00000164491153233750457280000018198924037967465890_);}
	.st52{fill:#3030FF;stroke:#3030FF;stroke-width:2;stroke-miterlimit:10;}
	.st53{fill:none;stroke:#FFFFFF;stroke-miterlimit:10;}
	.st54{fill:url(#SVGID_00000093147074631285309910000008042799895783325631_);}
	.st55{fill:url(#SVGID_00000030470460955386797170000009012221967866848139_);}
	.st56{fill:url(#SVGID_00000034057413138563023290000012331223288837427634_);}
	.st57{fill:url(#SVGID_00000116232536346189300680000000954707631956377728_);}
	.st58{fill:url(#SVGID_00000000922328949028692740000012197648052390861459_);}
	.st59{fill:url(#SVGID_00000056410685515554298540000011950733634025901703_);}
	.st60{fill:none;stroke:#3030FF;stroke-width:3.2003;stroke-miterlimit:10;}
	.st61{fill:url(#SVGID_00000081641120972699036400000007154179932652624271_);}
	.st62{fill:url(#SVGID_00000008870000873662028590000005297905372104020407_);}
	.st63{fill:url(#SVGID_00000035498533502916814770000016063761993038734998_);}
	.st64{fill:url(#SVGID_00000131365001107013972500000017745499838891691410_);}
	.st65{fill:url(#SVGID_00000040554140651286419010000005868154246415789738_);}
	.st66{fill:url(#SVGID_00000049211435674704398810000002072936675933570205_);}
	.st67{fill:url(#SVGID_00000075871191206517246500000012916699119961107876_);}
	.st68{fill:url(#SVGID_00000122710490661376041050000007535314265173573820_);}
	.st69{fill:url(#SVGID_00000002342072784118154970000004453218549843520150_);}
	.st70{fill:url(#SVGID_00000064330016393292527070000007902684703766275982_);}
	.st71{fill:url(#SVGID_00000121279946245036677320000016210813353594763454_);}
	.st72{fill:url(#SVGID_00000051361066774842768600000013740615595425105283_);}
	.st73{fill:url(#SVGID_00000161618861669125277380000015127195641185960595_);}
	.st74{fill:url(#SVGID_00000103241397232240438470000010713570987039425721_);}
	.st75{fill:url(#SVGID_00000034092146992848226370000006791378552957255052_);}
	.st76{fill:url(#SVGID_00000088093959981593080400000012272013764237033135_);}
	.st77{fill:url(#SVGID_00000009580399184978596340000015861975719680354967_);}
	.st78{fill:url(#SVGID_00000039126488272175735860000006414134596438588321_);}
	.st79{fill:url(#SVGID_00000124856233737592964240000016757613792597147551_);}
	.st80{fill:url(#SVGID_00000095319704155101194690000014222649585033501855_);}
	.st81{fill:url(#SVGID_00000009576370326856207350000007336170691782885019_);}
	.st82{fill:url(#SVGID_00000116194769472587697120000011608738397187961996_);}
	.st83{fill:url(#SVGID_00000015320210713253230760000012247215966420730522_);}
	.st84{fill:url(#SVGID_00000029741513434343603390000007325191003850373250_);}
	.st85{fill:none;stroke:#3030FF;stroke-width:7.973;stroke-miterlimit:10;}
	.st86{fill:url(#SVGID_00000003075527425762021290000012659930653830799254_);}
	.st87{fill:url(#SVGID_00000129202102625115479720000017031009242474786216_);}
	.st88{fill:#2B2B2B;}
	.st89{fill:url(#SVGID_00000018938551787862371320000002393253981209356968_);}
	.st90{fill:url(#SVGID_00000064320463423611285800000011009119211347746481_);}
	.st91{fill:url(#SVGID_00000026133382660597110920000008755243513512427650_);}
	.st92{fill:url(#SVGID_00000041992821898232699200000002226252088761270969_);}
	.st93{fill:#3030FF;stroke:#3030FF;stroke-width:1.3238;stroke-miterlimit:10;}
	.st94{fill:url(#SVGID_00000007427444129521549720000017244522466752502962_);}
	.st95{fill:url(#SVGID_00000159451839853781127160000006745643936544579977_);}
	.st96{fill:none;stroke:#3030FF;stroke-width:1.9299;stroke-miterlimit:10;}
	.st97{fill:url(#SVGID_00000144324733631914269190000014235161125763585706_);}
	.st98{fill:url(#SVGID_00000173132261481602491350000016624914501718367679_);}
	.st99{fill:url(#SVGID_00000149377696648315397580000005089496078682216875_);}
	.st100{fill:url(#SVGID_00000088120298560065139280000007969816484717388473_);}
	.st101{fill:url(#SVGID_00000031169414095871661920000013024451830684646537_);}
	.st102{fill:url(#SVGID_00000042710606943179437250000001951621978863237768_);}
	.st103{fill:url(#SVGID_00000003793098210516222610000006488698658471235994_);}
	.st104{fill:url(#SVGID_00000157990064039089214070000014717349771743346617_);}
	.st105{fill:url(#SVGID_00000057828708248424931850000005319195523568128390_);}
	.st106{fill:url(#SVGID_00000015326552415929596140000011049662202443869603_);}
	.st107{fill:url(#SVGID_00000106106061733456650290000013860173908525856134_);}
	.st108{fill:url(#SVGID_00000095339103213691476140000014759140371549360829_);}
	.st109{fill:url(#SVGID_00000090290191303477454850000013294340864452494485_);}
	.st110{fill:url(#SVGID_00000147218289033652832970000007284341274515405214_);}
	.st111{fill:url(#SVGID_00000102544204667486062660000017101059453164218241_);}
	.st112{fill:url(#SVGID_00000124137097515777996560000017972441563582443412_);}
	.st113{fill:none;stroke:#3030FF;stroke-width:2.0587;stroke-miterlimit:10;}
	.st114{fill:url(#SVGID_00000059277010663522586450000010871783145881417391_);}
	.st115{fill:url(#SVGID_00000021822625862428807780000017951587274376294067_);}
	.st116{fill:url(#SVGID_00000166666397718317666440000012696049384534642612_);}
	.st117{fill:url(#SVGID_00000048492985097028852980000018126670884488624053_);}
	.st118{fill:url(#SVGID_00000149360326752129841680000011054508963532132790_);}
	.st119{fill:url(#SVGID_00000182490279067516161400000009550304406608736956_);}
	
		.st120{clip-path:url(#SVGID_00000029766155243179935410000015072034472680859543_);fill:url(#SVGID_00000165206689136668417050000000925703317595417472_);}
	.st121{clip-path:url(#SVGID_00000026133296906078212360000012219073089905009319_);}
	.st122{fill-rule:evenodd;clip-rule:evenodd;}
	.st123{clip-path:url(#SVGID_00000107590388216344948010000013797967913978925754_);}
	.st124{fill:url(#SVGID_00000150097479704287061760000009326037472765457081_);}
	.st125{fill:url(#SVGID_00000155841131671891404270000007365270532197757070_);}
	.st126{fill:url(#SVGID_00000016759161469738751270000005318667455007251098_);}
	.st127{fill:url(#SVGID_00000049222211238665922400000016344416384027710379_);}
	.st128{clip-path:url(#SVGID_00000056408207044427129220000012363397705436198036_);}
	.st129{fill:url(#SVGID_00000016069743204840776910000015008211515104595099_);}
	.st130{fill:url(#SVGID_00000143578946520545429310000001187203802682420671_);}
	.st131{fill:url(#SVGID_00000096056364153729269970000015042606340728410034_);}
	.st132{fill:url(#SVGID_00000170980865210499473700000000258473023276017808_);}
	.st133{fill:url(#SVGID_00000047050761070425666780000006024758484153118908_);}
	.st134{fill:url(#SVGID_00000066508504032324564800000008058427704340386495_);}
	.st135{fill:url(#SVGID_00000106848908294752086370000017914231603420622235_);}
	
		.st136{clip-path:url(#SVGID_00000098933657281050215830000013332096557990195341_);fill:url(#SVGID_00000099630743387391699670000004286979514538527891_);}
	.st137{fill:none;stroke:#FFFFFF;stroke-width:12.6291;stroke-miterlimit:10;}
	.st138{fill:none;stroke:#3030FF;stroke-width:1.4767;stroke-linecap:round;stroke-linejoin:round;}
	.st139{fill:url(#SVGID_00000153686946146393468610000006374525474576336786_);}
	.st140{fill:url(#SVGID_00000058567273449070711230000012350496321699571365_);}
	.st141{fill:url(#SVGID_00000183208323847224502750000017758383731039439777_);}
	.st142{fill:none;stroke:#FFFFFF;stroke-width:0.8399;stroke-linecap:round;stroke-linejoin:round;}
	.st143{fill:url(#SVGID_00000024711282087734638320000018053892645518874766_);}
	.st144{fill:url(#SVGID_00000057123165555333642690000010156842173162553218_);}
	.st145{fill:url(#SVGID_00000029728626921215583850000002481661842779327910_);}
	.st146{fill:url(#SVGID_00000084503827575141127170000002070723213753308043_);}
	.st147{stroke:#3030FF;stroke-width:2;stroke-miterlimit:10;}
	.st148{fill:none;stroke:#3030FF;stroke-width:2;stroke-miterlimit:10;}
	.st149{fill:none;stroke:#3030FF;stroke-width:0.9845;stroke-miterlimit:10;}
	.st150{clip-path:url(#SVGID_00000080897250251137466420000008975115926415336083_);}
	.st151{fill-rule:evenodd;clip-rule:evenodd;stroke:#000000;stroke-width:0.9887;stroke-miterlimit:10;}
	.st152{fill-rule:evenodd;clip-rule:evenodd;fill:#FFFFFF;stroke:#000000;stroke-width:0.6244;stroke-miterlimit:10;}
	.st153{stroke:#3030FF;stroke-width:3.27;stroke-miterlimit:10;}
	.st154{fill:url(#SVGID_00000036959439605553844400000004548286022295292588_);}
	.st155{fill:url(#SVGID_00000038410522711616570770000003673022035176064681_);}
	.st156{fill:url(#SVGID_00000178177805233845374330000001734615178332162472_);}
	.st157{fill:url(#SVGID_00000057147622087543987910000011256959044086579381_);}
	.st158{fill:url(#SVGID_00000182523474564712854440000007747277823032722310_);}
	.st159{fill:url(#SVGID_00000033354925890532085020000014335053472637899669_);}
	.st160{fill:url(#SVGID_00000132067390375639344080000018033507882126317206_);}
	.st161{fill:url(#SVGID_00000075884262424030796030000000195530212905574569_);}
	.st162{fill:url(#SVGID_00000162337867873357698520000005224933272667508125_);}
	.st163{fill:url(#SVGID_00000030475555850796977150000011179035047838669730_);}
	.st164{fill:url(#SVGID_00000036963053302237311340000015812124373955152279_);}
	.st165{fill:url(#SVGID_00000148635538844471489730000017809990317670095007_);}
	.st166{fill:url(#SVGID_00000068659205293324813570000015371123801342673311_);}
	.st167{fill:url(#SVGID_00000110470390601835850370000013237924543704426139_);}
	.st168{fill:url(#SVGID_00000042701934996391749930000002661702929367584395_);}
	.st169{fill:url(#SVGID_00000145753745118580837110000006330450471429475999_);}
	.st170{fill:url(#SVGID_00000168797995038959105900000007478915327083750811_);}
	.st171{fill:url(#SVGID_00000116940115699038257530000010251688441491502771_);}
	.st172{fill:url(#SVGID_00000119819472776671791740000005683985735479488394_);}
	.st173{fill:url(#SVGID_00000000203430612730222470000011356727745417033890_);}
	.st174{fill:url(#SVGID_00000000212038648610812760000000942223690344713868_);}
	.st175{fill:url(#SVGID_00000164490218702018192960000010432163538400196757_);}
	.st176{fill:url(#SVGID_00000108291773749143002220000010356525503712305563_);}
	.st177{fill:url(#SVGID_00000000912182336246989920000000998717595374553269_);}
	.st178{fill:url(#SVGID_00000109744412495634703020000003587335805218723456_);}
	.st179{fill:url(#SVGID_00000102524266602127686780000016412667240720035463_);}
	.st180{fill:url(#SVGID_00000063623504217278012090000002926957540999006375_);}
	.st181{fill:url(#SVGID_00000072238939067932130580000014213093836994288543_);}
	.st182{fill:url(#SVGID_00000143601867574665081400000016254009660741259408_);}
	.st183{fill:url(#SVGID_00000023245010318371456570000008497370120698775944_);}
	.st184{fill:url(#SVGID_00000027574415873152138840000011474524484082635925_);}
	.st185{fill:url(#SVGID_00000081608677993163017220000012531972540844899988_);}
	.st186{fill:url(#SVGID_00000171711962113245185390000003123013644756645043_);}
	.st187{clip-path:url(#SVGID_00000174566055408507972920000015487990284382987659_);}
	.st188{fill:#3030FF;stroke:#3030FF;stroke-width:1.9106;stroke-miterlimit:10;}
	.st189{fill:none;stroke:#000000;stroke-width:22;stroke-miterlimit:10;}
	.st190{fill:url(#SVGID_00000024712853184169259490000004619638158624361405_);}
	.st191{fill:#0073FF;}
	.st192{fill:#FF6F91;}
	.st193{fill:#E075FF;}
	.st194{fill:#EDEEF3;}
	.st195{fill:none;stroke:#EDEEF3;stroke-width:0.7369;stroke-miterlimit:10;}
	.st196{clip-path:url(#SVGID_00000005977884419999387010000017383913511759771274_);}
	.st197{fill:url(#SVGID_00000143618388462398965560000017162168696371201174_);}
	.st198{fill:none;stroke:#3030FF;stroke-width:6.7505;stroke-miterlimit:10;}
	.st199{fill:url(#SVGID_00000103968551790002541890000002107055899047015594_);}
	.st200{fill:url(#SVGID_00000024704284940315990490000012626732503442056888_);}
	.st201{clip-path:url(#SVGID_00000124152245529682311710000009291018939362506393_);}
	.st202{fill:url(#SVGID_00000029737677452509187420000014970338654555587501_);}
	.st203{fill:url(#SVGID_00000178905755470215849120000003282408175981296521_);}
	.st204{fill:url(#SVGID_00000101078245473697202520000013969550985113814965_);}
	.st205{fill:url(#SVGID_00000059308935416069579590000012471838848547853455_);}
	.st206{fill:url(#SVGID_00000150782648594112158730000008943893585436996276_);}
	.st207{fill:url(#SVGID_00000152238440574535370020000005896742091955881151_);}
	
		.st208{clip-path:url(#SVGID_00000174593030403563449660000004756037574078650498_);fill:url(#SVGID_00000096019699668566417160000005487193425295901853_);}
	
		.st209{clip-path:url(#SVGID_00000174593030403563449660000004756037574078650498_);fill:url(#SVGID_00000009570737119261423020000010067193727328248732_);}
	.st210{clip-path:url(#SVGID_00000183207001968209819300000010636835303414459577_);}
	.st211{fill:url(#SVGID_00000089565808672293437270000015553564041643195324_);}
	.st212{fill:url(#SVGID_00000126312615102149461630000006663208624721053591_);}
	.st213{fill:url(#SVGID_00000044143214515825054070000011269187757024175795_);}
	.st214{fill:url(#SVGID_00000064342390531926268700000003030010328265409942_);}
	.st215{fill:url(#SVGID_00000145018546109376602770000005509651955667343279_);}
	.st216{fill:url(#SVGID_00000053544697280372708240000006534418326491816346_);}
	.st217{fill:none;stroke:#FFFFFF;stroke-width:1.4827;stroke-miterlimit:10;}
	.st218{clip-path:url(#SVGID_00000014592952184190230750000003631821395615327394_);}
	.st219{fill:url(#SVGID_00000102524968420341324750000005305670268918003845_);}
	.st220{fill:url(#SVGID_00000064320608209987680120000007991022592876493957_);}
	.st221{fill:url(#SVGID_00000148626967953913597840000008679967387451263902_);}
	.st222{fill:url(#SVGID_00000164514490997787860630000005698554180574428338_);}
	.st223{stroke:#FF6F91;stroke-width:2;stroke-miterlimit:10;}
	.st224{fill:none;stroke:#FF6F91;stroke-width:2;stroke-miterlimit:10;}
	.st225{stroke:#E075FF;stroke-width:2;stroke-miterlimit:10;}
	.st226{fill:none;stroke:#E075FF;stroke-width:2;stroke-miterlimit:10;}
	.st227{stroke:#0073FF;stroke-width:2;stroke-miterlimit:10;}
	.st228{fill:none;stroke:#0073FF;stroke-width:2;stroke-miterlimit:10;}
	.st229{fill:url(#SVGID_00000009592474822985515050000013423840078629444028_);}
	.st230{fill:url(#SVGID_00000142873899495002328270000012068732161876085653_);}
	.st231{fill:url(#SVGID_00000085246450052940762760000015424274364997219250_);}
	.st232{fill:url(#SVGID_00000029010466364726304160000012132763113293883546_);}
	.st233{fill:url(#SVGID_00000090989162252645504270000012409991799418623120_);}
	.st234{fill:url(#SVGID_00000047040427501576304710000015309958816978083263_);}
	.st235{fill:url(#SVGID_00000117667034014005334440000017090580393945990046_);}
	.st236{fill:url(#SVGID_00000003809568986700000430000000216399780857894796_);}
	.st237{fill:url(#SVGID_00000163053362225217423720000018347133055804656008_);}
	.st238{fill:url(#SVGID_00000175307107183311848700000011901211207742174116_);}
	.st239{fill:url(#SVGID_00000164475289431908612130000010814169182153864868_);}
	.st240{fill:url(#SVGID_00000150088966589406613970000005532681971274103944_);}
	.st241{fill:url(#SVGID_00000113320992809754942590000012772475543120018312_);}
	.st242{fill:url(#SVGID_00000114072194836553826550000007175025494504646813_);}
	.st243{fill:url(#SVGID_00000044177608870946674760000003135581459774283965_);}
	.st244{fill:url(#SVGID_00000120543100187932278120000014386321439389986234_);}
	.st245{fill:url(#SVGID_00000104675670732176785320000018415512269307538583_);}
	.st246{fill:url(#SVGID_00000172436672227400550000000008767679786889410968_);}
	.st247{fill:none;stroke:#3030FF;stroke-width:1.4271;stroke-miterlimit:10;}
	.st248{fill:url(#SVGID_00000078746848755719096790000002581736046895039662_);}
	.st249{fill:url(#SVGID_00000098196990202674516690000003765212151605581971_);}
	.st250{fill:#302DF9;}
	.st251{fill:url(#SVGID_00000099638714334082511350000004313027682577725863_);}
	.st252{fill:url(#SVGID_00000001622868875084754980000006758307379880929934_);}
	.st253{fill:url(#SVGID_00000037677329726100733700000010439651331579850921_);}
	.st254{fill:url(#SVGID_00000111180109849603937340000003614443287089078668_);}
	.st255{fill:url(#SVGID_00000115503698535291611170000002196169655264106926_);}
	.st256{fill:url(#SVGID_00000026135390402608589450000017866779070772101030_);}
	.st257{fill:none;stroke:#3030FF;stroke-width:1.3699;stroke-miterlimit:10;}
	.st258{fill:url(#SVGID_00000155839977798972753140000003243960263888353946_);}
	.st259{fill:url(#SVGID_00000168814969072855064940000004214720709290202557_);}
	.st260{fill:url(#SVGID_00000000908333246696340690000001395437327323463102_);}
	.st261{fill:url(#SVGID_00000109732146138244202870000016510151326452078527_);}
	.st262{fill:url(#SVGID_00000129202384664852847920000006493220215850588803_);}
	.st263{fill:url(#SVGID_00000017512438376031735140000005239876357356325039_);}
	.st264{fill:url(#SVGID_00000157281395198983743690000009831374763423576245_);}
	.st265{fill:url(#SVGID_00000147193755233441933180000004451772627321344693_);}
	.st266{fill:url(#SVGID_00000168809566410770911140000006067505406689994402_);}
	.st267{fill:url(#SVGID_00000083803931217531110420000007368087732282482563_);}
	.st268{fill:url(#SVGID_00000016765197145684683800000006067490285836291519_);}
	.st269{fill:url(#SVGID_00000177443286513888902040000014972784863516889258_);}
	.st270{fill:url(#SVGID_00000120556266647356036240000007933926570582660284_);}
	.st271{fill:url(#SVGID_00000096770022048582671170000004007174874060267677_);}
	.st272{fill:url(#SVGID_00000029735932668591728910000000443314839868172472_);}
	.st273{fill:url(#SVGID_00000025409049569749580280000010982621673962290317_);}
	.st274{fill:none;stroke:#3030FF;stroke-width:1.4613;stroke-miterlimit:10;}
	.st275{fill:url(#SVGID_00000090276327291481550640000007449923104068029318_);}
	.st276{fill:url(#SVGID_00000029762641063049033100000015521098732737381532_);}
	.st277{fill:url(#SVGID_00000042002462306634729360000000300978177193373102_);}
	.st278{fill:url(#SVGID_00000025406670135148633830000014039284158513680290_);}
	.st279{fill:url(#SVGID_00000118354775405526337460000003944798786529439384_);}
	.st280{fill:url(#SVGID_00000072275932399497629150000011762069664326931872_);}
	.st281{fill:#3030FF;stroke:#3030FF;stroke-width:0.958;stroke-miterlimit:10;}
	.st282{fill:none;stroke:#2B2B2B;stroke-miterlimit:10;}
	.st283{fill:none;stroke:#C25BA2;stroke-width:10;stroke-miterlimit:10;}
	.st284{fill:url(#SVGID_00000147220991041507610770000005181377448361394599_);}
	.st285{fill:url(#SVGID_00000138568371887648041050000004778993689641828540_);}
	.st286{fill:url(#SVGID_00000036948168618293747140000014655693873168551313_);}
	.st287{fill:url(#SVGID_00000085951923201257155110000003917044943029115791_);}
	.st288{fill:url(#SVGID_00000118387258781608785500000010085702206766648744_);}
	.st289{fill:url(#SVGID_00000101078195708239776610000010342686270120665023_);}
	.st290{fill:url(#SVGID_00000152969564305235361750000004898737178165776798_);}
	.st291{fill:url(#SVGID_00000146467400020198372670000000105426817171704760_);}
	.st292{fill:url(#SVGID_00000044140481775758855600000017878015946448263564_);}
	.st293{fill:url(#SVGID_00000114048743143209041920000015444602285921451426_);}
	.st294{fill:url(#SVGID_00000106826202128603296430000013779436073807148946_);}
	.st295{fill:url(#SVGID_00000165215078416731097970000004346170256902881677_);}
	.st296{fill:url(#SVGID_00000106139012895160984220000011421114171742073785_);}
	.st297{fill:url(#SVGID_00000178887066602571318130000001659135068014760068_);}
	.st298{fill:none;stroke:#3030FF;stroke-width:4.9484;stroke-miterlimit:10;}
	.st299{fill:url(#SVGID_00000028284807479279598260000017580493263300370618_);}
	.st300{fill:url(#SVGID_00000004545837596251562980000002534687825433363609_);}
	.st301{fill:url(#SVGID_00000078037176187240421840000012088780783294862230_);}
	.st302{fill:url(#SVGID_00000147934386786005008860000016003289207375205772_);}
	.st303{fill:url(#SVGID_00000018945346823862756920000009317656318000496314_);}
	.st304{fill:url(#SVGID_00000044164587880477749390000005831417271206054321_);}
	.st305{fill:url(#SVGID_00000059273929355886817330000016146299127627511206_);}
	.st306{fill:url(#SVGID_00000093875502649182430960000014368768285181102249_);}
	.st307{fill:url(#SVGID_00000067928660067297746300000017880959745328690355_);}
	.st308{fill:url(#SVGID_00000159470805275815320550000012091532221484674956_);}
	.st309{fill:url(#SVGID_00000086676113929657010140000012270657435561609632_);}
	.st310{fill:url(#SVGID_00000102542647786672070280000010136180655225087638_);}
	.st311{fill:url(#SVGID_00000073705506261710722710000003391045802103335859_);}
	.st312{fill:url(#SVGID_00000052066589948994639220000016432134845971821233_);}
	.st313{fill:url(#SVGID_00000139258627448876832240000017252556469481424786_);}
	.st314{fill:url(#SVGID_00000038381635904777313930000016538955449353424048_);}
	.st315{fill:url(#SVGID_00000111888005177660381170000012202607179258016647_);}
	.st316{fill:url(#SVGID_00000008127215551785144520000012774900127629661348_);}
	.st317{fill:url(#SVGID_00000023991176389399775020000001001454776925425799_);}
	.st318{fill:url(#SVGID_00000098203510228877030470000011014964751427526072_);}
	.st319{fill:url(#SVGID_00000036253672419563629580000013794859904912541621_);}
	.st320{fill:url(#SVGID_00000075144852028998332580000006179813476056862903_);}
	.st321{fill:url(#SVGID_00000181068380388678084430000012762581067981407367_);}
	.st322{fill:url(#SVGID_00000069376195273034706730000001791703399965750463_);}
	.st323{fill:url(#SVGID_00000169520397615188014230000011643527669942112136_);}
	.st324{fill:url(#SVGID_00000114773362424527715510000011491036911378286516_);}
	.st325{fill:url(#SVGID_00000158713646756025158010000003538703532939626918_);}
	.st326{fill:url(#SVGID_00000041293292422147257300000011423505490178259358_);}
	.st327{fill:url(#SVGID_00000009591831753430190100000001310100762409597829_);}
	.st328{fill:url(#SVGID_00000003802725398685805780000015152460416035029943_);}
	.st329{fill:url(#SVGID_00000133501167193131868590000012374037181755621277_);}
	.st330{fill:url(#SVGID_00000116951769534208779090000011143458730239819936_);}
	.st331{fill:url(#SVGID_00000088127202368871636020000000626767119527692735_);}
	.st332{fill:url(#SVGID_00000112600214481711689820000002190658132482216355_);}
	.st333{fill:url(#SVGID_00000007396268453135625040000002828201488913083314_);}
	.st334{fill:url(#SVGID_00000029042000124183481070000002562677884812510614_);}
	.st335{fill:url(#SVGID_00000179632777517030994380000015222028133351019154_);}
	.st336{fill:url(#SVGID_00000041262042790011641680000004138612112399656860_);}
	.st337{fill:url(#SVGID_00000055700483867652797430000001849660006956159423_);}
	.st338{fill:url(#SVGID_00000091700511166491386060000000211270863898636455_);}
	.st339{fill:url(#SVGID_00000179607654009025038270000016376483297306031031_);}
	.st340{fill:url(#SVGID_00000069380820649176847060000013894085870076738731_);}
	.st341{fill:url(#SVGID_00000103235541772287881200000015777359067765876149_);}
	.st342{fill:url(#SVGID_00000150785744805542370820000008471775132663778460_);}
	.st343{fill:url(#SVGID_00000088096281004289704220000007693400231349005953_);}
	.st344{fill:none;stroke:#3030FF;stroke-width:3.7755;stroke-miterlimit:10;}
	.st345{fill:url(#SVGID_00000008117795341862801190000003886060740708317830_);}
	.st346{fill:url(#SVGID_00000035509198835889654130000003714361097678116031_);}
	.st347{fill:url(#SVGID_00000104695261021554597340000012215040465692287642_);}
	.st348{fill:url(#SVGID_00000054949842671861853370000006296316366579890586_);}
	.st349{fill:url(#SVGID_00000039856647463565777600000006073826149269931437_);}
	.st350{fill:url(#SVGID_00000155830649332964397610000003613191644236168102_);}
	
		.st351{fill:none;stroke:url(#SVGID_00000047047320265081601900000005107780493376578460_);stroke-width:1.2585;stroke-miterlimit:10;}
	
		.st352{fill:none;stroke:url(#SVGID_00000065048019240697611060000006774638276406838692_);stroke-width:1.2585;stroke-miterlimit:10;}
	
		.st353{fill:none;stroke:url(#SVGID_00000101802723605993475320000007201787633761297564_);stroke-width:1.2585;stroke-miterlimit:10;}
	
		.st354{fill:none;stroke:url(#SVGID_00000096743993185428447770000016325435935215541417_);stroke-width:1.2585;stroke-miterlimit:10;}
	
		.st355{fill:none;stroke:url(#SVGID_00000141438416913659219160000003689734011385416886_);stroke-width:1.2585;stroke-miterlimit:10;}
	
		.st356{fill:none;stroke:url(#SVGID_00000070120949361240640900000003889043872194697144_);stroke-width:1.2585;stroke-miterlimit:10;}
	.st357{fill-rule:evenodd;clip-rule:evenodd;fill:#FFFFFF;stroke:#000000;stroke-width:2.5298;stroke-miterlimit:10;}
	.st358{fill:url(#SVGID_00000035513945658643843120000016705519462161251242_);}
	.st359{fill:url(#SVGID_00000049923546263628198480000014545973217893010358_);}
	.st360{fill:url(#SVGID_00000111179626310256232050000002752675048759070117_);}
	.st361{fill:url(#SVGID_00000132061632842733891360000015420998920726510778_);}
	.st362{fill:url(#SVGID_00000160882220635661745160000017879122661003149464_);}
	.st363{fill:url(#SVGID_00000101804850362668495390000016760790922617236127_);}
	.st364{fill:url(#SVGID_00000091720036217781634020000007977996561237623187_);}
	.st365{fill:url(#SVGID_00000150089393432750562920000001147139405359586232_);}
</style>
<rect x="-10718.19" y="-5499.46" width="16397.75" height="16332.66"/>
<g>
	<defs>
		<rect id="SVGID_00000155843256707880414530000017049503576014770305_" width="4116.34" height="1292.07"/>
	</defs>
	<clipPath id="SVGID_00000114031913187726911020000005956964934134362770_">
		<use xlink:href="#SVGID_00000155843256707880414530000017049503576014770305_"  style="overflow:visible;"/>
	</clipPath>
	
		<use xlink:href="#SVGID_00000155843256707880414530000017049503576014770305_"  style="overflow:visible;fill:none;stroke:#FFFFFF;stroke-miterlimit:10;"/>
</g>
<g>
	<defs>
		<rect id="SVGID_00000084527774327098635120000003223926067609763209_" y="-3096.85" width="4116.34" height="1292.07"/>
	</defs>
	
		<radialGradient id="SVGID_00000181809121228327474030000014990289891233500091_" cx="2752.0591" cy="-2121.865" r="3768.7273" gradientTransform="matrix(0.935 -0.3546 0.2037 0.5372 611.0836 -6.1892)" gradientUnits="userSpaceOnUse">
		<stop  offset="0" style="stop-color:#0073FF"/>
		<stop  offset="0.0855" style="stop-color:#0A65FF"/>
		<stop  offset="0.3541" style="stop-color:#253FFF"/>
		<stop  offset="0.4947" style="stop-color:#3030FF"/>
		<stop  offset="0.6032" style="stop-color:#2829D4"/>
		<stop  offset="0.7935" style="stop-color:#1A1C8D"/>
		<stop  offset="0.9307" style="stop-color:#111561"/>
		<stop  offset="1" style="stop-color:#0E1250"/>
	</radialGradient>
	
		<use xlink:href="#SVGID_00000084527774327098635120000003223926067609763209_"  style="overflow:visible;fill:url(#SVGID_00000181809121228327474030000014990289891233500091_);"/>
	<clipPath id="SVGID_00000140003894815069042650000007389372849000668855_">
		<use xlink:href="#SVGID_00000084527774327098635120000003223926067609763209_"  style="overflow:visible;"/>
	</clipPath>
</g>
<g>
	<defs>
		<rect id="SVGID_00000139251526585423483770000004466674142543856272_" width="4116.34" height="1292.07"/>
	</defs>
	<clipPath id="SVGID_00000033332275805505375920000009696620692489594496_">
		<use xlink:href="#SVGID_00000139251526585423483770000004466674142543856272_"  style="overflow:visible;"/>
	</clipPath>
	<g style="clip-path:url(#SVGID_00000033332275805505375920000009696620692489594496_);">
		<path class="st1" d="M228.54,601.99h174.77c22.26,0,41.77,4.59,58.53,13.78c16.75,9.19,29.72,22.1,38.91,38.75
			c9.19,16.65,13.78,36.1,13.78,58.36v12.97c0,25.73-6.38,47.61-19.13,65.66c-12.76,18.05-29.94,29.99-51.55,35.83
			c25.29,4.54,45.34,16.37,60.15,35.5c14.8,19.13,22.21,43.72,22.21,73.77v13.29c0,23.99-4.76,44.75-14.27,62.26
			c-9.51,17.51-23.29,31.02-41.34,40.53c-18.05,9.51-39.4,14.27-64.04,14.27H228.54V601.99z M444.16,807.08
			c13.4-7.24,23.78-17.62,31.13-31.13c7.35-13.51,11.02-29.34,11.02-47.5v-13.94c0-18.16-3.68-34.05-11.02-47.66
			c-7.35-13.62-17.73-24.16-31.13-31.61c-13.41-7.46-28.97-11.19-46.69-11.19H257.4v193.57l140.07,0.32
			C415.19,817.94,430.76,814.32,444.16,807.08z M472.05,1019.46c16.86-16.97,25.29-40.58,25.29-70.85v-13.94
			c0-29.83-8.43-53.12-25.29-69.88c-16.86-16.75-40.32-25.13-70.36-25.13H257.4v205.25h144.29
			C431.73,1044.91,455.19,1036.43,472.05,1019.46z"/>
		<path class="st1" d="M646.98,1031.46c14.8,15.46,36.04,23.18,63.71,23.18c20.32,0,38.15-4.1,53.5-12.32
			c15.35-8.21,27.18-19.78,35.5-34.69c8.32-14.92,12.48-32.21,12.48-51.88V734.93h27.56v332.03h-27.56v-61.61
			c-8,22.05-21.67,39.29-41.02,51.72c-19.35,12.43-42.75,18.64-70.2,18.64c-33.51,0-59.17-9.13-77.01-27.4
			c-17.83-18.26-26.75-45.01-26.75-80.25V734.93h27.56v228.92C624.77,993.47,632.17,1016,646.98,1031.46z"/>
		<path class="st1" d="M915.29,633.77h39.56v42.8h-39.56V633.77z M921.45,734.93h27.56v332.03h-27.56V734.93z"/>
		<path class="st1" d="M1030.72,601.99h27.56v464.97h-27.56V601.99z"/>
		<path class="st1" d="M1192.52,1054.8c-12.32-10.48-18.48-25.88-18.48-46.21V755.69h-65.17v-20.75h65.17v-96.3h27.24v96.3h92.08
			v20.75h-92.08v248.05c0,29.62,18.37,44.42,55.12,44.42c12.32,0,24.75-1.3,37.29-3.89v21.72c-13.19,3.02-27.56,4.54-43.12,4.54
			C1224.19,1070.53,1204.84,1065.29,1192.52,1054.8z"/>
		<path class="st1" d="M1542.71,755.69h-65.17v-20.75h70.69c-4.11-2.16-8-6.97-11.67-14.43c-3.68-7.46-5.51-17.88-5.51-31.29v-23.67
			c0-22.91,6.65-40.21,19.94-51.88s33.99-17.51,62.09-17.51c14.48,0,27.89,1.3,40.21,3.89v20.43c-3.68-0.86-8.92-1.62-15.73-2.27
			c-6.81-0.65-13.67-0.97-20.59-0.97c-20.54,0-35.46,4.27-44.75,12.81c-9.3,8.54-13.94,21.78-13.94,39.72v24.32
			c0,12.32,1.67,21.89,5.03,28.7c3.35,6.81,7.08,10.86,11.19,12.16h78.79v20.75h-83.33v311.28h-27.24V755.69z"/>
		<path class="st1" d="M1712.29,1037.46c-23.78-25.5-35.67-62.79-35.67-111.86v-49.29c0-49.07,11.89-86.36,35.67-111.86
			c23.78-25.5,57.28-38.26,100.52-38.26c43.23,0,76.68,12.76,100.35,38.26c23.67,25.51,35.5,62.8,35.5,111.86v49.29
			c0,49.07-11.83,86.36-35.5,111.86c-23.67,25.51-57.12,38.26-100.35,38.26C1769.57,1075.72,1736.06,1062.96,1712.29,1037.46z
			 M1892.24,1022.54c19.02-21.61,28.53-53.39,28.53-95.33v-52.53c0-41.93-9.51-73.71-28.53-95.33
			c-19.02-21.61-45.51-32.42-79.44-32.42c-33.94,0-60.47,10.76-79.6,32.26c-19.13,21.51-28.7,53.34-28.7,95.49v52.53
			c0,42.15,9.57,73.98,28.7,95.49c19.13,21.51,45.66,32.26,79.6,32.26C1846.74,1054.96,1873.22,1044.16,1892.24,1022.54z"/>
		<path class="st1" d="M2019.02,734.93h26.26v62.25c6.91-21.83,18.48-38.15,34.69-48.96c16.21-10.81,36.53-16.21,60.96-16.21
			c9.51,0,17.29,0.65,23.35,1.95v23.99c-7.57-1.08-15.78-1.62-24.64-1.62c-30.92,0-54.15,7.89-69.71,23.67
			c-15.56,15.78-23.35,39.78-23.35,71.98v214.97h-27.56V734.93z"/>
		<path class="st1" d="M2398.23,1037.46c-23.89-25.5-35.83-62.79-35.83-111.86v-49.29c0-49.07,11.94-86.36,35.83-111.86
			c23.88-25.5,57.55-38.26,101-38.26c38.91,0,68.85,10,89.82,29.99c20.96,20,31.88,48.04,32.75,84.14v3.89h-26.91v-4.21
			c-1.08-29.83-9.89-52.8-26.43-68.9c-16.54-16.1-39.72-24.16-69.55-24.16c-34.16,0-60.8,10.76-79.93,32.26
			c-19.13,21.51-28.7,53.34-28.7,95.49v52.53c0,41.94,9.67,73.72,29.02,95.33c19.34,21.62,46.21,32.42,80.58,32.42
			c30.48,0,54.31-8.43,71.5-25.29c17.19-16.86,26.21-40.42,27.07-70.69v-4.54h27.24v3.89c-0.44,24.21-5.51,45.13-15.24,62.74
			c-9.73,17.62-23.94,31.13-42.64,40.53c-18.7,9.4-41.34,14.1-67.93,14.1C2455.99,1075.72,2422.11,1062.96,2398.23,1037.46z"/>
		<path class="st1" d="M2694.43,601.99h27.56v464.97h-27.56V601.99z"/>
		<path class="st1" d="M2816.34,1052.37c-16.65-15.35-24.97-37.29-24.97-65.82v-6.16c0-24.86,6.75-44.31,20.27-58.36
			c13.51-14.05,34.31-23.88,62.42-29.51l133.27-25.94v-40.53c0-26.37-7.03-46.15-21.08-59.34c-14.05-13.18-35.56-19.78-64.53-19.78
			c-30.05,0-52.48,6.76-67.28,20.27c-14.81,13.51-22.54,34.43-23.18,62.74v4.86h-26.91v-4.86c0.43-34.58,10.38-60.52,29.83-77.82
			c19.46-17.29,48.74-25.94,87.87-25.94c38.47,0,66.85,8.22,85.12,24.64c18.26,16.43,27.4,40.85,27.4,73.28v202.98
			c0,14.7,7.56,22.05,22.7,22.05c3.24,0,7.02-0.32,11.35-0.97v19.45c-1.73,0.43-4.43,0.86-8.11,1.3c-3.68,0.43-7.57,0.65-11.67,0.65
			c-13.84,0-24.21-3.19-31.13-9.56c-6.92-6.37-10.38-15.51-10.38-27.4v-32.75c-8,23.56-22.32,42.05-42.96,55.45
			c-20.65,13.4-45.67,20.1-75.06,20.1C2857.3,1075.39,2832.98,1067.72,2816.34,1052.37z M2838.71,1036.97
			c13.18,12,32.64,18,58.36,18c22.05,0,41.39-4.32,58.04-12.97c16.64-8.64,29.51-20.64,38.58-35.99
			c9.08-15.35,13.62-32.64,13.62-51.88v-67.12l-123.54,24.32c-22.05,4.54-38.37,12.21-48.96,23.02
			c-10.59,10.81-15.89,26.05-15.89,45.72v5.84C2818.94,1007.95,2825.53,1024.97,2838.71,1036.97z"/>
		<path class="st1" d="M3118.54,734.93h26.26v62.25c6.92-21.83,18.48-38.15,34.69-48.96c16.21-10.81,36.53-16.21,60.96-16.21
			c9.51,0,17.29,0.65,23.35,1.95v23.99c-7.57-1.08-15.78-1.62-24.64-1.62c-30.92,0-54.15,7.89-69.71,23.67
			c-15.56,15.78-23.35,39.78-23.35,71.98v214.97h-27.56V734.93z"/>
		<path class="st1" d="M3306.6,633.77h39.56v42.8h-39.56V633.77z M3312.76,734.93h27.56v332.03h-27.56V734.93z"/>
		<path class="st1" d="M3474.56,1054.8c-12.32-10.48-18.48-25.88-18.48-46.21V755.69h-65.17v-20.75h65.17v-96.3h27.24v96.3h92.08
			v20.75h-92.08v248.05c0,29.62,18.37,44.42,55.12,44.42c12.32,0,24.75-1.3,37.29-3.89v21.72c-13.19,3.02-27.56,4.54-43.12,4.54
			C3506.23,1070.53,3486.88,1065.29,3474.56,1054.8z"/>
		<path class="st1" d="M3628.9,1201.52v-23.99c9.08,1.51,17.94,2.27,26.59,2.27c15.99,0,28.8-3.78,38.42-11.35
			c9.62-7.57,17.56-19.78,23.83-36.64l22.37-61.93l-120.29-334.95H3649l105.06,300.58l105.06-300.58h28.53l-145.59,405.31
			c-8,22.26-18.59,38.42-31.78,48.48c-13.19,10.05-30.8,15.08-52.85,15.08C3645.97,1203.79,3636.46,1203.03,3628.9,1201.52z"/>
		<path class="st1" d="M3925.59,1021.24v45.72h-42.15v-45.72H3925.59z"/>
	</g>
	<g style="clip-path:url(#SVGID_00000033332275805505375920000009696620692489594496_);">
		
			<radialGradient id="SVGID_1_" cx="3667.0522" cy="-1021.7709" r="1107.1654" gradientTransform="matrix(4.489700e-11 -1 1 4.489700e-11 2287.0713 4095.6272)" gradientUnits="userSpaceOnUse">
			<stop  offset="0" style="stop-color:#000000;stop-opacity:0"/>
			<stop  offset="0.278" style="stop-color:#000002;stop-opacity:0.278"/>
			<stop  offset="0.4156" style="stop-color:#02020A;stop-opacity:0.4156"/>
			<stop  offset="0.5225" style="stop-color:#040417;stop-opacity:0.5225"/>
			<stop  offset="0.6135" style="stop-color:#08082A;stop-opacity:0.6135"/>
			<stop  offset="0.6944" style="stop-color:#0C0C42;stop-opacity:0.6944"/>
			<stop  offset="0.7681" style="stop-color:#121260;stop-opacity:0.7681"/>
			<stop  offset="0.8364" style="stop-color:#191984;stop-opacity:0.8364"/>
			<stop  offset="0.9005" style="stop-color:#2121AD;stop-opacity:0.9005"/>
			<stop  offset="0.959" style="stop-color:#2929DA;stop-opacity:0.959"/>
			<stop  offset="1" style="stop-color:#3030FF"/>
		</radialGradient>
		<polygon class="st0" points="1265.3,-811.68 2505.55,428.57 1265.3,1668.83 25.05,428.57 		"/>
		
			<radialGradient id="SVGID_00000183927396471434178800000009119028051366809769_" cx="3667.0522" cy="-1685.1964" r="1107.1654" gradientTransform="matrix(4.489700e-11 -1 1 4.489700e-11 2287.0713 4095.6272)" gradientUnits="userSpaceOnUse">
			<stop  offset="0" style="stop-color:#000000;stop-opacity:0"/>
			<stop  offset="0.278" style="stop-color:#000002;stop-opacity:0.278"/>
			<stop  offset="0.4156" style="stop-color:#02020A;stop-opacity:0.4156"/>
			<stop  offset="0.5225" style="stop-color:#040417;stop-opacity:0.5225"/>
			<stop  offset="0.6135" style="stop-color:#08082A;stop-opacity:0.6135"/>
			<stop  offset="0.6944" style="stop-color:#0C0C42;stop-opacity:0.6944"/>
			<stop  offset="0.7681" style="stop-color:#121260;stop-opacity:0.7681"/>
			<stop  offset="0.8364" style="stop-color:#191984;stop-opacity:0.8364"/>
			<stop  offset="0.9005" style="stop-color:#2121AD;stop-opacity:0.9005"/>
			<stop  offset="0.959" style="stop-color:#2929DA;stop-opacity:0.959"/>
			<stop  offset="1" style="stop-color:#3030FF"/>
		</radialGradient>
		<polygon style="fill:url(#SVGID_00000183927396471434178800000009119028051366809769_);" points="601.87,-811.68 1842.13,428.57 
			601.87,1668.83 -638.38,428.57 		"/>
		<g>
			
				<radialGradient id="SVGID_00000074427468723914649130000015643591833243510201_" cx="4026.5215" cy="4153.0532" r="950.1141" gradientTransform="matrix(-0.7468 -0.665 -0.1694 0.1902 5264.397 1696.0205)" gradientUnits="userSpaceOnUse">
				<stop  offset="0" style="stop-color:#000000;stop-opacity:0"/>
				<stop  offset="0.2708" style="stop-color:#000002;stop-opacity:0.278"/>
				<stop  offset="0.4048" style="stop-color:#02020A;stop-opacity:0.4156"/>
				<stop  offset="0.5089" style="stop-color:#040417;stop-opacity:0.5225"/>
				<stop  offset="0.5976" style="stop-color:#08082A;stop-opacity:0.6135"/>
				<stop  offset="0.6764" style="stop-color:#0C0C42;stop-opacity:0.6944"/>
				<stop  offset="0.7482" style="stop-color:#121260;stop-opacity:0.7681"/>
				<stop  offset="0.8148" style="stop-color:#191984;stop-opacity:0.8364"/>
				<stop  offset="0.8772" style="stop-color:#2121AD;stop-opacity:0.9005"/>
				<stop  offset="0.9341" style="stop-color:#2929DA;stop-opacity:0.959"/>
				<stop  offset="0.9741" style="stop-color:#3030FF"/>
			</radialGradient>
			<polygon style="fill:url(#SVGID_00000074427468723914649130000015643591833243510201_);" points="2505.55,428.57 1265.3,-811.68 
				601.87,-811.68 1842.13,428.57 			"/>
			
				<radialGradient id="SVGID_00000107557346098764863500000005888101292496391606_" cx="-8910.5859" cy="4153.0532" r="950.1141" gradientTransform="matrix(-0.7468 0.665 -0.1694 -0.1902 -4397.4917 7764.4224)" gradientUnits="userSpaceOnUse">
				<stop  offset="0" style="stop-color:#000000;stop-opacity:0"/>
				<stop  offset="0.2708" style="stop-color:#000002;stop-opacity:0.278"/>
				<stop  offset="0.4048" style="stop-color:#02020A;stop-opacity:0.4156"/>
				<stop  offset="0.5089" style="stop-color:#040417;stop-opacity:0.5225"/>
				<stop  offset="0.5976" style="stop-color:#08082A;stop-opacity:0.6135"/>
				<stop  offset="0.6764" style="stop-color:#0C0C42;stop-opacity:0.6944"/>
				<stop  offset="0.7482" style="stop-color:#121260;stop-opacity:0.7681"/>
				<stop  offset="0.8148" style="stop-color:#191984;stop-opacity:0.8364"/>
				<stop  offset="0.8772" style="stop-color:#2121AD;stop-opacity:0.9005"/>
				<stop  offset="0.9341" style="stop-color:#2929DA;stop-opacity:0.959"/>
				<stop  offset="0.9741" style="stop-color:#3030FF"/>
			</radialGradient>
			<polygon style="fill:url(#SVGID_00000107557346098764863500000005888101292496391606_);" points="2505.55,428.57 1265.3,1668.83 
				601.87,1668.83 1842.13,428.57 			"/>
		</g>
		<g>
			
				<radialGradient id="SVGID_00000095325380531395805510000015323090929476462987_" cx="-8590.7451" cy="-1573.7833" r="950.1141" gradientTransform="matrix(0.7468 0.665 0.1694 -0.1902 6995.9351 6462.2183)" gradientUnits="userSpaceOnUse">
				<stop  offset="0" style="stop-color:#000000;stop-opacity:0"/>
				<stop  offset="0.2708" style="stop-color:#000002;stop-opacity:0.278"/>
				<stop  offset="0.4048" style="stop-color:#02020A;stop-opacity:0.4156"/>
				<stop  offset="0.5089" style="stop-color:#040417;stop-opacity:0.5225"/>
				<stop  offset="0.5976" style="stop-color:#08082A;stop-opacity:0.6135"/>
				<stop  offset="0.6764" style="stop-color:#0C0C42;stop-opacity:0.6944"/>
				<stop  offset="0.7482" style="stop-color:#121260;stop-opacity:0.7681"/>
				<stop  offset="0.8148" style="stop-color:#191984;stop-opacity:0.8364"/>
				<stop  offset="0.8772" style="stop-color:#2121AD;stop-opacity:0.9005"/>
				<stop  offset="0.9341" style="stop-color:#2929DA;stop-opacity:0.959"/>
				<stop  offset="0.9741" style="stop-color:#3030FF"/>
			</radialGradient>
			<polygon style="fill:url(#SVGID_00000095325380531395805510000015323090929476462987_);" points="-638.38,428.57 601.87,1668.83 
				1265.3,1668.83 25.05,428.57 			"/>
			
				<radialGradient id="SVGID_00000106866912846996676400000000043245631109854125_" cx="3706.6809" cy="-1573.7833" r="950.1141" gradientTransform="matrix(0.7468 -0.665 0.1694 0.1902 -2188.217 2572.8311)" gradientUnits="userSpaceOnUse">
				<stop  offset="0" style="stop-color:#000000;stop-opacity:0"/>
				<stop  offset="0.2708" style="stop-color:#000002;stop-opacity:0.278"/>
				<stop  offset="0.4048" style="stop-color:#02020A;stop-opacity:0.4156"/>
				<stop  offset="0.5089" style="stop-color:#040417;stop-opacity:0.5225"/>
				<stop  offset="0.5976" style="stop-color:#08082A;stop-opacity:0.6135"/>
				<stop  offset="0.6764" style="stop-color:#0C0C42;stop-opacity:0.6944"/>
				<stop  offset="0.7482" style="stop-color:#121260;stop-opacity:0.7681"/>
				<stop  offset="0.8148" style="stop-color:#191984;stop-opacity:0.8364"/>
				<stop  offset="0.8772" style="stop-color:#2121AD;stop-opacity:0.9005"/>
				<stop  offset="0.9341" style="stop-color:#2929DA;stop-opacity:0.959"/>
				<stop  offset="0.9741" style="stop-color:#3030FF"/>
			</radialGradient>
			<polygon style="fill:url(#SVGID_00000106866912846996676400000000043245631109854125_);" points="-638.38,428.57 601.87,-811.68 
				1265.3,-811.68 25.05,428.57 			"/>
		</g>
	</g>
</g>
<g>
	<path class="st1" d="M233.68,242.96c-2-0.71-3.44-1.73-4.33-3.07c-0.89-1.34-1.36-3.01-1.39-5.02l5.09-0.02
		c0.07,1.28,0.42,2.35,1.02,3.21c0.61,0.86,1.56,1.52,2.85,1.98c1.29,0.46,3,0.69,5.1,0.69c2.95,0,5.07-0.42,6.37-1.26
		c1.29-0.84,1.94-1.99,1.94-3.46v-0.2c0-1.05-0.33-1.88-0.99-2.49c-0.66-0.61-1.69-0.98-3.08-1.12l-10.45-0.95
		c-2.44-0.24-4.27-0.92-5.49-2.06s-1.83-2.7-1.83-4.67v-0.33c0-2.53,1.04-4.53,3.13-5.99s5.42-2.2,10.01-2.2
		c4.5,0,7.75,0.71,9.76,2.14c2.01,1.42,3.05,3.49,3.12,6.19h-5.06c-0.1-1.1-0.42-2.02-0.97-2.76c-0.55-0.74-1.39-1.3-2.55-1.69
		c-1.15-0.39-2.68-0.59-4.57-0.59c-2.74,0-4.72,0.41-5.94,1.24c-1.22,0.82-1.83,1.95-1.83,3.37v0.22c0,1.04,0.33,1.86,0.99,2.46
		c0.66,0.6,1.67,0.97,3.03,1.11l10.52,0.97c2.44,0.24,4.27,0.92,5.48,2.06c1.21,1.14,1.82,2.71,1.82,4.7v0.32
		c0,5.53-4.6,8.29-13.79,8.29C238.33,244.02,235.68,243.67,233.68,242.96z"/>
	<path class="st1" d="M264.92,243.13c-1.07-0.37-1.83-0.92-2.29-1.65c-0.45-0.73-0.68-1.67-0.68-2.81v-11.34h-4.89v-3.03h4.89v-5.61
		h4.76v5.61h6.91v3.03h-6.91v10.39c0,1.64,1.32,2.45,3.96,2.45c0.56,0,1.11-0.03,1.65-0.08c0.55-0.06,0.99-0.12,1.34-0.2v3.38
		c-1.29,0.27-2.75,0.41-4.39,0.41C267.44,243.68,265.99,243.5,264.92,243.13z"/>
	<path class="st1" d="M276.77,224.3h4.57v4.35c0.57-1.57,1.46-2.74,2.67-3.48c1.21-0.75,2.75-1.12,4.64-1.12
		c0.88,0,1.59,0.07,2.14,0.2v3.74c-0.82-0.15-1.71-0.22-2.68-0.22c-2.28,0-3.95,0.49-5.02,1.48c-1.07,0.99-1.6,2.47-1.6,4.45v9.65
		h-4.72V224.3z"/>
	<path class="st1" d="M299.56,239.43c0.92,0.88,2.28,1.32,4.08,1.32c1.36,0,2.54-0.24,3.52-0.73c0.99-0.48,1.74-1.16,2.26-2.03
		c0.52-0.87,0.78-1.87,0.78-3.01V224.3h4.72v19.03h-4.72v-3.94c-0.68,1.46-1.76,2.6-3.23,3.4s-3.28,1.21-5.41,1.21
		c-2.68,0-4.7-0.63-6.06-1.89c-1.36-1.26-2.04-3.06-2.04-5.4V224.3h4.72v11.32C298.18,237.28,298.64,238.55,299.56,239.43z"/>
	<path class="st1" d="M321.07,241.43c-1.99-1.73-2.98-4.18-2.98-7.35v-0.52c0-3.17,0.99-5.62,2.97-7.35s4.96-2.59,8.94-2.59
		c2.45,0,4.49,0.33,6.12,0.98c1.62,0.65,2.83,1.55,3.62,2.7s1.23,2.49,1.3,4.01h-4.83c-0.19-1.46-0.79-2.59-1.81-3.39
		c-1.02-0.8-2.48-1.2-4.38-1.2c-2.28,0-4.03,0.59-5.24,1.76c-1.21,1.17-1.82,2.83-1.82,4.99v0.69c0,2.17,0.61,3.84,1.82,5.01
		c1.21,1.17,2.97,1.76,5.26,1.76c1.95,0,3.46-0.43,4.54-1.28s1.69-2.02,1.82-3.49h4.85c-0.05,1.56-0.48,2.93-1.28,4.12
		c-0.81,1.18-2.03,2.11-3.68,2.77c-1.65,0.66-3.72,0.99-6.21,0.99C326.06,244.02,323.06,243.15,321.07,241.43z"/>
	<path class="st1" d="M350.34,243.13c-1.07-0.37-1.83-0.92-2.29-1.65c-0.45-0.73-0.68-1.67-0.68-2.81v-11.34h-4.89v-3.03h4.89v-5.61
		h4.76v5.61h6.91v3.03h-6.91v10.39c0,1.64,1.32,2.45,3.96,2.45c0.56,0,1.11-0.03,1.65-0.08c0.55-0.06,0.99-0.12,1.34-0.2v3.38
		c-1.29,0.27-2.75,0.41-4.39,0.41C352.87,243.68,351.41,243.5,350.34,243.13z"/>
	<path class="st1" d="M368.22,239.43c0.92,0.88,2.28,1.32,4.08,1.32c1.36,0,2.54-0.24,3.52-0.73c0.99-0.48,1.74-1.16,2.26-2.03
		c0.52-0.87,0.78-1.87,0.78-3.01V224.3h4.72v19.03h-4.72v-3.94c-0.68,1.46-1.76,2.6-3.23,3.4s-3.28,1.21-5.41,1.21
		c-2.68,0-4.7-0.63-6.06-1.89c-1.36-1.26-2.04-3.06-2.04-5.4V224.3h4.72v11.32C366.84,237.28,367.3,238.55,368.22,239.43z"/>
	<path class="st1" d="M387.6,224.3h4.57v4.35c0.57-1.57,1.46-2.74,2.67-3.48c1.21-0.75,2.75-1.12,4.64-1.12
		c0.88,0,1.59,0.07,2.14,0.2v3.74c-0.82-0.15-1.71-0.22-2.68-0.22c-2.28,0-3.95,0.49-5.02,1.48c-1.07,0.99-1.6,2.47-1.6,4.45v9.65
		h-4.72V224.3z"/>
	<path class="st1" d="M405.88,241.43c-1.99-1.73-2.98-4.18-2.98-7.35v-0.52c0-3.18,0.99-5.64,2.97-7.36c1.98-1.72,4.98-2.58,9-2.58
		c3.89,0,6.75,0.83,8.57,2.5c1.82,1.67,2.73,4.12,2.73,7.37v1.26h-18.4c0.06,2.03,0.7,3.6,1.91,4.71c1.21,1.11,2.96,1.66,5.22,1.66
		c1.83,0,3.28-0.36,4.33-1.08c1.05-0.72,1.7-1.67,1.93-2.84h4.85c-0.12,1.29-0.6,2.44-1.42,3.47c-0.82,1.02-2.05,1.84-3.67,2.44
		s-3.63,0.91-6.02,0.91C410.87,244.02,407.87,243.15,405.88,241.43z M414.83,226.47c-2.12,0-3.76,0.47-4.93,1.4
		c-1.17,0.94-1.86,2.31-2.07,4.14h13.46C421.07,228.32,418.92,226.47,414.83,226.47z"/>
	<path class="st1" d="M446.49,243.13c-1.07-0.37-1.83-0.92-2.29-1.65c-0.45-0.73-0.68-1.67-0.68-2.81v-11.34h-4.89v-3.03h4.89v-5.61
		h4.76v5.61h6.91v3.03h-6.91v10.39c0,1.64,1.32,2.45,3.96,2.45c0.56,0,1.11-0.03,1.65-0.08c0.55-0.06,0.99-0.12,1.34-0.2v3.38
		c-1.29,0.27-2.75,0.41-4.39,0.41C449.02,243.68,447.56,243.5,446.49,243.13z"/>
	<path class="st1" d="M473.7,228.2c-0.92-0.88-2.28-1.32-4.08-1.32c-1.36,0-2.54,0.24-3.52,0.72c-0.99,0.48-1.74,1.16-2.26,2.03
		c-0.52,0.87-0.78,1.87-0.78,3.01v10.69h-4.72v-26.65h4.72v11.56c0.68-1.46,1.76-2.6,3.23-3.4c1.47-0.81,3.28-1.21,5.41-1.21
		c2.68,0,4.7,0.63,6.06,1.89s2.04,3.06,2.04,5.4v12.42h-4.72v-11.32C475.09,230.35,474.62,229.08,473.7,228.2z"/>
	<path class="st1" d="M485.93,241.43c-1.99-1.73-2.98-4.18-2.98-7.35v-0.52c0-3.18,0.99-5.64,2.97-7.36c1.98-1.72,4.98-2.58,9-2.58
		c3.89,0,6.75,0.83,8.57,2.5c1.82,1.67,2.73,4.12,2.73,7.37v1.26h-18.4c0.06,2.03,0.7,3.6,1.91,4.71c1.21,1.11,2.96,1.66,5.22,1.66
		c1.83,0,3.28-0.36,4.33-1.08c1.05-0.72,1.7-1.67,1.93-2.84h4.85c-0.12,1.29-0.6,2.44-1.42,3.47c-0.82,1.02-2.05,1.84-3.67,2.44
		s-3.63,0.91-6.02,0.91C490.93,244.02,487.92,243.15,485.93,241.43z M494.88,226.47c-2.12,0-3.76,0.47-4.93,1.4
		c-1.17,0.94-1.86,2.31-2.07,4.14h13.46C501.12,228.32,498.97,226.47,494.88,226.47z"/>
	<path class="st1" d="M522.03,241.43c-1.99-1.73-2.98-4.18-2.98-7.35v-0.52c0-3.17,0.99-5.62,2.97-7.35s4.96-2.59,8.94-2.59
		c2.45,0,4.49,0.33,6.12,0.98c1.62,0.65,2.83,1.55,3.62,2.7s1.23,2.49,1.3,4.01h-4.83c-0.19-1.46-0.79-2.59-1.81-3.39
		c-1.02-0.8-2.48-1.2-4.38-1.2c-2.28,0-4.03,0.59-5.24,1.76c-1.21,1.17-1.82,2.83-1.82,4.99v0.69c0,2.17,0.61,3.84,1.82,5.01
		c1.21,1.17,2.97,1.76,5.26,1.76c1.95,0,3.46-0.43,4.54-1.28s1.69-2.02,1.82-3.49h4.85c-0.05,1.56-0.48,2.93-1.28,4.12
		c-0.81,1.18-2.03,2.11-3.68,2.77c-1.65,0.66-3.72,0.99-6.21,0.99C527.02,244.02,524.02,243.15,522.03,241.43z"/>
	<path class="st1" d="M560.65,228.2c-0.92-0.88-2.28-1.32-4.08-1.32c-1.36,0-2.54,0.24-3.52,0.72c-0.99,0.48-1.74,1.16-2.26,2.03
		c-0.52,0.87-0.78,1.87-0.78,3.01v10.69h-4.72v-26.65h4.72v11.56c0.68-1.46,1.76-2.6,3.23-3.4c1.47-0.81,3.28-1.21,5.41-1.21
		c2.68,0,4.7,0.63,6.06,1.89s2.04,3.06,2.04,5.4v12.42h-4.72v-11.32C562.04,230.35,561.57,229.08,560.65,228.2z"/>
	<path class="st1" d="M571.71,242.52c-1.23-0.97-1.85-2.36-1.85-4.15v-0.13c0-1.05,0.2-1.94,0.6-2.66c0.4-0.72,1.05-1.3,1.93-1.76
		c0.89-0.45,2.06-0.78,3.52-0.99l10.76-1.54v-1.02c0-1.21-0.41-2.13-1.24-2.76c-0.82-0.63-2.18-0.94-4.06-0.94
		c-1.91,0-3.3,0.32-4.17,0.96c-0.87,0.64-1.37,1.61-1.5,2.91h-4.68c0.06-2.22,0.9-3.91,2.51-5.07c1.61-1.16,4.26-1.75,7.94-1.75
		c3.56,0,6.1,0.54,7.63,1.61c1.53,1.07,2.29,2.62,2.29,4.64v9.67c0,0.33,0.1,0.6,0.31,0.78c0.21,0.19,0.51,0.28,0.92,0.28
		c0.27,0,0.56-0.02,0.86-0.07v2.88c-0.74,0.19-1.61,0.28-2.6,0.28c-1.45,0-2.51-0.28-3.19-0.85c-0.68-0.56-1.01-1.39-1.01-2.48
		v-0.85c-0.69,1.44-1.82,2.55-3.36,3.33s-3.5,1.17-5.85,1.17C574.86,243.98,572.94,243.49,571.71,242.52z M575.74,240.33
		c0.74,0.53,1.92,0.79,3.54,0.79c1.59,0,2.94-0.24,4.05-0.72s1.95-1.13,2.51-1.95s0.84-1.74,0.84-2.76v-1.73l-9.03,1.36
		c-1.04,0.16-1.8,0.47-2.29,0.92c-0.48,0.45-0.72,1.06-0.72,1.81v0.09C574.64,239.07,575.01,239.8,575.74,240.33z"/>
	<path class="st1" d="M598.04,241.42c-1.98-1.73-2.97-4.18-2.97-7.34v-0.52c0-3.16,0.99-5.61,2.97-7.34c1.98-1.73,4.96-2.6,8.94-2.6
		c3.99,0,6.97,0.86,8.95,2.59c1.98,1.73,2.96,4.18,2.96,7.35v0.52c0,3.17-0.99,5.62-2.96,7.35c-1.98,1.73-4.96,2.59-8.95,2.59
		C603,244.02,600.02,243.15,598.04,241.42z M612.22,239.15c1.21-1.18,1.82-2.84,1.82-5v-0.67c0-2.16-0.61-3.82-1.82-5
		c-1.21-1.18-2.96-1.77-5.22-1.77c-2.28,0-4.03,0.59-5.24,1.77c-1.21,1.18-1.82,2.84-1.82,5v0.67c0,2.16,0.61,3.82,1.82,5
		c1.21,1.18,2.96,1.77,5.24,1.77C609.26,240.91,611.01,240.33,612.22,239.15z"/>
	<path class="st1" d="M625.74,243.21c-1.59-0.54-2.73-1.3-3.42-2.28c-0.69-0.98-1.04-2.18-1.07-3.61h4.76
		c0.12,1.28,0.67,2.24,1.63,2.9c0.96,0.66,2.55,0.98,4.77,0.98c2.09,0,3.59-0.28,4.48-0.83c0.89-0.55,1.34-1.31,1.34-2.28V238
		c0-0.68-0.21-1.21-0.64-1.6c-0.43-0.38-1.11-0.62-2.04-0.71l-8.36-0.71c-1.95-0.17-3.36-0.67-4.26-1.49s-1.34-1.97-1.34-3.46v-0.15
		c0-1.98,0.81-3.52,2.43-4.63c1.62-1.1,4.28-1.65,7.96-1.65c3.64,0,6.25,0.54,7.83,1.62c1.57,1.08,2.39,2.61,2.45,4.59h-4.7
		c-0.06-0.74-0.28-1.36-0.64-1.86s-0.96-0.88-1.77-1.14c-0.82-0.27-1.92-0.4-3.31-0.4c-1.97,0-3.37,0.27-4.21,0.8
		c-0.84,0.53-1.25,1.28-1.25,2.23v0.11c0,0.69,0.21,1.24,0.63,1.63s1.08,0.63,1.99,0.72l8.38,0.73c1.93,0.16,3.35,0.65,4.27,1.48
		c0.91,0.82,1.37,1.98,1.37,3.47v0.15c0,1.97-0.84,3.51-2.53,4.63c-1.69,1.11-4.48,1.67-8.38,1.67
		C629.45,244.02,627.33,243.75,625.74,243.21z"/>
	<path class="st1" d="M650.73,238.16v5.17h-5.52v-5.17H650.73z"/>
	<path class="st1" d="M664.39,216.68h15.58c2.71,0,5.03,0.51,6.96,1.52s3.4,2.49,4.41,4.42c1.01,1.93,1.51,4.26,1.51,6.99v0.78
		c0,2.73-0.5,5.06-1.51,6.99s-2.48,3.41-4.41,4.42s-4.25,1.52-6.96,1.52h-15.58V216.68z M683.55,238.74
		c1.32-0.72,2.33-1.77,3.03-3.16c0.7-1.39,1.05-3.08,1.05-5.07v-1c0-2-0.35-3.69-1.05-5.07c-0.7-1.39-1.71-2.44-3.03-3.16
		s-2.91-1.08-4.77-1.08h-9.35v19.63h9.35C680.64,239.82,682.23,239.46,683.55,238.74z"/>
	<path class="st1" d="M698.71,241.43c-1.99-1.73-2.98-4.18-2.98-7.35v-0.52c0-3.18,0.99-5.64,2.97-7.36c1.98-1.72,4.98-2.58,9-2.58
		c3.89,0,6.75,0.83,8.57,2.5c1.82,1.67,2.73,4.12,2.73,7.37v1.26h-18.4c0.06,2.03,0.7,3.6,1.91,4.71c1.21,1.11,2.96,1.66,5.22,1.66
		c1.83,0,3.28-0.36,4.33-1.08c1.05-0.72,1.7-1.67,1.93-2.84h4.85c-0.12,1.29-0.6,2.44-1.42,3.47c-0.82,1.02-2.05,1.84-3.67,2.44
		s-3.63,0.91-6.02,0.91C703.71,244.02,700.7,243.15,698.71,241.43z M707.66,226.47c-2.12,0-3.76,0.47-4.93,1.4
		c-1.17,0.94-1.86,2.31-2.07,4.14h13.46C713.9,228.32,711.75,226.47,707.66,226.47z"/>
	<path class="st1" d="M722.14,224.3h4.72v4.09c0.73-1.57,1.85-2.76,3.35-3.56c1.51-0.8,3.37-1.2,5.59-1.2
		c3.27,0,5.76,0.85,7.48,2.56c1.72,1.7,2.57,4.16,2.57,7.37v0.52c0,3.21-0.86,5.67-2.57,7.37c-1.72,1.7-4.21,2.56-7.48,2.56
		c-2.22,0-4.08-0.4-5.59-1.21c-1.5-0.81-2.62-1.99-3.35-3.57v11.73h-4.72V224.3z M739.15,239.15c1.21-1.18,1.82-2.84,1.82-5v-0.67
		c0-2.16-0.61-3.82-1.82-5c-1.21-1.18-2.96-1.77-5.22-1.77c-2.28,0-4.03,0.59-5.24,1.77c-1.21,1.18-1.82,2.84-1.82,5v0.67
		c0,2.16,0.61,3.82,1.82,5c1.21,1.18,2.96,1.77,5.24,1.77C736.19,240.91,737.94,240.33,739.15,239.15z"/>
	<path class="st1" d="M749.04,216.68h4.72v26.65h-4.72V216.68z"/>
	<path class="st1" d="M759.89,241.42c-1.98-1.73-2.97-4.18-2.97-7.34v-0.52c0-3.16,0.99-5.61,2.97-7.34c1.98-1.73,4.96-2.6,8.94-2.6
		c3.99,0,6.97,0.86,8.95,2.59c1.98,1.73,2.96,4.18,2.96,7.35v0.52c0,3.17-0.99,5.62-2.96,7.35c-1.98,1.73-4.96,2.59-8.95,2.59
		C764.86,244.02,761.87,243.15,759.89,241.42z M774.07,239.15c1.21-1.18,1.82-2.84,1.82-5v-0.67c0-2.16-0.61-3.82-1.82-5
		c-1.21-1.18-2.96-1.77-5.22-1.77c-2.28,0-4.03,0.59-5.24,1.77c-1.21,1.18-1.82,2.84-1.82,5v0.67c0,2.16,0.61,3.82,1.82,5
		c1.21,1.18,2.96,1.77,5.24,1.77C771.12,240.91,772.86,240.33,774.07,239.15z"/>
	<path class="st1" d="M783.09,251.04v-3.7c0.3,0.04,0.69,0.07,1.17,0.1c0.48,0.03,0.93,0.05,1.34,0.05c0.81,0,1.47-0.09,2.01-0.27
		c0.53-0.18,0.98-0.45,1.34-0.82c0.36-0.37,0.69-0.85,1-1.46l0.84-1.67l-9.33-18.98h5.26l6.69,14.7l6.65-14.7h5.17l-11.04,22.3
		c-0.53,1.09-1.12,1.97-1.77,2.63c-0.65,0.66-1.48,1.16-2.48,1.5c-1,0.33-2.27,0.5-3.79,0.5
		C785.06,251.23,784.04,251.17,783.09,251.04z"/>
	<path class="st1" d="M824.77,243.13c-1.07-0.37-1.83-0.92-2.29-1.65c-0.45-0.73-0.68-1.67-0.68-2.81v-11.34h-4.89v-3.03h4.89v-5.61
		h4.76v5.61h6.91v3.03h-6.91v10.39c0,1.64,1.32,2.45,3.96,2.45c0.56,0,1.11-0.03,1.65-0.08c0.55-0.06,0.99-0.12,1.34-0.2v3.38
		c-1.29,0.27-2.75,0.41-4.39,0.41C827.29,243.68,825.84,243.5,824.77,243.13z"/>
	<path class="st1" d="M851.98,228.2c-0.92-0.88-2.28-1.32-4.08-1.32c-1.36,0-2.54,0.24-3.52,0.72c-0.99,0.48-1.74,1.16-2.26,2.03
		c-0.52,0.87-0.78,1.87-0.78,3.01v10.69h-4.72v-26.65h4.72v11.56c0.68-1.46,1.76-2.6,3.23-3.4c1.47-0.81,3.28-1.21,5.41-1.21
		c2.68,0,4.7,0.63,6.06,1.89s2.04,3.06,2.04,5.4v12.42h-4.72v-11.32C853.37,230.35,852.9,229.08,851.98,228.2z"/>
	<path class="st1" d="M864.21,241.43c-1.99-1.73-2.98-4.18-2.98-7.35v-0.52c0-3.18,0.99-5.64,2.97-7.36c1.98-1.72,4.98-2.58,9-2.58
		c3.89,0,6.75,0.83,8.57,2.5c1.82,1.67,2.73,4.12,2.73,7.37v1.26h-18.4c0.06,2.03,0.7,3.6,1.91,4.71c1.21,1.11,2.96,1.66,5.22,1.66
		c1.83,0,3.28-0.36,4.33-1.08c1.05-0.72,1.7-1.67,1.93-2.84h4.85c-0.12,1.29-0.6,2.44-1.42,3.47c-0.82,1.02-2.05,1.84-3.67,2.44
		s-3.63,0.91-6.02,0.91C869.21,244.02,866.2,243.15,864.21,241.43z M873.16,226.47c-2.12,0-3.76,0.47-4.93,1.4
		c-1.17,0.94-1.86,2.31-2.07,4.14h13.46C879.4,228.32,877.25,226.47,873.16,226.47z"/>
	<path class="st1" d="M897.99,217.01h5.09v4.44h-5.09V217.01z M898.18,224.3h4.72v19.03h-4.72V224.3z"/>
	<path class="st1" d="M922.28,228.2c-0.92-0.88-2.28-1.32-4.08-1.32c-1.36,0-2.54,0.24-3.52,0.72c-0.99,0.48-1.74,1.16-2.26,2.03
		c-0.52,0.87-0.78,1.87-0.78,3.01v10.69h-4.72V224.3h4.72v3.94c0.68-1.46,1.76-2.6,3.23-3.4c1.47-0.81,3.28-1.21,5.41-1.21
		c2.68,0,4.7,0.63,6.06,1.89s2.04,3.06,2.04,5.4v12.42h-4.72v-11.32C923.66,230.35,923.2,229.08,922.28,228.2z"/>
	<path class="st1" d="M938.19,243.13c-1.07-0.37-1.83-0.92-2.29-1.65c-0.45-0.73-0.68-1.67-0.68-2.81v-11.34h-4.89v-3.03h4.89v-5.61
		h4.76v5.61h6.91v3.03h-6.91v10.39c0,1.64,1.32,2.45,3.96,2.45c0.56,0,1.11-0.03,1.65-0.08c0.55-0.06,0.99-0.12,1.34-0.2v3.38
		c-1.29,0.27-2.75,0.41-4.39,0.41C940.71,243.68,939.26,243.5,938.19,243.13z"/>
	<path class="st1" d="M951.61,241.43c-1.99-1.73-2.98-4.18-2.98-7.35v-0.52c0-3.18,0.99-5.64,2.97-7.36c1.98-1.72,4.98-2.58,9-2.58
		c3.89,0,6.75,0.83,8.57,2.5c1.82,1.67,2.73,4.12,2.73,7.37v1.26h-18.4c0.06,2.03,0.7,3.6,1.91,4.71c1.21,1.11,2.96,1.66,5.22,1.66
		c1.83,0,3.28-0.36,4.33-1.08c1.05-0.72,1.7-1.67,1.93-2.84h4.85c-0.12,1.29-0.6,2.44-1.42,3.47c-0.82,1.02-2.05,1.84-3.67,2.44
		s-3.63,0.91-6.02,0.91C956.6,244.02,953.6,243.15,951.61,241.43z M960.56,226.47c-2.12,0-3.76,0.47-4.93,1.4
		c-1.17,0.94-1.86,2.31-2.07,4.14h13.46C966.8,228.32,964.65,226.47,960.56,226.47z"/>
	<path class="st1" d="M975.04,216.68h4.72v26.65h-4.72V216.68z"/>
	<path class="st1" d="M983.77,216.68h4.72v26.65h-4.72V216.68z"/>
	<path class="st1" d="M992.32,217.01h5.09v4.44h-5.09V217.01z M992.51,224.3h4.72v19.03h-4.72V224.3z"/>
	<path class="st1" d="M1006.26,236.17c-0.38,0.1-0.69,0.31-0.92,0.63s-0.34,0.74-0.34,1.26c0,0.68,0.21,1.21,0.63,1.59
		c0.42,0.38,1.07,0.57,1.93,0.59l10.71,0.26c2.11,0.05,3.66,0.51,4.66,1.38c1,0.87,1.5,2.14,1.5,3.81c0,1.3-0.33,2.38-0.98,3.24
		c-0.65,0.86-1.78,1.53-3.4,2c-1.62,0.47-3.84,0.71-6.66,0.71h-3.03c-2.63,0-4.68-0.24-6.15-0.72s-2.51-1.19-3.11-2.14
		c-0.6-0.95-0.91-2.2-0.92-3.76h4.72c0.02,0.9,0.23,1.65,0.62,2.23c0.39,0.58,1.04,1.02,1.96,1.33c0.92,0.3,2.16,0.46,3.72,0.46
		h2.19c2.35,0,4-0.27,4.93-0.8s1.4-1.29,1.4-2.27c0-0.73-0.24-1.31-0.71-1.73c-0.48-0.42-1.19-0.64-2.13-0.65l-10.59-0.26
		c-1.95-0.05-3.35-0.42-4.23-1.1c-0.87-0.68-1.31-1.65-1.31-2.9c0-1.05,0.31-1.89,0.92-2.5s1.59-1.01,2.95-1.18
		c-2.47-1.04-3.7-2.84-3.7-5.41v-0.19c0-2.03,0.83-3.62,2.5-4.75c1.67-1.13,4.41-1.7,8.24-1.7c3.88,0,6.7,0.61,8.46,1.82
		c-0.03-0.22-0.04-0.39-0.04-0.5c0-0.93,0.29-1.63,0.88-2.11c0.59-0.48,1.41-0.72,2.46-0.72c0.35,0,0.72,0.02,1.12,0.07v3.16
		c-0.15-0.01-0.34-0.03-0.58-0.06s-0.46-0.04-0.67-0.04c-0.63,0-1.13,0.1-1.51,0.29c-0.37,0.19-0.59,0.46-0.67,0.79
		c0.87,0.97,1.3,2.21,1.3,3.74v0.24c0,2.03-0.83,3.61-2.49,4.74c-1.66,1.13-4.42,1.69-8.27,1.69
		C1009.57,236.73,1007.77,236.55,1006.26,236.17z M1016.22,233.15c0.95-0.69,1.43-1.65,1.43-2.88v-0.19c0-1.23-0.48-2.19-1.43-2.88
		s-2.48-1.04-4.57-1.04c-2.08,0-3.6,0.35-4.55,1.04s-1.43,1.65-1.43,2.88v0.19c0,1.23,0.48,2.19,1.44,2.88
		c0.96,0.69,2.48,1.04,4.54,1.04C1013.74,234.19,1015.27,233.84,1016.22,233.15z"/>
	<path class="st1" d="M1028.52,241.43c-1.99-1.73-2.98-4.18-2.98-7.35v-0.52c0-3.18,0.99-5.64,2.97-7.36c1.98-1.72,4.98-2.58,9-2.58
		c3.89,0,6.75,0.83,8.57,2.5c1.82,1.67,2.73,4.12,2.73,7.37v1.26h-18.4c0.06,2.03,0.7,3.6,1.91,4.71c1.21,1.11,2.96,1.66,5.22,1.66
		c1.83,0,3.28-0.36,4.33-1.08c1.05-0.72,1.7-1.67,1.93-2.84h4.85c-0.12,1.29-0.6,2.44-1.42,3.47c-0.82,1.02-2.05,1.84-3.67,2.44
		s-3.63,0.91-6.02,0.91C1033.52,244.02,1030.51,243.15,1028.52,241.43z M1037.47,226.47c-2.12,0-3.76,0.47-4.93,1.4
		c-1.17,0.94-1.86,2.31-2.07,4.14h13.46C1043.71,228.32,1041.56,226.47,1037.47,226.47z"/>
	<path class="st1" d="M1067.31,228.2c-0.92-0.88-2.28-1.32-4.08-1.32c-1.36,0-2.54,0.24-3.52,0.72c-0.99,0.48-1.74,1.16-2.26,2.03
		c-0.52,0.87-0.78,1.87-0.78,3.01v10.69h-4.72V224.3h4.72v3.94c0.68-1.46,1.76-2.6,3.23-3.4c1.47-0.81,3.28-1.21,5.41-1.21
		c2.68,0,4.7,0.63,6.06,1.89s2.04,3.06,2.04,5.4v12.42h-4.72v-11.32C1068.69,230.35,1068.23,229.08,1067.31,228.2z"/>
	<path class="st1" d="M1079.54,241.43c-1.99-1.73-2.98-4.18-2.98-7.35v-0.52c0-3.17,0.99-5.62,2.97-7.35s4.96-2.59,8.94-2.59
		c2.45,0,4.49,0.33,6.12,0.98c1.62,0.65,2.83,1.55,3.62,2.7s1.23,2.49,1.3,4.01h-4.83c-0.19-1.46-0.79-2.59-1.81-3.39
		c-1.02-0.8-2.48-1.2-4.38-1.2c-2.28,0-4.03,0.59-5.24,1.76c-1.21,1.17-1.82,2.83-1.82,4.99v0.69c0,2.17,0.61,3.84,1.82,5.01
		c1.21,1.17,2.97,1.76,5.26,1.76c1.95,0,3.46-0.43,4.54-1.28s1.69-2.02,1.82-3.49h4.85c-0.05,1.56-0.48,2.93-1.28,4.12
		c-0.81,1.18-2.03,2.11-3.68,2.77c-1.65,0.66-3.72,0.99-6.21,0.99C1084.53,244.02,1081.53,243.15,1079.54,241.43z"/>
	<path class="st1" d="M1105.04,241.43c-1.99-1.73-2.98-4.18-2.98-7.35v-0.52c0-3.18,0.99-5.64,2.97-7.36c1.98-1.72,4.98-2.58,9-2.58
		c3.89,0,6.75,0.83,8.57,2.5c1.82,1.67,2.73,4.12,2.73,7.37v1.26h-18.4c0.06,2.03,0.7,3.6,1.91,4.71c1.21,1.11,2.96,1.66,5.22,1.66
		c1.83,0,3.28-0.36,4.33-1.08c1.05-0.72,1.7-1.67,1.93-2.84h4.85c-0.12,1.29-0.6,2.44-1.42,3.47c-0.82,1.02-2.05,1.84-3.67,2.44
		s-3.63,0.91-6.02,0.91C1110.04,244.02,1107.03,243.15,1105.04,241.43z M1113.99,226.47c-2.12,0-3.76,0.47-4.93,1.4
		c-1.17,0.94-1.86,2.31-2.07,4.14h13.46C1120.23,228.32,1118.08,226.47,1113.99,226.47z"/>
	<path class="st1" d="M1132.76,238.16v5.17h-5.52v-5.17H1132.76z"/>
</g>
<g>
	<path class="st1" d="M2704.88,224.42v11.73c0.73-1.57,1.85-2.76,3.35-3.57c1.51-0.81,3.37-1.21,5.59-1.21
		c3.27,0,5.76,0.85,7.48,2.56c1.72,1.7,2.57,4.16,2.57,7.37v0.52c0,3.21-0.86,5.67-2.57,7.37c-1.72,1.7-4.21,2.56-7.48,2.56
		c-2.22,0-4.08-0.4-5.59-1.2c-1.5-0.8-2.62-1.99-3.35-3.56v4.09h-4.72v-26.65H2704.88z M2706.71,236.22c-1.21,1.18-1.82,2.84-1.82,5
		v0.67c0,2.16,0.61,3.82,1.82,5c1.21,1.18,2.96,1.77,5.24,1.77c2.27,0,4.01-0.59,5.22-1.77c1.21-1.18,1.82-2.84,1.82-5v-0.67
		c0-2.16-0.61-3.82-1.82-5c-1.21-1.18-2.96-1.77-5.22-1.77C2709.67,234.45,2707.92,235.04,2706.71,236.22z"/>
	<path class="st1" d="M2729.76,249.16c-1.99-1.73-2.98-4.18-2.98-7.35v-0.52c0-3.18,0.99-5.64,2.97-7.36c1.98-1.72,4.98-2.58,9-2.58
		c3.89,0,6.75,0.83,8.57,2.5c1.82,1.67,2.73,4.12,2.73,7.37v1.26h-18.4c0.06,2.03,0.7,3.6,1.91,4.71c1.21,1.11,2.96,1.66,5.22,1.66
		c1.83,0,3.28-0.36,4.33-1.08c1.05-0.72,1.7-1.67,1.93-2.84h4.85c-0.12,1.29-0.6,2.44-1.42,3.47c-0.82,1.02-2.05,1.84-3.67,2.44
		s-3.63,0.91-6.02,0.91C2734.76,251.76,2731.75,250.89,2729.76,249.16z M2738.71,234.21c-2.12,0-3.76,0.47-4.93,1.4
		c-1.17,0.94-1.86,2.31-2.07,4.14h13.46C2744.95,236.06,2742.8,234.21,2738.71,234.21z"/>
	<path class="st1" d="M2753.19,232.04h4.72v3.77c0.66-1.4,1.68-2.49,3.06-3.27c1.38-0.78,3.04-1.17,4.97-1.17
		c2.02,0,3.65,0.42,4.9,1.26c1.25,0.84,2.06,2.04,2.44,3.61c0.61-1.52,1.63-2.72,3.06-3.58c1.43-0.86,3.17-1.29,5.21-1.29
		c2.47,0,4.35,0.62,5.64,1.85s1.94,2.98,1.94,5.23v12.62h-4.72v-11.51c0-1.61-0.42-2.84-1.25-3.68c-0.84-0.84-2.05-1.26-3.63-1.26
		c-1.2,0-2.26,0.24-3.17,0.71c-0.91,0.47-1.61,1.13-2.1,1.97c-0.49,0.84-0.73,1.82-0.73,2.92v10.85h-4.72v-11.51
		c0-1.6-0.42-2.82-1.26-3.67c-0.84-0.85-2.05-1.27-3.62-1.27c-1.2,0-2.26,0.23-3.17,0.7c-0.91,0.46-1.61,1.12-2.1,1.96
		c-0.49,0.84-0.73,1.81-0.73,2.9v10.89h-4.72V232.04z"/>
	<path class="st1" d="M2797.61,245.9v5.17h-5.52v-5.17H2797.61z"/>
	<path class="st1" d="M2801.73,250.26c-1.23-0.97-1.85-2.36-1.85-4.15v-0.13c0-1.05,0.2-1.94,0.6-2.66c0.4-0.72,1.05-1.3,1.93-1.76
		c0.89-0.45,2.06-0.78,3.52-0.99l10.76-1.54V238c0-1.21-0.41-2.13-1.24-2.76c-0.82-0.63-2.18-0.94-4.06-0.94
		c-1.91,0-3.3,0.32-4.17,0.96c-0.87,0.64-1.37,1.61-1.5,2.91h-4.68c0.06-2.22,0.9-3.91,2.51-5.07c1.61-1.16,4.26-1.75,7.94-1.75
		c3.56,0,6.1,0.54,7.63,1.61c1.53,1.07,2.29,2.62,2.29,4.64v9.67c0,0.33,0.1,0.6,0.31,0.78c0.21,0.19,0.51,0.28,0.92,0.28
		c0.27,0,0.56-0.02,0.86-0.07v2.88c-0.74,0.19-1.61,0.28-2.6,0.28c-1.45,0-2.51-0.28-3.19-0.85c-0.68-0.56-1.01-1.39-1.01-2.48
		v-0.85c-0.69,1.44-1.82,2.55-3.36,3.33s-3.5,1.17-5.85,1.17C2804.88,251.72,2802.96,251.23,2801.73,250.26z M2805.76,248.07
		c0.74,0.53,1.92,0.79,3.54,0.79c1.59,0,2.94-0.24,4.05-0.72s1.95-1.13,2.51-1.95s0.84-1.74,0.84-2.76v-1.73l-9.03,1.36
		c-1.04,0.16-1.8,0.47-2.29,0.92c-0.48,0.45-0.72,1.06-0.72,1.81v0.09C2804.66,246.81,2805.03,247.54,2805.76,248.07z"/>
	<path class="st1" d="M2826.05,224.75h5.09v4.44h-5.09V224.75z M2826.24,232.04h4.72v19.03h-4.72V232.04z"/>
</g>
<g>
	<defs>
		<rect id="SVGID_00000049929059782104766100000018428042726500247947_" x="-2795" y="1568.97" width="4116.34" height="1292.07"/>
	</defs>
	<clipPath id="SVGID_00000013159561746719526490000012355747878469216426_">
		<use xlink:href="#SVGID_00000049929059782104766100000018428042726500247947_"  style="overflow:visible;"/>
	</clipPath>
	<g style="clip-path:url(#SVGID_00000013159561746719526490000012355747878469216426_);">
	</g>
</g>
<path class="st152" d="M3642.22,206.83c1.27,4.24,1.91,8.85,1.91,13.84c0,5.37-0.71,10.1-2.13,14.18c-1.65,4.99-4.3,8.89-7.96,11.69
	s-8.15,4.2-13.46,4.2c-5.23,0-9.53-2-12.9-6.01c-0.15-0.23-0.3-0.3-0.45-0.23c-0.15,0.08-0.22,0.23-0.22,0.45v3.52
	c0,0.38-0.15,0.72-0.45,1.02c-0.22,0.23-0.52,0.34-0.9,0.34h-10.32c-0.37,0-0.71-0.11-1.01-0.34c-0.22-0.3-0.34-0.64-0.34-1.02
	v-76.69c0-0.38,0.11-0.68,0.34-0.91c0.3-0.3,0.64-0.45,1.01-0.45h10.32c0.37,0,0.67,0.15,0.9,0.45c0.3,0.23,0.45,0.53,0.45,0.91
	v24.62c0,0.23,0.07,0.38,0.22,0.45c0.15,0.08,0.3,0.04,0.45-0.11c3.22-3.86,7.48-5.79,12.79-5.79c5.53,0,10.1,1.4,13.68,4.2
	C3637.81,197.94,3640.5,201.84,3642.22,206.83z M3628.09,233.94c1.79-3.18,2.69-7.53,2.69-13.05c0-5.9-1.12-10.51-3.37-13.84
	c-2.02-3.18-5.01-4.76-8.97-4.76c-3.66,0-6.47,1.66-8.41,4.99c-1.87,3.1-2.8,7.6-2.8,13.5c0,5.82,0.86,10.21,2.58,13.16
	c1.94,3.63,4.86,5.45,8.75,5.45c2.09,0,3.96-0.45,5.61-1.36C3625.8,237.04,3627.11,235.68,3628.09,233.94z M3704.44,214.31
	c0.3,1.89,0.45,4.01,0.45,6.35l-0.11,3.52c0,0.91-0.45,1.36-1.35,1.36h-35.11c-0.37,0-0.56,0.19-0.56,0.57
	c0.22,2.5,0.56,4.2,1.01,5.1c1.79,5.45,6.17,8.21,13.12,8.28c5.09,0,9.12-2.12,12.11-6.35c0.3-0.45,0.67-0.68,1.12-0.68
	c0.3,0,0.56,0.11,0.79,0.34l6.95,5.79c0.67,0.53,0.79,1.13,0.34,1.82c-2.32,3.33-5.42,5.9-9.31,7.71
	c-3.81,1.82-8.08,2.72-12.79,2.72c-5.83,0-10.81-1.32-14.92-3.97c-4.04-2.65-6.99-6.35-8.86-11.12c-1.72-4.08-2.58-9.76-2.58-17.02
	c0-4.39,0.45-7.94,1.35-10.66c1.5-5.29,4.3-9.45,8.41-12.48c4.19-3.1,9.2-4.65,15.03-4.65
	C3694.27,190.95,3702.57,198.74,3704.44,214.31z M3679.54,202.29c-2.77,0-5.09,0.72-6.96,2.16c-1.79,1.36-3.07,3.29-3.81,5.79
	c-0.45,1.29-0.75,2.95-0.9,4.99c-0.15,0.38,0,0.57,0.45,0.57h22.77c0.37,0,0.56-0.19,0.56-0.57c-0.15-1.89-0.37-3.33-0.67-4.31
	c-0.67-2.72-2.02-4.84-4.04-6.35C3685,203.05,3682.53,202.29,3679.54,202.29z M3791.6,196.28c-3.22-3.55-7.7-5.33-13.46-5.33
	c-3.59,0-6.84,0.72-9.76,2.16c-2.92,1.44-5.2,3.67-6.84,6.69c-0.3,0.3-0.56,0.3-0.79,0c-1.5-2.87-3.63-5.07-6.39-6.58
	c-2.77-1.51-5.98-2.27-9.65-2.27c-2.99,0-5.72,0.53-8.19,1.59c-2.39,0.98-4.41,2.53-6.06,4.65c-0.15,0.23-0.3,0.3-0.45,0.23
	c-0.15-0.08-0.22-0.23-0.22-0.45v-3.74c0-0.38-0.15-0.68-0.45-0.91c-0.22-0.3-0.52-0.45-0.9-0.45h-10.32
	c-0.37,0-0.71,0.15-1.01,0.45c-0.22,0.23-0.34,0.53-0.34,0.91v55.25c0,0.38,0.11,0.72,0.34,1.02c0.3,0.23,0.64,0.34,1.01,0.34h10.32
	c0.37,0,0.67-0.11,0.9-0.34c0.3-0.3,0.45-0.64,0.45-1.02v-36.87c0.3-2.87,1.35-5.14,3.14-6.81c1.87-1.66,4.23-2.5,7.07-2.5
	c3.07,0,5.53,1.02,7.4,3.06c1.87,2.04,2.8,4.8,2.8,8.28v34.83c0,0.38,0.11,0.72,0.34,1.02c0.3,0.23,0.64,0.34,1.01,0.34h10.21
	c0.37,0,0.67-0.11,0.9-0.34c0.3-0.3,0.45-0.64,0.45-1.02v-34.94c0-3.4,0.97-6.13,2.92-8.17c1.94-2.04,4.45-3.06,7.52-3.06
	c3.07,0,5.5,1.02,7.29,3.06c1.87,2.04,2.8,4.8,2.8,8.28v34.83c0,0.38,0.11,0.72,0.34,1.02c0.3,0.23,0.64,0.34,1.01,0.34h10.21
	c0.37,0,0.67-0.11,0.9-0.34c0.3-0.3,0.45-0.64,0.45-1.02v-37.55C3796.54,204.63,3794.89,199.76,3791.6,196.28z M3840.59,181.52
	v-10.38h64.66v10.38H3840.59z M3826.23,171.14h10.26v65.4h-10.26V171.14z M3826.23,240.69v10.38h64.66v-10.38H3826.23z
	 M3894.99,185.67h10.26v65.4h-10.26V185.67z"/>
</svg>
