<?xml version="1.0" encoding="utf-8"?>
<!-- Generator: Adobe Illustrator 30.1.0, SVG Export Plug-In . SVG Version: 9.03 Build 0)  -->
<svg version="1.1" baseProfile="basic" id="Camada_1"
	 xmlns="http://www.w3.org/2000/svg" xmlns:xlink="http://www.w3.org/1999/xlink" x="0px" y="0px" viewBox="0 0 1292.07 1292.07"
	 xml:space="preserve">
<style type="text/css">
	.st0{fill:url(#SVGID_1_);}
	.st1{fill:#FFFFFF;}
	.st2{clip-path:url(#SVGID_00000069391707961350463330000017003110200287803032_);}
	.st3{fill:url(#SVGID_00000025434897443013692850000007327521568690497693_);}
	.st4{fill:url(#SVGID_00000073690889486841128670000001962781896522328755_);}
	.st5{fill:url(#SVGID_00000165926804950226405230000010450672754945355179_);}
	.st6{fill:url(#SVGID_00000116227595148763538010000013258092027555622022_);}
	.st7{fill:url(#SVGID_00000076572713527107683400000000262638701160940937_);}
	.st8{fill:url(#SVGID_00000029744669410102488790000001347223301738082750_);}
	.st9{fill-rule:evenodd;clip-rule:evenodd;fill:#FFFFFF;}
	.st10{fill:url(#SVGID_00000078003969855402250320000010082829321521728677_);}
	.st11{fill:url(#SVGID_00000072245711226635827180000000749550604630558117_);}
	.st12{fill:url(#SVGID_00000158006881550320792350000009895327859216809857_);}
	.st13{fill:url(#SVGID_00000142873082798211037420000008474401330568481191_);}
	.st14{fill:url(#SVGID_00000031900882245588935890000017499766503260223119_);}
	.st15{fill:url(#SVGID_00000008108910012013012700000015490176160846868387_);}
	.st16{fill:url(#SVGID_00000083049809419352090990000001724170926298665118_);}
	.st17{fill:url(#SVGID_00000164471590014432021550000010684002628552872077_);}
	.st18{fill:url(#SVGID_00000183946233874424600400000003153039586630748835_);}
	.st19{fill:#3030FF;}
	.st20{fill:url(#SVGID_00000149379611713656697740000006004816103431501239_);}
	.st21{fill:url(#SVGID_00000117659336682002849440000008016909173656660413_);}
	.st22{fill:url(#SVGID_00000057114638762757674710000000645174046458361760_);}
	.st23{fill:url(#SVGID_00000117649979008350850610000016688721808796087431_);}
	.st24{fill:url(#SVGID_00000120546967315787900190000001307921200863020695_);}
	.st25{fill:url(#SVGID_00000183934453197803860940000003969741941991036547_);}
	.st26{fill:url(#SVGID_00000173119389275998422630000017946061545392110219_);}
	.st27{fill:url(#SVGID_00000150797114309112011030000017777195039762430902_);}
	.st28{fill:url(#SVGID_00000031909766289410547500000007227522362981520029_);}
	.st29{fill:url(#SVGID_00000037676046691817609720000018321371570999985328_);}
	.st30{fill:url(#SVGID_00000153668794936752423100000009895178739487636157_);}
	.st31{fill:url(#SVGID_00000061436388761362076850000016811927188763150779_);}
	.st32{fill:url(#SVGID_00000070106735530610528430000009179231389200923310_);}
	.st33{fill:none;stroke:#3030FF;stroke-width:3;stroke-miterlimit:10;}
	.st34{fill:url(#SVGID_00000101061894300369933100000008210367534855969420_);}
	.st35{fill:url(#SVGID_00000036244255640564543510000004268572997675383188_);}
	.st36{fill:url(#SVGID_00000083085307915291978500000004122502995510178184_);}
	.st37{fill:url(#SVGID_00000131337771976362174740000018125477941294213051_);}
	.st38{fill:url(#SVGID_00000037681275752809075410000015137493678704628388_);}
	.st39{fill:url(#SVGID_00000120517394150956653950000006996579878834688661_);}
	.st40{fill:url(#SVGID_00000171712851147805748710000006992302202829271450_);}
	.st41{fill:url(#SVGID_00000070798559471917242290000000560327397740001176_);}
	.st42{fill:url(#SVGID_00000124848651165693022070000014395948013979207821_);}
	.st43{fill:url(#SVGID_00000075848789482685420720000015689141154440933791_);}
	.st44{fill:url(#SVGID_00000040546471074775495590000001823690333724886674_);}
	.st45{fill:url(#SVGID_00000067204465024723809830000000936126138455061403_);}
	.st46{fill:url(#SVGID_00000007392997565989566970000010693617901733467313_);}
	.st47{fill:url(#SVGID_00000181801205287528380500000004067271221117894535_);}
	.st48{fill:url(#SVGID_00000039106305918575816650000003697908268857416865_);}
	.st49{fill:url(#SVGID_00000029008672890797477990000000353812415468762541_);}
	.st50{fill:url(#SVGID_00000081644296251244486400000008284563733070220711_);}
	.st51{fill:url(#SVGID_00000059272114935205505220000009963785088921587351_);}
	.st52{fill:#3030FF;stroke:#3030FF;stroke-width:2;stroke-miterlimit:10;}
	.st53{fill:none;stroke:#FFFFFF;stroke-miterlimit:10;}
	.st54{fill:url(#SVGID_00000132785897525031368160000018122424989154652854_);}
	.st55{fill:url(#SVGID_00000073689518003906253420000014784077395643669935_);}
	.st56{fill:url(#SVGID_00000097494964123577058000000016870140422379221672_);}
	.st57{fill:url(#SVGID_00000114770029427942068720000007336785769617322905_);}
	.st58{fill:url(#SVGID_00000040544131274469711110000016885106519656142475_);}
	.st59{fill:url(#SVGID_00000041269868449544734550000007655021401558356157_);}
	.st60{fill:none;stroke:#3030FF;stroke-width:3.2003;stroke-miterlimit:10;}
	.st61{fill:url(#SVGID_00000026859100760884364080000006123891764570041782_);}
	.st62{fill:url(#SVGID_00000096040601917718380240000016950793651053460380_);}
	.st63{fill:url(#SVGID_00000111911872630235891350000002586686765804872069_);}
	.st64{fill:url(#SVGID_00000139983411715145827960000015256840699181142463_);}
	.st65{fill:url(#SVGID_00000068643050490064259570000011936277523749542272_);}
	.st66{fill:url(#SVGID_00000116923544599575070770000006565577814796289709_);}
	.st67{fill:url(#SVGID_00000111179162311077330840000005309463559850621869_);}
	.st68{fill:url(#SVGID_00000053522606647227784410000001224663729767899310_);}
	.st69{fill:url(#SVGID_00000140717909907774909070000016403955396417293221_);}
	.st70{fill:url(#SVGID_00000046322730562026266680000011443539483598700169_);}
	.st71{fill:url(#SVGID_00000162313314508657035230000016457749648081757094_);}
	.st72{fill:url(#SVGID_00000076566089417988020210000008983091832537620359_);}
	.st73{fill:url(#SVGID_00000111875762854744171290000006703768574721470614_);}
	.st74{fill:url(#SVGID_00000093895136415659139000000012620445391272410535_);}
	.st75{fill:url(#SVGID_00000116933517096974700960000002565703932874450338_);}
	.st76{fill:url(#SVGID_00000047026727066705916510000009424526242995684994_);}
	.st77{fill:url(#SVGID_00000079460001563514292180000003431886794572183705_);}
	.st78{fill:url(#SVGID_00000160913422454711555890000000708597024443090598_);}
	.st79{fill:url(#SVGID_00000090989226113284930950000009315905946294530471_);}
	.st80{fill:url(#SVGID_00000119834456757544499260000005698379773477876625_);}
	.st81{fill:url(#SVGID_00000011024675412190926380000012376768210446448053_);}
	.st82{fill:url(#SVGID_00000178164202032628482250000014649878065488154510_);}
	.st83{fill:url(#SVGID_00000117649944906156889150000015424468997002340491_);}
	.st84{fill:url(#SVGID_00000165935046770419323910000007686577289557036964_);}
	.st85{fill:none;stroke:#3030FF;stroke-width:7.973;stroke-miterlimit:10;}
	.st86{fill:url(#SVGID_00000101097315082694343270000012333967480433364406_);}
	.st87{fill:url(#SVGID_00000121240723330790163060000002061646710698700710_);}
	.st88{fill:#2B2B2B;}
	.st89{fill:url(#SVGID_00000124867045490199243430000005841819792425439386_);}
	.st90{fill:url(#SVGID_00000125594077916755935090000001469851625345007023_);}
	.st91{fill:url(#SVGID_00000160907309679480926030000015789635548610420619_);}
	.st92{fill:url(#SVGID_00000131343299081425576470000017507355778745662608_);}
	.st93{fill:#3030FF;stroke:#3030FF;stroke-width:1.3238;stroke-miterlimit:10;}
	.st94{fill:url(#SVGID_00000085957915033316384350000017922923443772913291_);}
	.st95{fill:url(#SVGID_00000061444381321776243330000010337045004691336065_);}
	.st96{fill:none;stroke:#3030FF;stroke-width:1.9299;stroke-miterlimit:10;}
	.st97{fill:url(#SVGID_00000041982855960390828430000013963750575585690814_);}
	.st98{fill:url(#SVGID_00000164500166365281157550000017737973331983986357_);}
	.st99{fill:url(#SVGID_00000137812679820472419940000006470432792576569758_);}
	.st100{fill:url(#SVGID_00000007405805554835750570000012873560865233765761_);}
	.st101{fill:url(#SVGID_00000134966577731233346740000008908134580073860231_);}
	.st102{fill:url(#SVGID_00000053521800621673089080000002786393639599893908_);}
	.st103{fill:url(#SVGID_00000054955291037283482140000017417393800405204616_);}
	.st104{fill:url(#SVGID_00000079467056021540956450000003336336575670815657_);}
	.st105{fill:url(#SVGID_00000150086070446431151270000008093924440790225078_);}
	.st106{fill:url(#SVGID_00000002374439168438433030000004003233938801584281_);}
	.st107{fill:url(#SVGID_00000023968057553933230720000009397621764778082235_);}
	.st108{fill:url(#SVGID_00000038400017460505311350000013412952630292937128_);}
	.st109{fill:url(#SVGID_00000000930757249594980920000007720312109283031179_);}
	.st110{fill:url(#SVGID_00000046339725272598365770000000339330242446316461_);}
	.st111{fill:url(#SVGID_00000147927802980478439490000004092546157048371381_);}
	.st112{fill:url(#SVGID_00000086687256237377337590000016608527602661501355_);}
	.st113{fill:none;stroke:#3030FF;stroke-width:2.0587;stroke-miterlimit:10;}
	.st114{fill:url(#SVGID_00000155844643853963855340000006542748517309533875_);}
	.st115{fill:url(#SVGID_00000086675758607100568980000004000369529629687178_);}
	.st116{fill:url(#SVGID_00000180344557652373633750000017753721138951605935_);}
	.st117{fill:url(#SVGID_00000087396781512507012290000016111691771488589738_);}
	.st118{fill:url(#SVGID_00000156589887043577428590000005270230747573092994_);}
	.st119{fill:url(#SVGID_00000053541332730128664770000008716003183516080049_);}
	
		.st120{clip-path:url(#SVGID_00000094607392724350951550000003142082658948639623_);fill:url(#SVGID_00000170983585670970993930000003769161571840992902_);}
	.st121{clip-path:url(#SVGID_00000148625810267932627040000016213560018169365679_);}
	.st122{fill-rule:evenodd;clip-rule:evenodd;}
	.st123{clip-path:url(#SVGID_00000178885540742281412820000017739169281573149873_);}
	.st124{fill:url(#SVGID_00000142859712484014028810000014497302150556307884_);}
	.st125{fill:url(#SVGID_00000150797010204528642710000014980095836570388902_);}
	.st126{fill:url(#SVGID_00000130639983608592184120000005134411206604652458_);}
	.st127{fill:url(#SVGID_00000120554173264551283740000013865153538873812398_);}
	.st128{clip-path:url(#SVGID_00000146480162678185966180000017558302596794486193_);}
	.st129{fill:url(#SVGID_00000050639785420890333600000012689764512454242720_);}
	.st130{fill:url(#SVGID_00000008135726462196803210000002558888704586325633_);}
	.st131{fill:url(#SVGID_00000127766404666682222730000005460987498922656648_);}
	.st132{fill:url(#SVGID_00000104708628121394081750000001844082696978596519_);}
	.st133{fill:url(#SVGID_00000075855299914059370470000010075065130008825524_);}
	.st134{fill:url(#SVGID_00000141456148694838486550000002156215075490869675_);}
	.st135{fill:url(#SVGID_00000092442050087281407440000012206397065743151271_);}
	
		.st136{clip-path:url(#SVGID_00000122679821646316405330000016973175659455290504_);fill:url(#SVGID_00000149375372942821993380000003315146657503939001_);}
	.st137{fill:none;stroke:#FFFFFF;stroke-width:12.6291;stroke-miterlimit:10;}
	.st138{fill:none;stroke:#3030FF;stroke-width:1.4767;stroke-linecap:round;stroke-linejoin:round;}
	.st139{fill:url(#SVGID_00000142156702402933692810000007329006048141892799_);}
	.st140{fill:url(#SVGID_00000044879394756536713560000013307254070051942846_);}
	.st141{fill:url(#SVGID_00000106832733031087401780000003293263004285389737_);}
	.st142{fill:none;stroke:#FFFFFF;stroke-width:0.8399;stroke-linecap:round;stroke-linejoin:round;}
	.st143{fill:url(#SVGID_00000044155325104755003810000002674039403390806177_);}
	.st144{fill:url(#SVGID_00000006697912075151424730000016052315434886465947_);}
	.st145{fill:url(#SVGID_00000036235420994969454000000016063897239428725432_);}
	.st146{fill:url(#SVGID_00000098910320484515483380000012730806306300616618_);}
	.st147{stroke:#3030FF;stroke-width:2;stroke-miterlimit:10;}
	.st148{fill:none;stroke:#3030FF;stroke-width:2;stroke-miterlimit:10;}
	.st149{fill:none;stroke:#3030FF;stroke-width:0.9845;stroke-miterlimit:10;}
	.st150{clip-path:url(#SVGID_00000068670195768324481580000005094077765171993236_);}
	.st151{fill-rule:evenodd;clip-rule:evenodd;stroke:#000000;stroke-width:0.9887;stroke-miterlimit:10;}
	.st152{fill-rule:evenodd;clip-rule:evenodd;fill:#FFFFFF;stroke:#000000;stroke-width:0.6244;stroke-miterlimit:10;}
	.st153{stroke:#3030FF;stroke-width:3.27;stroke-miterlimit:10;}
	.st154{fill:url(#SVGID_00000091699538418791517160000011096480562908325765_);}
	.st155{fill:url(#SVGID_00000110440909883646887760000012641392373023413174_);}
	.st156{fill:url(#SVGID_00000133502505666284335730000017061617014260680065_);}
	.st157{fill:url(#SVGID_00000079446021463156079960000010752143444641915055_);}
	.st158{fill:url(#SVGID_00000056396612758664399780000001118967722100027070_);}
	.st159{fill:url(#SVGID_00000052817178511042683830000004178803236698590650_);}
	.st160{fill:url(#SVGID_00000103943663640826418990000005001637520883607734_);}
	.st161{fill:url(#SVGID_00000166669087828636226800000013594874626351711150_);}
	.st162{fill:url(#SVGID_00000065765350797202994260000006506969928538161798_);}
	.st163{fill:url(#SVGID_00000093887106831717672240000004707881922303230608_);}
	.st164{fill:url(#SVGID_00000044880354742667881030000005165880815815877284_);}
	.st165{fill:url(#SVGID_00000057115660276995353320000018294279377057294217_);}
	.st166{fill:url(#SVGID_00000016772269400422786510000013793527811889384881_);}
	.st167{fill:url(#SVGID_00000156549647065613419250000001256758831558678152_);}
	.st168{fill:url(#SVGID_00000060021570165619038660000013293928947135732869_);}
	.st169{fill:url(#SVGID_00000068639719360300900040000005059132226545733299_);}
	.st170{fill:url(#SVGID_00000067234789922861822810000015421220539011955587_);}
	.st171{fill:url(#SVGID_00000157287415620278955870000004842135747322294188_);}
	.st172{fill:url(#SVGID_00000149361419506965891560000001042231774076866985_);}
	.st173{fill:url(#SVGID_00000170263116007045174970000012629063328359346098_);}
	.st174{fill:url(#SVGID_00000015326685399916670610000012595739528335764635_);}
	.st175{fill:url(#SVGID_00000176009847267148196280000018159393831739870098_);}
	.st176{fill:url(#SVGID_00000176742683406135613370000001705456050146123174_);}
	.st177{fill:url(#SVGID_00000024700131716734726810000008455578373227131325_);}
	.st178{fill:url(#SVGID_00000042014381170196227170000017334520410279939002_);}
	.st179{fill:url(#SVGID_00000173134821785560558480000008153704793053061008_);}
	.st180{fill:url(#SVGID_00000165231890304318006140000006753100859266887609_);}
	.st181{fill:url(#SVGID_00000029726238885799856590000004707244289484943006_);}
	.st182{fill:url(#SVGID_00000126281856165007304710000002704197059196089742_);}
	.st183{fill:url(#SVGID_00000023271580993487053500000016904130860267757462_);}
	.st184{fill:url(#SVGID_00000078041199382073700640000007132992770820938631_);}
	.st185{fill:url(#SVGID_00000139264750009045128350000011821746681039124370_);}
	.st186{fill:url(#SVGID_00000049910665948551697350000002287771933100736406_);}
	.st187{clip-path:url(#SVGID_00000024707371108655922610000012676689859463847841_);}
	.st188{fill:#3030FF;stroke:#3030FF;stroke-width:1.9106;stroke-miterlimit:10;}
	.st189{fill:none;stroke:#000000;stroke-width:22;stroke-miterlimit:10;}
	.st190{fill:url(#SVGID_00000132786668821608560910000011327235886481043630_);}
	.st191{fill:#0073FF;}
	.st192{fill:#FF6F91;}
	.st193{fill:#E075FF;}
	.st194{fill:#EDEEF3;}
	.st195{fill:none;stroke:#EDEEF3;stroke-width:0.7369;stroke-miterlimit:10;}
	.st196{clip-path:url(#SVGID_00000036950425050196952980000010836728157679476114_);}
	.st197{fill:url(#SVGID_00000061473931467707623740000010653482856619661757_);}
	.st198{fill:none;stroke:#3030FF;stroke-width:6.7505;stroke-miterlimit:10;}
	.st199{fill:url(#SVGID_00000088842703665763327860000007714526608273017513_);}
	.st200{fill:url(#SVGID_00000084492926364130300390000003750141874669583254_);}
	.st201{clip-path:url(#SVGID_00000095338235822925711930000015894387652443464114_);}
	.st202{fill:url(#SVGID_00000149363600912318557990000015633445088536549016_);}
	.st203{fill:url(#SVGID_00000036247882662711724630000000792246573962106289_);}
	.st204{fill:url(#SVGID_00000057852724563053423170000014661234834926161577_);}
	.st205{fill:url(#SVGID_00000037669380819351844670000003672226359179200953_);}
	.st206{fill:url(#SVGID_00000129178984931086927460000006163101502304513424_);}
	.st207{fill:url(#SVGID_00000057832840628284276480000008074838987757793673_);}
	
		.st208{clip-path:url(#SVGID_00000165937818532944739200000012957547796336856228_);fill:url(#SVGID_00000043417078399514343600000008713126723601640893_);}
	
		.st209{clip-path:url(#SVGID_00000165937818532944739200000012957547796336856228_);fill:url(#SVGID_00000170267122959278187100000016739158888165659321_);}
	.st210{clip-path:url(#SVGID_00000147916417569544015690000018231037591402076339_);}
	.st211{fill:url(#SVGID_00000001660857569832425580000015181947373295702926_);}
	.st212{fill:url(#SVGID_00000152258826863675397730000011975724081748869535_);}
	.st213{fill:url(#SVGID_00000050646043505035432030000005052586473702642856_);}
	.st214{fill:url(#SVGID_00000180358327479106693780000007911967019070503836_);}
	.st215{fill:url(#SVGID_00000059989083795577127130000003374678379330133900_);}
	.st216{fill:url(#SVGID_00000096059126225326152100000006375180009122814138_);}
	.st217{fill:none;stroke:#FFFFFF;stroke-width:1.4827;stroke-miterlimit:10;}
	.st218{clip-path:url(#SVGID_00000062904388814070461010000001049484432071607200_);}
	.st219{fill:url(#SVGID_00000174568673855680766330000005666635172326749836_);}
	.st220{fill:url(#SVGID_00000117649221088158973800000000985174594993947525_);}
	.st221{fill:url(#SVGID_00000174597315257803316870000016559580551270548106_);}
	.st222{fill:url(#SVGID_00000157993483192592429550000013678223018418336909_);}
	.st223{stroke:#FF6F91;stroke-width:2;stroke-miterlimit:10;}
	.st224{fill:none;stroke:#FF6F91;stroke-width:2;stroke-miterlimit:10;}
	.st225{stroke:#E075FF;stroke-width:2;stroke-miterlimit:10;}
	.st226{fill:none;stroke:#E075FF;stroke-width:2;stroke-miterlimit:10;}
	.st227{stroke:#0073FF;stroke-width:2;stroke-miterlimit:10;}
	.st228{fill:none;stroke:#0073FF;stroke-width:2;stroke-miterlimit:10;}
	.st229{fill:url(#SVGID_00000070841159929411675360000007326946442915088513_);}
	.st230{fill:url(#SVGID_00000134930621014029895730000012214727316214654898_);}
	.st231{fill:url(#SVGID_00000034057136370490569730000001921398676110144664_);}
	.st232{fill:url(#SVGID_00000046331063555913720850000008523118398835229627_);}
	.st233{fill:url(#SVGID_00000130625451836402469530000014071483722697791888_);}
	.st234{fill:url(#SVGID_00000070082812296927780790000006220290978342405772_);}
	.st235{fill:url(#SVGID_00000107547357206901801140000006497842636985115325_);}
	.st236{fill:url(#SVGID_00000166676875309741174280000013489107242845064838_);}
	.st237{fill:url(#SVGID_00000037663821664530441250000005258890986199707304_);}
	.st238{fill:url(#SVGID_00000005249295036365632870000003291863790225645995_);}
	.st239{fill:url(#SVGID_00000012439060171516540000000009356594145364621468_);}
	.st240{fill:url(#SVGID_00000153681525258280288460000015700938863096052614_);}
	.st241{fill:url(#SVGID_00000057109104353050754280000018223160291332345762_);}
	.st242{fill:url(#SVGID_00000114047332158040602030000011848279932074171315_);}
	.st243{fill:url(#SVGID_00000022550013949580506420000000930900141044563624_);}
	.st244{fill:url(#SVGID_00000118392172656760355250000015742827850261010343_);}
	.st245{fill:url(#SVGID_00000057868293394589694000000004682037283211761553_);}
	.st246{fill:url(#SVGID_00000146480980325974961040000000607096806289865126_);}
	.st247{fill:none;stroke:#3030FF;stroke-width:1.4271;stroke-miterlimit:10;}
	.st248{fill:url(#SVGID_00000153667930004346773870000015976397955780563364_);}
	.st249{fill:url(#SVGID_00000136372105856818253530000017062114550969316240_);}
	.st250{fill:#302DF9;}
	.st251{fill:url(#SVGID_00000099647314086282525720000000103245925630530714_);}
	.st252{fill:url(#SVGID_00000054224724365629838250000002832452187835769020_);}
	.st253{fill:url(#SVGID_00000157265774464065163540000003693477224853847467_);}
	.st254{fill:url(#SVGID_00000075129329375495639520000002850405020978510497_);}
	.st255{fill:url(#SVGID_00000149347381886029782760000000326531210277220787_);}
	.st256{fill:url(#SVGID_00000132072220375950029540000003541079396304566184_);}
	.st257{fill:none;stroke:#3030FF;stroke-width:1.3699;stroke-miterlimit:10;}
	.st258{fill:url(#SVGID_00000074411441842504201890000003910778284811024548_);}
	.st259{fill:url(#SVGID_00000144328560068177187470000003767993627874560131_);}
	.st260{fill:url(#SVGID_00000066517529199313782150000016794069880255057290_);}
	.st261{fill:url(#SVGID_00000082358325869465218250000000341541351792581567_);}
	.st262{fill:url(#SVGID_00000000905678996907242110000009172046443189267119_);}
	.st263{fill:url(#SVGID_00000082346089983282442920000017914626935360496027_);}
	.st264{fill:url(#SVGID_00000029041143407324217110000014499894670133067435_);}
	.st265{fill:url(#SVGID_00000158007856287182779530000001444187252483753883_);}
	.st266{fill:url(#SVGID_00000142136026494163900360000014934761179155054248_);}
	.st267{fill:url(#SVGID_00000157305386217334267030000003668595586607674034_);}
	.st268{fill:url(#SVGID_00000005980125783604218000000007687442730477516978_);}
	.st269{fill:url(#SVGID_00000153702313705333084920000014171149700653901236_);}
	.st270{fill:url(#SVGID_00000036946839613549588550000002655151775718165182_);}
	.st271{fill:url(#SVGID_00000000940474077884279260000014681130159016893838_);}
	.st272{fill:url(#SVGID_00000075872357630238187340000001915806268749073311_);}
	.st273{fill:url(#SVGID_00000086683808977635006120000013820736952775535511_);}
	.st274{fill:none;stroke:#3030FF;stroke-width:1.4613;stroke-miterlimit:10;}
	.st275{fill:url(#SVGID_00000060735604925940029800000006227423457626442399_);}
	.st276{fill:url(#SVGID_00000018224984550024768910000011575346301502134436_);}
	.st277{fill:url(#SVGID_00000102512220500470106850000016241547192098291628_);}
	.st278{fill:url(#SVGID_00000033355431750776083810000014277828052715782328_);}
	.st279{fill:url(#SVGID_00000178180403000039295350000007756109583161864118_);}
	.st280{fill:url(#SVGID_00000165214797929731465550000011939273340088093830_);}
	.st281{fill:#3030FF;stroke:#3030FF;stroke-width:0.958;stroke-miterlimit:10;}
	.st282{fill:none;stroke:#2B2B2B;stroke-miterlimit:10;}
	.st283{fill:none;stroke:#C25BA2;stroke-width:10;stroke-miterlimit:10;}
	.st284{fill:url(#SVGID_00000150813650135971209100000006067840002312119699_);}
	.st285{fill:url(#SVGID_00000173133282211933071990000008092314243402016445_);}
	.st286{fill:url(#SVGID_00000047745363100138395010000010701806166539893132_);}
	.st287{fill:url(#SVGID_00000134211619623358111950000012429137092513100975_);}
	.st288{fill:url(#SVGID_00000018210914068898905930000004507745037151187590_);}
	.st289{fill:url(#SVGID_00000044871491364263116240000001977657300384766134_);}
	.st290{fill:url(#SVGID_00000135665441472148127030000015176451792976467620_);}
	.st291{fill:url(#SVGID_00000045620232537503922860000002984773804247050375_);}
	.st292{fill:url(#SVGID_00000173128880081384487000000001796791204295974804_);}
	.st293{fill:url(#SVGID_00000091013094065969362970000015010368633426237362_);}
	.st294{fill:url(#SVGID_00000143616986086400610710000005794353308052741308_);}
	.st295{fill:url(#SVGID_00000020399022039257192710000010746061007654706561_);}
	.st296{fill:url(#SVGID_00000158004225264225146980000016301592817815914152_);}
	.st297{fill:url(#SVGID_00000168082023295337912850000014574796992976660125_);}
	.st298{fill:none;stroke:#3030FF;stroke-width:4.9484;stroke-miterlimit:10;}
	.st299{fill:url(#SVGID_00000078748389028913811260000006794571423726475947_);}
	.st300{fill:url(#SVGID_00000091734664784351256210000012572622490942828472_);}
	.st301{fill:url(#SVGID_00000057134872774398982880000005783777795048122550_);}
	.st302{fill:url(#SVGID_00000050629958719156660200000012773225402933195927_);}
	.st303{fill:url(#SVGID_00000037664894397851694200000004407425950673024431_);}
	.st304{fill:url(#SVGID_00000070116763005985558870000002783259313021777062_);}
	.st305{fill:url(#SVGID_00000165913591872936384290000000439957126548321196_);}
	.st306{fill:url(#SVGID_00000121269522661993907040000011567715514296031626_);}
	.st307{fill:url(#SVGID_00000183927399660061131370000008527600348936328363_);}
	.st308{fill:url(#SVGID_00000134243820269828879660000005921269261233502379_);}
	.st309{fill:url(#SVGID_00000054250917416129454960000009611537856430930365_);}
	.st310{fill:url(#SVGID_00000163763319903922051820000008751631489821027510_);}
	.st311{fill:url(#SVGID_00000150060028910499590980000013152746041634751678_);}
	.st312{fill:url(#SVGID_00000171708961297990030990000001102251856469245586_);}
	.st313{fill:url(#SVGID_00000127040120041746541450000016301516689756814235_);}
	.st314{fill:url(#SVGID_00000175324288692797020210000013606731980694350249_);}
	.st315{fill:url(#SVGID_00000135656377513381771990000005493521828203297416_);}
	.st316{fill:url(#SVGID_00000021816562566593115250000007512822723216295812_);}
	.st317{fill:url(#SVGID_00000024701581917128983180000007043287494065073281_);}
	.st318{fill:url(#SVGID_00000116948912801850477360000008209871417041683131_);}
	.st319{fill:url(#SVGID_00000087385037928151313920000007337280220553281712_);}
	.st320{fill:url(#SVGID_00000152246706274719584330000014668274849663911591_);}
	.st321{fill:url(#SVGID_00000043451486936376987290000012473006926764161172_);}
	.st322{fill:url(#SVGID_00000006682284947300191480000017466034089639583375_);}
	.st323{fill:url(#SVGID_00000058553701466402529620000009586372270692194194_);}
	.st324{fill:url(#SVGID_00000031908608423303446580000011055667383509297828_);}
	.st325{fill:url(#SVGID_00000006688999541624136620000016863039429252973752_);}
	.st326{fill:url(#SVGID_00000000222813751195744780000002870178134768806550_);}
	.st327{fill:url(#SVGID_00000129167392159581366910000016060174851426767744_);}
	.st328{fill:url(#SVGID_00000096762120674703732540000002027602692388989850_);}
	.st329{fill:url(#SVGID_00000082358885157798399730000002556549458424019894_);}
	.st330{fill:url(#SVGID_00000038387023856029891800000000154558803550673025_);}
	.st331{fill:url(#SVGID_00000140714934024510493780000002915811867521712049_);}
	.st332{fill:url(#SVGID_00000008844210341110803300000017565268874161874306_);}
	.st333{fill:url(#SVGID_00000180338240682460517110000010756948826611309486_);}
	.st334{fill:url(#SVGID_00000063624127326666053450000007384490817147188141_);}
	.st335{fill:url(#SVGID_00000039850528390750614890000008158952891313519236_);}
	.st336{fill:url(#SVGID_00000028286778211809971480000010299071225261221780_);}
	.st337{fill:url(#SVGID_00000096769654300872676480000009007413682768802455_);}
	.st338{fill:url(#SVGID_00000165946497468167866890000006894353458697920914_);}
	.st339{fill:url(#SVGID_00000098902752844126190150000016967830429649277829_);}
	.st340{fill:url(#SVGID_00000136393201367216106250000000089526998536038559_);}
	.st341{fill:url(#SVGID_00000179645385209924334570000014717502258909415335_);}
	.st342{fill:url(#SVGID_00000132793294291936369590000009444254214100026252_);}
	.st343{fill:url(#SVGID_00000103256570012386249330000009590365827756233406_);}
	.st344{fill:none;stroke:#3030FF;stroke-width:3.7755;stroke-miterlimit:10;}
	.st345{fill:url(#SVGID_00000147901539282575832460000015797712793598579865_);}
	.st346{fill:url(#SVGID_00000041976402862491894700000018109740170504583065_);}
	.st347{fill:url(#SVGID_00000037694258546378977510000003961511785907088786_);}
	.st348{fill:url(#SVGID_00000034778141183660649810000008098267010191710368_);}
	.st349{fill:url(#SVGID_00000047027794645101247220000008481173445225956225_);}
	.st350{fill:url(#SVGID_00000102535463837733354630000014471740993447332502_);}
	
		.st351{fill:none;stroke:url(#SVGID_00000072251730122760481810000002879554888366445973_);stroke-width:1.2585;stroke-miterlimit:10;}
	
		.st352{fill:none;stroke:url(#SVGID_00000117676260274492182980000017236586503543065277_);stroke-width:1.2585;stroke-miterlimit:10;}
	
		.st353{fill:none;stroke:url(#SVGID_00000163773199861406131210000004864301092339545229_);stroke-width:1.2585;stroke-miterlimit:10;}
	
		.st354{fill:none;stroke:url(#SVGID_00000177473110217052796850000004255853470628118690_);stroke-width:1.2585;stroke-miterlimit:10;}
	
		.st355{fill:none;stroke:url(#SVGID_00000111883235519792636100000001008507141843746200_);stroke-width:1.2585;stroke-miterlimit:10;}
	
		.st356{fill:none;stroke:url(#SVGID_00000126303231707692490210000013954552585785325964_);stroke-width:1.2585;stroke-miterlimit:10;}
	.st357{fill-rule:evenodd;clip-rule:evenodd;fill:#FFFFFF;stroke:#000000;stroke-width:2.5298;stroke-miterlimit:10;}
	.st358{fill:url(#SVGID_00000042730667858575221260000001275351090738235052_);}
	.st359{fill:url(#SVGID_00000114042272943118427170000014243361454707939236_);}
	.st360{fill:url(#SVGID_00000129905526087884497010000001421418476408089252_);}
	.st361{fill:url(#SVGID_00000165918837925182605860000006258812317761971869_);}
	.st362{fill:url(#SVGID_00000009557358544116521490000008700897183887559578_);}
	.st363{fill:url(#SVGID_00000012440538463576464770000006046177694436681151_);}
	.st364{fill:url(#SVGID_00000070115598377888790450000005565355390912768132_);}
	.st365{fill:url(#SVGID_00000123436243728026087220000011540994907054771629_);}
</style>
<rect x="-13542.46" y="-3936.69" width="16397.75" height="16332.66"/>
<g>
	<defs>
		
			<rect id="SVGID_00000084527774327098635120000003223926067609763209_" x="-2824.27" y="-1534.09" width="4116.34" height="1292.07"/>
	</defs>
	
		<radialGradient id="SVGID_00000135675404221260579090000010205028015978287769_" cx="-72.2107" cy="-559.0977" r="3768.7273" gradientTransform="matrix(0.935 -0.3546 0.2037 0.5372 109.205 -284.3684)" gradientUnits="userSpaceOnUse">
		<stop  offset="0" style="stop-color:#0073FF"/>
		<stop  offset="0.0855" style="stop-color:#0A65FF"/>
		<stop  offset="0.3541" style="stop-color:#253FFF"/>
		<stop  offset="0.4947" style="stop-color:#3030FF"/>
		<stop  offset="0.6032" style="stop-color:#2829D4"/>
		<stop  offset="0.7935" style="stop-color:#1A1C8D"/>
		<stop  offset="0.9307" style="stop-color:#111561"/>
		<stop  offset="1" style="stop-color:#0E1250"/>
	</radialGradient>
	
		<use xlink:href="#SVGID_00000084527774327098635120000003223926067609763209_"  style="overflow:visible;fill:url(#SVGID_00000135675404221260579090000010205028015978287769_);"/>
	<clipPath id="SVGID_00000183220267115992172720000013784289124102117017_">
		<use xlink:href="#SVGID_00000084527774327098635120000003223926067609763209_"  style="overflow:visible;"/>
	</clipPath>
</g>
<path class="st152" d="M142.13,125.66c1.27,4.24,1.91,8.85,1.91,13.84c0,5.37-0.71,10.1-2.13,14.18c-1.65,4.99-4.3,8.89-7.96,11.69
	c-3.66,2.8-8.15,4.2-13.46,4.2c-5.23,0-9.53-2-12.9-6.01c-0.15-0.23-0.3-0.3-0.45-0.23c-0.15,0.08-0.22,0.23-0.22,0.45v3.52
	c0,0.38-0.15,0.72-0.45,1.02c-0.22,0.23-0.52,0.34-0.9,0.34H95.24c-0.37,0-0.71-0.11-1.01-0.34c-0.22-0.3-0.34-0.64-0.34-1.02V90.61
	c0-0.38,0.11-0.68,0.34-0.91c0.3-0.3,0.64-0.45,1.01-0.45h10.32c0.37,0,0.67,0.15,0.9,0.45c0.3,0.23,0.45,0.53,0.45,0.91v24.62
	c0,0.23,0.07,0.38,0.22,0.45c0.15,0.08,0.3,0.04,0.45-0.11c3.22-3.86,7.48-5.79,12.79-5.79c5.53,0,10.1,1.4,13.69,4.2
	C137.71,116.78,140.41,120.67,142.13,125.66z M127.99,152.78c1.79-3.18,2.69-7.53,2.69-13.05c0-5.9-1.12-10.51-3.37-13.84
	c-2.02-3.18-5.01-4.76-8.97-4.76c-3.66,0-6.47,1.66-8.41,4.99c-1.87,3.1-2.8,7.6-2.8,13.5c0,5.82,0.86,10.21,2.58,13.16
	c1.94,3.63,4.86,5.45,8.75,5.45c2.09,0,3.96-0.45,5.61-1.36C125.71,155.88,127.02,154.52,127.99,152.78z M204.35,133.15
	c0.3,1.89,0.45,4.01,0.45,6.35l-0.11,3.52c0,0.91-0.45,1.36-1.35,1.36h-35.11c-0.37,0-0.56,0.19-0.56,0.57
	c0.22,2.5,0.56,4.2,1.01,5.1c1.79,5.45,6.17,8.21,13.12,8.28c5.09,0,9.12-2.12,12.11-6.35c0.3-0.45,0.67-0.68,1.12-0.68
	c0.3,0,0.56,0.11,0.79,0.34l6.95,5.79c0.67,0.53,0.79,1.13,0.34,1.82c-2.32,3.33-5.42,5.9-9.31,7.71
	c-3.81,1.82-8.08,2.72-12.79,2.72c-5.83,0-10.81-1.32-14.92-3.97c-4.04-2.65-6.99-6.35-8.86-11.12c-1.72-4.08-2.58-9.76-2.58-17.02
	c0-4.39,0.45-7.94,1.35-10.66c1.5-5.29,4.3-9.45,8.41-12.48c4.19-3.1,9.2-4.65,15.03-4.65
	C194.18,109.78,202.48,117.57,204.35,133.15z M179.44,121.13c-2.77,0-5.09,0.72-6.95,2.16c-1.79,1.36-3.07,3.29-3.81,5.79
	c-0.45,1.29-0.75,2.95-0.9,4.99c-0.15,0.38,0,0.57,0.45,0.57H191c0.37,0,0.56-0.19,0.56-0.57c-0.15-1.89-0.37-3.33-0.67-4.31
	c-0.67-2.72-2.02-4.84-4.04-6.35C184.9,121.88,182.44,121.13,179.44,121.13z M291.51,115.11c-3.22-3.55-7.7-5.33-13.46-5.33
	c-3.59,0-6.84,0.72-9.76,2.16c-2.92,1.44-5.2,3.67-6.84,6.69c-0.3,0.3-0.56,0.3-0.79,0c-1.5-2.87-3.63-5.07-6.39-6.58
	c-2.77-1.51-5.98-2.27-9.65-2.27c-2.99,0-5.72,0.53-8.19,1.59c-2.39,0.98-4.41,2.53-6.06,4.65c-0.15,0.23-0.3,0.3-0.45,0.23
	c-0.15-0.08-0.22-0.23-0.22-0.45v-3.74c0-0.38-0.15-0.68-0.45-0.91c-0.22-0.3-0.52-0.45-0.9-0.45h-10.32
	c-0.37,0-0.71,0.15-1.01,0.45c-0.22,0.23-0.34,0.53-0.34,0.91v55.25c0,0.38,0.11,0.72,0.34,1.02c0.3,0.23,0.64,0.34,1.01,0.34h10.32
	c0.37,0,0.67-0.11,0.9-0.34c0.3-0.3,0.45-0.64,0.45-1.02v-36.87c0.3-2.87,1.35-5.14,3.14-6.81c1.87-1.66,4.23-2.5,7.07-2.5
	c3.07,0,5.53,1.02,7.4,3.06c1.87,2.04,2.8,4.8,2.8,8.28v34.83c0,0.38,0.11,0.72,0.34,1.02c0.3,0.23,0.64,0.34,1.01,0.34h10.21
	c0.37,0,0.67-0.11,0.9-0.34c0.3-0.3,0.45-0.64,0.45-1.02v-34.94c0-3.4,0.97-6.13,2.92-8.17c1.94-2.04,4.45-3.06,7.52-3.06
	c3.07,0,5.5,1.02,7.29,3.06c1.87,2.04,2.8,4.8,2.8,8.28v34.83c0,0.38,0.11,0.72,0.34,1.02c0.3,0.23,0.64,0.34,1.01,0.34h10.21
	c0.37,0,0.67-0.11,0.9-0.34c0.3-0.3,0.45-0.64,0.45-1.02v-37.55C296.44,123.47,294.8,118.59,291.51,115.11z M340.5,100.35V89.97
	h64.66v10.38H340.5z M326.13,89.97h10.26v65.4h-10.26V89.97z M326.13,159.52v10.38h64.66v-10.38H326.13z M394.9,104.51h10.26v65.4
	H394.9V104.51z"/>
<rect y="0" class="st53" width="1292.07" height="1292.07"/>
<g>
	<defs>
		<rect id="SVGID_00000158723006117433756780000013713085764749825664_" y="0" width="1292.07" height="1292.07"/>
	</defs>
	<clipPath id="SVGID_00000104667459485427851150000005306417231954682252_">
		<use xlink:href="#SVGID_00000158723006117433756780000013713085764749825664_"  style="overflow:visible;"/>
	</clipPath>
	
		<g id="_x30_12_00000134938519587109263550000011843652255718034851_" style="clip-path:url(#SVGID_00000104667459485427851150000005306417231954682252_);">
		<g id="POLYLINE_00000127042433888459607970000017547803731728350348_">
			<radialGradient id="SVGID_1_" cx="1278.8651" cy="958.7745" r="829.9409" gradientUnits="userSpaceOnUse">
				<stop  offset="0" style="stop-color:#000000;stop-opacity:0"/>
				<stop  offset="0.074" style="stop-color:#02020B;stop-opacity:0.0857"/>
				<stop  offset="0.2026" style="stop-color:#070727;stop-opacity:0.2348"/>
				<stop  offset="0.3705" style="stop-color:#101055;stop-opacity:0.4295"/>
				<stop  offset="0.5712" style="stop-color:#1C1C96;stop-opacity:0.6622"/>
				<stop  offset="0.7974" style="stop-color:#2B2BE6;stop-opacity:0.9243"/>
				<stop  offset="0.8627" style="stop-color:#3030FF"/>
			</radialGradient>
			<polygon class="st0" points="238.59,970.16 1257.07,415.23 2319.14,947.39 1300.66,1502.32 			"/>
		</g>
		<g>
			<path class="st1" d="M113.57,469.84h121.7v10.6H127.04v90.82h93.85v10.44h-93.85v105.2h-13.47V469.84z"/>
			<path class="st1" d="M249.95,531.9h12.26v29.06c3.23-10.19,8.63-17.81,16.2-22.86c7.57-5.04,17.05-7.57,28.46-7.57
				c4.44,0,8.07,0.3,10.9,0.91v11.2c-3.53-0.5-7.37-0.76-11.5-0.76c-14.43,0-25.28,3.68-32.54,11.05
				c-7.27,7.37-10.9,18.57-10.9,33.6V686.9h-12.87V531.9z"/>
			<path class="st1" d="M345.62,673.12c-11.1-11.91-16.65-29.31-16.65-52.22v-23.01c0-22.91,5.55-40.31,16.65-52.22
				c11.1-11.91,26.74-17.86,46.92-17.86c20.18,0,35.8,5.96,46.85,17.86c11.05,11.91,16.57,29.32,16.57,52.22v23.01
				c0,22.91-5.52,40.32-16.57,52.22c-11.05,11.91-26.67,17.86-46.85,17.86C372.36,690.98,356.72,685.03,345.62,673.12z
				 M429.62,666.16c8.88-10.09,13.32-24.92,13.32-44.5v-24.52c0-19.58-4.44-34.41-13.32-44.5c-8.88-10.09-21.24-15.14-37.08-15.14
				c-15.84,0-28.23,5.02-37.16,15.06c-8.93,10.04-13.4,24.9-13.4,44.58v24.52c0,19.68,4.46,34.54,13.4,44.58
				c8.93,10.04,21.32,15.06,37.16,15.06C408.38,681.3,420.74,676.25,429.62,666.16z"/>
			<path class="st1" d="M488.81,531.9h12.87v27.25c3.53-9.99,9.48-17.71,17.86-23.16c8.38-5.45,18.47-8.17,30.27-8.17
				c12.01,0,21.77,2.88,29.29,8.63c7.52,5.75,12.38,14.28,14.61,25.58c3.33-10.8,9.31-19.2,17.94-25.2c8.63-6,19.1-9.01,31.41-9.01
				c14.53,0,25.73,4.16,33.6,12.49s11.81,20.46,11.81,36.4v110.2h-12.71V578.67c0-13.42-3.23-23.61-9.69-30.58
				c-6.46-6.96-15.54-10.44-27.25-10.44c-8.58,0-16.17,1.84-22.78,5.52c-6.61,3.68-11.76,8.93-15.44,15.74
				c-3.69,6.81-5.53,14.71-5.53,23.69V686.9H582.2V578.67c0-13.42-3.23-23.61-9.69-30.58c-6.46-6.96-15.54-10.44-27.25-10.44
				c-8.58,0-16.15,1.84-22.71,5.52c-6.56,3.68-11.68,8.93-15.36,15.74c-3.69,6.81-5.53,14.71-5.53,23.69V686.9h-12.87V531.9z"/>
			<path class="st1" d="M110.09,734.67h18.47v19.98h-18.47V734.67z M112.96,781.9h12.87v155h-12.87V781.9z"/>
			<path class="st1" d="M253.96,798.47c-6.91-7.21-16.83-10.82-29.74-10.82c-9.49,0-17.81,1.92-24.98,5.75
				c-7.17,3.84-12.69,9.23-16.57,16.2c-3.89,6.96-5.83,15.04-5.83,24.22V936.9h-12.87v-155h12.87v28.76
				c3.73-10.29,10.12-18.34,19.15-24.14c9.03-5.8,19.96-8.7,32.77-8.7c15.64,0,27.62,4.26,35.95,12.79
				c8.33,8.53,12.49,21.02,12.49,37.46V936.9h-12.87V830.03C264.33,816.21,260.87,805.69,253.96,798.47z"/>
			<path class="st1" d="M314.89,781.9h12.87v35.12c4.04-12.92,10.8-22.68,20.28-29.29c9.48-6.61,21.09-9.91,34.81-9.91
				c18.47,0,32.9,5.88,43.29,17.63c10.39,11.76,15.59,29.09,15.59,51.99v23.92c0,22.91-5.2,40.24-15.59,51.99
				c-10.39,11.76-24.82,17.63-43.29,17.63c-13.72,0-25.3-3.31-34.74-9.91c-9.44-6.61-16.22-16.42-20.36-29.44v97.33h-12.87V781.9z
				 M415.47,916.23c8.83-10.04,13.24-24.85,13.24-44.43v-24.82c0-19.58-4.42-34.38-13.24-44.43c-8.83-10.04-21.07-15.06-36.71-15.06
				c-10.39,0-19.4,2.25-27.02,6.74c-7.62,4.49-13.52,11.23-17.71,20.21c-4.19,8.98-6.28,20.03-6.28,33.15v23.61
				c0,13.12,2.09,24.17,6.28,33.15c4.19,8.98,10.09,15.72,17.71,20.21c7.62,4.49,16.62,6.74,27.02,6.74
				C394.4,931.3,406.64,926.28,415.47,916.23z"/>
			<path class="st1" d="M497.66,920.32c6.91,7.22,16.82,10.82,29.74,10.82c9.48,0,17.81-1.92,24.98-5.75
				c7.16-3.83,12.69-9.23,16.57-16.2c3.88-6.96,5.83-15.04,5.83-24.22V781.9h12.87v155h-12.87v-28.76
				c-3.73,10.29-10.12,18.34-19.15,24.14c-9.03,5.8-19.96,8.7-32.77,8.7c-15.64,0-27.62-4.26-35.95-12.79
				c-8.32-8.53-12.49-21.01-12.49-37.46V781.9h12.87v106.87C487.3,902.59,490.75,913.11,497.66,920.32z"/>
			<path class="st1" d="M650.32,931.22c-5.75-4.89-8.63-12.08-8.63-21.57V791.58h-30.43v-9.69h30.43v-44.96h12.71v44.96h42.99v9.69
				H654.4v115.8c0,13.83,8.58,20.74,25.73,20.74c5.75,0,11.55-0.61,17.41-1.82v10.14c-6.16,1.41-12.87,2.12-20.13,2.12
				C665.1,938.56,656.07,936.12,650.32,931.22z"/>
			<path class="st1" d="M822.42,931.22c-5.75-4.89-8.63-12.08-8.63-21.57V791.58h-30.42v-9.69h30.42v-44.96h12.71v44.96h42.99v9.69
				h-42.99v115.8c0,13.83,8.58,20.74,25.73,20.74c5.75,0,11.55-0.61,17.41-1.82v10.14c-6.16,1.41-12.87,2.12-20.13,2.12
				C837.2,938.56,828.17,936.12,822.42,931.22z"/>
			<path class="st1" d="M900.07,923.12c-11.1-11.91-16.65-29.31-16.65-52.22v-23.01c0-22.91,5.55-40.31,16.65-52.22
				c11.1-11.91,26.74-17.86,46.92-17.86c20.18,0,35.8,5.96,46.85,17.86c11.05,11.91,16.58,29.32,16.58,52.22v23.01
				c0,22.91-5.53,40.32-16.58,52.22c-11.05,11.91-26.67,17.86-46.85,17.86C926.81,940.98,911.17,935.03,900.07,923.12z
				 M984.08,916.16c8.88-10.09,13.32-24.92,13.32-44.5v-24.52c0-19.58-4.44-34.41-13.32-44.5c-8.88-10.09-21.24-15.14-37.09-15.14
				c-15.84,0-28.23,5.02-37.16,15.06c-8.93,10.04-13.4,24.9-13.4,44.58v24.52c0,19.68,4.46,34.54,13.4,44.58
				c8.93,10.04,21.32,15.06,37.16,15.06C962.84,931.3,975.2,926.25,984.08,916.16z"/>
			<path class="st1" d="M110.09,984.67h18.47v19.98h-18.47V984.67z M112.96,1031.9h12.87v155h-12.87V1031.9z"/>
			<path class="st1" d="M163.98,1031.9h12.87v27.25c3.53-9.99,9.48-17.71,17.86-23.16c8.38-5.45,18.47-8.17,30.27-8.17
				c12.01,0,21.77,2.88,29.29,8.63c7.52,5.75,12.38,14.28,14.61,25.58c3.33-10.8,9.31-19.2,17.94-25.2c8.63-6,19.1-9.01,31.41-9.01
				c14.53,0,25.73,4.16,33.6,12.49s11.81,20.46,11.81,36.4v110.2h-12.71v-108.23c0-13.42-3.23-23.61-9.69-30.58
				c-6.46-6.96-15.54-10.44-27.25-10.44c-8.58,0-16.17,1.84-22.78,5.52c-6.61,3.68-11.76,8.93-15.44,15.74
				c-3.69,6.81-5.53,14.71-5.53,23.69v104.29h-12.87v-108.23c0-13.42-3.23-23.61-9.69-30.58c-6.46-6.96-15.54-10.44-27.25-10.44
				c-8.58,0-16.15,1.84-22.71,5.52c-6.56,3.68-11.68,8.93-15.36,15.74c-3.69,6.81-5.53,14.71-5.53,23.69v104.29h-12.87V1031.9z"/>
			<path class="st1" d="M401.32,1031.9h12.87v35.12c4.04-12.92,10.8-22.68,20.28-29.29c9.48-6.61,21.09-9.91,34.81-9.91
				c18.47,0,32.9,5.88,43.29,17.63c10.39,11.76,15.59,29.09,15.59,51.99v23.92c0,22.91-5.2,40.24-15.59,51.99
				c-10.39,11.76-24.82,17.63-43.29,17.63c-13.72,0-25.3-3.31-34.74-9.91c-9.44-6.61-16.22-16.42-20.36-29.44v97.33h-12.87V1031.9z
				 M501.9,1166.23c8.83-10.04,13.24-24.85,13.24-44.43v-24.82c0-19.58-4.42-34.38-13.24-44.43c-8.83-10.04-21.07-15.06-36.71-15.06
				c-10.39,0-19.4,2.25-27.02,6.74c-7.62,4.49-13.52,11.23-17.71,20.21c-4.19,8.98-6.28,20.03-6.28,33.15v23.61
				c0,13.12,2.09,24.17,6.28,33.15c4.19,8.98,10.09,15.72,17.71,20.21c7.62,4.49,16.62,6.74,27.02,6.74
				C480.84,1181.3,493.07,1176.28,501.9,1166.23z"/>
			<path class="st1" d="M566.76,1180.08c-7.77-7.16-11.65-17.41-11.65-30.73v-2.88c0-11.6,3.15-20.69,9.46-27.25
				c6.3-6.56,16.02-11.15,29.14-13.77l62.21-12.11v-18.92c0-12.31-3.28-21.54-9.84-27.7c-6.56-6.15-16.6-9.23-30.12-9.23
				c-14.03,0-24.5,3.15-31.41,9.46c-6.91,6.31-10.52,16.07-10.82,29.29v2.27h-12.56v-2.27c0.2-16.14,4.84-28.25,13.93-36.33
				c9.08-8.07,22.75-12.11,41.02-12.11c17.96,0,31.21,3.84,39.73,11.5c8.53,7.67,12.79,19.07,12.79,34.21v94.76
				c0,6.86,3.53,10.29,10.6,10.29c1.51,0,3.28-0.15,5.3-0.45v9.08c-0.81,0.2-2.07,0.4-3.78,0.61c-1.72,0.2-3.53,0.3-5.45,0.3
				c-6.46,0-11.3-1.49-14.53-4.47c-3.23-2.98-4.84-7.24-4.84-12.79v-15.29c-3.73,11-10.42,19.63-20.06,25.88
				c-9.64,6.26-21.32,9.38-35.04,9.38C585.89,1190.83,574.53,1187.25,566.76,1180.08z M577.21,1172.89c6.15,5.6,15.24,8.4,27.25,8.4
				c10.29,0,19.32-2.02,27.09-6.05c7.77-4.04,13.78-9.64,18.01-16.8c4.24-7.16,6.36-15.24,6.36-24.22v-31.33l-57.67,11.35
				c-10.29,2.12-17.91,5.7-22.86,10.75c-4.95,5.05-7.42,12.16-7.42,21.34v2.72C567.97,1159.35,571.05,1167.29,577.21,1172.89z"/>
			<path class="st1" d="M719.27,1173.12c-11.15-11.91-16.73-29.31-16.73-52.22v-23.01c0-22.91,5.57-40.31,16.73-52.22
				c11.15-11.91,26.87-17.86,47.15-17.86c18.16,0,32.14,4.67,41.93,14c9.79,9.33,14.88,22.43,15.29,39.28v1.82h-12.56v-1.97
				c-0.51-13.93-4.62-24.65-12.34-32.17c-7.72-7.52-18.54-11.28-32.47-11.28c-15.95,0-28.38,5.02-37.31,15.06
				c-8.93,10.04-13.4,24.9-13.4,44.58v24.52c0,19.58,4.51,34.41,13.55,44.5c9.03,10.09,21.57,15.14,37.62,15.14
				c14.23,0,25.35-3.94,33.38-11.81c8.02-7.87,12.23-18.87,12.64-33v-2.12h12.71v1.82c-0.2,11.3-2.57,21.07-7.12,29.29
				c-4.54,8.23-11.18,14.53-19.9,18.92c-8.73,4.39-19.3,6.58-31.71,6.58C746.23,1190.98,730.41,1185.03,719.27,1173.12z"/>
			<path class="st1" d="M878.13,1181.22c-5.75-4.89-8.63-12.08-8.63-21.57v-118.07h-30.42v-9.69h30.42v-44.96h12.71v44.96h42.99
				v9.69h-42.99v115.8c0,13.83,8.58,20.74,25.73,20.74c5.75,0,11.55-0.61,17.41-1.82v10.14c-6.16,1.41-12.87,2.12-20.13,2.12
				C892.91,1188.56,883.88,1186.12,878.13,1181.22z"/>
		</g>
		<g id="POLYLINE_00000088119387535948357610000012100625896280647296_">
			<polygon class="st198" points="421.59,747.45 1260.91,290.14 2136.14,728.68 1296.82,1185.99 			"/>
		</g>
		<g id="POLYLINE_00000101825735318665114160000016292576818355839389_">
			
				<radialGradient id="SVGID_00000121257335363002824340000005034661237169012894_" cx="1278.8651" cy="517.3506" r="537.9429" gradientUnits="userSpaceOnUse">
				<stop  offset="0" style="stop-color:#000000;stop-opacity:0"/>
				<stop  offset="0.074" style="stop-color:#02020B;stop-opacity:0.0857"/>
				<stop  offset="0.2026" style="stop-color:#070727;stop-opacity:0.2348"/>
				<stop  offset="0.3705" style="stop-color:#101055;stop-opacity:0.4295"/>
				<stop  offset="0.5712" style="stop-color:#1C1C96;stop-opacity:0.6622"/>
				<stop  offset="0.7974" style="stop-color:#2B2BE6;stop-opacity:0.9243"/>
				<stop  offset="0.8627" style="stop-color:#3030FF"/>
			</radialGradient>
			<polygon style="fill:url(#SVGID_00000121257335363002824340000005034661237169012894_);" points="604.59,524.73 1264.74,165.04 
				1953.14,509.97 1292.99,869.66 			"/>
		</g>
		<g id="POLYLINE_00000129897438777322532480000002528459402829192376_">
			<polygon class="st198" points="787.59,302.02 1268.57,39.95 1770.14,291.26 1289.16,553.33 			"/>
		</g>
		<g id="POLYLINE_00000099651470796871800860000007117400144808897200_">
			
				<radialGradient id="SVGID_00000054959284513228039490000007678873807474202547_" cx="1278.8651" cy="75.9266" r="245.9449" gradientUnits="userSpaceOnUse">
				<stop  offset="0" style="stop-color:#000000;stop-opacity:0"/>
				<stop  offset="0.074" style="stop-color:#02020B;stop-opacity:0.0857"/>
				<stop  offset="0.2026" style="stop-color:#070727;stop-opacity:0.2348"/>
				<stop  offset="0.3705" style="stop-color:#101055;stop-opacity:0.4295"/>
				<stop  offset="0.5712" style="stop-color:#1C1C96;stop-opacity:0.6622"/>
				<stop  offset="0.7974" style="stop-color:#2B2BE6;stop-opacity:0.9243"/>
				<stop  offset="0.8627" style="stop-color:#3030FF"/>
			</radialGradient>
			<polygon style="fill:url(#SVGID_00000054959284513228039490000007678873807474202547_);" points="970.59,79.3 1272.41,-85.15 
				1587.14,72.55 1285.32,237 			"/>
		</g>
	</g>
</g>
<g>
	<defs>
		
			<rect id="SVGID_00000139251526585423483770000004466674142543856272_" x="-2824.27" y="1562.77" width="4116.34" height="1292.07"/>
	</defs>
	<clipPath id="SVGID_00000183216338636450470500000016327341893360559493_">
		<use xlink:href="#SVGID_00000139251526585423483770000004466674142543856272_"  style="overflow:visible;"/>
	</clipPath>
</g>
</svg>
