<?xml version="1.0" encoding="utf-8"?>
<!-- Generator: Adobe Illustrator 30.1.0, SVG Export Plug-In . SVG Version: 9.03 Build 0)  -->
<svg version="1.1" baseProfile="basic" id="Camada_1"
	 xmlns="http://www.w3.org/2000/svg" xmlns:xlink="http://www.w3.org/1999/xlink" x="0px" y="0px" viewBox="0 0 2417.32 1270.68"
	 xml:space="preserve">
<style type="text/css">
	.st0{fill:url(#SVGID_1_);}
	.st1{fill:#FFFFFF;}
	.st2{clip-path:url(#SVGID_00000140713213830650962730000013109612078794656958_);}
	.st3{fill:url(#SVGID_00000030488555495875972520000004946328700683838647_);}
	.st4{fill:url(#SVGID_00000071547876397856805320000005579750737008096176_);}
	.st5{fill:url(#SVGID_00000044863681097320754750000002249895748919534770_);}
	.st6{fill:url(#SVGID_00000119080238406301643460000002789990774544312232_);}
	.st7{fill:url(#SVGID_00000081611717484192134930000009852414849957024423_);}
	.st8{fill:url(#SVGID_00000041262186011155810350000004609711702811366294_);}
	.st9{fill-rule:evenodd;clip-rule:evenodd;fill:#FFFFFF;}
	.st10{fill:url(#SVGID_00000093877116428930345100000002279972505017921689_);}
	.st11{fill:url(#SVGID_00000070810522819982137900000001307576203487142832_);}
	.st12{fill:url(#SVGID_00000078015064394853041830000004986229819735170748_);}
	.st13{fill:url(#SVGID_00000108289875100014527320000002243641065746953134_);}
	.st14{fill:url(#SVGID_00000101102425598603630690000011662749585840989615_);}
	.st15{fill:url(#SVGID_00000053543069941088490420000010726244711894331558_);}
	.st16{fill:url(#SVGID_00000167387592130670707410000005987230268156533680_);}
	.st17{fill:url(#SVGID_00000023265295861586269110000004142658914001430200_);}
	.st18{fill:url(#SVGID_00000160169983261765265610000016000749230843008658_);}
	.st19{fill:#3030FF;}
	.st20{fill:url(#SVGID_00000150064177004244360900000007978367409236117120_);}
	.st21{fill:url(#SVGID_00000054231664019590435880000011321649089727947967_);}
	.st22{fill:url(#SVGID_00000119833838422032366420000003358583861588724127_);}
	.st23{fill:url(#SVGID_00000017507038102245793930000010035246508863214525_);}
	.st24{fill:url(#SVGID_00000170246941188273067790000013516976019331148162_);}
	.st25{fill:url(#SVGID_00000066477444279277677240000011170846059312965771_);}
	.st26{fill:url(#SVGID_00000114758914389321709170000002727564044038213011_);}
	.st27{fill:url(#SVGID_00000155859316572004323390000017567358928406916764_);}
	.st28{fill:url(#SVGID_00000016050219632920464760000011475738181793314179_);}
	.st29{fill:url(#SVGID_00000156589705657403208030000001192372056963852985_);}
	.st30{fill:url(#SVGID_00000000200222720191696870000000629785830991191699_);}
	.st31{fill:url(#SVGID_00000135681101117073017280000006916392017053719699_);}
	.st32{fill:url(#SVGID_00000057143076140039603840000006800171180416066225_);}
	.st33{fill:none;stroke:#3030FF;stroke-width:3;stroke-miterlimit:10;}
	.st34{fill:url(#SVGID_00000165944817869964847670000015823968947824306847_);}
	.st35{fill:url(#SVGID_00000178186337867648343000000005923116602072095135_);}
	.st36{fill:url(#SVGID_00000077317015460013817420000018250131838560574387_);}
	.st37{fill:url(#SVGID_00000111189080631978914310000003914858769880565138_);}
	.st38{fill:url(#SVGID_00000031208009032110162490000013333787060116611485_);}
	.st39{fill:url(#SVGID_00000006693656546765473920000010236890459588110238_);}
	.st40{fill:url(#SVGID_00000026853332616865917140000001166512092622399668_);}
	.st41{fill:url(#SVGID_00000156546143957264159290000001870148301652260280_);}
	.st42{fill:url(#SVGID_00000183940040747417690030000000272178477604042912_);}
	.st43{fill:url(#SVGID_00000118384537438416394420000014836867818526732162_);}
	.st44{fill:url(#SVGID_00000096756124365952681700000007876632855756755109_);}
	.st45{fill:url(#SVGID_00000168802883191079229230000012042916047591403413_);}
	.st46{fill:url(#SVGID_00000175299042047418213570000001699553099470001326_);}
	.st47{fill:url(#SVGID_00000011015533845586605940000011660830174579965885_);}
	.st48{fill:url(#SVGID_00000169556507490078550450000015787150870542211499_);}
	.st49{fill:url(#SVGID_00000177447899474330216440000010206140358856867253_);}
	.st50{fill:url(#SVGID_00000108308402999242170890000008436799581680743322_);}
	.st51{fill:url(#SVGID_00000094611987009236267040000004994871886114797501_);}
	.st52{fill:#3030FF;stroke:#3030FF;stroke-width:2;stroke-miterlimit:10;}
	.st53{fill:none;stroke:#FFFFFF;stroke-miterlimit:10;}
	.st54{fill:url(#SVGID_00000056394268938396907740000000509618246686362503_);}
	.st55{fill:url(#SVGID_00000143584603081783913320000000124539047564178349_);}
	.st56{fill:url(#SVGID_00000006702944745769684020000013229327272037505471_);}
	.st57{fill:url(#SVGID_00000054982613387714625560000001512046253269422508_);}
	.st58{fill:url(#SVGID_00000009553727394189881130000011988901724892957843_);}
	.st59{fill:url(#SVGID_00000131350743459901368530000015612785656779702675_);}
	.st60{fill:none;stroke:#3030FF;stroke-width:3.2003;stroke-miterlimit:10;}
	.st61{fill:url(#SVGID_00000090254525564909119650000016375586674667173004_);}
	.st62{fill:url(#SVGID_00000089534206516936009000000001341777821370918323_);}
	.st63{fill:url(#SVGID_00000103245228786153200900000000475649201892623253_);}
	.st64{fill:url(#SVGID_00000065062457264861937700000001488194148892446910_);}
	.st65{fill:url(#SVGID_00000125580067074853200730000003535983402048804781_);}
	.st66{fill:url(#SVGID_00000142166455682362746280000012228694362453626242_);}
	.st67{fill:url(#SVGID_00000000927835602092324520000013473200016712607373_);}
	.st68{fill:url(#SVGID_00000146474187554556014600000011755890576260767158_);}
	.st69{fill:url(#SVGID_00000171694045767533854360000017069696614707952062_);}
	.st70{fill:url(#SVGID_00000167364596324963630990000015719543993046812859_);}
	.st71{fill:url(#SVGID_00000095311636186653778010000009167058989575922621_);}
	.st72{fill:url(#SVGID_00000000180185610675281450000005141019141730566331_);}
	.st73{fill:url(#SVGID_00000022523230411105094140000001617309265857302945_);}
	.st74{fill:url(#SVGID_00000174578782872598337520000014103295473079109265_);}
	.st75{fill:url(#SVGID_00000065057433284735956990000001985270579740058790_);}
	.st76{fill:url(#SVGID_00000158734189802530773710000005618847367341292982_);}
	.st77{fill:url(#SVGID_00000041277180452225560910000001986426268591712408_);}
	.st78{fill:url(#SVGID_00000007391520552973869840000008176070578513045428_);}
	.st79{fill:url(#SVGID_00000170988150532862052490000011415515046933201850_);}
	.st80{fill:url(#SVGID_00000119094561661877059910000014028348497008908932_);}
	.st81{fill:url(#SVGID_00000157280110294278272210000004749091234108552591_);}
	.st82{fill:url(#SVGID_00000044169832056536335750000009244757071251556995_);}
	.st83{fill:url(#SVGID_00000171679368158578214190000001402893169335347339_);}
	.st84{fill:url(#SVGID_00000168821378708259564480000014224917547941189281_);}
	.st85{fill:none;stroke:#3030FF;stroke-width:7.973;stroke-miterlimit:10;}
	.st86{fill:url(#SVGID_00000141429732217892628440000014875973592093997759_);}
	.st87{fill:url(#SVGID_00000116196798268788209860000004189606833578411953_);}
	.st88{fill:#2B2B2B;}
	.st89{fill:url(#SVGID_00000103948235346283285220000017863512462756336026_);}
	.st90{fill:url(#SVGID_00000041253071334542133110000016686917928994499728_);}
	.st91{fill:url(#SVGID_00000178895015391221288330000007423954617169703090_);}
	.st92{fill:url(#SVGID_00000162328948008900583440000008982907333499933612_);}
	.st93{fill:#3030FF;stroke:#3030FF;stroke-width:1.3238;stroke-miterlimit:10;}
	.st94{fill:url(#SVGID_00000170236191175939893440000016500032572986001046_);}
	.st95{fill:url(#SVGID_00000116196629633398423240000012094299037079994535_);}
	.st96{fill:none;stroke:#3030FF;stroke-width:1.9299;stroke-miterlimit:10;}
	.st97{fill:url(#SVGID_00000071556401179128895300000015425921198981942716_);}
	.st98{fill:url(#SVGID_00000140007121727892380270000010178754853950510745_);}
	.st99{fill:url(#SVGID_00000031893295313764253730000008692741758381009588_);}
	.st100{fill:url(#SVGID_00000157288767356701761460000001893925220322124220_);}
	.st101{fill:url(#SVGID_00000135672000745498133880000013403347737292649901_);}
	.st102{fill:url(#SVGID_00000114056484385649991980000003317121537511206588_);}
	.st103{fill:url(#SVGID_00000099638841923317576640000007801597767854156420_);}
	.st104{fill:url(#SVGID_00000038404933073664098770000005922082549849353656_);}
	.st105{fill:url(#SVGID_00000047033123046552674290000003545582099798140051_);}
	.st106{fill:url(#SVGID_00000056405571813195616580000017064507897661788826_);}
	.st107{fill:url(#SVGID_00000004510994283146037410000003341872275380512959_);}
	.st108{fill:url(#SVGID_00000106840346596007086110000001713925375260983693_);}
	.st109{fill:url(#SVGID_00000152234899217366368400000013620682210133949352_);}
	.st110{fill:url(#SVGID_00000144333738260830062860000008574220646083253413_);}
	.st111{fill:url(#SVGID_00000005950332171989132710000017081938880310668423_);}
	.st112{fill:url(#SVGID_00000089571792301602697300000006034212097129183908_);}
	.st113{fill:none;stroke:#3030FF;stroke-width:2.0587;stroke-miterlimit:10;}
	.st114{fill:url(#SVGID_00000168802656877117770810000013415429613603800744_);}
	.st115{fill:url(#SVGID_00000129918812466631076010000014641225875354013593_);}
	.st116{fill:url(#SVGID_00000042732403003127412190000003103360743330085787_);}
	.st117{fill:url(#SVGID_00000089576191379065345110000014753285188426961054_);}
	.st118{fill:url(#SVGID_00000132047700452467667000000010704240415077483685_);}
	.st119{fill:url(#SVGID_00000072964224127232519980000016264753414111840176_);}
	
		.st120{clip-path:url(#SVGID_00000183963394144529435650000014958721316008260755_);fill:url(#SVGID_00000050639797520706686040000003391659028757992855_);}
	.st121{clip-path:url(#SVGID_00000053541170430698747200000002551886886394818454_);}
	.st122{fill-rule:evenodd;clip-rule:evenodd;}
	.st123{clip-path:url(#SVGID_00000085951996249800924540000013685171753178730684_);}
	.st124{fill:url(#SVGID_00000057843030461042675020000006685983072774792877_);}
	.st125{fill:url(#SVGID_00000150788433397141685330000001806035236208034182_);}
	.st126{fill:url(#SVGID_00000035511759039644049760000017442952241419954322_);}
	.st127{fill:url(#SVGID_00000049920127056128353520000007153869985867374524_);}
	.st128{clip-path:url(#SVGID_00000026849549115077947920000014061167347154125210_);}
	.st129{fill:url(#SVGID_00000086663564468882191220000017332185409166669444_);}
	.st130{fill:url(#SVGID_00000152258302481276758300000006352755203093839281_);}
	.st131{fill:url(#SVGID_00000145745637039091467330000002442086872087926706_);}
	.st132{fill:url(#SVGID_00000054223356700365556810000000727119976838510237_);}
	.st133{fill:url(#SVGID_00000134957338032734937880000007505914959186959506_);}
	.st134{fill:url(#SVGID_00000137824324208148872700000010121562840897417904_);}
	.st135{fill:url(#SVGID_00000102544415885959058610000010736763753789565337_);}
	
		.st136{clip-path:url(#SVGID_00000029747456305738326680000011952715844428700055_);fill:url(#SVGID_00000178166744028616215680000000670975478314483893_);}
	.st137{fill:none;stroke:#FFFFFF;stroke-width:12.6291;stroke-miterlimit:10;}
	.st138{fill:none;stroke:#3030FF;stroke-width:1.4767;stroke-linecap:round;stroke-linejoin:round;}
	.st139{fill:url(#SVGID_00000158019093049497089490000009925625747250047166_);}
	.st140{fill:url(#SVGID_00000111883480916196344420000002299749829730917304_);}
	.st141{fill:url(#SVGID_00000168795282909803172680000018425667516984464058_);}
	.st142{fill:none;stroke:#FFFFFF;stroke-width:0.8399;stroke-linecap:round;stroke-linejoin:round;}
	.st143{fill:url(#SVGID_00000121975498140473472980000000511518890198951357_);}
	.st144{fill:url(#SVGID_00000096038076705003295020000004777947621476073148_);}
	.st145{fill:url(#SVGID_00000116946170904253112090000007474540986299118995_);}
	.st146{fill:url(#SVGID_00000173856818772762544960000001523861388221958327_);}
	.st147{stroke:#3030FF;stroke-width:2;stroke-miterlimit:10;}
	.st148{fill:none;stroke:#3030FF;stroke-width:2;stroke-miterlimit:10;}
	.st149{fill:none;stroke:#3030FF;stroke-width:0.9845;stroke-miterlimit:10;}
	.st150{clip-path:url(#SVGID_00000065792851622114445430000014802997982092559490_);}
	.st151{fill-rule:evenodd;clip-rule:evenodd;stroke:#000000;stroke-width:0.9887;stroke-miterlimit:10;}
	.st152{fill-rule:evenodd;clip-rule:evenodd;fill:#FFFFFF;stroke:#000000;stroke-width:0.6244;stroke-miterlimit:10;}
	.st153{stroke:#3030FF;stroke-width:3.27;stroke-miterlimit:10;}
	.st154{fill:url(#SVGID_00000060018236874660487530000017699726539133621435_);}
	.st155{fill:url(#SVGID_00000144335895249818677280000012932905884644397440_);}
	.st156{fill:url(#SVGID_00000065048209575346016860000000079881009928019845_);}
	.st157{fill:url(#SVGID_00000096744983134786266560000010732826643411384719_);}
	.st158{fill:url(#SVGID_00000083788646898809005230000002881988183669149366_);}
	.st159{fill:url(#SVGID_00000033339397137399856960000002914081451900822429_);}
	.st160{fill:url(#SVGID_00000093160223268430363270000004326627798211684021_);}
	.st161{fill:url(#SVGID_00000160161248891325663310000017534641786728346558_);}
	.st162{fill:url(#SVGID_00000146476661796546609480000001047576528589877655_);}
	.st163{fill:url(#SVGID_00000145040724690954442230000016136335660644683697_);}
	.st164{fill:url(#SVGID_00000012454801403516556520000008658191748816910999_);}
	.st165{fill:url(#SVGID_00000057867080895310499740000003147534220544876712_);}
	.st166{fill:url(#SVGID_00000021096087928806012560000010774650590509309059_);}
	.st167{fill:url(#SVGID_00000002382678971790272480000007064921395506784435_);}
	.st168{fill:url(#SVGID_00000148656596971861274960000000395265860131738803_);}
	.st169{fill:url(#SVGID_00000169525787112964970010000017652588080858165180_);}
	.st170{fill:url(#SVGID_00000012462147276506723490000017784962897698535049_);}
	.st171{fill:url(#SVGID_00000083054590557699225010000002506572429670314378_);}
	.st172{fill:url(#SVGID_00000016787126228889063200000005410323273582015650_);}
	.st173{fill:url(#SVGID_00000158745894087969165610000002083400727637684113_);}
	.st174{fill:url(#SVGID_00000067202512944239743790000013620315940417841826_);}
	.st175{fill:url(#SVGID_00000170267378645121960200000009585120719604336029_);}
	.st176{fill:url(#SVGID_00000134969398915308046410000004712222514472431777_);}
	.st177{fill:url(#SVGID_00000042719272800476662300000017997635051960215964_);}
	.st178{fill:url(#SVGID_00000098183393943765935810000008997311744498758544_);}
	.st179{fill:url(#SVGID_00000042003776739687133200000014091138547846289597_);}
	.st180{fill:url(#SVGID_00000123412212221826226690000005299293371335455918_);}
	.st181{fill:url(#SVGID_00000077290021771401003220000006994812925601239943_);}
	.st182{fill:url(#SVGID_00000140728854024961199170000016586654852121759893_);}
	.st183{fill:url(#SVGID_00000093136302801080369210000009855082736056909480_);}
	.st184{fill:url(#SVGID_00000174575812639817115250000000159284215285576383_);}
	.st185{fill:url(#SVGID_00000150790278484304626330000014039978440394908606_);}
	.st186{fill:url(#SVGID_00000079481109789550313770000011758687685526187428_);}
	.st187{clip-path:url(#SVGID_00000163049016388889009960000003701105036283124354_);}
	.st188{fill:#3030FF;stroke:#3030FF;stroke-width:1.9106;stroke-miterlimit:10;}
	.st189{fill:none;stroke:#000000;stroke-width:22;stroke-miterlimit:10;}
	.st190{fill:url(#SVGID_00000034791257107027831300000004841124189929195392_);}
	.st191{fill:#0073FF;}
	.st192{fill:#FF6F91;}
	.st193{fill:#E075FF;}
	.st194{fill:#EDEEF3;}
	.st195{fill:none;stroke:#EDEEF3;stroke-width:0.7369;stroke-miterlimit:10;}
	.st196{clip-path:url(#SVGID_00000063613737338066961110000001793693459212281730_);}
	.st197{fill:url(#SVGID_00000147930248017787915350000016584681130669539968_);}
	.st198{fill:none;stroke:#3030FF;stroke-width:6.7505;stroke-miterlimit:10;}
	.st199{fill:url(#SVGID_00000025438269005707961560000010500043840999135916_);}
	.st200{fill:url(#SVGID_00000126309957980963152160000016655800852381028518_);}
	.st201{clip-path:url(#SVGID_00000154428070771574120800000012294442267389917827_);}
	.st202{fill:url(#SVGID_00000047048548834909882120000008951918947684309143_);}
	.st203{fill:url(#SVGID_00000089568801718093484340000001988287677557588895_);}
	.st204{fill:url(#SVGID_00000062160342009935054650000006978703755660016784_);}
	.st205{fill:url(#SVGID_00000158715261082968324260000000390241896177979019_);}
	.st206{fill:url(#SVGID_00000103235233335179369450000015542140086089332925_);}
	.st207{fill:url(#SVGID_00000165937738243877216310000008120447099292009369_);}
	
		.st208{clip-path:url(#SVGID_00000064335863236765378830000012928273813803345835_);fill:url(#SVGID_00000133494441858160948480000013893951025661035696_);}
	
		.st209{clip-path:url(#SVGID_00000064335863236765378830000012928273813803345835_);fill:url(#SVGID_00000165202741753549336670000016965033618688777633_);}
	.st210{clip-path:url(#SVGID_00000174574486343795236480000011850664969997042079_);}
	.st211{fill:url(#SVGID_00000087376901919355145780000013451897022399710857_);}
	.st212{fill:url(#SVGID_00000018222258158740445430000015834787684822764208_);}
	.st213{fill:url(#SVGID_00000069397501879312119910000000907744847115263408_);}
	.st214{fill:url(#SVGID_00000176761837685292837960000017237273126862342278_);}
	.st215{fill:url(#SVGID_00000069391083285392118720000012123186360323715465_);}
	.st216{fill:url(#SVGID_00000106826062843473588120000003981614469787819941_);}
	.st217{fill:none;stroke:#FFFFFF;stroke-width:1.4827;stroke-miterlimit:10;}
	.st218{clip-path:url(#SVGID_00000092419521469318841510000009561311141631996858_);}
	.st219{fill:url(#SVGID_00000036952324780224032630000005953737373229128075_);}
	.st220{fill:url(#SVGID_00000074425254882942780530000017446497463165961649_);}
	.st221{fill:url(#SVGID_00000130647613564741020530000008683219278872094608_);}
	.st222{fill:url(#SVGID_00000135670105458837609510000004678534431106692540_);}
	.st223{stroke:#FF6F91;stroke-width:2;stroke-miterlimit:10;}
	.st224{fill:none;stroke:#FF6F91;stroke-width:2;stroke-miterlimit:10;}
	.st225{stroke:#E075FF;stroke-width:2;stroke-miterlimit:10;}
	.st226{fill:none;stroke:#E075FF;stroke-width:2;stroke-miterlimit:10;}
	.st227{stroke:#0073FF;stroke-width:2;stroke-miterlimit:10;}
	.st228{fill:none;stroke:#0073FF;stroke-width:2;stroke-miterlimit:10;}
	.st229{fill:url(#SVGID_00000126283198018019770670000015486334221047114942_);}
	.st230{fill:url(#SVGID_00000019640919089294420130000012775510306430075272_);}
	.st231{fill:url(#SVGID_00000060725851680713794020000006953278270334008211_);}
	.st232{fill:url(#SVGID_00000172399021725528751160000001306108889986673835_);}
	.st233{fill:url(#SVGID_00000014635615912783994820000000734985879971520669_);}
	.st234{fill:url(#SVGID_00000085221118302290621730000014769580709709777029_);}
	.st235{fill:url(#SVGID_00000060744678101086454780000010743529384065816984_);}
	.st236{fill:url(#SVGID_00000021837819908602865940000003592059868282858910_);}
	.st237{fill:url(#SVGID_00000084517588866110930850000006408118565153402518_);}
	.st238{fill:url(#SVGID_00000007416588319186394860000010255671277170901178_);}
	.st239{fill:url(#SVGID_00000109739456141707338690000001842384574373815710_);}
	.st240{fill:url(#SVGID_00000134217943703127956750000015307246665150867083_);}
	.st241{fill:url(#SVGID_00000064327352785839506060000013117584530791102885_);}
	.st242{fill:url(#SVGID_00000054262024309724092150000015333368563008483988_);}
	.st243{fill:url(#SVGID_00000069378106582531147340000005575421428063446444_);}
	.st244{fill:url(#SVGID_00000141445002529577588270000000938891053563534209_);}
	.st245{fill:url(#SVGID_00000038401382013421872920000014038432246204102558_);}
	.st246{fill:url(#SVGID_00000096028642832832101220000006466094285820710317_);}
	.st247{fill:none;stroke:#3030FF;stroke-width:1.4271;stroke-miterlimit:10;}
	.st248{fill:url(#SVGID_00000107561054455341356990000003814347439325198727_);}
	.st249{fill:url(#SVGID_00000128462987067131440660000008721594063930773635_);}
	.st250{fill:#302DF9;}
	.st251{fill:url(#SVGID_00000124856710742930213100000005293887947407015596_);}
	.st252{fill:url(#SVGID_00000172411034613243595380000012673563525214516128_);}
	.st253{fill:url(#SVGID_00000027574398646204080630000010014506779608463239_);}
	.st254{fill:url(#SVGID_00000076597723552058216170000001206751172391921286_);}
	.st255{fill:url(#SVGID_00000148626761114666572500000012064503890837032849_);}
	.st256{fill:url(#SVGID_00000004537906617760547290000007469075667683806119_);}
	.st257{fill:none;stroke:#3030FF;stroke-width:1.3699;stroke-miterlimit:10;}
	.st258{fill:url(#SVGID_00000008148961795389238070000018226273439745777077_);}
	.st259{fill:url(#SVGID_00000165224120824170139790000000554979139739680407_);}
	.st260{fill:url(#SVGID_00000040540832416240734160000000210225627771620262_);}
	.st261{fill:url(#SVGID_00000061455933458779595230000004865254114219332268_);}
	.st262{fill:url(#SVGID_00000131340780433055425740000005489771161495999126_);}
	.st263{fill:url(#SVGID_00000155112806914323885780000004446656468289474187_);}
	.st264{fill:url(#SVGID_00000163040893861028440390000015324973161816429204_);}
	.st265{fill:url(#SVGID_00000003808170004569260210000012026238365814425275_);}
	.st266{fill:url(#SVGID_00000140011305374464687100000000344720050058774175_);}
	.st267{fill:url(#SVGID_00000142868591437199737170000005589582079304545665_);}
	.st268{fill:url(#SVGID_00000080165637624087018980000018105668872694568126_);}
	.st269{fill:url(#SVGID_00000044863744285005857240000006893045249466821020_);}
	.st270{fill:url(#SVGID_00000060000722565955234400000006481035736654327477_);}
	.st271{fill:url(#SVGID_00000013169265702615628060000017402478335265525429_);}
	.st272{fill:url(#SVGID_00000041977676278801073910000000669948374220758430_);}
	.st273{fill:url(#SVGID_00000051382381896572594900000007184864098934104505_);}
	.st274{fill:none;stroke:#3030FF;stroke-width:1.4613;stroke-miterlimit:10;}
	.st275{fill:url(#SVGID_00000087402982658875401170000008322756602146005154_);}
	.st276{fill:url(#SVGID_00000031193756680806657290000008553081041319440060_);}
	.st277{fill:url(#SVGID_00000042721439914822234590000010774718401882410401_);}
	.st278{fill:url(#SVGID_00000028310924361685503030000017783272917456138133_);}
	.st279{fill:url(#SVGID_00000106143953983119165620000010531990659487407790_);}
	.st280{fill:url(#SVGID_00000039113366603615762680000006657065489482253458_);}
	.st281{fill:#3030FF;stroke:#3030FF;stroke-width:0.958;stroke-miterlimit:10;}
	.st282{fill:none;stroke:#2B2B2B;stroke-miterlimit:10;}
	.st283{fill:none;stroke:#C25BA2;stroke-width:10;stroke-miterlimit:10;}
	.st284{fill:url(#SVGID_00000120537358207879043840000017528537632001526973_);}
	.st285{fill:url(#SVGID_00000060009546182291022640000017055785838620115628_);}
	.st286{fill:url(#SVGID_00000031175663480876936440000012420098149467951273_);}
	.st287{fill:url(#SVGID_00000150102336193263914050000005547992195425525645_);}
	.st288{fill:url(#SVGID_00000054983828476518180470000011215820602135618956_);}
	.st289{fill:url(#SVGID_00000158735488075385199300000006366749302684772485_);}
	.st290{fill:url(#SVGID_00000150088224679131911480000007787330985903380393_);}
	.st291{fill:url(#SVGID_00000122001697609731788100000010160613897621943977_);}
	.st292{fill:url(#SVGID_00000029738945960875142040000009708405355946806408_);}
	.st293{fill:url(#SVGID_00000099634052719998162090000001709389116138711182_);}
	.st294{fill:url(#SVGID_00000134249332640617586450000008310116090714027197_);}
	.st295{fill:url(#SVGID_00000005959609415677917160000017734255914458335883_);}
	.st296{fill:url(#SVGID_00000111886321293693048110000018312899385355557782_);}
	.st297{fill:url(#SVGID_00000013175545513046601430000002430777581163547066_);}
	.st298{fill:none;stroke:#3030FF;stroke-width:4.9484;stroke-miterlimit:10;}
	.st299{fill:url(#SVGID_00000108281654933942665650000011879142532640610735_);}
	.st300{fill:url(#SVGID_00000047746552999034620530000016236560748433557920_);}
	.st301{fill:url(#SVGID_00000065797516411909651280000008995239598705935795_);}
	.st302{fill:url(#SVGID_00000093895370001610403120000000739907098609260209_);}
	.st303{fill:url(#SVGID_00000168835244847938044390000002927391754679136438_);}
	.st304{fill:url(#SVGID_00000124124333098623344530000016386126245082867585_);}
	.st305{fill:url(#SVGID_00000037688775097466089940000010151726683298294151_);}
	.st306{fill:url(#SVGID_00000034081186679377547990000008288330164224064686_);}
	.st307{fill:url(#SVGID_00000060724527919932401620000012078798085344452496_);}
	.st308{fill:url(#SVGID_00000069395944991337696250000011673434196427425444_);}
	.st309{fill:url(#SVGID_00000080198869463595231880000009653091293168261776_);}
	.st310{fill:url(#SVGID_00000158725813647860100290000004844164741313058749_);}
	.st311{fill:url(#SVGID_00000107575647970542222330000006419386355084230041_);}
	.st312{fill:url(#SVGID_00000005984187665545483060000006393114893543380651_);}
	.st313{fill:url(#SVGID_00000006677814167178596920000015859655495998783404_);}
	.st314{fill:url(#SVGID_00000147201423728928609060000014442030274849591180_);}
	.st315{fill:url(#SVGID_00000008127398894619505200000005594749668132074163_);}
	.st316{fill:url(#SVGID_00000013871461833385503790000017330327039308503190_);}
	.st317{fill:url(#SVGID_00000090283172112729975150000018192589904891362952_);}
	.st318{fill:url(#SVGID_00000042012536173061585850000008821475680417797813_);}
	.st319{fill:url(#SVGID_00000071523291413915616620000012972566910762570659_);}
	.st320{fill:url(#SVGID_00000097487102004092725950000007704414713815234465_);}
	.st321{fill:url(#SVGID_00000067199181160091113240000017889582827631391112_);}
	.st322{fill:url(#SVGID_00000066499792416777952640000012685246173366818472_);}
	.st323{fill:url(#SVGID_00000106826602798979054190000008315410204245055910_);}
	.st324{fill:url(#SVGID_00000144323261035383199860000003102752575520115606_);}
	.st325{fill:url(#SVGID_00000034804735668744842270000001634918436523009441_);}
	.st326{fill:url(#SVGID_00000170970975899833477960000000218146793521629312_);}
	.st327{fill:url(#SVGID_00000016048352378652504290000002284642929473679757_);}
	.st328{fill:url(#SVGID_00000108307232257490196890000008589849622240171397_);}
	.st329{fill:url(#SVGID_00000052087859118157364800000015061079062686005911_);}
	.st330{fill:url(#SVGID_00000095329169941257319160000011314029224793682351_);}
	.st331{fill:url(#SVGID_00000128486187477502218250000005217238819386016950_);}
	.st332{fill:url(#SVGID_00000119838752877224902870000018254070080772762811_);}
	.st333{fill:url(#SVGID_00000033355398907106452040000008070148139345126804_);}
	.st334{fill:url(#SVGID_00000116941543903142110710000009878217222916650120_);}
	.st335{fill:url(#SVGID_00000152974169891831223970000006401634123723014288_);}
	.st336{fill:url(#SVGID_00000177467628079750726590000002080049951515034284_);}
	.st337{fill:url(#SVGID_00000013153779002294245120000002598303233574740895_);}
	.st338{fill:url(#SVGID_00000008128377978459479200000007322535181806790028_);}
	.st339{fill:url(#SVGID_00000065788001265525834110000009229601601616073893_);}
	.st340{fill:url(#SVGID_00000064322528394220918010000002841556344441517217_);}
	.st341{fill:url(#SVGID_00000160190799806526409220000017763828639033246095_);}
	.st342{fill:url(#SVGID_00000055706440196035770440000012816422368487430294_);}
	.st343{fill:url(#SVGID_00000154419518075830873290000001869616941599860865_);}
	.st344{fill:none;stroke:#3030FF;stroke-width:3.7755;stroke-miterlimit:10;}
	.st345{fill:url(#SVGID_00000018918777426502149900000010322565806111270568_);}
	.st346{fill:url(#SVGID_00000062155002071981950680000000523447801475370160_);}
	.st347{fill:url(#SVGID_00000152246501452854337050000013591506068740343455_);}
	.st348{fill:url(#SVGID_00000097502300804907050290000002965546407010811559_);}
	.st349{fill:url(#SVGID_00000009586963503893383740000006473970147481056921_);}
	.st350{fill:url(#SVGID_00000093146074643003882490000005246466731477162653_);}
	
		.st351{fill:none;stroke:url(#SVGID_00000030473058669448459250000002687606618516335293_);stroke-width:1.2585;stroke-miterlimit:10;}
	
		.st352{fill:none;stroke:url(#SVGID_00000172400145550450370470000002746045894160562618_);stroke-width:1.2585;stroke-miterlimit:10;}
	
		.st353{fill:none;stroke:url(#SVGID_00000087404721489514362260000006121434607136501933_);stroke-width:1.2585;stroke-miterlimit:10;}
	
		.st354{fill:none;stroke:url(#SVGID_00000002370911304547553150000011647567499378975675_);stroke-width:1.2585;stroke-miterlimit:10;}
	
		.st355{fill:none;stroke:url(#SVGID_00000133503820697263179760000000471524538617124758_);stroke-width:1.2585;stroke-miterlimit:10;}
	
		.st356{fill:none;stroke:url(#SVGID_00000039105528353249185920000002521148168459326853_);stroke-width:1.2585;stroke-miterlimit:10;}
	.st357{fill-rule:evenodd;clip-rule:evenodd;fill:#FFFFFF;stroke:#000000;stroke-width:2.5298;stroke-miterlimit:10;}
	.st358{fill:url(#SVGID_00000013185453090724938730000009136952924223231373_);}
	.st359{fill:url(#SVGID_00000111152778034044733680000000056046251987094442_);}
	.st360{fill:url(#SVGID_00000032632211086338126690000006398023153682895240_);}
	.st361{fill:url(#SVGID_00000003075103797769061130000001000657617109780153_);}
	.st362{fill:url(#SVGID_00000049181034652151799330000005712169917091886479_);}
	.st363{fill:url(#SVGID_00000165231650882597408390000002108629358273505695_);}
	.st364{fill:url(#SVGID_00000133499152614434440500000002191027993655534245_);}
	.st365{fill:url(#SVGID_00000075878248223339442230000003333368966294227379_);}
</style>
<rect x="-13395.17" y="-11895.14" width="16397.75" height="16332.66"/>
<g>
	<g>
		<radialGradient id="SVGID_1_" cx="1208.6613" cy="741.3184" r="353.7265" gradientUnits="userSpaceOnUse">
			<stop  offset="0" style="stop-color:#000000;stop-opacity:0"/>
			<stop  offset="0.278" style="stop-color:#000002;stop-opacity:0.278"/>
			<stop  offset="0.4156" style="stop-color:#02020A;stop-opacity:0.4156"/>
			<stop  offset="0.5225" style="stop-color:#040417;stop-opacity:0.5225"/>
			<stop  offset="0.6135" style="stop-color:#08082A;stop-opacity:0.6135"/>
			<stop  offset="0.6944" style="stop-color:#0C0C42;stop-opacity:0.6944"/>
			<stop  offset="0.7681" style="stop-color:#121260;stop-opacity:0.7681"/>
			<stop  offset="0.8364" style="stop-color:#191984;stop-opacity:0.8364"/>
			<stop  offset="0.9005" style="stop-color:#2121AD;stop-opacity:0.9005"/>
			<stop  offset="0.959" style="stop-color:#2929DA;stop-opacity:0.959"/>
			<stop  offset="1" style="stop-color:#3030FF"/>
		</radialGradient>
		<polygon class="st0" points="1604.91,741.32 1208.66,1137.56 812.42,741.32 1208.66,345.07 		"/>
		
			<radialGradient id="SVGID_00000172414443345544518980000009185980544813584314_" cx="1208.6613" cy="529.3616" r="353.7265" gradientUnits="userSpaceOnUse">
			<stop  offset="0" style="stop-color:#000000;stop-opacity:0"/>
			<stop  offset="0.278" style="stop-color:#000002;stop-opacity:0.278"/>
			<stop  offset="0.4156" style="stop-color:#02020A;stop-opacity:0.4156"/>
			<stop  offset="0.5225" style="stop-color:#040417;stop-opacity:0.5225"/>
			<stop  offset="0.6135" style="stop-color:#08082A;stop-opacity:0.6135"/>
			<stop  offset="0.6944" style="stop-color:#0C0C42;stop-opacity:0.6944"/>
			<stop  offset="0.7681" style="stop-color:#121260;stop-opacity:0.7681"/>
			<stop  offset="0.8364" style="stop-color:#191984;stop-opacity:0.8364"/>
			<stop  offset="0.9005" style="stop-color:#2121AD;stop-opacity:0.9005"/>
			<stop  offset="0.959" style="stop-color:#2929DA;stop-opacity:0.959"/>
			<stop  offset="1" style="stop-color:#3030FF"/>
		</radialGradient>
		<polygon style="fill:url(#SVGID_00000172414443345544518980000009185980544813584314_);" points="1604.91,529.36 1208.66,925.61 
			812.42,529.36 1208.66,133.12 		"/>
		<g>
			
				<radialGradient id="SVGID_00000052819393895925640050000008421262077766780090_" cx="1146.1274" cy="-10205.1328" r="303.5504" gradientTransform="matrix(0.665 -0.7468 -0.1902 -0.1694 -1296.8856 -39.3364)" gradientUnits="userSpaceOnUse">
				<stop  offset="0" style="stop-color:#000000;stop-opacity:0"/>
				<stop  offset="0.2708" style="stop-color:#000002;stop-opacity:0.278"/>
				<stop  offset="0.4048" style="stop-color:#02020A;stop-opacity:0.4156"/>
				<stop  offset="0.5089" style="stop-color:#040417;stop-opacity:0.5225"/>
				<stop  offset="0.5976" style="stop-color:#08082A;stop-opacity:0.6135"/>
				<stop  offset="0.6764" style="stop-color:#0C0C42;stop-opacity:0.6944"/>
				<stop  offset="0.7482" style="stop-color:#121260;stop-opacity:0.7681"/>
				<stop  offset="0.8148" style="stop-color:#191984;stop-opacity:0.8364"/>
				<stop  offset="0.8772" style="stop-color:#2121AD;stop-opacity:0.9005"/>
				<stop  offset="0.9341" style="stop-color:#2929DA;stop-opacity:0.959"/>
				<stop  offset="0.9741" style="stop-color:#3030FF"/>
			</radialGradient>
			<polygon style="fill:url(#SVGID_00000052819393895925640050000008421262077766780090_);" points="1208.66,1137.56 
				1604.91,741.32 1604.91,529.36 1208.66,925.61 			"/>
			
				<radialGradient id="SVGID_00000119085917112079070490000017239244492218836624_" cx="-12228.1582" cy="-10205.1328" r="303.5504" gradientTransform="matrix(-0.665 -0.7468 0.1902 -0.1694 -5179.8125 -10027.7256)" gradientUnits="userSpaceOnUse">
				<stop  offset="0" style="stop-color:#000000;stop-opacity:0"/>
				<stop  offset="0.2708" style="stop-color:#000002;stop-opacity:0.278"/>
				<stop  offset="0.4048" style="stop-color:#02020A;stop-opacity:0.4156"/>
				<stop  offset="0.5089" style="stop-color:#040417;stop-opacity:0.5225"/>
				<stop  offset="0.5976" style="stop-color:#08082A;stop-opacity:0.6135"/>
				<stop  offset="0.6764" style="stop-color:#0C0C42;stop-opacity:0.6944"/>
				<stop  offset="0.7482" style="stop-color:#121260;stop-opacity:0.7681"/>
				<stop  offset="0.8148" style="stop-color:#191984;stop-opacity:0.8364"/>
				<stop  offset="0.8772" style="stop-color:#2121AD;stop-opacity:0.9005"/>
				<stop  offset="0.9341" style="stop-color:#2929DA;stop-opacity:0.959"/>
				<stop  offset="0.9741" style="stop-color:#3030FF"/>
			</radialGradient>
			<polygon style="fill:url(#SVGID_00000119085917112079070490000017239244492218836624_);" points="1208.66,1137.56 812.42,741.32 
				812.42,529.36 1208.66,925.61 			"/>
		</g>
		<g>
			
				<radialGradient id="SVGID_00000102502059854466290320000008573951143956058810_" cx="-11908.3174" cy="837.0434" r="303.5504" gradientTransform="matrix(-0.665 0.7468 0.1902 0.1694 -7067.8442 9188.9727)" gradientUnits="userSpaceOnUse">
				<stop  offset="0" style="stop-color:#000000;stop-opacity:0"/>
				<stop  offset="0.2708" style="stop-color:#000002;stop-opacity:0.278"/>
				<stop  offset="0.4048" style="stop-color:#02020A;stop-opacity:0.4156"/>
				<stop  offset="0.5089" style="stop-color:#040417;stop-opacity:0.5225"/>
				<stop  offset="0.5976" style="stop-color:#08082A;stop-opacity:0.6135"/>
				<stop  offset="0.6764" style="stop-color:#0C0C42;stop-opacity:0.6944"/>
				<stop  offset="0.7482" style="stop-color:#121260;stop-opacity:0.7681"/>
				<stop  offset="0.8148" style="stop-color:#191984;stop-opacity:0.8364"/>
				<stop  offset="0.8772" style="stop-color:#2121AD;stop-opacity:0.9005"/>
				<stop  offset="0.9341" style="stop-color:#2929DA;stop-opacity:0.959"/>
				<stop  offset="0.9741" style="stop-color:#3030FF"/>
			</radialGradient>
			<polygon style="fill:url(#SVGID_00000102502059854466290320000008573951143956058810_);" points="1208.66,133.12 812.42,529.36 
				812.42,741.32 1208.66,345.07 			"/>
			
				<radialGradient id="SVGID_00000099620575661033651290000017523745399222550674_" cx="826.2869" cy="837.0434" r="303.5504" gradientTransform="matrix(0.665 0.7468 -0.1902 0.1694 1016.5402 -321.68)" gradientUnits="userSpaceOnUse">
				<stop  offset="0" style="stop-color:#000000;stop-opacity:0"/>
				<stop  offset="0.2708" style="stop-color:#000002;stop-opacity:0.278"/>
				<stop  offset="0.4048" style="stop-color:#02020A;stop-opacity:0.4156"/>
				<stop  offset="0.5089" style="stop-color:#040417;stop-opacity:0.5225"/>
				<stop  offset="0.5976" style="stop-color:#08082A;stop-opacity:0.6135"/>
				<stop  offset="0.6764" style="stop-color:#0C0C42;stop-opacity:0.6944"/>
				<stop  offset="0.7482" style="stop-color:#121260;stop-opacity:0.7681"/>
				<stop  offset="0.8148" style="stop-color:#191984;stop-opacity:0.8364"/>
				<stop  offset="0.8772" style="stop-color:#2121AD;stop-opacity:0.9005"/>
				<stop  offset="0.9341" style="stop-color:#2929DA;stop-opacity:0.959"/>
				<stop  offset="0.9741" style="stop-color:#3030FF"/>
			</radialGradient>
			<polygon style="fill:url(#SVGID_00000099620575661033651290000017523745399222550674_);" points="1208.66,133.12 1604.91,529.36 
				1604.91,741.32 1208.66,345.07 			"/>
		</g>
	</g>
</g>
<g>
	<path class="st88" d="M66.48,1165.5h27.16c2.97,0,5.52,0.53,7.65,1.6s3.75,2.57,4.86,4.51s1.67,4.21,1.67,6.81v0.59
		c0,2.6-0.56,4.87-1.67,6.81s-2.73,3.45-4.86,4.53s-4.68,1.61-7.65,1.61H74.42v15.56h-7.94V1165.5z M97.71,1184.68
		c1.41-1.34,2.11-3.2,2.11-5.58v-0.53c0-2.36-0.7-4.22-2.11-5.57s-3.38-2.02-5.92-2.02H74.42v15.7h17.37
		C94.33,1186.68,96.3,1186.02,97.71,1184.68z"/>
	<path class="st88" d="M113.1,1206.24c-1.94-1.53-2.92-3.72-2.92-6.55v-0.21c0-1.66,0.32-3.06,0.95-4.19s1.65-2.06,3.05-2.77
		s3.25-1.24,5.55-1.57l16.96-2.43v-1.61c0-1.91-0.65-3.36-1.95-4.35s-3.43-1.48-6.4-1.48c-3.01,0-5.2,0.5-6.58,1.51
		s-2.16,2.53-2.36,4.58h-7.38c0.1-3.5,1.42-6.16,3.96-8s6.71-2.75,12.51-2.75c5.61,0,9.61,0.84,12.03,2.53s3.62,4.13,3.62,7.31
		v15.23c0,0.53,0.16,0.94,0.48,1.23s0.81,0.44,1.45,0.44c0.43,0,0.88-0.04,1.35-0.12v4.54c-1.17,0.29-2.54,0.44-4.1,0.44
		c-2.29,0-3.96-0.44-5.02-1.33s-1.6-2.19-1.6-3.91v-1.35c-1.09,2.27-2.86,4.01-5.3,5.24s-5.52,1.85-9.23,1.85
		C118.07,1208.54,115.05,1207.77,113.1,1206.24z M119.46,1202.78c1.16,0.83,3.02,1.25,5.58,1.25c2.5,0,4.63-0.38,6.39-1.13
		s3.08-1.78,3.96-3.08s1.32-2.75,1.32-4.35v-2.72l-14.24,2.14c-1.64,0.25-2.84,0.74-3.6,1.45s-1.14,1.67-1.14,2.86v0.15
		C117.72,1200.81,118.3,1201.95,119.46,1202.78z"/>
	<path class="st88" d="M149.77,1219.67v-5.83c0.47,0.06,1.08,0.11,1.85,0.16s1.46,0.07,2.11,0.07c1.27,0,2.32-0.14,3.16-0.42
		s1.54-0.71,2.11-1.29s1.09-1.34,1.58-2.3l1.32-2.64l-14.71-29.91h8.29l10.55,23.17l10.49-23.17h8.14l-17.4,35.16
		c-0.84,1.72-1.77,3.1-2.8,4.15s-2.33,1.83-3.91,2.36s-3.57,0.79-5.98,0.79C152.87,1219.97,151.27,1219.87,149.77,1219.67z"/>
	<path class="st88" d="M188.38,1165.5h7.44v42.01h-7.44V1165.5z"/>
	<path class="st88" d="M205.49,1204.5c-3.12-2.73-4.69-6.59-4.69-11.57v-0.82c0-4.98,1.56-8.84,4.69-11.57s7.82-4.1,14.09-4.1
		c6.29,0,10.99,1.36,14.11,4.09s4.67,6.59,4.67,11.59v0.82c0,5-1.56,8.86-4.67,11.59s-7.82,4.09-14.11,4.09
		C213.31,1208.6,208.62,1207.23,205.49,1204.5z M227.84,1200.92c1.91-1.86,2.87-4.48,2.87-7.88v-1.05c0-3.4-0.96-6.03-2.87-7.88
		s-4.66-2.78-8.23-2.78c-3.59,0-6.35,0.93-8.26,2.78s-2.87,4.48-2.87,7.88v1.05c0,3.4,0.96,6.03,2.87,7.88s4.67,2.78,8.26,2.78
		C223.19,1203.71,225.93,1202.78,227.84,1200.92z"/>
	<path class="st88" d="M244.94,1206.24c-1.94-1.53-2.92-3.72-2.92-6.55v-0.21c0-1.66,0.32-3.06,0.95-4.19s1.65-2.06,3.05-2.77
		s3.25-1.24,5.55-1.57l16.96-2.43v-1.61c0-1.91-0.65-3.36-1.95-4.35s-3.43-1.48-6.4-1.48c-3.01,0-5.2,0.5-6.58,1.51
		s-2.16,2.53-2.36,4.58h-7.38c0.1-3.5,1.42-6.16,3.96-8s6.71-2.75,12.51-2.75c5.61,0,9.61,0.84,12.03,2.53s3.62,4.13,3.62,7.31
		v15.23c0,0.53,0.16,0.94,0.48,1.23s0.81,0.44,1.45,0.44c0.43,0,0.88-0.04,1.35-0.12v4.54c-1.17,0.29-2.54,0.44-4.1,0.44
		c-2.29,0-3.96-0.44-5.02-1.33s-1.6-2.19-1.6-3.91v-1.35c-1.09,2.27-2.86,4.01-5.3,5.24s-5.52,1.85-9.23,1.85
		C249.9,1208.54,246.88,1207.77,244.94,1206.24z M251.3,1202.78c1.16,0.83,3.02,1.25,5.58,1.25c2.5,0,4.63-0.38,6.39-1.13
		s3.08-1.78,3.96-3.08s1.32-2.75,1.32-4.35v-2.72l-14.24,2.14c-1.64,0.25-2.84,0.74-3.6,1.45s-1.14,1.67-1.14,2.86v0.15
		C249.55,1200.81,250.13,1201.95,251.3,1202.78z"/>
	<path class="st88" d="M319.16,1207.51h-7.44v-6.45c-1.15,2.48-2.92,4.35-5.29,5.61s-5.31,1.89-8.8,1.89
		c-5.16,0-9.09-1.34-11.79-4.03s-4.06-6.56-4.06-11.62v-0.82c0-5.06,1.35-8.93,4.06-11.62s6.64-4.03,11.79-4.03
		c3.5,0,6.43,0.63,8.8,1.9s4.14,3.14,5.29,5.62v-18.49h7.44V1207.51z M292.36,1184.11c-1.91,1.86-2.87,4.48-2.87,7.88v1.05
		c0,3.4,0.96,6.03,2.87,7.88s4.66,2.78,8.23,2.78c3.59,0,6.35-0.93,8.26-2.78s2.87-4.48,2.87-7.88v-1.05c0-3.4-0.96-6.03-2.87-7.88
		s-4.67-2.78-8.26-2.78C297.01,1181.32,294.27,1182.25,292.36,1184.11z"/>
	<path class="st88" d="M349.95,1206.93c-3.14-1.11-5.42-2.72-6.83-4.83s-2.14-4.75-2.2-7.91l8.03-0.03c0.12,2.01,0.65,3.7,1.61,5.05
		s2.46,2.4,4.5,3.12s4.72,1.08,8.04,1.08c4.65,0,7.99-0.66,10.03-1.99s3.06-3.14,3.06-5.45v-0.32c0-1.66-0.52-2.97-1.57-3.93
		s-2.66-1.54-4.85-1.76l-16.46-1.49c-3.85-0.37-6.73-1.46-8.66-3.25s-2.89-4.25-2.89-7.35v-0.53c0-3.98,1.65-7.13,4.94-9.45
		s8.55-3.47,15.78-3.47c7.09,0,12.22,1.12,15.38,3.37s4.8,5.5,4.92,9.76h-7.97c-0.16-1.74-0.66-3.19-1.52-4.35s-2.2-2.05-4.01-2.67
		s-4.22-0.92-7.21-0.92c-4.32,0-7.44,0.65-9.36,1.95s-2.89,3.07-2.89,5.32v0.35c0,1.64,0.52,2.93,1.55,3.88s2.63,1.53,4.78,1.74
		l16.58,1.52c3.85,0.37,6.73,1.46,8.64,3.25s2.87,4.27,2.87,7.41v0.5c0,8.71-7.25,13.07-21.74,13.07
		C357.29,1208.6,353.1,1208.04,349.95,1206.93z"/>
	<path class="st88" d="M413.57,1183.67c-1.46-1.39-3.6-2.08-6.43-2.08c-2.15,0-4,0.38-5.55,1.14s-2.74,1.83-3.56,3.19
		s-1.23,2.95-1.23,4.75v16.85h-7.44v-42.01h7.44v18.22c1.07-2.3,2.77-4.09,5.1-5.36s5.17-1.9,8.53-1.9c4.22,0,7.4,0.99,9.55,2.97
		s3.22,4.82,3.22,8.51v19.57h-7.44v-17.84C415.75,1187.06,415.03,1185.05,413.57,1183.67z"/>
	<path class="st88" d="M431,1206.24c-1.94-1.53-2.92-3.72-2.92-6.55v-0.21c0-1.66,0.32-3.06,0.95-4.19s1.65-2.06,3.05-2.77
		s3.25-1.24,5.55-1.57l16.96-2.43v-1.61c0-1.91-0.65-3.36-1.95-4.35s-3.43-1.48-6.4-1.48c-3.01,0-5.2,0.5-6.58,1.51
		s-2.16,2.53-2.36,4.58h-7.38c0.1-3.5,1.42-6.16,3.96-8s6.71-2.75,12.51-2.75c5.61,0,9.61,0.84,12.03,2.53s3.62,4.13,3.62,7.31
		v15.23c0,0.53,0.16,0.94,0.48,1.23s0.81,0.44,1.45,0.44c0.43,0,0.88-0.04,1.35-0.12v4.54c-1.17,0.29-2.54,0.44-4.1,0.44
		c-2.29,0-3.96-0.44-5.02-1.33s-1.6-2.19-1.6-3.91v-1.35c-1.09,2.27-2.86,4.01-5.3,5.24s-5.52,1.85-9.23,1.85
		C435.97,1208.54,432.95,1207.77,431,1206.24z M437.36,1202.78c1.16,0.83,3.02,1.25,5.58,1.25c2.5,0,4.63-0.38,6.39-1.13
		s3.08-1.78,3.96-3.08s1.32-2.75,1.32-4.35v-2.72l-14.24,2.14c-1.64,0.25-2.84,0.74-3.6,1.45s-1.14,1.67-1.14,2.86v0.15
		C435.62,1200.81,436.2,1201.95,437.36,1202.78z"/>
	<path class="st88" d="M469.63,1177.51h7.44v6.45c1.15-2.48,2.92-4.35,5.29-5.61s5.31-1.89,8.8-1.89c5.16,0,9.09,1.34,11.79,4.03
		s4.06,6.56,4.06,11.62v0.82c0,5.06-1.35,8.93-4.06,11.62s-6.64,4.03-11.79,4.03c-3.5,0-6.43-0.63-8.8-1.9s-4.14-3.14-5.29-5.62
		v18.49h-7.44V1177.51z M496.44,1200.92c1.91-1.86,2.87-4.48,2.87-7.88v-1.05c0-3.4-0.96-6.03-2.87-7.88s-4.66-2.78-8.23-2.78
		c-3.59,0-6.35,0.93-8.26,2.78s-2.87,4.48-2.87,7.88v1.05c0,3.4,0.96,6.03,2.87,7.88s4.67,2.78,8.26,2.78
		C491.78,1203.71,494.52,1202.78,496.44,1200.92z"/>
	<path class="st88" d="M511.73,1166.03h8.03v7h-8.03V1166.03z M512.02,1177.51h7.44v30h-7.44V1177.51z"/>
	<path class="st88" d="M550.01,1183.67c-1.46-1.39-3.6-2.08-6.43-2.08c-2.15,0-4,0.38-5.55,1.14s-2.74,1.83-3.56,3.19
		s-1.23,2.95-1.23,4.75v16.85h-7.44v-30h7.44v6.21c1.07-2.3,2.77-4.09,5.1-5.36s5.17-1.9,8.53-1.9c4.22,0,7.4,0.99,9.55,2.97
		s3.22,4.82,3.22,8.51v19.57h-7.44v-17.84C552.19,1187.06,551.46,1185.05,550.01,1183.67z"/>
	<path class="st88" d="M573.61,1196.24c-0.61,0.16-1.09,0.49-1.45,1s-0.54,1.17-0.54,1.99c0,1.07,0.33,1.91,1,2.5
		s1.68,0.9,3.05,0.92l16.88,0.41c3.32,0.08,5.77,0.8,7.34,2.17s2.36,3.37,2.36,6.01c0,2.05-0.51,3.75-1.54,5.11
		s-2.81,2.41-5.36,3.15s-6.05,1.11-10.5,1.11h-4.78c-4.14,0-7.37-0.38-9.7-1.13s-3.96-1.88-4.91-3.37s-1.43-3.47-1.45-5.93h7.44
		c0.04,1.43,0.37,2.6,0.98,3.52s1.65,1.62,3.09,2.09s3.4,0.72,5.86,0.72h3.46c3.71,0,6.3-0.42,7.78-1.26s2.21-2.03,2.21-3.57
		c0-1.15-0.38-2.06-1.13-2.72s-1.87-1.01-3.35-1.03l-16.7-0.41c-3.07-0.08-5.29-0.65-6.67-1.73s-2.07-2.6-2.07-4.57
		c0-1.66,0.48-2.97,1.45-3.94s2.51-1.59,4.64-1.86c-3.89-1.64-5.83-4.48-5.83-8.53v-0.29c0-3.2,1.31-5.7,3.94-7.49
		s6.96-2.68,12.99-2.68c6.11,0,10.56,0.96,13.33,2.87c-0.04-0.35-0.06-0.62-0.06-0.79c0-1.46,0.46-2.57,1.39-3.33
		s2.22-1.13,3.88-1.13c0.55,0,1.13,0.04,1.76,0.12v4.98c-0.23-0.02-0.54-0.05-0.91-0.09s-0.72-0.06-1.05-0.06
		c-1,0-1.79,0.15-2.37,0.45s-0.94,0.72-1.05,1.25c1.37,1.52,2.05,3.49,2.05,5.89v0.38c0,3.2-1.31,5.69-3.93,7.47
		s-6.96,2.67-13.04,2.67C578.82,1197.11,575.99,1196.82,573.61,1196.24z M589.31,1191.46c1.5-1.09,2.26-2.61,2.26-4.54v-0.29
		c0-1.93-0.75-3.45-2.26-4.54s-3.91-1.64-7.21-1.64c-3.28,0-5.67,0.55-7.18,1.64s-2.26,2.61-2.26,4.54v0.29
		c0,1.93,0.76,3.45,2.27,4.54s3.9,1.64,7.16,1.64C585.4,1193.1,587.8,1192.55,589.31,1191.46z"/>
</g>
</svg>
